<svg xmlns="http://www.w3.org/2000/svg" xmlns:xlink="http://www.w3.org/1999/xlink" width="289.037" height="223.282" viewBox="0 0 289.037 223.282">
  <defs>
    <clipPath id="clip-path">
      <path id="Mask" d="M22.7,0A22.715,22.715,0,1,0,45.4,22.721l-8.925,0A13.777,13.777,0,1,1,22.7,8.93Z" fill="#fff"/>
    </clipPath>
    <clipPath id="clip-path-2">
      <path id="Mask-2" data-name="Mask" d="M0,0H85.2a0,0,0,0,1,0,0V50.6a4,4,0,0,1-4,4H4a4,4,0,0,1-4-4V0A0,0,0,0,1,0,0Z" fill="#f2f6fb"/>
    </clipPath>
  </defs>
  <g id="Group_219" data-name="Group 219" transform="translate(-357.197 -3788.872)">
    <g id="Group_216" data-name="Group 216" transform="translate(-998 3461.822)">
      <g id="UI_Content_Text_1_4" data-name="UI / Content / Text 1 / 4" transform="translate(1575.049 349.483)">
        <g id="Content">
          <g id="Browser">
            <g id="Background">
              <rect id="Background-2" data-name="Background" width="69.186" height="53.043" rx="20" fill="#e1e5f0"/>
            </g>
          </g>
          <g id="Text" transform="translate(63.113 11.999) rotate(90)">
            <path id="Rectangle" d="M1.612,0h0A1.612,1.612,0,0,1,3.224,1.612v22.43a0,0,0,0,1,0,0H0a0,0,0,0,1,0,0V1.612A1.612,1.612,0,0,1,1.612,0Z" transform="translate(25.789 23.857)" fill="#d8deed"/>
            <path id="Rectangle-2" data-name="Rectangle" d="M1.612,0h0A1.612,1.612,0,0,1,3.224,1.612V47.9a0,0,0,0,1,0,0H0a0,0,0,0,1,0,0V1.612A1.612,1.612,0,0,1,1.612,0Z" transform="translate(19.342 0)" fill="#f2f6fb"/>
            <path id="Rectangle-3" data-name="Rectangle" d="M1.612,0h0A1.612,1.612,0,0,1,3.224,1.612v40a0,0,0,0,1,0,0H0a0,0,0,0,1,0,0v-40A1.612,1.612,0,0,1,1.612,0Z" transform="translate(12.894 6.288)" fill="#d8deed"/>
            <path id="Rectangle-4" data-name="Rectangle" d="M1.612,0h0A1.612,1.612,0,0,1,3.224,1.612V27.37a0,0,0,0,1,0,0H0a0,0,0,0,1,0,0V1.612A1.612,1.612,0,0,1,1.612,0Z" transform="translate(6.447 20.528)" fill="#d8deed"/>
            <path id="Rectangle-5" data-name="Rectangle" d="M1.612,0h0A1.612,1.612,0,0,1,3.224,1.612V34.4a0,0,0,0,1,0,0H0a0,0,0,0,1,0,0V1.612A1.612,1.612,0,0,1,1.612,0Z" transform="translate(0 13.5)" fill="#d8deed"/>
          </g>
        </g>
      </g>
      <g id="UI_Charts_Chart_6_2" data-name="UI / Charts / Chart 6 / 2" transform="translate(1418.437 342.555)">
        <g id="Chart" transform="translate(0 0)">
          <rect id="Background-3" data-name="Background" width="78.51" height="59.961" rx="20" transform="translate(0 0.009)" fill="#f2f6fb"/>
          <g id="Graphic" transform="translate(0.224 22.702) rotate(-30)">
            <path id="Oval_8" data-name="Oval 8" d="M0,18.369A18.363,18.363,0,1,1,18.368,36.747,18.356,18.356,0,0,1,0,18.369Z" transform="translate(4.375 4.479)" fill="#e1e5f0"/>
            <g id="Oval_8-2" data-name="Oval 8" transform="translate(0 0)">
              <path id="Mask-3" data-name="Mask" d="M22.7,0A22.715,22.715,0,1,0,45.4,22.721l-8.925,0A13.777,13.777,0,1,1,22.7,8.93Z" transform="translate(0 0)" fill="#fff"/>
              <g id="Oval_8-3" data-name="Oval 8" transform="translate(0 0)" clip-path="url(#clip-path)">
                <path id="Oval_8-4" data-name="Oval 8" d="M24.233.317C11.766-2.157,0,10.285,0,22.83S14.638,48.207,24.233,45.746l.294-9.332c-7.642,0-14.132-5.769-14.132-13.382A13.811,13.811,0,0,1,24.233,9.247Z" transform="translate(-1.176 -0.172)"/>
              </g>
            </g>
          </g>
          <g id="Colors" transform="translate(60.463 20.8)">
            <rect id="Rectangle-6" data-name="Rectangle" width="5.707" height="5.638" rx="2" transform="translate(0 0)"/>
            <rect id="Rectangle_Copy" data-name="Rectangle Copy" width="5.707" height="5.638" rx="2" transform="translate(0 8.256)" fill="#fff"/>
            <rect id="Rectangle_Copy_2" data-name="Rectangle Copy 2" width="5.707" height="5.638" rx="2" transform="translate(0 16.511)" fill="#e1e5f0"/>
          </g>
        </g>
        <path id="Top_bar_Copy" data-name="Top bar Copy" d="M6.782,0H71.419A6.782,6.782,0,0,1,78.2,6.782v0a0,0,0,0,1,0,0H0a0,0,0,0,1,0,0v0A6.782,6.782,0,0,1,6.782,0Z" transform="translate(0 0.009)" fill="#e1e5f0"/>
      </g>
      <g id="UI_Headers_Header_4_1" data-name="UI / Headers / Header 4 / 1" transform="translate(1491.816 327.05)">
        <g id="Header" transform="translate(0 0)">
          <g id="Browser-2" data-name="Browser">
            <g id="Background-4" data-name="Background">
              <rect id="Background-5" data-name="Background" width="88.265" height="65.871" rx="20" fill="#f2f6fb"/>
            </g>
          </g>
          <g id="iMac" transform="translate(1.531 11.205)">
            <path id="Mask-4" data-name="Mask" d="M0,0H85.2a0,0,0,0,1,0,0V50.6a4,4,0,0,1-4,4H4a4,4,0,0,1-4-4V0A0,0,0,0,1,0,0Z" transform="translate(0 0)" fill="#f2f6fb"/>
            <g id="iMac-2" data-name="iMac" transform="translate(0 0)" clip-path="url(#clip-path-2)">
              <g id="Devices_iMac" data-name="Devices / iMac" transform="translate(17.041 17.039)">
                <g id="iMac-3" data-name="iMac" transform="translate(0 0)">
                  <path id="Combined_Shape" data-name="Combined Shape" d="M16.731,13.322V10.843h4.337V6.2H4a4,4,0,0,1-4-4V0H51.122V2.2a4,4,0,0,1-4,4H30.054v4.648h4.337v2.479Z" transform="translate(0 28.811)" fill="#d8deed"/>
                  <path id="Screen" d="M4,0H47.122a4,4,0,0,1,4,4V29.741a0,0,0,0,1,0,0H0a0,0,0,0,1,0,0V4A4,4,0,0,1,4,0Z" fill="#fff"/>
                  <g id="Icons_Mountains" data-name="Icons / Mountains" transform="translate(21.227 12.005)">
                    <path id="Mountains" d="M.273,6.048a.272.272,0,0,1-.232-.414L2.942.919A.272.272,0,0,1,3.4.914L5.568,4.266l.76-1.237a.272.272,0,0,1,.457-.011L8.509,5.552a.272.272,0,0,1-.217.424l-1.736.054H6.55l-.36-.078v.1ZM5.885.751a.735.735,0,1,1,1.471,0,.735.735,0,1,1-1.471,0Z" transform="translate(0 0)" fill="#d8deed"/>
                  </g>
                </g>
              </g>
            </g>
          </g>
          <g id="Text-2" data-name="Text" transform="translate(24.83 16.298)">
            <rect id="Text-3" data-name="Text" width="19.386" height="3.088" rx="1.544" transform="translate(9.693 5.019)" fill="#d8deed"/>
            <rect id="Title" width="38.771" height="3.088" rx="1.544" transform="translate(0 0)" fill="#d8deed"/>
          </g>
        </g>
        <path id="Top_bar_Copy-2" data-name="Top bar Copy" d="M7.47,0H80.795a7.47,7.47,0,0,1,7.47,7.47v0a0,0,0,0,1,0,0H0a0,0,0,0,1,0,0v0A7.47,7.47,0,0,1,7.47,0Z" fill="#e1e5f0"/>
        <ellipse id="Burron_Copy" data-name="Burron Copy" cx="1.616" cy="1.613" rx="1.616" ry="1.613" transform="translate(3.401 2.207)" fill="#ff5645"/>
        <ellipse id="Burron_Copy_2" data-name="Burron Copy 2" cx="1.616" cy="1.613" rx="1.616" ry="1.613" transform="translate(8.673 2.207)" fill="#ffcb3d"/>
        <ellipse id="Burron_Copy_3" data-name="Burron Copy 3" cx="1.616" cy="1.613" rx="1.616" ry="1.613" transform="translate(14.116 2.207)" fill="#3abf7c"/>
      </g>
      <g id="Group" transform="translate(1465.457 404.337)">
        <g id="Chair_2" data-name="Chair 2" transform="translate(6.679 34.878)">
          <path id="Path" d="M40.505,57.361V.922c0-.5-8.7-.922-19.162-.922h-2.18C8.722,0,0,.419,0,.922V57.4c0,.5,8.7.922,19.162.922h2.18C31.784,58.347,40.505,57.907,40.505,57.361Z" transform="translate(21.861 0)" fill="#d8deed"/>
          <path id="Path-2" data-name="Path" d="M.5,46.679l.084.042A.907.907,0,0,0,1.8,46.428l24.551-45.1a.866.866,0,0,0-.4-1.174L25.865.115a.907.907,0,0,0-1.216.294L18.57,11.562Q12.626,22.506,6.661,33.429L.1,45.463A.92.92,0,0,0,.5,46.679Z" transform="translate(0 60.832)" fill="#d8deed"/>
          <path id="Path-3" data-name="Path" d="M58.473,0H.943A.949.949,0,0,0,0,.922v.1a.935.935,0,0,0,.943.922H58.515a.949.949,0,0,0,.943-.922v-.1A.959.959,0,0,0,58.473,0Z" transform="translate(2.971 60.213)" fill="#d8deed"/>
          <path id="Path-4" data-name="Path" d="M26.348,45.473,19.785,33.438Q13.842,22.494,7.877,11.571L1.8.418A.888.888,0,0,0,.581.124L.5.166A.872.872,0,0,0,.1,1.34l24.551,45.1a.888.888,0,0,0,1.216.294l.084-.042A.92.92,0,0,0,26.348,45.473Z" transform="translate(42.602 60.822)" fill="#d8deed"/>
        </g>
        <g id="Man_sitting_3" data-name="Man sitting / 3" transform="translate(0 0)">
          <g id="Man" transform="translate(0 0)">
            <g id="Legs" transform="translate(0 63.983)">
              <path id="Base" d="M41.176,1.887a.882.882,0,0,1-.922-.8V.8a.869.869,0,0,1,.922-.8H62.181A.882.882,0,0,1,63.1.8v.29a.825.825,0,0,1-.9.8Zm-40.232,0A.953.953,0,0,1,0,.943.94.94,0,0,1,.944,0H34.278a.943.943,0,1,1,0,1.887Z" transform="translate(0 78.028)" fill="#ff5645"/>
              <path id="Shoes" d="M34.063,13.945h0a.948.948,0,0,0-.362-.071H.366a.959.959,0,0,0-.247.032,1.088,1.088,0,0,1-.11-.3v-.021c0-.035,0-.071,0-.1a.8.8,0,0,1,0-.21c.007-.04.011-.078.016-.115a1.148,1.148,0,0,1,.047-.242,5.172,5.172,0,0,1,1.489-2.18.677.677,0,0,1,.131-.1l.036-.024A24.838,24.838,0,0,1,4.58,9.078c.765-.349,1.884-.837,3.07-1.354,1.792-.781,3.643-1.588,4.415-1.98A22.774,22.774,0,0,0,18.4.922l.293-.147L33.156,0l.01.024c.171.4.262.614.262.626L34.162,13.5a1.028,1.028,0,0,1-.1.443Zm6.212-.021h0l1.937-11.2L56.025.1,61.847,13.9a1.006,1.006,0,0,0-.244-.03H40.6a1.043,1.043,0,0,0-.323.05Z" transform="translate(0.578 64.154)" fill="#474961"/>
              <path id="Legs-2" data-name="Legs" d="M37.415,66.406a3.592,3.592,0,0,1-.787-1.653C36.145,61.9,34.956,57.123,33.5,51.4q.931,4.306,1.811,8.618a4.309,4.309,0,0,1-.251,2.761c-1.005,2.014-3.623,1.93-9.885,2.719-7.372.955-10.45,1.931-12.125-.083a3.6,3.6,0,0,1-.817-1.64C10.707,55.615,3.126,31.888.173,14.865c0-.042-.021-.062-.021-.1A9.583,9.583,0,0,1,8.005,3.407l5.215-.685a9.032,9.032,0,0,1,.955-.072l0-.007L39.651.262,64.438,0c.063,2.8.633,13.432.424,17.425-.331,6.31-1.754,12.375-8.8,13.76-.765.052-1.6.065-2.487.044,2.2,9.848,4.314,20.037,6.192,30.163a4.306,4.306,0,0,1-.3,2.755c-1.041,2-3.657,1.868-9.931,2.549-4.08.458-6.85.944-8.79.944A3.85,3.85,0,0,1,37.415,66.406Z" transform="translate(1.085 0)" fill="#ff5a6e"/>
              <path id="Shadow_Legs" data-name="Shadow Legs" d="M39.238,31.238h0c-.27,0-.551,0-.834-.01-1.455-6.528-3.033-13.3-4.691-20.129A9.61,9.61,0,0,0,24.5,3.564a9.077,9.077,0,0,0-1,.056l-.181.021-.168.019-4.877.556A9.007,9.007,0,0,0,12.121,7.76a10.164,10.164,0,0,0-1.9,7.671.153.153,0,0,0,.01.052.153.153,0,0,1,.01.052c.248,1.6.548,3.334.892,5.154C10.242,17.158,9.311,13.527,8.361,9.9A9.733,9.733,0,0,0,0,2.554L24.532.262,49.319,0c.017.756.07,2.056.137,3.7.175,4.305.44,10.811.287,13.724a33.04,33.04,0,0,1-.524,4.617,15.313,15.313,0,0,1-1.358,4.11,10.1,10.1,0,0,1-1.125,1.734,8.808,8.808,0,0,1-1.492,1.452,9.214,9.214,0,0,1-1.913,1.117,11.6,11.6,0,0,1-2.387.73C40.42,31.22,39.846,31.238,39.238,31.238Z" transform="translate(16.252 0.037)" fill="#444" opacity="0.177"/>
              <path id="Shadow_Legs-2" data-name="Shadow Legs" d="M.008.386l9.94,42.723a.314.314,0,1,0,.613-.143L.621.243A.314.314,0,0,0,.008.386Z" transform="translate(26.07 16.174)" fill="#482d1f"/>
            </g>
            <g id="Body" transform="translate(17.808 0)">
              <path id="T-shirt" d="M11.153,46.926c-2.1-1.992-2-8.743-2-8.743q.056-1.593.112-3.061c-2.446-.662-8.355-2.409-9.022-4-.844-2.011.713-6.207,1.09-7.3.734-2.076,2.363-5.733,2.748-7.614C5.279,10.387,6.872,8.73,7.438,8.164a13.737,13.737,0,0,1,7.489-3.6c1.915-.27,8.99-.745,8.99-.745.043,0,.056.056.043.168A31.276,31.276,0,0,1,28,3.892,20.132,20.132,0,0,1,38.8,0c6.385-.111,6.975,1.9,5.858,5.841a1.425,1.425,0,0,1-.057.163l.118.08a11.423,11.423,0,0,1,1.7,1.426c.566.566,1.639.877,2.981,6.1.482,1.845,1.065,6.452,3.12,9.564s3.2,6.6,0,8.905c-2.5,1.8-4.714,1.993-8.709,2.629a36.808,36.808,0,0,1-.034,8.819,10.437,10.437,0,0,1,.35,2.747s-10.413.252-12.405.314c-2.416.078-7.933.553-14.011.553C15.554,47.143,13.333,47.084,11.153,46.926Z" transform="translate(1.229 18.019)" fill="#d71e3c"/>
              <path id="Shadow" d="M.209,34.652a1.258,1.258,0,0,1,.66-1.069l3.758-2.026.559-3.747a1.677,1.677,0,0,1,1.659-1.43H17.083a1.677,1.677,0,0,1,1.664,1.471l.451,3.634,2.873,1.658a1.258,1.258,0,0,1,.629,1.089v6.406l-22.7.8ZM32.658,6.058a13.6,13.6,0,0,0-7.242-2.206.267.267,0,0,0-.126-.021l-7.443-.1-.209-.009c-.128-.006-.229-.011-.3-.011-.1,0-.138.009-.148.03s.044.09.148.2c.043.044.091.094.146.154-.466-.072-.945-.121-1.463-.149A20.147,20.147,0,0,1,26.879,0c.166,0,.331,0,.49,0a12.993,12.993,0,0,1,3.486.373,3.324,3.324,0,0,1,1.823,1.106A2.864,2.864,0,0,1,33.19,3.31a10,10,0,0,1-.453,2.535,1.43,1.43,0,0,1-.079.212h0Z" transform="translate(13.21 18.106)" fill="#444" opacity="0.177"/>
              <path id="Skin" d="M.009,65.208h0a7.722,7.722,0,0,1,.182-2.083,9.1,9.1,0,0,1,.663-1.909,10.327,10.327,0,0,1,1.161-1.883l.991-7.683.323-2.118,7.2,2.406-.118,3.847a28.442,28.442,0,0,1,3.9-.266,31.221,31.221,0,0,1,6.091.612l.23.048c6.225-1.342,14.851-3.1,20.6-3.859l-2.74-10.21a18.154,18.154,0,0,0,.885,2.406,30.389,30.389,0,0,1,1.106,4.459,26.926,26.926,0,0,0,.78,3.254h0c1.949-.4,3.542-.643,4.947-.861,3.327-.516,5.334-.827,7.59-2.454a5.4,5.4,0,0,0,1.124-1.068,31.085,31.085,0,0,1,.806,6.811,14.651,14.651,0,0,1-.39,3.306,9.054,9.054,0,0,1-1.245,2.9,7.512,7.512,0,0,1-2.319,2.217,10.4,10.4,0,0,1-3.639,1.313L13.95,63.917.009,65.208Zm24.5-43.013a.4.4,0,0,1-.216-.426l.617-3.6c-1.146.19-1.079.161-1.191.176a7.952,7.952,0,0,1-2.662-.261,3.428,3.428,0,0,1-1.887-2.161A16.755,16.755,0,0,1,18.13,9.293a6.936,6.936,0,0,1,.092-1.135l.634-3.7A5.02,5.02,0,0,1,19.9,2.183a3.626,3.626,0,0,1,.7-.719C23.317-.911,27.148.261,27.827.5c.078.037.161.053.239.089a9.418,9.418,0,0,0,2.146.716c.716.161,5.1,8.253,5.1,8.7.007.577-1.272,2.018-2.707,3.514l-1.457,8.811a.389.389,0,0,1-.253.314,7.37,7.37,0,0,1-2.419.469q-.129,0-.256,0A8.039,8.039,0,0,1,24.507,22.195Z" transform="translate(0 1.179)" fill="#db9e75"/>
              <path id="Shadow-2" data-name="Shadow" d="M30.8,12.979C30.026,10.242,27.555,1.951,27.032.416a.314.314,0,0,1,.6-.2c.528,1.549,3,9.847,3.779,12.6a.314.314,0,1,1-.605.171ZM.275,13.206A.315.315,0,0,1,0,12.854L1.5,1.009a.314.314,0,1,1,.624.079L.626,12.933a.314.314,0,0,1-.311.275Z" transform="translate(10.211 40.224)" fill="#482d1f"/>
              <path id="Shadow-3" data-name="Shadow" d="M0,.6,1.49,0,.048,2.734Z" transform="translate(25.024 18.752) rotate(11)" fill="#482d1f"/>
              <path id="Hair" d="M15.417,15.886c-.548-.027-1.032-.463-1.44-1.3a11.479,11.479,0,0,1-.841-2.8,5.863,5.863,0,0,0,1.077-.226,3.095,3.095,0,0,0,1.363-4.549,2.921,2.921,0,0,0-2.289-1.234,2.039,2.039,0,0,0-.646.1,2.367,2.367,0,0,0-.969.654l-.016.017a3.5,3.5,0,0,0-.317.475L0,6.344H0A7.37,7.37,0,0,1,.274,4.313a6.2,6.2,0,0,1,.775-1.747A4.886,4.886,0,0,1,2.636,1.035,7.5,7.5,0,0,1,4.014.447,8.429,8.429,0,0,1,6.031.03c.321-.02.658-.03,1-.03A25.993,25.993,0,0,1,10.2.227c.242.029.432.052.558.062.018,0,.041,0,.07,0,.108,0,.285-.011.51-.025l.325-.02C11.992.226,12.5.2,13.061.2a9.667,9.667,0,0,1,4.249.777A4.324,4.324,0,0,1,18.7,2.235a6.159,6.159,0,0,1,.869,1.717,7.182,7.182,0,0,1,.325,1.658,6.679,6.679,0,0,1-.155,2.18A24.293,24.293,0,0,1,18,12.054a27.839,27.839,0,0,1-2.584,3.832ZM5.073,8.465A.264.264,0,0,1,4.968,8a1.463,1.463,0,0,1,.964-.335c.86,0,1.782.587.818.818a2.367,2.367,0,0,1-.7.1A4.942,4.942,0,0,1,5.073,8.465ZM.754,8.318a.275.275,0,0,1-.126-.461,1.445,1.445,0,0,1,.943-.335c.859,0,1.782.566.818.818a2.574,2.574,0,0,1-.724.1A3.706,3.706,0,0,1,.754,8.318Z" transform="translate(19.932 0) rotate(11)" fill="#482d1f"/>
              <path id="Eyes" d="M.082.3C.187.026.334-.016.5,0A.52.52,0,0,1,.921.529,2.189,2.189,0,0,1,.628,1.682a.206.206,0,0,1-.138.057C.167,1.739-.156.866.082.3ZM3.793.34C3.877.067,4.024,0,4.192,0a.5.5,0,0,1,.482.461,2.041,2.041,0,0,1-.189,1.195.2.2,0,0,1-.149.074C4.018,1.735,3.614.915,3.793.34Z" transform="translate(19.603 9.388) rotate(11)" fill="#482d1f"/>
              <path id="Mouth" d="M1.363.609c.147-.042.5-.147.566-.377,0-.042.021-.1,0-.147C1.845-.062,1.593.022,1.216.043A7.657,7.657,0,0,1,0,.022,2.727,2.727,0,0,0,.252.567C.482.881,1.153.672,1.363.609Z" transform="translate(20.369 13.79) rotate(11)" fill="#482d1f"/>
              <path id="Nose" d="M.005,3.661a.46.46,0,0,0,.383.508l.086.007c.354.027.575.037.955.037a.21.21,0,1,0,0-.419c-.368,0-.579-.01-.922-.036L.439,3.753A.147.147,0,0,1,.42,3.724L.735,1.476l0-.029V.21a.21.21,0,1,0-.419,0V1.432Z" transform="translate(20.959 8.759) rotate(11)" fill="#482d1f"/>
              <path id="Shadow_Arm" data-name="Shadow Arm" d="M0,9.783A16.652,16.652,0,0,1,4.4,7.346,25.405,25.405,0,0,1,8.34,6.257l.14-3.851L1.284,0Z" transform="translate(2.046 50.711)" fill="#8c2a00" opacity="0.2"/>
            </g>
          </g>
        </g>
        <g id="Woman_sitting_5" data-name="Woman sitting / 5" transform="translate(65.984 3.779)">
          <g id="Woman_" data-name="Woman " transform="translate(0 0)">
            <g id="Legs-3" data-name="Legs" transform="translate(0 62.372)">
              <path id="Base-2" data-name="Base" d="M52.219,16.465l0-.125a.9.9,0,0,1,.9-.865l11.506-.026L85.131.16A.783.783,0,0,1,85.595,0a.928.928,0,0,1,.77.349l.061.105a.852.852,0,0,1-.168,1.214L65.394,17.3l-12.289.037A.9.9,0,0,1,52.219,16.465ZM.943,17.333a.944.944,0,0,1,0-1.887h32.5a.944.944,0,1,1,0,1.887Z" transform="translate(0 60.402)" fill="#ffcb3d"/>
              <path id="Shoes-2" data-name="Shoes" d="M33.144,26.108h0a.938.938,0,0,0-.361-.072H.285A.942.942,0,0,0,0,26.08a1.529,1.529,0,0,1,.034-.2,3.286,3.286,0,0,1,1.509-2.286,26.557,26.557,0,0,1,2.914-1.635c1.554-.764,2.666-1.2,3.646-1.587A16.828,16.828,0,0,0,11.88,18.48a19.742,19.742,0,0,0,2.788-2.349A41.468,41.468,0,0,1,18.4,13.322L35.91,13.9l-2.766,12.2Zm19.316-.042h-.021a.991.991,0,0,1-.076-.391c.008-.051.014-.1.02-.161a2.117,2.117,0,0,1,.051-.32,3.418,3.418,0,0,1,1.659-2.237l.347-.218a21.39,21.39,0,0,1,2.452-1.395c1.557-.752,2.672-1.173,3.655-1.545.263-.1.512-.193.755-.288.176-.3.335-.6.486-.916a29.174,29.174,0,0,0,1.429-4.228c.373-1.621,1.077-3.855,1.084-3.877l.3-1.171L77.467,0l7.374,10.6a.834.834,0,0,0-.369.154L63.965,26.04l-11.506.026Z" transform="translate(0.658 49.756)" fill="#474961"/>
              <path id="Legs-4" data-name="Legs" d="M18.5,56.565,1.857,54.091A2.177,2.177,0,0,1,.2,51.031c3.082-6.772,8.551-25.865,9.306-27.584.256-.58.5-1.193.727-1.83a25.068,25.068,0,0,1-3.721-5.954A12.93,12.93,0,0,1,5.15,10.107a10.757,10.757,0,0,1,4.906-8.868A9.036,9.036,0,0,1,14.628.1c1.4-.042,9.817,0,9.817,0l.008.01H25.3L53.6.043s18-.091,18.862-.007a11.144,11.144,0,0,1,5.9,6.381,24.581,24.581,0,0,1,.923,8.491,16.412,16.412,0,0,1-2.1,7.4,14.425,14.425,0,0,1-8.2,6.415c-3.229,1.09-6.394.587-10.294.231h-.042c-.147-.021-.44-.084-.8-.147l-.713-.126c-.4-.084-.755-.147-.923-.168h-.042c-3.606-.65-6.814-1.237-10.021-1.845l-.147-.021-.537-.105c.56.764,1.092,1.5,1.588,2.2,1.384,1.95,2.725,3.9,4.025,5.828l5.262,7.443a2.4,2.4,0,0,1-.8,3.438L49.073,49.48l-5.87,3.9-1.153.734a2.6,2.6,0,0,1-3.438-.545c-1.992-2.642-3.459-4.633-6-7.883-1.6-2.061-.6-.637-5.672-5.918-1.955,5.507-4.493,12.805-6.259,15.771a2.136,2.136,0,0,1-1.859,1.05A2.275,2.275,0,0,1,18.5,56.565Z" transform="translate(19.801 0)" fill="#ff5a6e"/>
              <path id="Shadow_Legs-3" data-name="Shadow Legs" d="M35.456,54.469h0a2.622,2.622,0,0,1-1.109-.244,2.344,2.344,0,0,1-.884-.714c-.446-.592-.867-1.153-1.274-1.695-1.415-1.885-2.752-3.665-4.722-6.188a12.066,12.066,0,0,0-1.641-1.854c-.623-.6-1.667-1.6-4.107-4.142a57.673,57.673,0,0,1,2.556-6.573,25.083,25.083,0,0,0,1.447-2.949,17.363,17.363,0,0,1,1.5-2.961c.42-.567,1.124-1.515,1.992-2.6l.014,0c.923.123,1.877.251,2.816.4.592.105,1.2.217,1.778.324.7.129,1.423.263,2.142.389,1.39.253,2.878.526,4.347.812.575.784,1.112,1.53,1.6,2.216,1.3,1.836,2.62,3.743,4.025,5.828L51.2,41.96a2.257,2.257,0,0,1,.381,1.769,2.453,2.453,0,0,1-.4.928,2.667,2.667,0,0,1-.782.742l-6.478,4.025-5.87,3.9-1.153.734A2.747,2.747,0,0,1,35.456,54.469Zm-30.441-33h0a24.956,24.956,0,0,1-3.65-5.861A12.981,12.981,0,0,1,0,10.051,10.912,10.912,0,0,1,.341,7.58a11.335,11.335,0,0,1,.927-2.435,10.528,10.528,0,0,1,1.52-2.2,9.591,9.591,0,0,1,2.12-1.763A7.147,7.147,0,0,1,7.2.273a12.346,12.346,0,0,1,1.9-.227h0c.147-.009.286-.018.413-.028C9.922.006,10.986,0,12.672,0c2.871,0,6.6.018,6.632.019h-.465a4.08,4.08,0,0,0-2.431.662c-.189.1-.4.218-.652.344A22.509,22.509,0,0,0,12.57,2.913,9.728,9.728,0,0,0,9.195,7.127a1.021,1.021,0,0,0-.063.147A53.592,53.592,0,0,0,7.214,13.8c-.658,2.589-1.337,5.266-2.2,7.67Z" transform="translate(24.949 0.056)" fill="#444" opacity="0.177"/>
              <path id="Shadow-4" data-name="Shadow" d="M.063.5A20.36,20.36,0,0,0,1.929,2.814a20.055,20.055,0,0,1,1.8,2.239.314.314,0,1,0,.5-.378A20.36,20.36,0,0,0,2.369,2.364,20.055,20.055,0,0,1,.566.126.314.314,0,1,0,.063.5Z" transform="translate(50.107 19.687)" fill="#482d1f"/>
            </g>
            <g id="Body-2" data-name="Body" transform="translate(14.195 0)">
              <path id="T-shirt-2" data-name="T-shirt" d="M27.833,23.244l6.2-1.944c.425-.522,4.052-7.533-3.283-10.974a28.267,28.267,0,0,0-1.71-2.676c-1.887-2.642-3.438-4.78-6.206-6.059A10.884,10.884,0,0,0,19.739.7,10.954,10.954,0,0,0,15.221.019L10.4.313A10.943,10.943,0,0,0,.022,11.907l.021.377L.652,23.636l.536,10.88.3,2.088a3.748,3.748,0,0,0,.042.482c.021.189.042.356.063.545.063.482,1.468,3.669,1.551,3.858l26.4.042Z" transform="translate(48.526 20.937)" fill="#d71e3c"/>
              <path id="Skin-2" data-name="Skin" d="M17.51,125.519,0,124.938l3.025-8.909,16.128,2.4c.062.009.124.015.187.019l-1.83,7.074h0Zm28.867-4.386h0l-3.632-5.188,1.107-.7,5.87-3.9,6.394-3.973,3.369,4.869-13.108,8.9ZM38.318,61.956l-.082-.063a44.469,44.469,0,0,1-7.85-1.5c.8.233,1.64.449,2.485.64h0L21.719,59.56c-1.163-.3-3.647-.976-6.278-1.686l-.4-.107-.007,0c-1.505-.407-3.062-.827-4.47-1.205L6.9,55.6c-1.809-.473-3.28-.864-4-1.056l-.04-.011-.011,0a1.663,1.663,0,0,1,.931-1.475,4.314,4.314,0,0,1,1.987-.383,13.62,13.62,0,0,1,2.973.391c1.1.053,2.25.114,3.177.163h.016l.057,0c1.083.057,2.2.116,3.312.169.351-.092.886-.225,1.494-.323l-.029-.028a.877.877,0,0,1-.329-.69c.038-.372.456-.715,1.244-1.018a20.33,20.33,0,0,1,4.372-.921,16.462,16.462,0,0,1,2.105-.138,17.52,17.52,0,0,1,4.931.761l11.466-2.128L40.54,48.9l3.493-9.93.33,5.563.021.21.407,6.976c.474-.079,1.011-.166,1.62-.262C53.4,50.368,59.163,49.57,63.4,49l0,0c-.181-.329-.589-1.178-1.247-2.595.144.007.293.012.442.015l14.916-4.678c.131.352.265.713.4,1.073l.159.433c2.375,6.476,3.683,10.044,3.394,12.529l.051.007a.483.483,0,0,0-.07.142c-.013.086-.027.172-.044.257l-.025-.01-.024-.009a7.948,7.948,0,0,1-1.222,2.086,13.252,13.252,0,0,1-3.563,3.008c-.817.492-2.759.858-5.771,1.086-2.54.192-5.87.29-9.9.29C50.445,62.629,38.438,61.963,38.318,61.956ZM52.184,21.091h0l.23-3.116-.271.043c-1.871.31-1.764.276-1.891.288a8.152,8.152,0,0,1-2.671-.271c-1.689-.5-3.014-4.078-2.915-8.8a10.19,10.19,0,0,1,.1-1.128l.637-3.7A4.755,4.755,0,0,1,46.421,2.17a4.69,4.69,0,0,1,.7-.708C49.852-.91,53.679.261,54.356.5l.247.08a9.722,9.722,0,0,0,2.157.718.615.615,0,0,1,.475.727L56.193,7.288c-.028.143.29.068.758-.007,1.155-.186,3.226-.372,3.276,2.728a2.9,2.9,0,0,1-1.067,2.647l-.32,2.461L58.708,17l-.249,3.568-4.43.27a11.246,11.246,0,0,0-1.844.255Z" transform="translate(4.863 0.512)" fill="#f2a98a"/>
              <path id="Path-5" data-name="Path" d="M14.6,12.2a3.132,3.132,0,0,1-1.489.671.649.649,0,0,0-.5.419l-1.153,3.669a.819.819,0,0,1-.21.084,21.174,21.174,0,0,1-3.166.9c-1.845.44-1.74.4-1.866.419a8.154,8.154,0,0,1-2.684-.084C1.812,17.9.239,14.417.009,9.7A10.2,10.2,0,0,1,.03,8.568L.407,4.836a4.757,4.757,0,0,1,.86-2.306,4.69,4.69,0,0,1,.65-.755C4.474-.782,8.374.119,9.066.308l.252.063a9.73,9.73,0,0,0,2.2.566.615.615,0,0,1,.524.692l-.671,5.325c-.063.5,3.84-1.909,4.214,2.432A2.914,2.914,0,0,1,14.6,12.2Z" transform="matrix(0.998, 0.07, -0.07, 0.998, 50.201, 0)" fill="#f2a98a"/>
              <path id="Shadow-5" data-name="Shadow" d="M.03,2.3,2.411,0,0,.582Z" transform="matrix(1, 0.017, -0.017, 1, 57.11, 17.855)" fill="#482d1f"/>
              <path id="Hair-2" data-name="Hair" d="M15.111,18.144a4.145,4.145,0,0,0,2.523-.717c.416-.307,1.147-2.542,1.854-4.7.309-.944.6-1.836.854-2.53l.01-.028a9.5,9.5,0,0,0,.524-2.25,5.891,5.891,0,0,0-.62-3.4,5.026,5.026,0,0,0-1.3-1.541,6.814,6.814,0,0,0-3.418-1.236c-.676-.125-1.442-.268-2.388-.494-.628-.147-1.594-.385-2.721-.758a1.055,1.055,0,0,1-.247-.059A8.987,8.987,0,0,0,7.428,0,7.316,7.316,0,0,0,5.281.3,5.61,5.61,0,0,0,3.173,1.479c-.237.219-.34.335-.341.337l0,0a7.38,7.38,0,0,0,1.324.874,7.962,7.962,0,0,0,3.116.622c.208,0,.419-.008.625-.024a8.8,8.8,0,0,0,.652,1.79,9.135,9.135,0,0,0,3.141,3.555A4.5,4.5,0,0,1,12.9,7.78a2.127,2.127,0,0,1,.847-.172,1.935,1.935,0,0,1,.277.02,2.6,2.6,0,0,1,2.009,2.221,2.909,2.909,0,0,1-1.158,2.735,3.085,3.085,0,0,1-1.828.58c-.516,1.851-1.416,4.239-1.425,4.262l0,0a10.086,10.086,0,0,0,1.072.357,9.382,9.382,0,0,0,2.41.359Zm-13-1.53A11.92,11.92,0,0,1,.9,12.366a2.843,2.843,0,0,0-.836,2.451c.278.921,1.169,1.361,2.03,1.786l.022.011h0Z" transform="translate(48.775 0.434)" fill="#482d1f"/>
              <path id="Shadow-6" data-name="Shadow" d="M8.689,13.239a.314.314,0,0,0-.125-.427l-2.621-1.43a.314.314,0,1,0-.3.552l2.621,1.43a.314.314,0,0,0,.427-.125Zm-3.641-4a.314.314,0,0,0-.2-.395A6,6,0,0,1,1.649,6.524,6.217,6.217,0,0,1,.811,1.536c.058-.272.127-.523.2-.752.048-.148.079-.234.127-.356A.315.315,0,0,0,.552.2C.5.333.465.43.413.591A8.409,8.409,0,0,0,.2,1.4a6.825,6.825,0,0,0,.936,5.478A6.605,6.605,0,0,0,4.653,9.442a.314.314,0,0,0,.395-.2Z" transform="translate(62.438 37.871)" fill="#482d1f"/>
              <path id="Shadow_Arm-2" data-name="Shadow Arm" d="M30.02,22.059h0c-.845-.192-1.681-.407-2.485-.64a23.5,23.5,0,0,1-3.776-1.545C22.607,19.3,21.346,18.6,20.011,17.8c-2.22-1.337-3.944-2.55-4.016-2.6h0a8.792,8.792,0,0,1-1.223-.536,3.79,3.79,0,0,1-.808-.558c-.614.1-1.156.233-1.51.325-1.108-.053-2.229-.112-3.312-.169l-.057,0H9.068c-.928-.049-2.082-.11-3.177-.163A13.623,13.623,0,0,0,2.918,13.7a4.315,4.315,0,0,0-1.987.383A1.663,1.663,0,0,0,0,15.56l.011,0,.04.011c.716.191,2.187.583,4,1.056l3.672.957c1.408.378,2.964.8,4.47,1.205l.007,0,.4.107c2.631.711,5.115,1.382,6.278,1.686Zm3.023-7.48h0c1.987-.433,3.213-.671,4.1-.8a6.16,6.16,0,0,0,1.036-.221,29.936,29.936,0,0,1,3.766-.776l-.409-7.014-.021-.21L41.183,0,37.69,9.93l.017.015L26.185,12.083c.713.2,1.426.425,2.181.663l.176.056c.993.313,2.507.911,4.5,1.777Z" transform="translate(7.609 39.485)" fill="#8c2a00" opacity="0.2"/>
              <path id="Notepad" d="M30.31,10.248a1.2,1.2,0,0,0,.349-.052c-.925-.483-1.914-1.041-2.941-1.659-1.811-1.089-3.275-2.086-3.82-2.464L1.507.04A1.178,1.178,0,0,0,1.2,0,1.208,1.208,0,0,0,.163,1.814,1.189,1.189,0,0,0,.9,2.367L30,10.208A1.245,1.245,0,0,0,30.31,10.248Z" transform="translate(0 48.708)" fill="#474961"/>
              <path id="Eyes-2" data-name="Eyes" d="M.026.594C.108.292.269.168.446.178A.534.534,0,0,1,1,.667,2.6,2.6,0,0,1,.882,1.976a.211.211,0,0,1-.176.1C.364,2.079-.118,1.212.026.594ZM4.654.417c.082-.3.244-.425.42-.416a.534.534,0,0,1,.549.489A2.6,2.6,0,0,1,5.51,1.8a.211.211,0,0,1-.176.1C4.992,1.9,4.51,1.035,4.654.417Z" transform="translate(50.108 7.966) rotate(9)" fill="#482d1f"/>
              <path id="Nose-2" data-name="Nose" d="M.189.19,0,2.223a.476.476,0,0,0,.439.493,5.745,5.745,0,0,0,.611,0c.167,0,.281,0,.416,0a.21.21,0,1,0,0-.419c-.138,0-.255,0-.424,0a5.692,5.692,0,0,1-.588,0,.077.077,0,0,1-.037-.055L.606.229A.21.21,0,0,0,.189.19Z" transform="matrix(0.978, 0.208, -0.208, 0.978, 51.876, 8.926)" fill="#482d1f"/>
              <path id="Mouth-2" data-name="Mouth" d="M1.359.628c.14-.046.479-.206.519-.436,0-.046.02-.115,0-.138C1.8-.06,1.538.031,1.179.1A7.461,7.461,0,0,1,0,.215a3.367,3.367,0,0,0,.28.5C.5.995,1.139.719,1.359.628Z" transform="matrix(0.978, 0.208, -0.208, 0.978, 51.588, 12.295)" fill="#482d1f"/>
              <path id="Glasses" d="M2.782,6.154A2.935,2.935,0,0,1,2.933.288c.052,0,.1,0,.156,0a2.936,2.936,0,0,1,2.756,2.54l.683-.057A2.933,2.933,0,0,1,9.456,0c.052,0,.1,0,.156,0A2.935,2.935,0,0,1,12.2,1.875q.018.047.035.095l1.534-.728a.314.314,0,1,1,.27.568l-1.6.762a.316.316,0,0,1-.056.02,2.973,2.973,0,0,1,.016.5A2.933,2.933,0,0,1,9.461,5.87c-.052,0-.1,0-.156,0a2.9,2.9,0,0,1-1.79-.732,2.95,2.95,0,0,1-.94-1.652L6.568,3.4l-.715.059v.084A2.936,2.936,0,0,1,2.938,6.158C2.886,6.158,2.834,6.157,2.782,6.154ZM.632,3.1A2.309,2.309,0,0,0,2.814,5.526c.041,0,.082,0,.123,0A2.306,2.306,0,0,0,3.056.92c-.041,0-.082,0-.123,0A2.3,2.3,0,0,0,.632,3.1Zm6.523-.288A2.306,2.306,0,0,0,9.338,5.238c.041,0,.082,0,.123,0A2.306,2.306,0,0,0,9.579.632c-.041,0-.082,0-.123,0h0A2.3,2.3,0,0,0,7.155,2.814Z" transform="translate(47.057 5.09) rotate(9)" fill="#482d1f"/>
            </g>
          </g>
        </g>
        <g id="Chair" transform="translate(105.95 34.373)">
          <path id="Path-6" data-name="Path" d="M.5,46.679l.084.042A.907.907,0,0,0,1.8,46.428l24.551-45.1a.866.866,0,0,0-.4-1.174L25.865.115a.907.907,0,0,0-1.216.294L18.57,11.562Q12.626,22.506,6.661,33.429L.1,45.463A.92.92,0,0,0,.5,46.679Z" transform="translate(0 60.889)" fill="#d8deed"/>
          <path id="Path-7" data-name="Path" d="M50.308,0H.812A.887.887,0,0,0,0,.922v.1a.875.875,0,0,0,.812.922H50.344a.887.887,0,0,0,.812-.922v-.1A.891.891,0,0,0,50.308,0Z" transform="translate(10.519 60.271)" fill="#d8deed"/>
          <path id="Path-8" data-name="Path" d="M26.348,45.473,19.785,33.438Q13.842,22.494,7.877,11.571L1.8.418A.888.888,0,0,0,.581.124L.5.166A.872.872,0,0,0,.1,1.34l24.551,45.1a.888.888,0,0,0,1.216.294l.084-.042A.92.92,0,0,0,26.348,45.473Z" transform="translate(42.602 60.88)" fill="#d8deed"/>
          <path id="Path-9" data-name="Path" d="M-37.6.929l-1.992,16.1q-1.824,14.623-3.627,29.226l-1.845,14.927a.991.991,0,0,0,.8,1.111l.1.021a.971.971,0,0,0,1.048-.881l7.485-60.3a.991.991,0,0,0-.8-1.111l-.1-.021A1,1,0,0,0-37.6.929Z" transform="translate(104.674 0)" fill="#d8deed"/>
        </g>
        <rect id="Rectangle-7" data-name="Rectangle" width="164.998" height="2.935" rx="1.468" transform="translate(0.153 63.81)" fill="#d8deed"/>
      </g>
      <g id="Characters_standing_Woman_standing_2" data-name="Characters standing / Woman standing / 2" transform="translate(1355.197 363.204)">
        <g id="Woman" transform="translate(0)">
          <path id="Base-3" data-name="Base" d="M48.835,1.887a.944.944,0,0,1,0-1.887H82.17a.944.944,0,0,1,0,1.887Zm-47.89,0A.857.857,0,0,1,0,1.089V.8A.9.9,0,0,1,.945,0H22.434a.882.882,0,0,1,.943.8v.291a.9.9,0,0,1-.943.8Z" transform="translate(3.474 185.241)" fill="#3abf7c"/>
          <path id="Legs-5" data-name="Legs" d="M17.025,116.521c-.718-.028-1.461-.1-2.2-.174-4.842-1.005-8.223-1.921-13.066-2.926-.945-.217-2.377-2.2-1.463-5.466S4.013,85.845,6.272,72.014a29.33,29.33,0,0,1,.145-6.671c.351-2.537,6.483-45,7.2-49.169.561-7.811,4.371-11.219,8.758-12.661,1.173-.386,2.06-1.754,3.833-2.343C28.063.553,33.255.3,36.544.2a14.689,14.689,0,0,1,9.027,1.43c1.171.675,2.717,2.167,4.6,5.719S63.049,44.729,63.28,50.982c2.013,5.76,3.669,11.157,4.633,14.455a27.264,27.264,0,0,1,.964,6.1c2.327,18.566,11.678,35.248,7.317,39.317-.671.621-4.256,1.328-11.426,2.762-.461.086-.881.171-.881.171-1.782.343-3.459.6-5.136.835a71.1,71.1,0,0,1-16.919.857C40,115.337,38.063,78,37.212,59.477l-2.757,54.082a2.516,2.516,0,0,1-2.319,2.38l-9.918.767C20.531,116.671,18.824,116.638,17.025,116.521Z" transform="translate(0 51.357)" fill="#ff5a6e"/>
          <path id="Shadow_Legs-4" data-name="Shadow Legs" d="M8.283,1.432C9.454,2.107,11,3.6,12.883,7.151s12.878,37.38,13.108,43.633C28,56.544,29.661,61.94,30.625,65.238a27.249,27.249,0,0,1,.964,6.1c2.327,18.566,11.678,35.248,7.317,39.317-.671.621-4.256,1.328-11.426,2.762-.461.086-.881.171-.881.171-1.782.343-3.459.6-5.137.835a71.092,71.092,0,0,1-16.919.857Q2.353,115.11,0,61.516.546,49.876.546,45.639c.644-5.022,1.264-10.065,1.908-15.087q.85-17.111.338-23.211Q2.734,6.634,2.031,0Z" transform="translate(37.288 51.481)" fill="#444" opacity="0.177"/>
          <path id="Shoes-3" data-name="Shoes" d="M81.414,13.3h0a.935.935,0,0,0-.407-.092H47.67a.95.95,0,0,0-.205.022L49.722.41,62.86,0l3.774,2.747a19.663,19.663,0,0,0,2.83,2.306,16.827,16.827,0,0,0,3.764,1.819c.993.375,2.118.8,3.7,1.557a26.482,26.482,0,0,1,2.935,1.593,5.135,5.135,0,0,1,1.552,2.264,2.011,2.011,0,0,1,.046.322c0,.056.01.109.017.16a1.905,1.905,0,0,1-.063.532Zm-60.149-.093H0L6.392.892,18.006,2.3l3.258,10.91Z" transform="translate(4.652 172.033)" fill="#474961"/>
          <path id="Finger" d="M.126,0S6.478,13.544,3.292,14.194A8.748,8.748,0,0,1,0,9.9" transform="translate(20.68 69.733)" fill="#482d1f"/>
          <g id="Note" transform="translate(1.965 72.271)">
            <path id="Path-10" data-name="Path" d="M2.737.871.012,19.09a1.056,1.056,0,0,0,.86,1.2l24.3,3.648a1.056,1.056,0,0,0,1.2-.86L29.091,4.854a1.056,1.056,0,0,0-.86-1.2L3.932.011A1.049,1.049,0,0,0,2.737.871Z" transform="translate(0 0)" fill="#f2f6fb"/>
            <path id="Document" d="M2.092.876.017,14.231a1.04,1.04,0,0,0,.86,1.2l1.95.314a1.04,1.04,0,0,0,1.2-.86L6.1,1.526a1.04,1.04,0,0,0-.86-1.2L3.287.017A1.04,1.04,0,0,0,2.092.876Z" transform="translate(24.375 6.267)" fill="#3abf7c"/>
          </g>
          <path id="T-shirt-3" data-name="T-shirt" d="M8.707,30.069,8.663,18.323q-3.251.22-6.5.437A2.731,2.731,0,0,1,.188,17.63c-.708-1.291.711-3.039,2.123-5.59,2.823-5.1,1.65-6.388,3.661-8.486A11.541,11.541,0,0,1,14.507.272,5.25,5.25,0,0,1,15.9.463l.052.027A10.836,10.836,0,0,1,19.032.023L23.682,0a8.135,8.135,0,0,1,3.472.764,6.9,6.9,0,0,1,6.09.24c1.984,1.088,1.549,2.582,4.963,5.977,1.693,1.679,3.176,2.714,3.07,4.038a2.434,2.434,0,0,1-1.029,1.631q-2.876,1.151-5.763,2.3l.075,6.451,0,.2.126,3.6v1.239a7.757,7.757,0,0,1-7.237,7.74l-13.377.9q-.173.012-.343.012A5.032,5.032,0,0,1,8.707,30.069Z" transform="translate(12.869 20.771)" fill="#d71e3c"/>
          <path id="Skin-3" data-name="Skin" d="M1.5,172.912c0-.018.065-2.877.106-6.085,1.286.292,2.421.539,3.575.779.729.072,1.483.145,2.2.174,1.75.114,3.431.149,5.056.182l.138,0,1.587-.123-1.07,6.474h0Zm43.31-.483h0c-.022-.115-.53-2.859-1.124-5.828,3.263-.3,5.4-.713,5.425-.717,1.369-.192,3.189-.461,5.136-.835.045-.009.444-.09.881-.171l.444-.089.059-.012,1.8-.36.521,7.6-13.137.41ZM6,92.488a8.368,8.368,0,0,1-1.574-.662c-.04-.088-.982-2.187-1.989-4.852-.6-1.579-1.094-3.035-1.478-4.327a24.291,24.291,0,0,1-.9-4.049,7.334,7.334,0,0,1,0-1.406l-.027-.01L0,77.172,5.82,39.407c3.088-.205,6.223-.418,9.255-.624h0l4.984-.338L11.336,75.27h-.014l3.825,15.876a.839.839,0,0,1-.63,1.014l-4.433,1A13.762,13.762,0,0,1,6,92.488ZM46.686,55.644a13.576,13.576,0,0,1-2.779-1.773,38.022,38.022,0,0,1-5.97-6.369c.006-.12.008-.242.008-.362V45.9l-.126-3.6,0-.2L37.739,35.6c1.8-.716,3.894-1.548,5.919-2.358a4.208,4.208,0,0,0,.338-.3l5.294,6.988c1.4-1.16,8.073-6.229,11.929-9.148,5.45-4.875,15.919-14.143,16.362-14.535h0c1.206.878.726,3.508-1.428,7.816l1.8,2.284a3.143,3.143,0,0,1-.4,4.314l-6.034,5.273c-1.59,1.895-3.5,4.049-5.53,6.229s-4.154,4.368-6.112,6.286c-4.47,4.379-7.746,7.074-9.224,7.59l-.008,0-.008,0a4.229,4.229,0,0,1-1.38.226A6.241,6.241,0,0,1,46.686,55.644ZM19.35,21.168a31.332,31.332,0,0,1,3.248-.593c.237-1.14.479-2.166.711-3.428L22.3,13.479c-.076-.219-.892-.526-1.349-.887a3.076,3.076,0,0,1-.844-2.9A2.7,2.7,0,0,1,22.3,7.567a2.21,2.21,0,0,1,1.113.219l.025.015a.683.683,0,0,0,.407.071.654.654,0,0,0,.555-.722L23.655,1.72a.6.6,0,0,1,.514-.712A10.613,10.613,0,0,0,26.4.41l.264-.066c.727-.2,4.679-1.166,7.332,1.413a9.437,9.437,0,0,1,.671.783,5.021,5.021,0,0,1,.909,2.345l.43,3.8a10.941,10.941,0,0,1,.03,1.159c-.181,4.82-1.729,8.4-3.484,8.82a8.51,8.51,0,0,1-2.756.125c-.124-.028-.041,0-1.41-.3l-.018,2.151a6.959,6.959,0,0,1,3.209,1.285,2.394,2.394,0,0,1-.544,1.236,3.391,3.391,0,0,1-2.671.932C26.111,24.1,22.889,23.055,19.35,21.168Z" transform="translate(9.568 0.013)" fill="#bf865f"/>
          <path id="Path-11" data-name="Path" d="M0,.729A6.835,6.835,0,0,1,6.336.842C8.32,1.93,7.884,3.424,11.3,6.818,12.992,8.5,14.384,9.472,14.384,10.8a1.813,1.813,0,0,1-.935,1.519C11.479,13.107,9.5,13.9,7.53,14.661l-.14-4.211A13.054,13.054,0,0,0,5.227,3.588C3.538,1.222,0,.729,0,.729Z" transform="translate(39.777 20.934)" fill="#444" opacity="0.177"/>
          <path id="Combined_Shape_Copy" data-name="Combined Shape Copy" d="M11.516,40.023A6.242,6.242,0,0,1,8.947,39.4a13.568,13.568,0,0,1-2.779-1.773A38.02,38.02,0,0,1,.2,31.255c.006-.12.008-.242.008-.362V29.654l-.126-3.6,0-.2L0,19.351c1.8-.716,3.894-1.548,5.919-2.358a4.19,4.19,0,0,0,.338-.3l5.294,6.989c1.4-1.16,8.073-6.229,11.929-9.148C28.929,9.661,39.4.393,39.842,0h0c1.206.878.726,3.508-1.428,7.816l1.8,2.284a3.143,3.143,0,0,1-.4,4.314l-6.034,5.273c-1.59,1.895-3.5,4.049-5.53,6.229s-4.154,4.368-6.112,6.286c-4.47,4.379-7.746,7.074-9.224,7.59l-.008,0-.008,0A4.23,4.23,0,0,1,11.516,40.023Z" transform="translate(47.307 16.259)" fill="#8c2a00" opacity="0.2"/>
          <path id="Combined_Shape-2" data-name="Combined Shape" d="M6.275,60.1c-.243-1.05-.466-1.863-.99-3.676s-.753-2.645-1-3.709A.315.315,0,1,1,4.9,52.57c.243,1.05.466,1.863.99,3.676s.753,2.645,1,3.709a.314.314,0,0,1-.235.377.319.319,0,0,1-.071.008A.315.315,0,0,1,6.275,60.1Zm-4.1-.267c-.342-1.149-.579-2.018-1.084-3.937S.353,53.116.013,51.976a.314.314,0,1,1,.6-.179c.342,1.149.579,2.018,1.084,3.937s.739,2.777,1.079,3.917a.315.315,0,1,1-.6.179ZM14.424,6.164h0a.315.315,0,0,1,.012-.629l.073,0c.056,0,.118-.011.185-.021a1.861,1.861,0,0,0,.537-.171A1.553,1.553,0,0,0,15.979,3.6a15.016,15.016,0,0,0-.3-1.9A7.888,7.888,0,0,0,15.4.737,2.666,2.666,0,0,0,15.28.463a.314.314,0,1,1,.555-.3,3.124,3.124,0,0,1,.149.35,8.5,8.5,0,0,1,.3,1.032A15.671,15.671,0,0,1,16.6,3.533a2.17,2.17,0,0,1-1.1,2.369,2.479,2.479,0,0,1-.719.23,2.243,2.243,0,0,1-.353.032Z" transform="translate(15.059 32.808)" fill="#482d1f"/>
          <path id="Hair-3" data-name="Hair" d="M19.061,17.282h-.5A9.446,9.446,0,0,1,15.6,15.809a10.95,10.95,0,0,1-2.308-2.187,10.457,10.457,0,0,1-1.746-3.34c-3.579,2.494-7.591,2.387-9.628.5A7.216,7.216,0,0,1,.041,6.623a4.179,4.179,0,0,1,2.6-4.559S6.066-.93,11.789,4.169l.054.049A4.968,4.968,0,0,1,13.2,2.736,7.164,7.164,0,0,1,16.8,1.58c.7-.106,1.5-.226,2.495-.427.656-.121,1.656-.4,2.894-.753l.142-.035h.006l.116-.029A9.757,9.757,0,0,1,24.972,0a7.764,7.764,0,0,1,2.387.355A6.016,6.016,0,0,1,29.73,1.77a17.289,17.289,0,0,1-1.892,4.145,12.53,12.53,0,0,1-2.57,3.021,7.938,7.938,0,0,1-3.841,1.8L20.379,8.9A3.329,3.329,0,0,0,19.19,7.855a2.264,2.264,0,0,0-.957-.226c-.052,0-.1,0-.156.006A2.686,2.686,0,0,0,15.884,9.76a2.875,2.875,0,0,0,1.03,2.833,2.962,2.962,0,0,0,1.9.688c.111,1.66.246,3.978.248,4h0Zm7.847-8.628c-1-.118-.132-.788.743-.92a1.367,1.367,0,0,1,.981.209.277.277,0,0,1-.076.473,4.281,4.281,0,0,1-1.356.255A2.393,2.393,0,0,1,26.909,8.654Zm3.946-.562c-1.022-.026-.239-.783.641-.981a1.466,1.466,0,0,1,1.027.133.263.263,0,0,1-.036.463,3.672,3.672,0,0,1-1.493.39Q30.924,8.1,30.854,8.092Z" transform="translate(13.831)" fill="#482d1f"/>
          <path id="Eyes-3" data-name="Eyes" d="M.2,2.086C-.032,1.862-.006,1.272.01.9A.5.5,0,0,1,.473.418.41.41,0,0,1,.884.769c.18.577-.211,1.4-.527,1.4A.2.2,0,0,1,.2,2.086Zm3.46-.418A2.009,2.009,0,0,1,3.47.483.5.5,0,0,1,3.933,0a.41.41,0,0,1,.412.351c.18.576-.225,1.406-.533,1.406A.19.19,0,0,1,3.657,1.668Z" transform="translate(41.172 8.784)" fill="#482d1f"/>
          <path id="Path-12" data-name="Path" d="M1.544,3.662,1.9,1.452,2.251.27a.21.21,0,0,0-.4-.12l-.356,1.2-.006.027L1.13,3.594c0,.008-.019.02-.057.014l-.022,0A3.923,3.923,0,0,1,.26,3.481a.21.21,0,1,0-.1.407,4.351,4.351,0,0,0,.867.137A.455.455,0,0,0,1.544,3.662Z" transform="translate(42.231 8.902) rotate(-14)" fill="#482d1f"/>
          <path id="Path-13" data-name="Path" d="M2.39,0A11.761,11.761,0,0,1,0,5.682L3.732,5.22l.44-2.013Z" transform="translate(24.312 5.511) rotate(-14)" fill="#482d1f"/>
          <path id="Path-14" data-name="Path" d="M1.635.839,0,0,.734,3.879Z" transform="translate(36.243 18.093) rotate(-14)" fill="#482d1f"/>
          <path id="Path-15" data-name="Path" d="M.554.613C.408.571.051.445.009.193c0-.042-.021-.1,0-.147.063-.1.734,0,.734,0C1.582.193,1.812.172,1.854.3c.021.063,0,.147-.189.314C1.435.927.785.676.554.613Z" transform="translate(42.514 13.861) rotate(-14)" fill="#482d1f"/>
        </g>
      </g>
    </g>
  </g>
</svg>
