<svg xmlns="http://www.w3.org/2000/svg" viewBox="0 0 935.58 209.34"><defs><style>.cls-1,.cls-39,.cls-40,.cls-43{isolation:isolate;}.cls-2{opacity:0.05;}.cls-10,.cls-11,.cls-15,.cls-2,.cls-6{mix-blend-mode:multiply;}.cls-3{fill:#110239;}.cls-30,.cls-4,.cls-6{fill:#d71e3c;}.cls-5{fill:#ebebeb;}.cls-11,.cls-15,.cls-6{opacity:0.65;}.cls-7{fill:#fcd4ca;}.cls-8{fill:#e8a393;}.cls-15,.cls-9{fill:#ff5a6e;}.cls-10{fill:#ca0045;opacity:0.32;}.cls-11{fill:#00a1cc;}.cls-12{opacity:0.85;font-size:127.75px;font-family:Ubuntu-Bold, Ubuntu;font-weight:700;}.cls-13{letter-spacing:-0.01em;}.cls-14{fill:#ffd930;}.cls-16{fill:#b2b2b2;}.cls-17{fill:#001783;}.cls-18{fill:#ffb27d;}.cls-19{fill:#f2ccaa;}.cls-20{fill:#e8945b;}.cls-21{fill:#ebf3fa;}.cls-22,.cls-28,.cls-37{fill:#fff;}.cls-23{fill:#b0d4ff;}.cls-24{fill:#95c0f4;}.cls-25{fill:#233862;}.cls-26{fill:#ed975d;}.cls-27{fill:#ebf3ff;}.cls-28,.cls-30,.cls-43{opacity:0.4;}.cls-29,.cls-33{opacity:0.5;}.cls-31,.cls-33{fill:#ff5a6f;}.cls-32{fill:#750000;}.cls-34{fill:#1a2e35;}.cls-35{fill:#ba221f;}.cls-36{fill:#cd5b51;}.cls-37{stroke:#000;stroke-miterlimit:10;stroke-width:0.5px;}.cls-38,.cls-39{fill:#f9183a;}.cls-39,.cls-40,.cls-41{opacity:0.2;}.cls-42{opacity:0.3;}</style></defs><title>Font Page</title><g class="cls-1"><g id="Layer_1" data-name="Layer 1"><ellipse class="cls-2" cx="467.79" cy="177.58" rx="467.79" ry="21.56"/><path class="cls-3" d="M762,346.34a1.07,1.07,0,0,1-.6-.09,1,1,0,0,1-.46-1.37s.5-1,1.45-2.74a1,1,0,0,1,1.39-.4,1,1,0,0,1,.4,1.39c-.92,1.66-1.4,2.65-1.41,2.66A1,1,0,0,1,762,346.34Z" transform="translate(-51.53 -268.41)"/><path class="cls-3" d="M874.19,344.36a19.18,19.18,0,0,1-3.45.2,1,1,0,1,1,.07-2,12.72,12.72,0,0,0,5.63-.93,1,1,0,0,1,.81,1.88A12.09,12.09,0,0,1,874.19,344.36Zm-9.28-1.12a1,1,0,0,1-.54-.06,24.35,24.35,0,0,1-5.57-3.28,1,1,0,1,1,1.25-1.62,22.17,22.17,0,0,0,5.1,3,1,1,0,0,1-.24,1.95Zm17.18-3.2a1,1,0,0,1-.9-.31,1,1,0,0,1,0-1.44,38.08,38.08,0,0,0,4-4.52,1,1,0,0,1,1.62,1.24,39.07,39.07,0,0,1-4.25,4.77A.94.94,0,0,1,882.09,340ZM855,335.9a1,1,0,0,1-.9-.3c-1.29-1.36-2.64-2.92-4.14-4.76a1,1,0,0,1,1.59-1.29c1.46,1.81,2.78,3.32,4,4.64a1,1,0,0,1-.58,1.71Zm34.79-5.61a1.11,1.11,0,0,1-.7-.15,1,1,0,0,1-.31-1.42c1-1.56,2.05-3.29,3.2-5.29a1,1,0,0,1,1.4-.37,1,1,0,0,1,.37,1.39c-1.16,2-2.23,3.78-3.24,5.38A1.05,1.05,0,0,1,889.78,330.29Zm6.29-10.77a1,1,0,0,1-.65-.12A1,1,0,0,1,895,318l1-1.74c.69-1.25,1.37-2.49,2-3.71a1,1,0,0,1,1.4-.39,1,1,0,0,1,.39,1.39c-.68,1.21-1.36,2.45-2.05,3.7l-1,1.75A1,1,0,0,1,896.07,319.52Zm-49,6.77a1,1,0,0,1-1-.4l-1.28-1.68-2.48-3.28a1,1,0,1,1,1.62-1.24c.84,1.09,1.67,2.19,2.49,3.29l1.28,1.68a1,1,0,0,1-.2,1.43A1,1,0,0,1,847.07,326.29Zm-80.49,12a1,1,0,0,1-1-1.54c1.09-1.79,2.24-3.56,3.4-5.27a1,1,0,0,1,1.42-.27,1,1,0,0,1,.27,1.41c-1.14,1.69-2.27,3.44-3.35,5.2A1,1,0,0,1,766.58,338.27Zm7-10.3a1,1,0,0,1-.76-.19,1,1,0,0,1-.21-1.43c1.28-1.71,2.59-3.37,3.9-4.94a1,1,0,0,1,1.57,1.32c-1.29,1.54-2.58,3.17-3.83,4.84A1,1,0,0,1,773.57,328Zm128.64-19.29a1,1,0,0,1-1-1.55c1.27-2.08,2.41-3.8,3.49-5.27a1,1,0,0,1,1.44-.21,1,1,0,0,1,.21,1.43c-1.05,1.41-2.16,3.09-3.39,5.12A1.07,1.07,0,0,1,902.21,308.68Zm-62.77,7.76a1,1,0,0,1-.94-.36c-1.44-1.74-2.78-3.23-4.1-4.58a1,1,0,0,1,1.47-1.43c1.35,1.39,2.73,2.93,4.2,4.7a1,1,0,0,1-.13,1.44A1,1,0,0,1,839.44,316.44Zm-57.88,2a1,1,0,0,1-.85-.27,1,1,0,0,1,0-1.45c1.49-1.57,3-3.06,4.49-4.42a1,1,0,1,1,1.37,1.51c-1.45,1.33-2.92,2.78-4.38,4.32A1.06,1.06,0,0,1,781.56,318.42Zm49.13-10.81a1,1,0,0,1-.79-.21,31.53,31.53,0,0,0-5-3.32,1,1,0,0,1,1-1.81,33.71,33.71,0,0,1,5.34,3.53,1,1,0,0,1,.17,1.43A1,1,0,0,1,830.69,307.61Zm-39.92,2.44a1,1,0,0,1-.77-1.82,55.9,55.9,0,0,1,5.25-3.56,1,1,0,1,1,1,1.76,55.6,55.6,0,0,0-5.06,3.42A.94.94,0,0,1,790.77,310.05Zm29-8.08a1.08,1.08,0,0,1-.4,0,23.23,23.23,0,0,0-5.54-.7h-.36a1,1,0,1,1,0-2h.39a26.09,26.09,0,0,1,6,.76,1,1,0,0,1-.09,2Zm-18.25,1.8a1,1,0,0,1-.54-1.95,35.29,35.29,0,0,1,6.11-1.92,1,1,0,1,1,.42,2,34.33,34.33,0,0,0-5.75,1.81Z" transform="translate(-51.53 -268.41)"/><polygon class="cls-4" points="887.72 6.41 856.52 32.78 856.24 20.14 887.72 6.41"/><polygon class="cls-3" points="887.72 6.41 856.52 32.78 859.52 23.3 887.72 6.41"/><polygon class="cls-5" points="871.4 34.82 846.09 11.82 891.69 0 871.4 34.82"/><polygon class="cls-4" points="890.36 1.02 856.19 21 859.3 23.83 890.36 1.02"/><path class="cls-4" d="M257.6,321.65s-3,10.88-4.51,12.66-6.33,4.4-6.33,4.4l1.29,2.28s8.81-4.49,10.34-8.16a28,28,0,0,0,1.78-5.64c.24-1.35,1.24-4.7.74-6A1.9,1.9,0,0,0,257.6,321.65Z" transform="translate(-51.53 -268.41)"/><path class="cls-6" d="M257.6,321.65s-3,10.88-4.51,12.66-6.33,4.4-6.33,4.4l1.29,2.28s8.81-4.49,10.34-8.16a28,28,0,0,0,1.78-5.64c.24-1.35,1.24-4.7.74-6A1.9,1.9,0,0,0,257.6,321.65Z" transform="translate(-51.53 -268.41)"/><path class="cls-3" d="M227.37,373.59l-2.22-2.08s-8.9-.65-9.42.13,8.44,5,9.58,4.92S227.22,374.44,227.37,373.59Z" transform="translate(-51.53 -268.41)"/><path class="cls-7" d="M243.67,343.51s-8.41-2.14-9.1-.76-9.42,28.76-9.42,28.76l2.22,2.08s9.36-23.11,12.07-25.52S244.92,344.46,243.67,343.51Z" transform="translate(-51.53 -268.41)"/><path class="cls-8" d="M243.67,343.51s-8.41-2.14-9.1-.76-9.42,28.76-9.42,28.76l2.22,2.08s9.36-23.11,12.07-25.52S244.92,344.46,243.67,343.51Z" transform="translate(-51.53 -268.41)"/><path class="cls-7" d="M248,338.47a7.53,7.53,0,0,1-1.75-.7,2.24,2.24,0,0,0-1.48-.42c-.4,0-3.63,1.4-2.77,2,.28.19,1-.15,1.25-.25s.8-.33,1.18-.5c-.35,0-2.09.72-1.91,1.13.32.72,2.09-.24,2.5-.47-.31.05-1.41.46-1.4.85,0,.63,1.3.11,1.58,0a2,2,0,0,1,.59-.28,2.12,2.12,0,0,1,.79.14,4.91,4.91,0,0,0,1.38,0c.27,0,.9,0,1-.2a1,1,0,0,0-.17-1A1.93,1.93,0,0,0,248,338.47Z" transform="translate(-51.53 -268.41)"/><path class="cls-8" d="M248,338.47a7.53,7.53,0,0,1-1.75-.7,2.24,2.24,0,0,0-1.48-.42c-.4,0-3.63,1.4-2.77,2,.28.19,1-.15,1.25-.25s.8-.33,1.18-.5c-.35,0-2.09.72-1.91,1.13.32.72,2.09-.24,2.5-.47-.31.05-1.41.46-1.4.85,0,.63,1.3.11,1.58,0a2,2,0,0,1,.59-.28,2.12,2.12,0,0,1,.79.14,4.91,4.91,0,0,0,1.38,0c.27,0,.9,0,1-.2a1,1,0,0,0-.17-1A1.93,1.93,0,0,0,248,338.47Z" transform="translate(-51.53 -268.41)"/><polygon class="cls-3" points="181.91 55.53 179.93 56.34 186.72 72.73 188.72 71.65 181.91 55.53"/><rect class="cls-3" x="188" y="71.37" width="12.93" height="2.01"/><path class="cls-3" d="M275.33,330.43c-1.73-1-2-2.08-1.06-5.7a7.61,7.61,0,0,0-4-8.37c-1.77-.73-3.33-1.05-4.4-2.94s1-5.91-2.45-8.9c-2.49-2.17-6.06-.43-6.06-.43-.76-.43-1.08,4.05-1.14,7.41,4.32,6.62,3.09,15.26,1.52,22.67a3.52,3.52,0,0,1-.16.49c.34,5.73.61,10.48.61,10.48s10.39,5.88,17.46.84S278.8,332.41,275.33,330.43Z" transform="translate(-51.53 -268.41)"/><path class="cls-3" d="M244.79,372.23l-2.64,1.52s-3.23,8.3-2.64,9,7.26-6.59,7.52-7.72S245.56,372.62,244.79,372.23Z" transform="translate(-51.53 -268.41)"/><path class="cls-7" d="M248.15,343s-17,1.18-18.53,2.7,12.81,27.87,12.81,27.87l2.36-1.36s-3.56-12.53-4.49-15.43-2.7-6.4-2.37-6.86,17.41,2.11,17.28-2.7S248.15,343,248.15,343Z" transform="translate(-51.53 -268.41)"/><path class="cls-7" d="M256.51,314.43s1.78,4.85.69,8.46l5.93-1.44s-2.42-8.11-3.46-9.49S256.51,314.43,256.51,314.43Z" transform="translate(-51.53 -268.41)"/><path class="cls-8" d="M259,318.78a3,3,0,0,1,3,2.94l1.11-.27s-2.42-8.11-3.46-9.49-3.16,2.47-3.16,2.47a20.21,20.21,0,0,1,1,4.71A3.11,3.11,0,0,1,259,318.78Z" transform="translate(-51.53 -268.41)"/><path class="cls-7" d="M255.89,308.11s-2.3,1.11-2.85,2-.07,2.21-.12,3.06a13.45,13.45,0,0,0-.15,2.32c.13.2,1,0,1.12.18s1.23.87,1.58,1.65.8.85,1.61.46,3.87-4.45,3.91-6.36S258.18,307.33,255.89,308.11Z" transform="translate(-51.53 -268.41)"/><path class="cls-3" d="M257.85,305.53a15.75,15.75,0,0,0-1.19,3,7,7,0,0,0,1.19,3.7c.48.34.07-2.81,1.29-1.85s-.07,2.78,0,3.15a2.29,2.29,0,0,0,1.9,1.67c1.26.11,3.34-6.16,2-7.71A7.09,7.09,0,0,0,257.85,305.53Z" transform="translate(-51.53 -268.41)"/><path class="cls-3" d="M258.06,304.27a3.42,3.42,0,0,0-4.15.18c-2.11,1.71-2,4.27-3.78,4.05,0,0,1.15,3,3.67,2.26S258.93,306.05,258.06,304.27Z" transform="translate(-51.53 -268.41)"/><path class="cls-9" d="M265,337.81l-7.86-.6s-4.09,4.57-8.13,4.57H235.16a24.88,24.88,0,0,0,4,10.31s13.17,1,19.57.44S271.23,345,265,337.81Z" transform="translate(-51.53 -268.41)"/><path class="cls-10" d="M265.7,338.73c-.23-.31-.47-.61-.74-.92l-7.86-.6s-4,4.44-8,4.56C254,342.26,263.15,343.32,265.7,338.73Z" transform="translate(-51.53 -268.41)"/><path class="cls-10" d="M238.81,342.71c2-.2,3.94-.68,5.92-.93h-8.67C236.92,342.22,237.34,342.85,238.81,342.71Z" transform="translate(-51.53 -268.41)"/><path class="cls-4" d="M262.38,318.72a33.41,33.41,0,0,1-4.83,1.55s-2.54,5.6-3.53,7.12,2.51,7.32,2.7,9.82c0,0,2.1,2,8.47.78C265.19,338,266.85,322.24,262.38,318.72Z" transform="translate(-51.53 -268.41)"/><path class="cls-11" d="M263.35,322.06a3.07,3.07,0,0,0-3.57,1.12c-.66,1.37,0,3.81-.06,5.29a28.69,28.69,0,0,1-.57,5.15,10.88,10.88,0,0,1-2.08,3.84c.82.49,3.18,1.48,8.12.53,0,0,1-9.6-.67-15.49A11.55,11.55,0,0,1,263.35,322.06Z" transform="translate(-51.53 -268.41)"/><path class="cls-7" d="M249.24,338.47a7.36,7.36,0,0,1-1.75-.7,2.25,2.25,0,0,0-1.48-.42c-.4,0-3.63,1.4-2.77,2,.28.19,1-.15,1.25-.25s.8-.33,1.18-.5c-.35,0-2.1.72-1.91,1.13.32.72,2.09-.24,2.5-.47-.32.05-1.41.46-1.41.85,0,.63,1.3.11,1.59,0a1.88,1.88,0,0,1,.59-.28,2.16,2.16,0,0,1,.79.14,4.9,4.9,0,0,0,1.38,0c.27,0,.89,0,1-.2a1,1,0,0,0-.18-1A1.89,1.89,0,0,0,249.24,338.47Z" transform="translate(-51.53 -268.41)"/><path class="cls-4" d="M248.69,338.39l.7,2.6s17-2,17.4-5-.69-17.06-4.79-15.6-.05,11.65-.7,12.44S248.69,338.39,248.69,338.39Z" transform="translate(-51.53 -268.41)"/><text class="cls-12" transform="translate(28.44 171.86)">C<tspan class="cls-13" x="82.78" y="0">L</tspan><tspan x="153.43" y="0">UB GAMMA</tspan></text><path class="cls-3" d="M136.47,468.66s-2.12,4.15-1.65,5,9.35,4.54,10.41,4,1.11-2.05-.59-3.28-3-1.13-4.1-2.13,0-2.88,0-2.88Z" transform="translate(-51.53 -268.41)"/><path class="cls-3" d="M166.27,470.18s-.1,4.54.67,5.15,10.38.57,11.15-.33.28-2.15-1.67-2.54c-1.76-.35-3.06,0-4.42-.53-1.2-.48-1.84-3.13-1.84-3.13Z" transform="translate(-51.53 -268.41)"/><path class="cls-9" d="M158.5,421.47l-12.52.77s10.52,23.63,11.82,26.33,7.88,22.23,7.88,22.23l5.08-1.88s-5.79-20.35-6.49-22.11S158.5,421.47,158.5,421.47Z" transform="translate(-51.53 -268.41)"/><path class="cls-10" d="M154.26,430.72c.41-2.1.69-4.82,1.15-6.9.18-.83,1.34-.87,1.43-1.7a2.46,2.46,0,0,1-.51-.51l-10.35.63s10.52,23.63,11.82,26.33c.13.27.31.71.53,1.27,0-.46,0-.91-.06-1.36C158,444.83,153.79,433.1,154.26,430.72Z" transform="translate(-51.53 -268.41)"/><path class="cls-9" d="M155,422.53H144.27A16.22,16.22,0,0,0,143,431a151.79,151.79,0,0,1,.73,16.24c-.08,1.18-7.17,17.25-8,21.64l4.93,1.76s9.72-19.87,10-20.34S155,422.53,155,422.53Z" transform="translate(-51.53 -268.41)"/><path class="cls-7" d="M158,417.77s2.12,3.06,3.59,2.82S172,414.18,172,414.18l-.82-2s-8.18,5.59-9,5.35-1.88-2.46-1.88-2.46Z" transform="translate(-51.53 -268.41)"/><path class="cls-8" d="M158,417.77s2.12,3.06,3.59,2.82S172,414.18,172,414.18l-.82-2s-8.18,5.59-9,5.35-1.88-2.46-1.88-2.46Z" transform="translate(-51.53 -268.41)"/><path class="cls-4" d="M141.49,426.14s10.74,2.43,19-.55c0,0-1.84-7.6-2.49-11.84s-1.5-10.89-3.93-12.54a11.17,11.17,0,0,0-4.06-1.9,3,3,0,0,1-1.94,1.94c-1.47.35-4.47-1.94-4.47-1.94s-6.82,3.14-7.6,4.41c-1.59,2.61,4.78,9.82,5.72,13.64S141.49,426.14,141.49,426.14Z" transform="translate(-51.53 -268.41)"/><path class="cls-4" d="M146.91,416.38c-.5-1.75-.45-5.66-2.52-7.63-1.2-1.14-2.66-2.91-4.43-3.22-2.14-.37-2.28.08-4.2-.37.4,3.23,5.13,8.94,5.93,12.2.94,3.82-.2,8.78-.2,8.78a46.38,46.38,0,0,0,9.43.93C149,423.81,147.9,419.84,146.91,416.38Z" transform="translate(-51.53 -268.41)"/><path class="cls-7" d="M142.22,394.43s2.41,4.29,1.23,5.58c0,0,3.24,2.94,5.76,1.71s1.07-2.35,1.07-2.35-1.77-.77-2.65-4.47S142.22,394.43,142.22,394.43Z" transform="translate(-51.53 -268.41)"/><path class="cls-8" d="M144.77,401a5.64,5.64,0,0,1,1.63-1.75,5.72,5.72,0,0,1,2.72-.91,9.09,9.09,0,0,1-1.49-3.42c-.89-3.71-5.41-.47-5.41-.47s2.41,4.29,1.23,5.58A10.07,10.07,0,0,0,144.77,401Z" transform="translate(-51.53 -268.41)"/><path d="M140.86,385.93a2.75,2.75,0,1,1-2.75-2.73A2.75,2.75,0,0,1,140.86,385.93Z" transform="translate(-51.53 -268.41)"/><path class="cls-7" d="M146.46,385.73a3.39,3.39,0,0,1,2.2,2.08c.41,1.56.2.91.55,1.12s2.21,1.59,2.06,1.82a5.78,5.78,0,0,1-1.32.94s.41.71.94,1.68-2.91,2.17-4.12,1.73-4.2-2.35-4.32-5.23S143.64,384.87,146.46,385.73Z" transform="translate(-51.53 -268.41)"/><path d="M139.17,385.73s2.23-1.06,3.27-1.53a5.72,5.72,0,0,1,3.79-.83,2.75,2.75,0,0,1,2.11,3.73s-1.09-1.47-2.14-1.17-.83,1.91-1.42,2.74.55,3.73,1.18,4.45c0,0,4.08.32,4.59-.36,0,0,.37.55.9,1.55s1.41,2.44.15,3.12-5.09,0-5.41-.36-1.37-3.06-2.56-2.64-.86,1.1-.86,1.1-.73.48-2.41-.93a4.47,4.47,0,0,1-1.47-4.67A21.29,21.29,0,0,0,139.17,385.73Z" transform="translate(-51.53 -268.41)"/><path class="cls-7" d="M144.54,392.89a8.29,8.29,0,0,0-1.33-1.83c-.66-.59-1.7.12-1.43,1.41S145,393.57,144.54,392.89Z" transform="translate(-51.53 -268.41)"/><path class="cls-14" d="M155,402.19a8.3,8.3,0,0,1,0,2.94c-.32,1.33-7.21,11-6.51,13.17s6.9,5.88,8.54,5.49,7.83-9.36,9.24-9.33,17.34,2,22.83-10.27.23-19.68-2.59-22.66-16-9.83-26.65-.7C151.13,388.27,155,399.25,155,402.19Z" transform="translate(-51.53 -268.41)"/><path d="M156.39,410.66s6.64-8.12,7-9.76,1-7.94,1.18-9.18,2-1.45,1.69.41c-.26,1.59-.63,7.47-1.28,9.47s-7.11,10.94-7.11,10.94Z" transform="translate(-51.53 -268.41)"/><path d="M161.18,414.53s6.13-8.51,7.63-9.28,7.43-2.95,8.56-3.49.89-2.31-.83-1.53c-1.47.66-7,2.53-8.82,3.67s-8.74,9.69-8.74,9.69Z" transform="translate(-51.53 -268.41)"/><path d="M177.55,400.56a8.94,8.94,0,0,1-4.58-3.19h-.06c-1.75,0-3.1-1.53-3.65-3.25a15.19,15.19,0,0,1-4.09-2.09l.55-.77a15.14,15.14,0,0,0,3.32,1.8c-.17-1.45.33-2.5,1.3-2.75a1.78,1.78,0,0,1,2.29,1.15,2.21,2.21,0,0,1-1.38,2.71,2.73,2.73,0,0,1-.92.13,3.44,3.44,0,0,0,2,2.05,2.63,2.63,0,0,1-.25-1,1.64,1.64,0,0,1,1.29-1.71,1.78,1.78,0,0,1,2,.36,1.72,1.72,0,0,1,.22,1.86A2.37,2.37,0,0,1,174,397.2a7.9,7.9,0,0,0,3.71,2.44Zm-3.37-6.07a1.54,1.54,0,0,0-.48.09c-.59.2-.65.52-.64.77a2.3,2.3,0,0,0,.38,1,1.6,1.6,0,0,0,1.28-.85.8.8,0,0,0-.06-.85A.64.64,0,0,0,174.18,394.49ZM170,393.33a1.83,1.83,0,0,0,.89-.05,1.25,1.25,0,0,0,.81-1.54c-.15-.48-.57-.67-1.15-.52s-.69,1-.6,1.77C170,393.1,170,393.21,170,393.33Z" transform="translate(-51.53 -268.41)"/><path d="M160.15,410.75c-1.41-1.25-3.52-2.39-4.38-4.14-.28-.57-.52-1.15-.75-1.74a2.34,2.34,0,0,1,0,.26c-.32,1.33-7.21,11-6.51,13.17s6.9,5.88,8.54,5.49c1.48-.36,6.61-7.61,8.66-9.06A28.59,28.59,0,0,1,160.15,410.75Z" transform="translate(-51.53 -268.41)"/><path d="M162.63,417.89c.56-.66,1.09-1.27,1.58-1.79-5.51-2.2-8.82-7.45-10-9.54-.38.65-.87,1.45-1.41,2.34C155.45,413.17,160.43,416.54,162.63,417.89Z" transform="translate(-51.53 -268.41)"/><path d="M160,421c.48-.55,1-1.14,1.49-1.74-5.1-2.3-8.21-7.14-9.34-9.2-.47.77-.94,1.57-1.39,2.36C153.21,416.32,157.65,419.48,160,421Z" transform="translate(-51.53 -268.41)"/><path d="M158.77,422.34c-4.63-2.32-7.51-6.7-8.66-8.76a24.32,24.32,0,0,0-1.23,2.58,30,30,0,0,0,8.12,7.63h0A5.19,5.19,0,0,0,158.77,422.34Z" transform="translate(-51.53 -268.41)"/><path class="cls-7" d="M143.1,411.66s3.06,6.29,3.7,6.35,11.79-.83,12.6-1.3a10.21,10.21,0,0,0,1.25-1,5,5,0,0,1,.57-.46,6.3,6.3,0,0,0,.72-.4c.17-.15.78-1.05,1.12-1s.25.28.21.5-.45.55-.64.75-.43.44-.37.62.63-.18.75-.26a2.22,2.22,0,0,0,.52-.45,7.74,7.74,0,0,0,.47-.62l.26-.4c.14-.22.28-.42.4-.65s.25-.37.47-.25,0,.54-.09.72a5.77,5.77,0,0,0-.27.56c-.06.13-.27.35-.2.5a2.75,2.75,0,0,0,.61-.7c.11-.15.68-1.08.95-.9s-.09.9-.28,1.16a2.46,2.46,0,0,1-.43.48c-.07,0-.37.38-.32.38.4,0,.68-.63.92-.91s.63-.68.7-.18a.76.76,0,0,1-.21.53,2.79,2.79,0,0,1-.61.67,2,2,0,0,0-.4.45c.29,0,.87-.75,1.14-.55s0,.48-.12.59a9.3,9.3,0,0,1-2.58,1.74,26.62,26.62,0,0,1-3,1.37c-1.44.58-13.7,4.41-15.17,4.24s-5.35-7.69-6.46-9.87S143.1,411.66,143.1,411.66Z" transform="translate(-51.53 -268.41)"/><path class="cls-4" d="M138.92,415.07a22.79,22.79,0,0,0,6.12-3.46s-5-11.24-8.56-8.42S138.92,415.07,138.92,415.07Z" transform="translate(-51.53 -268.41)"/><path class="cls-8" d="M142.51,391.54a1,1,0,0,1,1.11.43c.4.59.09,1.43-.33,1.06s-.21-.64-.26-.92A.88.88,0,0,0,142.51,391.54Z" transform="translate(-51.53 -268.41)"/><path class="cls-7" d="M171.62,413.83c.2-.13.46,0,.79.3-.43-.55-1-1.11-.44-1.19s.84.7,1.2.94c-.19-.27-1.33-1.06-.89-1.66.27-.35,1.48,1,1.74,1.31-.24-.23-1.27-1.31-.72-1.53s1.19.72,1.54,1,.62.39.68.75c.11.69-.89,1.15-1.41,1.3a2.73,2.73,0,0,1-2.05-.34C171.7,414.52,171.43,414,171.62,413.83Z" transform="translate(-51.53 -268.41)"/><path class="cls-8" d="M602.74,333.28a3,3,0,0,0,1.24-1,2,2,0,0,1,.47-.59,4,4,0,0,0,.59-.63,1.49,1.49,0,0,1,.64-.55c.35-.11.24.34.13.62s-1,.89-.88,1.22,1.14-.43,1.34-.58c.47-.37.42-.81.64-1.31.13-.28.28-.38.46-.06a.91.91,0,0,1-.07.77,3.22,3.22,0,0,1-.86,1.33,3.75,3.75,0,0,0,.93-1.16c.14-.25.52-1.41.93-1.23.82.35-.79,2.59-1.23,2.83a4.42,4.42,0,0,0,1-1.1c.18-.24.57-.82.76-.32.28.73-1.09,1.58-1.63,2.07a5.23,5.23,0,0,0,1.16-.82c.49-.39.61.11.17.59a6.58,6.58,0,0,1-.71.63,4.82,4.82,0,0,1-2.93,1c-.44,0-1.2.58-1.51.35C602.79,335,602.84,333.9,602.74,333.28Z" transform="translate(-51.53 -268.41)"/><path class="cls-4" d="M603.35,332s-9.42,2.63-10.37,2.57-3.16-8.35-4-12.44c-.08-.38-1.34-.4-2.76-1.6-.58-.49-2.31.45-2.89,0a3.94,3.94,0,0,0-.75,4.37c2.15,4.74,4,13.83,8.93,13.93,6.53.12,13.15-3.29,13.15-3.29Z" transform="translate(-51.53 -268.41)"/><path class="cls-8" d="M605.37,333.18s-.37-.65-.44-.84.76-.9.88-1.22.22-.73-.13-.62a1.49,1.49,0,0,0-.64.55,4,4,0,0,1-.59.63,2,2,0,0,0-.47.59,1.69,1.69,0,0,1-.39.45A5,5,0,0,0,605.37,333.18Z" transform="translate(-51.53 -268.41)"/><path class="cls-3" d="M607.78,362s.88,4.05,1.69,4.43,9.33-1.71,9.83-2.67-.21-2-2-1.9c-1.63.06-2.71.67-4,.47s-2.31-2.38-2.31-2.38Z" transform="translate(-51.53 -268.41)"/><path class="cls-3" d="M593.31,371.23s-2.19,3.52-1.87,4.36,7.92,5.24,8.94,4.89,1.22-1.56-.14-2.77-2.42-1.4-3.24-2.46,0-3.32,0-3.32Z" transform="translate(-51.53 -268.41)"/><path class="cls-9" d="M580.55,341.32s3.44,1.79,5,1.58,15.32.87,16.92,2.2-5,27.77-5,27.77l-5.44-.91s2-19.33,1.62-19.47-8.53-.11-22.53-.11c-3.42,0-7.23-7.18-2.9-12.2Z" transform="translate(-51.53 -268.41)"/><path class="cls-15" d="M600.15,347.24a16.11,16.11,0,0,1-1.53-3.71,98,98,0,0,0-13-.63c-1.6.21-5-1.58-5-1.58l-.79-.07a6.56,6.56,0,0,0,3.58,2.95c1.73.39,3.55.48,5.26.94,2.95.78,5.88,2.33,7.2,5.27a80.94,80.94,0,0,1,4.38,11.2c.89-4,1.81-8.21,2.33-11.55C601.47,349.56,600.72,348.18,600.15,347.24Z" transform="translate(-51.53 -268.41)"/><path class="cls-9" d="M582,338.37s16.33,1,17.89,2.51,12.06,19.62,12.06,19.62l-4.33,3.12S599,350.93,594.84,346a6.23,6.23,0,0,0-3.7-2.12c-1.77-.29-4.35-.68-6.28-.79a7,7,0,0,1-4.71-1.79Z" transform="translate(-51.53 -268.41)"/><path class="cls-7" d="M586.16,313.15a6.15,6.15,0,0,1-1.34-1.09c-.4,1.57-1.35,4.45-3.15,5.79,0,0,3.2,1.79,6,1.5a20,20,0,0,1,.9-5.55A5.66,5.66,0,0,1,586.16,313.15Z" transform="translate(-51.53 -268.41)"/><path class="cls-8" d="M584,317.51a4.11,4.11,0,0,1,4.19-2.24,7.12,7.12,0,0,1,.44-1.47,5.66,5.66,0,0,1-2.45-.65,6.15,6.15,0,0,1-1.34-1.09c-.4,1.57-1.35,4.45-3.15,5.79a13.84,13.84,0,0,0,1.92.85A5.17,5.17,0,0,1,584,317.51Z" transform="translate(-51.53 -268.41)"/><path class="cls-7" d="M588.91,303.4s4.19.26,5.09,1.45a5.73,5.73,0,0,1,.2,5.15c-.72,1.28.23,3.45.08,4s-1.44.22-1.54.36-1.12,2.58-2.92,2.37c-2.53-.3-4.9-3.34-5.43-5.14S585.07,302.88,588.91,303.4Z" transform="translate(-51.53 -268.41)"/><path d="M595.82,306.23a4.77,4.77,0,0,1-.53-1.09,6.17,6.17,0,0,0,0-.75c-.18-.77-.11-1.25-1.61-2.45a5.68,5.68,0,0,0-4.95-.73,4.42,4.42,0,0,0-1.57.84c-.14.11-.55.41-.55.59s.51.57.64.74a7,7,0,0,1,.58,1c1.17,2,3.27,4.55,5.89,3.35a7.64,7.64,0,0,0,1-.54,5.5,5.5,0,0,1-.44,2.69,2.38,2.38,0,0,0,1.22-.91A2.76,2.76,0,0,0,595.82,306.23Z" transform="translate(-51.53 -268.41)"/><path d="M588,303.08a3.32,3.32,0,0,0-1.75-.75,2.31,2.31,0,0,0-2.41,1.24,10.69,10.69,0,0,0-.85,1.69,7.24,7.24,0,0,0-.58,2.83,6.82,6.82,0,0,0,.61,3.08c.43.85,1.46,2,2.21,2,.29,0,1.35-1.67,1.46-2.16s-.11-.57-.39-.91c-.46-.57-.87-1.49-.16-2,1-.8,2,.12,1.86,1.71,0,0,.15,1,.45.94S591.41,307.11,588,303.08Z" transform="translate(-51.53 -268.41)"/><path class="cls-8" d="M586.45,308.39a1.07,1.07,0,0,1,1,.72c.25.69-.29,1.45-.61,1s0-.69,0-1A.87.87,0,0,0,586.45,308.39Z" transform="translate(-51.53 -268.41)"/><path class="cls-4" d="M565.61,341.69s4.88,5.25,17.73,1.63a27.17,27.17,0,0,1,1.8-6.37c1.36-3.16,3.57-9.37,4-12.73a7.16,7.16,0,0,0-1.4-5.76s-2.43,1.8-5.38-1.26a14.44,14.44,0,0,0-10.07,7.44C568.59,331.33,565.61,341.69,565.61,341.69Z" transform="translate(-51.53 -268.41)"/><path class="cls-4" d="M583.27,322.65c0-.15-.08-.32-.12-.48-3.08,1.5-2.69,4.47-1.95,8.95.57,3.44,2.22,8.89,2.55,10.1a25.81,25.81,0,0,1,1.39-4.27c.62-1.46,1.43-3.57,2.17-5.74a22.62,22.62,0,0,1-2.55-5.31C584.37,324.78,583.58,323.81,583.27,322.65Z" transform="translate(-51.53 -268.41)"/><path class="cls-5" d="M604.27,330.13l10.8-6.44a20.22,20.22,0,0,1,5,9.12l-12.26,5.75S606,334.06,604.27,330.13Z" transform="translate(-51.53 -268.41)"/><path class="cls-16" d="M612.62,334.16a11.2,11.2,0,0,1-6.44-5.17l-1.91,1.14c1.68,3.93,3.59,8.43,3.59,8.43l8.95-4.2A8.84,8.84,0,0,1,612.62,334.16Z" transform="translate(-51.53 -268.41)"/><polygon class="cls-9" points="554.66 62.36 559.28 61.86 559.42 61.85 559.49 61.96 560.14 62.95 559.96 62.85 563.23 62.85 563.41 62.85 563.45 63.02 563.72 64.31 563.48 64.14 565.86 63.77 565.92 64.2 563.55 64.56 563.35 64.6 563.3 64.4 563.02 63.11 563.23 63.28 559.96 63.28 559.84 63.28 559.78 63.18 559.13 62.19 559.34 62.29 554.8 63.24 554.66 62.36"/><path class="cls-9" d="M617.15,332.43l-.41-.48,0,0,.92.21,1,.06-.88.34-.82.49h0Z" transform="translate(-51.53 -268.41)"/><path class="cls-17" d="M615.81,326.5a.2.2,0,0,0-.26-.06l-.86.44-.4-.74a.2.2,0,0,0-.27-.05.19.19,0,0,0-.1.25l.39.74-.93.48a.24.24,0,0,0-.14.29.19.19,0,0,0,.2.1l.09,0,1-.51.43.83a.18.18,0,0,0,.2.09l.09,0a.24.24,0,0,0,.1-.3l-.44-.79.86-.46A.19.19,0,0,0,615.81,326.5Z" transform="translate(-51.53 -268.41)"/><path class="cls-7" d="M604.24,336.77a3,3,0,0,0,1.59-.2,1.86,1.86,0,0,1,.7-.26,3.69,3.69,0,0,0,.84-.21,1.5,1.5,0,0,1,.84-.13c.35.09,0,.41-.22.6s-1.31.22-1.39.56,1.19.24,1.44.22c.59-.06.78-.47,1.24-.77.26-.18.43-.17.42.19s-.27.46-.47.62a3.32,3.32,0,0,1-1.43.67,3.9,3.9,0,0,0,1.4-.49c.25-.14,1.18-.93,1.44-.56.51.73-2,1.79-2.54,1.76a4.32,4.32,0,0,0,1.44-.41c.27-.1.91-.39.81.13-.15.77-1.76.77-2.48.9a5.31,5.31,0,0,0,1.42-.08c.63-.07.46.41-.17.59a6.57,6.57,0,0,1-.94.16,4.78,4.78,0,0,1-3-.67c-.4-.2-1.33-.14-1.47-.49C603.4,338.21,604,337.35,604.24,336.77Z" transform="translate(-51.53 -268.41)"/><path class="cls-4" d="M604.49,336.35l.31,3.62s-15.46,1.25-17.23.12a8.37,8.37,0,0,1-3.18-4.65c-1.12-3.32-5.54-12.47-1.56-13.87a2.82,2.82,0,0,1,3.73,1.22c1.87,3.66,3.87,11.85,4.39,12.2C591.69,335.48,604.49,336.35,604.49,336.35Z" transform="translate(-51.53 -268.41)"/><path d="M960,383.08a3.5,3.5,0,0,0-2.77-.3c-4.7-.55-6.07,4.94-6,6.82s.28,3.92-1.82,6.37c-6.07,7.09,6.64,7.4,6.64,7.4.11-5.66,6.89-3.6,6.59-3C971.35,402.43,963.52,384.89,960,383.08Z" transform="translate(-51.53 -268.41)"/><path class="cls-18" d="M941.88,406.67s-.83-1.25-1.5-1.28-1.9-.37-1.8-.12.86.27.94.42-1.14.37-1.48.39-1.17,0-1.14.17a3.92,3.92,0,0,0,2.49.8,7,7,0,0,1,2.28.29Z" transform="translate(-51.53 -268.41)"/><path class="cls-4" d="M953.84,407.08a12.51,12.51,0,0,1-1.27,1.92,7.37,7.37,0,0,1-4.4,2.93,4.76,4.76,0,0,1-2.61-.42h0a11.9,11.9,0,0,1-4-3.39,1.92,1.92,0,0,1,.25-1.87s4.67,1.05,5.12.83,3-7.69,3.65-8.63,2.72-1.42,2.72-1.42Z" transform="translate(-51.53 -268.41)"/><path class="cls-19" d="M952.57,409a7.37,7.37,0,0,1-4.4,2.93,4.76,4.76,0,0,1-2.61-.42c.09,0,2.4.29,3.32-1.35s2-4.35,3.34-3.46C952.83,407.08,952.8,408,952.57,409Z" transform="translate(-51.53 -268.41)"/><path d="M971.25,457.46s1.43,1.3,1.15,2.23-1.56,1.54-1.74,2.66-.87,1.75-1.49,1.75h-3s-.46-.8.65-1,1.53-1.57,1.46-2.8a21.9,21.9,0,0,1,.1-2.87l2.37-.55Z" transform="translate(-51.53 -268.41)"/><path d="M959.2,458s.51,5.5-.11,5.81l-8,0s0-.92,1.29-1.13,3.54-.95,3.92-2.63S959.2,458,959.2,458Z" transform="translate(-51.53 -268.41)"/><path class="cls-18" d="M964.9,418.51c-1.65-3.69-2.65-4.75-2.46-5.89.14-.86-.44-15.91-.44-15.91-.19-.06-.58-.11-.8-.16a2,2,0,0,1-1.46-1.28,9.81,9.81,0,0,1-.5-3.39l-.21,0-3.55.7s.08,1.12.08,2.17v0a2,2,0,0,1-1.47,2l-.84.24a32.5,32.5,0,0,0-1.55,7.53c-.25,3.82,2.37,5.48,0,13.11C949.24,425.47,965.81,420.55,964.9,418.51Z" transform="translate(-51.53 -268.41)"/><path class="cls-20" d="M955.48,392.62s.08,1.12.08,2.17c2-.06,3-1.87,3.47-2.87Z" transform="translate(-51.53 -268.41)"/><path class="cls-18" d="M954.82,393.61s4.69.08,4.7-2.84.61-4.89-2.39-5.06-3.58.94-3.82,1.92S953.6,393.52,954.82,393.61Z" transform="translate(-51.53 -268.41)"/><path d="M955,385.64s1.29,3.43,3.26,3.94a4,4,0,0,0,2.83,0,5.6,5.6,0,0,1-1.83-3.31S956,384,955,385.64Z" transform="translate(-51.53 -268.41)"/><path d="M955.31,385.92A2.91,2.91,0,0,0,954,387a4.72,4.72,0,0,0-.63,2.68s-1-2.33.12-3.65S955.31,385.92,955.31,385.92Z" transform="translate(-51.53 -268.41)"/><path class="cls-21" d="M955.84,391.8a1.19,1.19,0,0,1-1,.4.87.87,0,0,1-.73-.48A3.19,3.19,0,0,1,955.84,391.8Z" transform="translate(-51.53 -268.41)"/><path class="cls-4" d="M965.35,403.37a31.68,31.68,0,0,1,0,3.7c-.07,1.33-1.43,3.13-1.62,3.57-.48,1.11-1,1.29-1,1.29l-4.21,1-1.47.36-4.66-1.39s-2.12-5.92-1.27-9.26a25.52,25.52,0,0,1,2.15-5.64s3.8,3.72,8.75-.32Z" transform="translate(-51.53 -268.41)"/><path class="cls-19" d="M964.12,407.61a12.73,12.73,0,0,1-.39,3c-.48,1.11-1,1.29-1,1.29l-4.21,1-1.82-.54s6.09-.92,5.42-6.16Z" transform="translate(-51.53 -268.41)"/><path class="cls-9" d="M952.67,412.83s-2.31,7.18-2.46,9.62,4.41,34.74,4.59,35.86,1.49,1.74,1.49,1.74a2,2,0,0,0,1.48.11,3.7,3.7,0,0,0,1.58-.74s1.79-23,.68-31.25a130.06,130.06,0,0,1-1.12-15.34Z" transform="translate(-51.53 -268.41)"/><path class="cls-9" d="M962.44,412.62s3.52,4.72,3.85,7.91.51,14.4,1.21,17.51,3.27,9.1,3.27,18.81a2,2,0,0,1-1.09.85,8.67,8.67,0,0,1-1,.27,1.52,1.52,0,0,1-1.69-.8c-1.74-3.5-7.27-14.77-7.55-17.11-.2-1.66-2-12.62-5.76-19.05-.91-1.55.56-7.69.56-7.69Z" transform="translate(-51.53 -268.41)"/><path class="cls-22" d="M955.73,391.88s-.08.34-.93.29c0,0-.72,0-.7-.42A2.3,2.3,0,0,1,955.73,391.88Z" transform="translate(-51.53 -268.41)"/><path d="M952.3,411.72a4.83,4.83,0,0,0,2.76.77c2.2,0,7.65-.56,7.65-.56a4.56,4.56,0,0,1,.23,1.39s-6.65,1.68-10.51.24A2.44,2.44,0,0,1,952.3,411.72Z" transform="translate(-51.53 -268.41)"/><path class="cls-22" d="M954.54,414.38a1.14,1.14,0,1,1,1-1.13A1.07,1.07,0,0,1,954.54,414.38Zm0-1.93a.81.81,0,1,0,.67.8A.75.75,0,0,0,954.54,412.45Z" transform="translate(-51.53 -268.41)"/><rect x="957.88" y="405.14" width="9.03" height="12.37" transform="translate(-85.05 464.7) rotate(-41.05)"/><path class="cls-18" d="M961.17,413s-2.5.29-2.49.89.62,1.81.93,1.86,2-1.65,2-1.65Z" transform="translate(-51.53 -268.41)"/><path class="cls-4" d="M962,396.71a5.67,5.67,0,0,1,4.61,3.34c1.28,3.11,3.71,8.32,3.71,9.2s-1.36,3.58-8.63,5.13c0,0-.75-.79-.71-1.41,0,0,4.54-3.9,4.53-4.36,0-.86-.74-2-4.73-6C959.7,401.54,962,396.71,962,396.71Z" transform="translate(-51.53 -268.41)"/><path class="cls-23" d="M674.76,462.61h0a.39.39,0,0,1-.39-.4l.6-25.75,1.77-.21-1.51,26A.43.43,0,0,1,674.76,462.61Z" transform="translate(-51.53 -268.41)"/><path class="cls-24" d="M664.45,462.61h0a.39.39,0,0,1-.39-.4l.6-25.75,1.77-.21-1.51,26A.43.43,0,0,1,664.45,462.61Z" transform="translate(-51.53 -268.41)"/><path class="cls-23" d="M692.9,462.61h0a.39.39,0,0,0,.39-.4l-.6-25.75-1.77-.21,1.51,26A.44.44,0,0,0,692.9,462.61Z" transform="translate(-51.53 -268.41)"/><path class="cls-23" d="M663.28,434.86V417.21a5.65,5.65,0,0,1,5.68-5.62h12.85a5.66,5.66,0,0,1,5.69,5.62v18.32Z" transform="translate(-51.53 -268.41)"/><path class="cls-24" d="M611.75,166.45h26.52a0,0,0,0,1,0,0v2.79a0,0,0,0,1,0,0H614.54a2.79,2.79,0,0,1-2.79-2.79v0A0,0,0,0,1,611.75,166.45Z"/><rect class="cls-23" x="621.21" y="166.45" width="21.3" height="2.79" rx="1.39"/><path class="cls-25" d="M696.05,430.46a12,12,0,0,1-4.16,4.4h-9.64S697.45,428,696.05,430.46Z" transform="translate(-51.53 -268.41)"/><path class="cls-18" d="M688.65,455a.86.86,0,0,0-.16.94h0a6,6,0,0,0,1.87,2l.3.24.07.06,0,.05c.82.75.51.92,2,2.44,1.68,1.74,2.84,1.77,3.17,1.61s-.28-1.05-.91-2.09l-.09-.15-.25-.41c-.74-1.25-.55-1.83-.38-3.68.15-1.51,2.37-8.41,2.37-8.41l-3.23-.55s-1,5.5-2,6.34c-.57.46-1.22.46-1.77.8l-.11.07A3.93,3.93,0,0,0,688.65,455Z" transform="translate(-51.53 -268.41)"/><path d="M688.65,455a.86.86,0,0,0-.16.94h0a6.91,6.91,0,0,0,1.87,2l.3.25.07.06,0,.05c.82.75.51.92,2,2.44,1.68,1.74,2.84,1.77,3.17,1.61s-.28-1.05-.91-2.09a7.15,7.15,0,0,1-3-2.19c-1-1.28-1.7-2.92-2.39-3.87l-.11.07A3.93,3.93,0,0,0,688.65,455Z" transform="translate(-51.53 -268.41)"/><path class="cls-18" d="M714.68,453c.19,1,1.61.83,3.2.44s1.21.08,3.47-.17,2.94-1.08,3-1.41-1.05-.4-2.25-.54l-.45-.05c-1.35-.17-2.34-1-3.57-1.74s-2.9-3.41-2.9-3.41l-3.1.24s1.63,2.45,2.26,3.51a3.63,3.63,0,0,1,.3,2.09A3.63,3.63,0,0,0,714.68,453Z" transform="translate(-51.53 -268.41)"/><path d="M717.88,453.43c1.59-.38,1.21.08,3.47-.17s2.94-1.08,3-1.41-1.05-.4-2.25-.54v0a6.48,6.48,0,0,1-3.24,1c-1.53,0-3.15-.4-4.21-.38a3.63,3.63,0,0,0,0,1C714.87,454,716.29,453.82,717.88,453.43Z" transform="translate(-51.53 -268.41)"/><path class="cls-4" d="M702.81,433.4l-2.9,7.71-3.78,10.06a6.16,6.16,0,0,1-2-.18,9,9,0,0,1-1.94-.93s1.05-10.81,3-17a11.09,11.09,0,0,1,1.68-3.61C699.91,425.89,702.81,433.4,702.81,433.4Z" transform="translate(-51.53 -268.41)"/><path class="cls-4" d="M699.86,421.16c-1.89-.6-7.3.17-12.74,1.23L686,420.53l-11.74-.91s-3.87,8.5-1.75,13.92a2,2,0,0,0,2,1.32h9.42c5.84,0,12.36-4,13.2-4.13,1.38-.28,1.93,2.45,3.31,5.32s13,12.7,13,12.7a10.47,10.47,0,0,0,2.51-.26,2.47,2.47,0,0,0,1.08-.67S704.14,422.53,699.86,421.16Z" transform="translate(-51.53 -268.41)"/><path d="M685.52,386.72a12.29,12.29,0,0,0-4.16-.94c-4.45-.59-7.13,5.8-7.29,7.74-.29,3.57-2.2,4.12-4.88,6.35-5.39,4.49-3.81,9.7-.87,11.63,1.77,1.17,4.89,0,4.89,0s8.52-4.69,12.7-7C692.18,403.66,689.35,388.71,685.52,386.72Z" transform="translate(-51.53 -268.41)"/><path class="cls-18" d="M682.41,402.6a5.58,5.58,0,0,1-3.44.1,6.07,6.07,0,0,1-2.28-2.69c.6,0,1.25-.54,1.75-3.91l.25.09,4.25,1.51s-.3,1.35-.5,2.63C682.27,401.41,682.18,402.45,682.41,402.6Z" transform="translate(-51.53 -268.41)"/><path class="cls-26" d="M682.94,397.7s-.3,1.35-.5,2.63c-2.45-.43-3.4-2.84-3.75-4.14Z" transform="translate(-51.53 -268.41)"/><path class="cls-18" d="M683.58,399s-5.82-.77-5.28-4.35.16-6.08,3.89-5.74,4.25,1.81,4.37,3.05S685.1,399.15,683.58,399Z" transform="translate(-51.53 -268.41)"/><path d="M686.34,390s-3.72,3.17-6.25,3.43-3.49-.55-3.49-.55a9.9,9.9,0,0,0,2.39-3.2,1.75,1.75,0,0,1,1.47-1C682.27,388.52,685.69,388.45,686.34,390Z" transform="translate(-51.53 -268.41)"/><path class="cls-25" d="M684,389.75a9.47,9.47,0,0,1,1.64,2.08,7,7,0,0,1,.19,3.7s1.94-3.73.84-5.54A1.56,1.56,0,0,0,684,389.75Z" transform="translate(-51.53 -268.41)"/><path class="cls-22" d="M687.31,411.08c-.18,11.64,0,9.21-1.34,10.32a5,5,0,0,1-2.33.49c-3.61.24-10-.35-10.2-1-.83-2.28-.24-3-.94-6.49-.07-.37-.16-.77-.26-1.21-.58-2.4-1.15-3.22.91-7.08,1.86-3.49,3.8-6.33,4-6.23,4.92,2.89,5.32.47,5.32.47S687.39,405.39,687.31,411.08Z" transform="translate(-51.53 -268.41)"/><path class="cls-4" d="M699.91,441.11l-3.78,10.06a6.16,6.16,0,0,1-2-.18,9,9,0,0,1-1.94-.93s1.05-10.81,3-17Z" transform="translate(-51.53 -268.41)"/><path class="cls-22" d="M682.44,400.33s5.06.85,5.65,3,4.09,14.82,4.09,14.82-2.57.46-3.76-.72-4.13-10.9-4.13-10.9Z" transform="translate(-51.53 -268.41)"/><path class="cls-27" d="M683.64,421.89c-3.61.24-10-.35-10.2-1-.83-2.28-.24-3-.94-6.49l1.74-4.85s-.28,5.4,1.33,6.83,6.59,2.74,7.37,3.92A4.31,4.31,0,0,1,683.64,421.89Z" transform="translate(-51.53 -268.41)"/><path class="cls-18" d="M679.5,419.62s3.57-.78,4.14-.47A8.23,8.23,0,0,1,685.8,421c.17.4-1.28-.3-1.76-.43a4.35,4.35,0,0,0-1.51.33,5.14,5.14,0,0,1-2.71.27Z" transform="translate(-51.53 -268.41)"/><path class="cls-22" d="M677.12,399.87s-4.78.29-6.44,2.58c-2.33,3.21-6.95,16.92-4.3,18.75,3,2.05,13.58.53,13.58.53a4.19,4.19,0,0,0-.14-2.41c-.49-.79-8.46-2.07-8.83-2.43s4.6-7.1,4.6-8.19S677.12,399.87,677.12,399.87Z" transform="translate(-51.53 -268.41)"/><path class="cls-18" d="M683.81,420.13a7.38,7.38,0,0,0,1,1.07.76.76,0,0,0,.41.08l-.51-.89Z" transform="translate(-51.53 -268.41)"/><path class="cls-18" d="M683.64,419.15l2.17,1a.39.39,0,0,1-.36.14,4.89,4.89,0,0,1-.94-.26Z" transform="translate(-51.53 -268.41)"/><polygon class="cls-9" points="633.28 154.25 650.44 154.25 655.61 141.55 638.47 141.55 633.28 154.25"/><polygon class="cls-9" points="650.64 153.76 627.98 153.76 627.98 154.25 650.44 154.25 650.64 153.76"/><path class="cls-22" d="M697.64,416.31a.6.6,0,0,0-.59-.81,1.17,1.17,0,0,0-1,.81.58.58,0,0,0,.58.8A1.17,1.17,0,0,0,697.64,416.31Z" transform="translate(-51.53 -268.41)"/><rect class="cls-4" x="789.07" y="177.85" width="6.86" height="13.94"/><polygon class="cls-4" points="799.03 192.05 786.02 192.05 789.2 189.25 795.86 189.25 799.03 192.05"/><polygon class="cls-4" points="827.62 187.53 795.11 187.53 800.99 192.06 833.49 192.06 827.62 187.53"/><polygon class="cls-28" points="827.62 187.53 795.11 187.53 800.99 192.06 833.49 192.06 827.62 187.53"/><polygon class="cls-4" points="795.86 192.06 795.11 187.53 800.99 192.06 795.86 192.06"/><rect class="cls-9" x="761.62" y="144.85" width="61.42" height="38.53" rx="1.12"/><rect class="cls-29" x="763.85" y="147.26" width="56.89" height="33.58"/><rect class="cls-30" x="790.23" y="154.16" width="28.71" height="19.76"/><rect class="cls-9" x="790.23" y="154.16" width="28.71" height="1.81"/><path class="cls-22" d="M847,433.5l4.69,2.6a1.56,1.56,0,0,1,.47.35.65.65,0,0,1,.12.4.77.77,0,0,1-.22.53.7.7,0,0,1-.51.22,1.33,1.33,0,0,1-.57-.21L844.94,434a.59.59,0,0,1,0-1l6.06-3.37a1.45,1.45,0,0,1,.56-.2.7.7,0,0,1,.52.22.73.73,0,0,1,.22.52.65.65,0,0,1-.12.4,1.56,1.56,0,0,1-.47.35Z" transform="translate(-51.53 -268.41)"/><path class="cls-22" d="M859.09,428.65l-4.64,10a1.46,1.46,0,0,1-.32.49.67.67,0,0,1-.44.15.7.7,0,0,1-.52-.22.66.66,0,0,1-.21-.48,1.44,1.44,0,0,1,.17-.56l4.66-10a1.3,1.3,0,0,1,.31-.48.67.67,0,0,1,.44-.15.69.69,0,0,1,.51.21.62.62,0,0,1,.21.47A1.35,1.35,0,0,1,859.09,428.65Z" transform="translate(-51.53 -268.41)"/><path class="cls-22" d="M864.93,433.5l-4.69-2.6a1.56,1.56,0,0,1-.47-.35.65.65,0,0,1-.12-.4.73.73,0,0,1,.22-.52.7.7,0,0,1,.52-.22,1.45,1.45,0,0,1,.56.2L867,433a.59.59,0,0,1,0,1L861,437.39a1.35,1.35,0,0,1-.56.21.73.73,0,0,1-.52-.22.77.77,0,0,1-.22-.53.65.65,0,0,1,.12-.4,1.56,1.56,0,0,1,.47-.35Z" transform="translate(-51.53 -268.41)"/><rect class="cls-22" x="766.19" y="150.36" width="1.94" height="1.94"/><rect class="cls-22" x="766.19" y="155.39" width="1.94" height="1.94"/><rect class="cls-22" x="766.19" y="160.42" width="1.94" height="1.94"/><rect class="cls-22" x="766.19" y="165.45" width="1.94" height="1.94"/><rect class="cls-22" x="766.19" y="170.48" width="1.94" height="1.94"/><rect class="cls-22" x="766.19" y="175.51" width="1.94" height="1.94"/><rect class="cls-22" x="769.98" y="150.79" width="7.75" height="0.58"/><rect class="cls-22" x="771.78" y="155.84" width="2.76" height="0.58"/><rect class="cls-22" x="783.79" y="161.5" width="2.76" height="0.58"/><rect class="cls-22" x="771.78" y="165.99" width="2.76" height="0.58"/><rect class="cls-22" x="775.76" y="165.99" width="2.76" height="0.58"/><rect class="cls-22" x="775.76" y="161.5" width="7.05" height="0.58"/><rect class="cls-22" x="779.87" y="165.99" width="4.64" height="0.58"/><rect class="cls-22" x="779.85" y="176.78" width="2.76" height="0.58"/><rect class="cls-22" x="783.83" y="176.78" width="2.76" height="0.58"/><rect class="cls-22" x="787.94" y="176.78" width="1.54" height="0.58"/><rect class="cls-22" x="775.93" y="155.84" width="8.59" height="0.58"/><rect class="cls-22" x="775.76" y="171.24" width="2.76" height="0.58"/><rect class="cls-22" x="779.44" y="171.24" width="1.6" height="0.58"/><rect class="cls-22" x="782.26" y="171.24" width="4.51" height="0.58"/><g id="Group"><polygon class="cls-31" points="313.78 144.21 313.78 198.01 314.85 198.01 316.21 144.21 313.78 144.21"/><rect class="cls-31" x="305.57" y="142.59" width="137.84" height="2.26"/><polygon class="cls-31" points="435.68 144.21 435.68 198.01 434.61 198.01 433.25 144.21 435.68 144.21"/><polygon class="cls-32" points="422.99 145.97 422.99 195.81 421.92 195.81 420.56 145.97 422.99 145.97"/><polygon class="cls-33" points="422.99 145.97 422.99 195.81 421.92 195.81 420.56 145.97 422.99 145.97"/><polygon class="cls-31" points="438.13 147.26 311.24 147.26 308.44 144.85 440.94 144.85 438.13 147.26"/></g><g id="_Group_" data-name="&lt;Group&gt;"><path class="cls-34" d="M426.54,377.26c-.1.26,0,.52.14.57s.38-.1.47-.36,0-.52-.14-.58S426.63,377,426.54,377.26Z" transform="translate(-51.53 -268.41)"/><path class="cls-35" d="M426.49,377.53a9.66,9.66,0,0,0,.47,2.66,1.58,1.58,0,0,1-1.32-.2Z" transform="translate(-51.53 -268.41)"/><path class="cls-34" d="M426.11,375.49h.11a1.25,1.25,0,0,1,1.15.18.17.17,0,0,0,.23,0,.16.16,0,0,0,0-.21,1.62,1.62,0,0,0-1.46-.24.16.16,0,0,0-.1.2.22.22,0,0,0,.1.11Z" transform="translate(-51.53 -268.41)"/><path class="cls-36" d="M416.89,378.22c.49,2.5,1,7.09-.77,8.76,0,0,.69,2.53,5.34,2.53,5.12,0,2.45-2.53,2.45-2.53-2.8-.67-2.35-2.74-1.86-4.69Z" transform="translate(-51.53 -268.41)"/><path class="cls-36" d="M418,373.68c-.91,3.27-1.62,5.14-.57,7.34,1.57,3.32,7.06,3.75,8.55,0,1.14-3.5,2.27-7.2-.42-9.56a4.64,4.64,0,0,0-7.56,2.27Z" transform="translate(-51.53 -268.41)"/><path class="cls-34" d="M414.48,374.77a5.34,5.34,0,0,1,.31-3.6,2.41,2.41,0,0,1,3.12-1.1,5.14,5.14,0,1,1,7.29,6.61c.25-.9.49-1.8.73-2.69a5.23,5.23,0,0,1-1.87,3.18l.42-2.69a4.15,4.15,0,0,1-2,3.1l.51-1.89a17.19,17.19,0,0,1-1,2.53c-.43.5-.72,3.81-2.24,3.91C414.59,383.17,415,377.58,414.48,374.77Z" transform="translate(-51.53 -268.41)"/><path class="cls-36" d="M421.48,376.33a3.84,3.84,0,0,0,.54,2.41c.58.94,1.44.58,1.76-.38s.31-2.4-.5-3S421.61,375.32,421.48,376.33Z" transform="translate(-51.53 -268.41)"/><path class="cls-36" d="M409.09,408c-.56-.18-3.18-1.53-3.6-1.29,1.21-3.08,2-3.55,2.51-5.52a3,3,0,0,0-.58-2.86c-.77-1-1-1.56-2.33-1.43-1.77,3-4,6.6-4.87,9.94-.29,1.12-.5,2,.17,2.92a3.59,3.59,0,0,0,2.69,1.26c2.45.22,6.09-.23,6-1.68C409.09,408.45,409.09,408,409.09,408Z" transform="translate(-51.53 -268.41)"/><path class="cls-36" d="M408.67,407.92l2.08-.67-.19,3.75A3.42,3.42,0,0,1,408,410Z" transform="translate(-51.53 -268.41)"/><polygon class="cls-36" points="361.82 138.78 361.52 141.88 359.04 142.59 359.22 138.84 361.82 138.78"/><path class="cls-36" d="M437.14,410.58s-2.89-2.26-6.69-9.76q-.85-1.57-1.62-3.18c-.52-1.07-1-2.13-1.49-3.26l4.49-1.93c.93,2,2.37,4.09,3.39,6.09s3.43,6.74,3.73,7.19c.15.22.31.41.47.62l.23.31-2.9,3.35Z" transform="translate(-51.53 -268.41)"/><path class="cls-36" d="M441,396l-.9-1.07-.42-1.6,2.71-2.53a11.83,11.83,0,0,1,1.12,1.68.85.85,0,0,1,.09.44l-.11,2.82Z" transform="translate(-51.53 -268.41)"/><polygon class="cls-36" points="388.14 123.18 390.17 121.33 390.82 122.41 388.1 124.92 388.14 123.18"/><path class="cls-36" d="M441,395.22c.07-.3.13.29.33,0a1.17,1.17,0,0,1,2,0c.52.78.07,8.63-.75,11.09-.56,1.63-.85,2.94-2.26,3.93a3.41,3.41,0,0,1-2,.71,1.87,1.87,0,0,1-1.72-1.06c-.42-1,1.13-4.72,1.69-5.91C440,400.27,440.15,398.76,441,395.22Z" transform="translate(-51.53 -268.41)"/><path class="cls-37" d="M435.17,394.88l3.59,0a3.69,3.69,0,0,0,1.51-.24,2.73,2.73,0,0,0,1.22-1.54,18.87,18.87,0,0,0,.76-4.11,6,6,0,0,1,1.66-3.76c-1.91.25-5.28-.35-6.75,1.22C436.38,387.25,435,394.88,435.17,394.88Z" transform="translate(-51.53 -268.41)"/><path class="cls-36" d="M441.31,389.54h0c-.2.06-.34.8-.29,1l.2.36.41,1.78,1.37-.76-1.24-2.2A.42.42,0,0,0,441.31,389.54Z" transform="translate(-51.53 -268.41)"/><path class="cls-38" d="M410.32,387.6c-3.21.74-7.95,10.74-7.95,10.74l6.44,4.4a72.74,72.74,0,0,0,5-8.29C415.73,390.47,413.6,386.85,410.32,387.6Z" transform="translate(-51.53 -268.41)"/><path class="cls-38" d="M415,387.85c-.37-.81-.77-1.73.07-2s5.95-.64,7.68,0A1.78,1.78,0,0,1,424,388v0Z" transform="translate(-51.53 -268.41)"/><path class="cls-39" d="M412.31,393.38,407.73,402l1.08.74s2.07-2.89,3.5-5.39Z" transform="translate(-51.53 -268.41)"/><path class="cls-38" d="M429.84,392c.7,3.51-.92,11.85-.91,25.49h-18.3c-.13-2.75,1.88-9.28-.61-22.28-.08-.42-.12-7.54.3-7.62a48.63,48.63,0,0,1,5.36-.63,67.48,67.48,0,0,1,7.79,0,21.16,21.16,0,0,1,3.78,1.14C428.89,388.71,429.5,390.29,429.84,392Z" transform="translate(-51.53 -268.41)"/><path class="cls-39" d="M425,395.5a21.39,21.39,0,0,0,4.26,8.95c.07-1.64.24-3.35.23-4.67Z" transform="translate(-51.53 -268.41)"/><path class="cls-38" d="M423.7,391.16c-.44,3.24,5.93,11.52,5.93,11.52l6.42-4.4a25.26,25.26,0,0,0-4.78-7.55C427.86,387.3,424.2,387.63,423.7,391.16Z" transform="translate(-51.53 -268.41)"/><polygon class="cls-36" points="393.14 194.49 396.56 194.49 397.34 186.56 393.92 186.56 393.14 194.49"/><polygon class="cls-40" points="397.29 187.04 396.89 191.13 393.47 191.13 393.87 187.04 397.29 187.04"/><polygon class="cls-36" points="379.64 194.49 383.07 194.49 384.79 186.56 381.36 186.56 379.64 194.49"/><g class="cls-41"><polygon points="381.29 186.98 384.71 186.98 383.82 191.07 380.4 191.07 381.29 186.98"/></g><path class="cls-34" d="M448.28,461.36h-3.73c-.14,0-.26.13-.3.31l-.67,3.91a.67.67,0,0,0,.37.78h.12c1.35,0,3.29-.13,5-.13,2,0,3.69.14,6,.14,1.41,0,1.8-1.84,1.21-2-2.68-.75-4.86-.83-7.17-2.68A1.34,1.34,0,0,0,448.28,461.36Z" transform="translate(-51.53 -268.41)"/><path class="cls-31" d="M451,462.63c.44,0,.88-.06,1-.26a.32.32,0,0,0,0-.35.42.42,0,0,0-.26-.19c-.57-.16-1.76.52-1.81.55a.08.08,0,0,0,0,.09.06.06,0,0,0,.06.06A5.16,5.16,0,0,0,451,462.63Zm.55-.66a.38.38,0,0,1,.15,0,.21.21,0,0,1,.16.11c.06.1,0,.15,0,.18-.16.22-1,.23-1.66.13A3.67,3.67,0,0,1,451.55,462Z" transform="translate(-51.53 -268.41)"/><path class="cls-31" d="M450,462.53h0c.42-.18,1.23-.92,1.17-1.31,0-.1-.08-.21-.3-.23a.55.55,0,0,0-.44.14,2.23,2.23,0,0,0-.53,1.32s0,.05,0,.07Zm.83-1.38h.05c.15,0,.16.07.16.09,0,.23-.52.82-.94,1.07a1.89,1.89,0,0,1,.44-1.06A.45.45,0,0,1,450.8,461.15Z" transform="translate(-51.53 -268.41)"/><path class="cls-34" d="M434.83,461.36H431a.33.33,0,0,0-.29.31l-.68,3.91a.7.7,0,0,0,.39.78h.12c1.34,0,2-.13,3.68-.13,1,0,2.38.14,3.81.14s1.63-1.84,1-2c-2.64-.74-2.82-1.77-3.67-2.76A.7.7,0,0,0,434.83,461.36Z" transform="translate(-51.53 -268.41)"/><path class="cls-31" d="M436.84,463.07a1.17,1.17,0,0,0,.83-.23.33.33,0,0,0,0-.38.38.38,0,0,0-.26-.19c-.5-.12-1.44.53-1.48.55a.11.11,0,0,0,0,.09.09.09,0,0,0,.06.06A4.5,4.5,0,0,0,436.84,463.07Zm.44-.65h.1a.18.18,0,0,1,.15.1c.08.14,0,.19,0,.21-.14.19-.84.2-1.36.11a2.59,2.59,0,0,1,1.11-.42Z" transform="translate(-51.53 -268.41)"/><path class="cls-31" d="M436,463h0c.36-.19,1-.94,1-1.32a.28.28,0,0,0-.26-.21.44.44,0,0,0-.35.1,2.5,2.5,0,0,0-.48,1.36.07.07,0,0,0,0,.07Zm.69-1.38h0c.11,0,.11.06.12.08,0,.23-.4.79-.75,1.06a1.91,1.91,0,0,1,.41-1.07.24.24,0,0,1,.18-.07Z" transform="translate(-51.53 -268.41)"/><path class="cls-34" d="M423.44,417.51s16.21,6.69,19.56,11.83c-2,13.08-5.57,28-5.57,28h-6.09a119.86,119.86,0,0,1,1.58-19.25c.88-16-27.89.56-22.3-20.56Z" transform="translate(-51.53 -268.41)"/><path class="cls-42" d="M434.65,428.53a29.81,29.81,0,0,0-3.39.39l-3.55.55a54.65,54.65,0,0,0,5.79,4.23,7.9,7.9,0,0,0,4,1.53c1.62,0,6-2.09,5.31-4.25S436.5,428.46,434.65,428.53Z" transform="translate(-51.53 -268.41)"/><path class="cls-34" d="M428.93,417.51s15,1.93,23.24,6.63c2.54,1.45,2.19,6.1,2.12,9.16a72.29,72.29,0,0,1-4.67,24h-5.08s.26-8.3.08-21.69c-.05-4-8.15-5.34-16.07-5.81a18,18,0,0,1-15.5-11l-.54-1.29Z" transform="translate(-51.53 -268.41)"/><path class="cls-38" d="M450.86,456s-.33,2.4-.33,2.4h-7l-.19-2.15Z" transform="translate(-51.53 -268.41)"/><path class="cls-38" d="M438,456s-.64,2.4-.64,2.4h-7l.13-2.15Z" transform="translate(-51.53 -268.41)"/><polygon points="367.59 161.24 362.55 198.4 361.63 198.28 365.53 160.95 367.59 161.24"/><polygon class="cls-43" points="367.41 162.57 362.55 198.4 361.63 198.28 365.36 162.56 367.41 162.57"/><path class="cls-31" d="M436.85,431H408.26a3.26,3.26,0,0,1,3.27-3.26h22.06a3.26,3.26,0,0,1,3.26,3.26Z" transform="translate(-51.53 -268.41)"/><polygon points="358.06 162.56 353.75 198.69 354.67 198.69 360.14 162.56 358.06 162.56"/><polygon points="384 162.56 388.31 198.69 387.38 198.69 381.92 162.56 384 162.56"/><polygon class="cls-43" points="384 162.56 388.31 198.69 387.38 198.69 381.92 162.56 384 162.56"/><polygon points="378.23 162.56 378.32 198.69 377.4 198.69 376.15 162.56 378.23 162.56"/></g></g></g></svg>