<svg xmlns="http://www.w3.org/2000/svg" xmlns:xlink="http://www.w3.org/1999/xlink" viewBox="0 0 1509.55 1212.19"><defs><style>.cls-1{mask:url(#mask);filter:url(#luminosity-noclip-3);}.cls-2,.cls-4{mix-blend-mode:multiply;}.cls-2{fill:url(#linear-gradient);}.cls-3{mask:url(#mask-2);filter:url(#luminosity-noclip-4);}.cls-4{fill:url(#linear-gradient-2);}.cls-14,.cls-5{fill:#d71e3c;}.cls-5{opacity:0.1;}.cls-11,.cls-35,.cls-5,.cls-9{isolation:isolate;}.cls-6{fill:url(#linear-gradient-3);}.cls-7{fill:url(#linear-gradient-4);}.cls-8{mask:url(#mask-3);}.cls-11,.cls-9{opacity:0.24;}.cls-9{fill:url(#linear-gradient-5);}.cls-10{mask:url(#mask-4);}.cls-11{fill:url(#linear-gradient-6);}.cls-12{opacity:0.38;}.cls-13,.cls-35{fill:#fff;}.cls-15{fill:url(#linear-gradient-7);}.cls-16{fill:url(#linear-gradient-8);}.cls-17{fill:url(#linear-gradient-9);}.cls-18{fill:url(#linear-gradient-10);}.cls-19{fill:url(#linear-gradient-11);}.cls-20{fill:url(#linear-gradient-12);}.cls-21{fill:url(#linear-gradient-13);}.cls-22{fill:url(#linear-gradient-14);}.cls-23{fill:url(#linear-gradient-15);}.cls-24{fill:url(#linear-gradient-16);}.cls-25{fill:url(#linear-gradient-17);}.cls-26{fill:url(#linear-gradient-18);}.cls-27{fill:url(#linear-gradient-19);}.cls-28{fill:url(#linear-gradient-20);}.cls-29{fill:url(#linear-gradient-21);}.cls-30{fill:url(#linear-gradient-22);}.cls-31{fill:url(#linear-gradient-23);}.cls-32{fill:url(#linear-gradient-24);}.cls-33{fill:url(#linear-gradient-25);}.cls-34{fill:url(#linear-gradient-26);}.cls-35{opacity:0.59;}.cls-36{filter:url(#luminosity-noclip-2);}.cls-37{filter:url(#luminosity-noclip);}</style><filter id="luminosity-noclip" x="178.95" y="-8683.05" width="258.55" height="32766" filterUnits="userSpaceOnUse" color-interpolation-filters="sRGB"><feFlood flood-color="#fff" result="bg"/><feBlend in="SourceGraphic" in2="bg"/></filter><mask id="mask" x="178.95" y="-8683.05" width="258.55" height="32766" maskUnits="userSpaceOnUse"><g class="cls-37"/></mask><linearGradient id="linear-gradient" x1="308.22" y1="309.24" x2="308.22" y2="78.47" gradientTransform="matrix(1, 0, 0, -1, 0, 984.1)" gradientUnits="userSpaceOnUse"><stop offset="0" stop-color="#fff"/><stop offset="0.08" stop-color="#ccc"/><stop offset="0.17" stop-color="#9e9e9e"/><stop offset="0.26" stop-color="#737373"/><stop offset="0.36" stop-color="#4f4f4f"/><stop offset="0.46" stop-color="#333"/><stop offset="0.57" stop-color="#1c1c1c"/><stop offset="0.68" stop-color="#0d0d0d"/><stop offset="0.82" stop-color="#030303"/><stop offset="1"/></linearGradient><filter id="luminosity-noclip-2" x="176.07" y="-8683.05" width="215.73" height="32766" filterUnits="userSpaceOnUse" color-interpolation-filters="sRGB"><feFlood flood-color="#fff" result="bg"/><feBlend in="SourceGraphic" in2="bg"/></filter><mask id="mask-2" x="176.07" y="-8683.05" width="215.73" height="32766" maskUnits="userSpaceOnUse"><g class="cls-36"/></mask><linearGradient id="linear-gradient-2" x1="283.93" y1="318.15" x2="283.93" y2="126.24" gradientTransform="matrix(1, 0, 0, -1, 0, 984.1)" gradientUnits="userSpaceOnUse"><stop offset="0" stop-color="#fff"/><stop offset="0.09" stop-color="#dedede"/><stop offset="0.28" stop-color="#9c9c9c"/><stop offset="0.46" stop-color="#636363"/><stop offset="0.63" stop-color="#383838"/><stop offset="0.78" stop-color="#1a1a1a"/><stop offset="0.91" stop-color="#080808"/><stop offset="1"/></linearGradient><linearGradient id="linear-gradient-3" x1="176.07" y1="140.28" x2="531.79" y2="140.28" gradientTransform="matrix(1, 0, 0, -1, 0, 984.1)" gradientUnits="userSpaceOnUse"><stop offset="0" stop-color="#ffea01"/><stop offset="0.34" stop-color="#fdda01"/><stop offset="1" stop-color="#f6b002"/></linearGradient><linearGradient id="linear-gradient-4" x1="417.37" y1="30.37" x2="290.44" y2="250.18" xlink:href="#linear-gradient-3"/><filter id="luminosity-noclip-3" x="178.95" y="674.86" width="258.55" height="230.78" filterUnits="userSpaceOnUse" color-interpolation-filters="sRGB"><feFlood flood-color="#fff" result="bg"/><feBlend in="SourceGraphic" in2="bg"/></filter><mask id="mask-3" x="178.95" y="674.86" width="258.55" height="230.78" maskUnits="userSpaceOnUse"><g class="cls-1"><path class="cls-2" d="M187.1,905.64,437.5,687a177.65,177.65,0,0,0-28.59-12.16L179,875.48A176.82,176.82,0,0,0,187.1,905.64Z"/></g></mask><linearGradient id="linear-gradient-5" x1="308.22" y1="309.24" x2="308.22" y2="78.47" gradientTransform="matrix(1, 0, 0, -1, 0, 984.1)" gradientUnits="userSpaceOnUse"><stop offset="0" stop-color="#fff"/><stop offset="0.08" stop-color="#fff"/><stop offset="0.17" stop-color="#fff"/><stop offset="0.26" stop-color="#fff"/><stop offset="0.36" stop-color="#fff"/><stop offset="0.46" stop-color="#fff"/><stop offset="0.57" stop-color="#fff"/><stop offset="0.68" stop-color="#fff"/><stop offset="0.82" stop-color="#fff"/><stop offset="1" stop-color="#fff"/></linearGradient><filter id="luminosity-noclip-4" x="176.07" y="665.96" width="215.73" height="191.91" filterUnits="userSpaceOnUse" color-interpolation-filters="sRGB"><feFlood flood-color="#fff" result="bg"/><feBlend in="SourceGraphic" in2="bg"/></filter><mask id="mask-4" x="176.07" y="665.96" width="215.73" height="191.91" maskUnits="userSpaceOnUse"><g class="cls-3"><path class="cls-4" d="M353.93,666A178,178,0,0,0,176.07,843.82a106.1,106.1,0,0,0,.62,14l215.1-188.08A177.68,177.68,0,0,0,353.93,666Z"/></g></mask><linearGradient id="linear-gradient-6" x1="283.93" y1="318.15" x2="283.93" y2="126.24" gradientTransform="matrix(1, 0, 0, -1, 0, 984.1)" gradientUnits="userSpaceOnUse"><stop offset="0" stop-color="#fff"/><stop offset="0.09" stop-color="#fff"/><stop offset="0.28" stop-color="#fff"/><stop offset="0.46" stop-color="#fff"/><stop offset="0.63" stop-color="#fff"/><stop offset="0.78" stop-color="#fff"/><stop offset="0.91" stop-color="#fff"/><stop offset="1" stop-color="#fff"/></linearGradient><linearGradient id="linear-gradient-7" x1="-11656.59" y1="-2852.2" x2="-11656.59" y2="-2945.5" gradientTransform="translate(-11007.43 4247.73) rotate(147.26)" xlink:href="#linear-gradient-3"/><linearGradient id="linear-gradient-8" x1="190.41" y1="-3136.54" x2="190.41" y2="-2747.44" gradientTransform="matrix(1, 0, 0, -1, 88.68, -2514.78)" gradientUnits="userSpaceOnUse"><stop offset="0" stop-color="#fb9566"/><stop offset="0.33" stop-color="#fb9266"/><stop offset="0.54" stop-color="#fa8a67"/><stop offset="0.72" stop-color="#f97b69"/><stop offset="0.88" stop-color="#f8666b"/><stop offset="1" stop-color="#f7516d"/></linearGradient><linearGradient id="linear-gradient-9" x1="190.38" y1="-2845.56" x2="190.38" y2="-2747.46" gradientTransform="matrix(1, 0, 0, -1, 9.43, -2491.27)" xlink:href="#linear-gradient-8"/><linearGradient id="linear-gradient-10" x1="190.41" y1="-2747.44" x2="190.41" y2="-3136.54" gradientTransform="matrix(1, 0, 0, -1, 88.68, -2514.78)" xlink:href="#linear-gradient-3"/><linearGradient id="linear-gradient-11" x1="190.45" y1="-2747.5" x2="190.45" y2="-2852.43" gradientTransform="matrix(1, 0, 0, -1, 11.29, -2491.87)" xlink:href="#linear-gradient-3"/><linearGradient id="linear-gradient-12" x1="115.46" y1="-2658.39" x2="115.46" y2="-2751.77" gradientTransform="matrix(0.84, -0.54, -0.54, -0.84, -1483.67, -1936.18)" xlink:href="#linear-gradient-3"/><linearGradient id="linear-gradient-13" x1="9315.27" y1="5509.65" x2="9315.27" y2="5425.72" gradientTransform="matrix(0.68, 0.72, 0.72, -0.68, -8876.86, -2442.59)" xlink:href="#linear-gradient-3"/><linearGradient id="linear-gradient-14" x1="-20870.35" y1="5577.68" x2="-20870.35" y2="5493.75" gradientTransform="matrix(-0.68, -0.72, 0.72, -0.68, -16641.2, -10714.84)" xlink:href="#linear-gradient-3"/><linearGradient id="linear-gradient-15" x1="9319.94" y1="4937.94" x2="9319.94" y2="5288" gradientTransform="matrix(0, 1, 1, 0, -3886.46, -8460.44)" gradientUnits="userSpaceOnUse"><stop offset="0" stop-color="#61f5e8"/><stop offset="0.23" stop-color="#55e4ee"/><stop offset="1" stop-color="#31acff"/></linearGradient><linearGradient id="linear-gradient-16" x1="9320.02" y1="5199.68" x2="9320.02" y2="5287.96" gradientTransform="matrix(0, 1, 1, 0, -3921.83, -8549.99)" xlink:href="#linear-gradient-15"/><linearGradient id="linear-gradient-17" x1="9319.97" y1="5288" x2="9319.97" y2="4937.95" gradientTransform="matrix(0, 1, 1, 0, -3886.44, -8460.44)" xlink:href="#linear-gradient-3"/><linearGradient id="linear-gradient-18" x1="9319.98" y1="5287.96" x2="9319.98" y2="5193.58" gradientTransform="matrix(0, 1, 1, 0, -3921.04, -8547.89)" xlink:href="#linear-gradient-3"/><linearGradient id="linear-gradient-19" x1="792.31" y1="-228.08" x2="792.31" y2="392.74" gradientTransform="matrix(1, 0, 0, -1, 0, 984.1)" gradientUnits="userSpaceOnUse"><stop offset="0" stop-color="#fb9566"/><stop offset="0.3" stop-color="#d71e3c"/><stop offset="0.87" stop-color="#f85b6c"/><stop offset="1" stop-color="#f7516d"/></linearGradient><linearGradient id="linear-gradient-20" x1="612.07" y1="-228.08" x2="612.07" y2="392.74" gradientTransform="matrix(1, 0, 0, -1, 0, 984.1)" gradientUnits="userSpaceOnUse"><stop offset="0" stop-color="#8c54ff"/><stop offset="0.27" stop-color="#7c4cfe"/><stop offset="0.79" stop-color="#5236fc"/><stop offset="1" stop-color="#402dfb"/></linearGradient><linearGradient id="linear-gradient-21" x1="792.04" y1="-136.43" x2="792.04" y2="392.74" xlink:href="#linear-gradient-20"/><linearGradient id="linear-gradient-22" x1="972" y1="-227.81" x2="972" y2="392.74" xlink:href="#linear-gradient-20"/><linearGradient id="linear-gradient-23" x1="313.68" y1="504.62" x2="1272.54" y2="504.62" xlink:href="#linear-gradient-3"/><linearGradient id="linear-gradient-24" x1="1049.81" y1="247.92" x2="536.36" y2="761.43" xlink:href="#linear-gradient-3"/><linearGradient id="linear-gradient-25" x1="990.28" y1="307.53" x2="596" y2="701.88" gradientTransform="matrix(1, 0, 0, -1, 0, 984.1)" gradientUnits="userSpaceOnUse"><stop offset="0" stop-color="#d7693c"/><stop offset="0.27" stop-color="#d73c3c"/><stop offset="0.79" stop-color="#d71e3c"/><stop offset="1" stop-color="#d71e3c"/></linearGradient><linearGradient id="linear-gradient-26" x1="701.72" y1="663.05" x2="884.56" y2="346.36" gradientTransform="matrix(0.71, 0.71, 0.71, -0.71, -124.57, 275.45)" gradientUnits="userSpaceOnUse"><stop offset="0" stop-color="#d7493c"/><stop offset="0.27" stop-color="#d73c3c"/><stop offset="0.79" stop-color="#d71e3c"/><stop offset="1" stop-color="#d71e3c"/></linearGradient></defs><title>Asset 1</title><g id="Layer_2" data-name="Layer 2"><g id="Layer_1-2" data-name="Layer 1"><path class="cls-5" d="M1081.45,134.75s-160,76.53-312.7,17.55S570.82-6.62,348.23,51.48,13.45,430.29,23.22,677.72s206.09,387.2,364.51,393.82S808.7,831,930.92,826.32c120.63-4.58,375.67,95.74,482-40s142-449.93,18.48-596.6S1155.62,82.55,1081.45,134.75Z"/><path class="cls-6" d="M353.93,666A177.86,177.86,0,1,0,531.79,843.82,177.86,177.86,0,0,0,353.93,666Z"/><path class="cls-7" d="M353.93,716.93A126.89,126.89,0,1,0,480.82,843.82,126.89,126.89,0,0,0,353.93,716.93Z"/><g class="cls-8"><path class="cls-9" d="M187.1,905.64,437.5,687a177.65,177.65,0,0,0-28.59-12.16L179,875.48A176.82,176.82,0,0,0,187.1,905.64Z"/></g><g class="cls-10"><path class="cls-11" d="M353.93,666A178,178,0,0,0,176.07,843.82a106.1,106.1,0,0,0,.62,14l215.1-188.08A177.68,177.68,0,0,0,353.93,666Z"/></g><g class="cls-12"><path class="cls-13" d="M344.27,943.82V920.06a52.43,52.43,0,0,1-47.52-45.52l27.52-6.64a28.53,28.53,0,0,0,30,26.93c.44,0,.87-.06,1.31-.1,14.42,0,22.88-6.9,22.88-16.68,0-7.52-5.58-13.29-16.67-15.73l-20.44-4.46c-23.95-5.33-38.87-20.43-38.87-41.69,0-23.51,18.18-40.81,41.94-44.64V747.77h22.63v24.39a47.09,47.09,0,0,1,39.75,37.31l-27.27,7.77a23.88,23.88,0,0,0-25.08-20.62c-14.23,0-21.94,8.21-21.94,17.3,0,6.89,4.89,12.54,15.3,14.86L368,833.42c28,6.27,40.63,22.88,40.63,42.82S394,915.55,367.41,919.75v23.94Z"/></g><polygon class="cls-14" points="1374.17 210.84 1396.35 170.28 1418.48 210.84 1459.04 232.97 1418.48 255.15 1396.35 295.65 1374.17 255.15 1333.67 232.97 1374.17 210.84"/><polygon class="cls-14" points="1340.07 368.71 1354.25 342.83 1368.38 368.71 1394.26 382.89 1368.38 397.02 1354.25 422.9 1340.07 397.02 1314.19 382.89 1340.07 368.71"/><path class="cls-15" d="M175.41,268.66l137.14-89.15-27.34-42.1a43,43,0,0,0-77.68,12.26Z"/><rect class="cls-16" x="72.69" y="232.74" width="412.83" height="389.11" transform="translate(-187.73 221.03) rotate(-33.01)"/><rect class="cls-17" x="-6.6" y="256.27" width="412.83" height="98.1" transform="translate(-134.08 158.14) rotate(-33.01)"/><rect class="cls-18" x="226.63" y="232.74" width="104.93" height="389.11" transform="translate(-187.73 221.03) rotate(-33.01)"/><rect class="cls-19" x="149.28" y="255.71" width="104.93" height="104.93" transform="translate(-135.32 159.65) rotate(-33.01)"/><path class="cls-20" d="M181.3,264.81,44.16,353.72l-27.33-42.1a43,43,0,0,1,42.73-66l121.74,19Z"/><path class="cls-21" d="M1353.5,746,1252.85,638.78l32.92-30.93A38.71,38.71,0,0,1,1351,635.24l2.56,110.82Z"/><path class="cls-22" d="M1349.14,741.39,1449.8,848.65l32.92-30.93a38.71,38.71,0,0,0-23.16-66.84l-110.4-9.67Z"/><rect class="cls-23" x="1051.67" y="673.73" width="350.05" height="371.34" transform="translate(-255.9 1072.12) rotate(-43.18)"/><rect class="cls-24" x="1278.03" y="584.25" width="88.27" height="371.34" transform="translate(-168.82 1113.22) rotate(-43.18)"/><rect class="cls-25" x="1051.69" y="812.23" width="350.05" height="94.38" transform="translate(-255.91 1072.14) rotate(-43.18)"/><rect class="cls-26" x="1272.72" y="724.79" width="94.38" height="94.38" transform="translate(-170.84 1112.24) rotate(-43.18)"/><polygon class="cls-27" points="1030.96 1212.19 792.04 1090.79 553.66 1212.19 553.66 591.36 1030.96 591.36 1030.96 1212.19"/><polygon class="cls-28" points="670.48 591.36 553.66 591.36 553.66 1212.19 670.48 1152.7 670.48 591.36"/><polygon class="cls-29" points="733.66 1120.53 792.04 1090.79 850.42 1120.42 850.42 591.36 733.66 591.36 733.66 1120.53"/><polygon class="cls-30" points="913.6 1152.54 1030.41 1211.91 1030.41 591.36 913.6 591.36 913.6 1152.54"/><path class="cls-31" d="M1198.32,581.87l74.22-102.42L1198.32,377a16.59,16.59,0,0,1-3.09-11.53l13.14-125.81-115.6-51.43a16.51,16.51,0,0,1-8.5-8.44l-51.43-115.6L907,77.36a16.51,16.51,0,0,1-11.48-3.09L793,0,690.62,74.22a16.64,16.64,0,0,1-11.48,3.09L553.33,64.18,501.9,179.78a16.55,16.55,0,0,1-8.44,8.44l-115.6,51.43L391,365.46A16.55,16.55,0,0,1,387.9,377L313.68,479.4,387.9,581.82A16.53,16.53,0,0,1,391,593.35L377.86,719.16l115.6,51.42a16.55,16.55,0,0,1,8.44,8.5l51.43,115.6,125.81-13.13h1.65a16.49,16.49,0,0,1,9.77,3.2L793.08,959,895.5,884.75A16.61,16.61,0,0,1,907,881.66l125.81,13.13,51.42-115.6a16.55,16.55,0,0,1,8.5-8.44l115.6-51.43-13.13-125.81A16.6,16.6,0,0,1,1198.32,581.87Z"/><path class="cls-32" d="M1110.75,559.74l58.16-80.28-58.16-80.29a13,13,0,0,1-2.42-9.05l10.32-98.6L1028,251.18a13.07,13.07,0,0,1-6.62-6.62L981.14,154l-98.61,10.32a13.17,13.17,0,0,1-9-2.43L793,103.63l-80.29,58.21a13.17,13.17,0,0,1-9,2.43L605.09,154l-40.28,90.6a13,13,0,0,1-6.63,6.63l-90.6,40.33,10.32,98.61a13.11,13.11,0,0,1-2.43,9.05l-58.22,80.28,58.22,80.29a13.11,13.11,0,0,1,2.43,9L467.58,667.4l90.6,40.33a13.14,13.14,0,0,1,6.63,6.63L605.09,805l98.66-10.32h1.32a12.88,12.88,0,0,1,7.67,2.49l80.34,58.16,80.29-58.16a13,13,0,0,1,9-2.43L981,805l40.28-90.61a13,13,0,0,1,6.62-6.62l90.61-40.34-10.32-98.6A13.07,13.07,0,0,1,1110.75,559.74Z"/><circle class="cls-33" cx="793.14" cy="479.4" r="278.82"/><circle class="cls-34" cx="793.14" cy="479.4" r="182.81" transform="translate(-106.68 701.25) rotate(-45)"/><path class="cls-35" d="M793,372.19A107.27,107.27,0,1,0,900.3,479.45h0A107.38,107.38,0,0,0,793,372.19Zm63.68,87L779.9,536a16.55,16.55,0,0,1-23.34,0L727.2,506.66a16.55,16.55,0,0,1,23.34-23.34L768.2,501l65.17-65.17a16.55,16.55,0,1,1,25.14,21.53,15.39,15.39,0,0,1-1.8,1.81Z"/></g></g></svg>