<svg xmlns="http://www.w3.org/2000/svg" viewBox="0 0 750 500"><defs><style>.cls-1{fill:#ebebeb;}.cls-2{fill:#e0e0e0;}.cls-3{fill:#e8505b;}.cls-4,.cls-6{opacity:0.8;}.cls-5,.cls-6{fill:#fff;}.cls-7{opacity:0.4;}.cls-8{fill:#455a64;}.cls-9{fill:#263238;}.cls-10{fill:#ffbe9d;}.cls-11{fill:#eb996e;}.cls-12{opacity:0.3;}</style></defs><title>Mesa de trabajo 1</title><g id="Background_Complete" data-name="Background Complete"><path class="cls-1" d="M467,443.86a16.66,16.66,0,0,1,24.72,12.82c-10.1,0-20-2.35-24.72-12.82"/><path class="cls-1" d="M478.76,433.51a21.55,21.55,0,0,0,28.18-22.46c-12.83,2.52-24.87,8-28.18,22.46"/><path class="cls-2" d="M434.79,450.6a3.91,3.91,0,0,1,.63-.25l1.85-.62c1.6-.52,3.92-1.28,6.77-2.27,5.71-2,13.54-4.84,22-8.51,4.21-1.85,8.17-3.73,11.73-5.53s6.67-3.58,9.25-5.15a62.35,62.35,0,0,0,5.87-4c1.32-1,2-1.71,2-1.67a3,3,0,0,1-.45.5,17.63,17.63,0,0,1-1.43,1.33,53.27,53.27,0,0,1-5.81,4.19c-2.55,1.62-5.68,3.4-9.22,5.26s-7.52,3.73-11.75,5.59c-8.45,3.68-16.32,6.5-22.06,8.38-2.87.95-5.21,1.65-6.83,2.11l-1.87.53A2.71,2.71,0,0,1,434.79,450.6Z"/><path class="cls-2" d="M480,449.74c0,.08-1.22-.74-3.23-1.83a40.35,40.35,0,0,0-8.27-3.32,39.52,39.52,0,0,0-8.82-1.35c-2.28-.09-3.71,0-3.71-.08a4,4,0,0,1,1-.16,23.46,23.46,0,0,1,2.73-.13,34.47,34.47,0,0,1,17.26,4.72,23,23,0,0,1,2.28,1.51A3.41,3.41,0,0,1,480,449.74Z"/><path class="cls-1" d="M241.73,404.78a21,21,0,0,0,20.7,28.35c-1.92-12.58-6.76-24.54-20.7-28.35"/><path class="cls-2" d="M239.76,398.6c.08,0,.42,1.38,1.15,3.57a53.5,53.5,0,0,0,3.55,8.28,54.61,54.61,0,0,0,4.93,7.54c1.43,1.82,2.4,2.88,2.34,2.94a3.93,3.93,0,0,1-.76-.67c-.47-.46-1.11-1.15-1.86-2a43.59,43.59,0,0,1-8.55-15.94c-.32-1.12-.55-2-.66-2.68A3.25,3.25,0,0,1,239.76,398.6Z"/><path class="cls-1" d="M41.89,152.44A32.53,32.53,0,0,0,74,196.37c-3-19.5-10.47-38-32.07-43.93"/><path class="cls-2" d="M38.83,142.88a8.3,8.3,0,0,1,.47,1.49c.26,1,.67,2.36,1.22,4.07A80.62,80.62,0,0,0,46,161.3,79.8,79.8,0,0,0,53.68,173c1.12,1.4,2,2.52,2.71,3.27a10.87,10.87,0,0,1,1,1.21,8.47,8.47,0,0,1-1.14-1.07c-.71-.72-1.69-1.8-2.84-3.18a69.45,69.45,0,0,1-13.23-24.67c-.51-1.72-.87-3.14-1.07-4.12A11.2,11.2,0,0,1,38.83,142.88Z"/><path class="cls-1" d="M75.68,351.48a21,21,0,0,0,3.39,34.95c4.75-11.81,6.67-24.56-3.39-34.95"/><path class="cls-2" d="M77.12,345.16c.08,0-.33,1.41-.82,3.66a51.69,51.69,0,0,0-.75,17.94c.3,2.29.6,3.7.51,3.72a4.34,4.34,0,0,1-.31-1c-.17-.63-.37-1.55-.57-2.69a44,44,0,0,1,.76-18.08c.29-1.13.57-2,.79-2.64A4.32,4.32,0,0,1,77.12,345.16Z"/><path class="cls-1" d="M261.26,98.62a21,21,0,0,0,30.33-17.68c-12.72.61-25.1,4.2-30.33,17.68"/><path class="cls-2" d="M254.91,100c0-.08,1.42-.28,3.67-.78a51.86,51.86,0,0,0,16.61-6.81c2-1.24,3.11-2.09,3.16-2a3.47,3.47,0,0,1-.74.69c-.5.42-1.26,1-2.22,1.64a43.77,43.77,0,0,1-16.73,6.87c-1.15.21-2.08.33-2.73.39A3.81,3.81,0,0,1,254.91,100Z"/><path class="cls-1" d="M235.34,96.81a27.69,27.69,0,0,0,16.72-43.17c-12.6,11.09-22.42,25-16.72,43.17"/><path class="cls-2" d="M229.89,103.39a6.94,6.94,0,0,1,.84-1c.57-.63,1.38-1.57,2.34-2.75a67,67,0,0,0,11.53-20.7c.5-1.44.87-2.62,1.11-3.44a6.57,6.57,0,0,1,.43-1.26,5.94,5.94,0,0,1-.24,1.31c-.17.84-.5,2-1,3.5a58.67,58.67,0,0,1-11.59,20.82c-1,1.16-1.86,2.07-2.48,2.66A6.13,6.13,0,0,1,229.89,103.39Z"/><path class="cls-1" d="M317.37,439.37a12.65,12.65,0,0,0,21,2.37c-6.36-4.28-13.64-7-21-2.37"/><path class="cls-2" d="M313.83,437.73a58.44,58.44,0,0,0,7.2,2.64,56.24,56.24,0,0,0,7.58,1.14,7.37,7.37,0,0,1-2.27.14,25.39,25.39,0,0,1-10.58-2.71A7.62,7.62,0,0,1,313.83,437.73Z"/><path class="cls-1" d="M410.07,80.33a12.64,12.64,0,0,0,21.07-1.74c-7.07-3-14.73-4.23-21.07,1.74"/><path class="cls-2" d="M406.28,79.41a38.34,38.34,0,0,0,15.23.85,7.84,7.84,0,0,1-2.2.57,25.34,25.34,0,0,1-10.91-.61A7.53,7.53,0,0,1,406.28,79.41Z"/><path class="cls-1" d="M650.31,111.09a21,21,0,0,0,26.37-23.15c-12.36,3-23.82,8.93-26.37,23.15"/><path class="cls-2" d="M644.33,113.61c0-.08,1.33-.55,3.45-1.47a51.84,51.84,0,0,0,15-9.86c1.69-1.59,2.65-2.65,2.72-2.59a3.85,3.85,0,0,1-.6.81c-.41.51-1,1.21-1.86,2a43.83,43.83,0,0,1-15.11,9.94c-1.08.42-2,.73-2.6.9A4.14,4.14,0,0,1,644.33,113.61Z"/><path class="cls-1" d="M674,415.88a36.55,36.55,0,0,0,21.18-57.29C678.75,373.48,666.09,392,674,415.88"/><path class="cls-2" d="M666.91,424.68a12.27,12.27,0,0,1,1.12-1.36c.75-.84,1.8-2.09,3.05-3.66s2.69-3.5,4.18-5.7,3-4.71,4.47-7.41,2.67-5.36,3.7-7.82,1.84-4.71,2.45-6.63,1.07-3.48,1.36-4.57a10.33,10.33,0,0,1,.52-1.68,12.13,12.13,0,0,1-.32,1.73c-.23,1.11-.64,2.69-1.21,4.63s-1.36,4.22-2.35,6.71-2.24,5.15-3.69,7.88a86.65,86.65,0,0,1-4.53,7.43c-1.53,2.2-3,4.11-4.29,5.66s-2.4,2.77-3.19,3.57A11.09,11.09,0,0,1,666.91,424.68Z"/></g><g id="Capa_8" data-name="Capa 8"><path class="cls-3" d="M538.22,289.8c-6.31-35.25-36.58-66-72.27-68.94-19.45-1.58-39,4.55-58.37,2.21a68,68,0,0,1-42.49-22.4c-16-18.2-21.41-44.09-38.35-61.41-23.34-23.89-64.07-24.26-92.47-6.69s-45.57,49.28-53.43,81.73l-.31,9.87C178.82,257.83,187.68,297,207.21,327c19.79,30.4,32.8,43,68.86,64.81,30.62,18.56,90.58,26.72,126.38,27.58s72.57-9.8,99.5-33.42S544.54,325.05,538.22,289.8Z"/><g class="cls-4"><path class="cls-5" d="M538.22,289.8c-6.31-35.25-36.58-66-72.27-68.94-19.45-1.58-39,4.55-58.37,2.21a68,68,0,0,1-42.49-22.4c-16-18.2-21.41-44.09-38.35-61.41-23.34-23.89-64.07-24.26-92.47-6.69s-45.57,49.28-53.43,81.73l-.31,9.87C178.82,257.83,187.68,297,207.21,327c19.79,30.4,32.8,43,68.86,64.81,30.62,18.56,90.58,26.72,126.38,27.58s72.57-9.8,99.5-33.42S544.54,325.05,538.22,289.8Z"/></g><circle class="cls-3" cx="556.22" cy="413.16" r="17.25" transform="translate(67.46 904.27) rotate(-81.74)"/><circle class="cls-6" cx="556.22" cy="413.16" r="17.25" transform="translate(67.46 904.27) rotate(-81.74)"/></g><g id="_404" data-name="404"><path class="cls-3" d="M435.16,280.45q.49,51.66-22.52,79t-63,27.7q-40.2.39-63.91-26.48t-24.22-78.52l-.58-60.56q-.5-51.46,22.52-79t63.21-27.88q40-.39,63.73,26.67t24.21,78.51Zm-44.83-66.92Q390,181,379,165.49t-32-15.32q-20.93.2-31.59,15.93T305,214.35l.7,73.59q.31,32.7,11.47,48.31t32.07,15.41q20.91-.2,31.49-15.93T391,287.12Z"/><g class="cls-7"><path d="M435.16,280.45q.49,51.66-22.52,79t-63,27.7q-40.2.39-63.91-26.48t-24.22-78.52l-.58-60.56q-.5-51.46,22.52-79t63.21-27.88q40-.39,63.73,26.67t24.21,78.51Zm-44.83-66.92Q390,181,379,165.49t-32-15.32q-20.93.2-31.59,15.93T305,214.35l.7,73.59q.31,32.7,11.47,48.31t32.07,15.41q20.91-.2,31.49-15.93T391,287.12Z"/></g><path class="cls-3" d="M460.62,280.21q.5,51.65-22.52,79t-63,27.7q-40.2.39-63.91-26.49T287,281.88l-.58-60.56q-.5-51.46,22.52-79t63.21-27.89q40-.37,63.73,26.67T460,219.65Zm-44.83-66.92q-.32-32.52-11.38-48t-32-15.32q-20.93.21-31.59,15.93t-10.36,48.26l.71,73.58q.32,32.71,11.47,48.32t32.07,15.41q20.91-.21,31.49-15.93t10.26-48.62Z"/><path class="cls-3" d="M195.06,293l33.43,1.46-1.55,35.43-33.43-1.46-2.57,58.87-44-1.92,2.57-58.87L36,321.55l.09-27,121-173.8,45.42,2Zm-115-5,71,3.1,4.68-107.38-1.07-.41-4,7.65Z"/><g class="cls-7"><path d="M195.06,293l33.43,1.46-1.55,35.43-33.43-1.46-2.57,58.87-44-1.92,2.57-58.87L36,321.55l.09-27,121-173.8,45.42,2Zm-115-5,71,3.1,4.68-107.38-1.07-.41-4,7.65Z"/></g><path class="cls-3" d="M223,294.22l33.43,1.46-1.55,35.43-33.43-1.46-2.57,58.87-44-1.92,2.57-58.87-113.56-5,.09-27L185,122l45.43,2Zm-115-5,71.05,3.1,4.68-107.38-1.07-.41-4,7.65Z"/><path class="cls-3" d="M629.32,293.41l33.3-3.25,3.45,35.29-33.3,3.26,5.73,58.64-43.8,4.29L589,333,475.84,344.06l-3.71-26.73,95.35-189.09,45.25-4.43ZM514.74,304.62l70.77-6.92-10.46-107-1.12-.25-2.86,8.14Z"/><g class="cls-7"><path d="M629.32,293.41l33.3-3.25,3.45,35.29-33.3,3.26,5.73,58.64-43.8,4.29L589,333,475.84,344.06l-3.71-26.73,95.35-189.09,45.25-4.43ZM514.74,304.62l70.77-6.92-10.46-107-1.12-.25-2.86,8.14Z"/></g><path class="cls-3" d="M657.17,290.69l33.3-3.26,3.46,35.3L660.62,326l5.74,58.65-43.81,4.28-5.73-58.64L503.69,341.33,500,314.61l95.35-189.09,45.25-4.43ZM542.6,301.89,613.37,295,602.91,188l-1.13-.26-2.85,8.14Z"/><path class="cls-8" d="M459.08,221.54l-7-1.1-43.37-14-25.36-7.33a27.32,27.32,0,0,0-21.95,1.5c-12,6.1-45.06,36.88-45.06,36.88l23.81,24.55-11.21,49.68c12.55,35.68,37.12,39.77,37.12,39.77a87,87,0,0,0,35.2-5.82C424.07,337,448,316.59,451,307.82c1.8-5.26,3.29-16.32,4.47-28.81l36.12-14.72,9.79-50Z"/><path class="cls-9" d="M406.32,310s-.11.12-.35.31-.59.48-1.08.8a24.7,24.7,0,0,1-4.34,2.33,26.52,26.52,0,0,1-30-6.54,25,25,0,0,1-3-3.94c-.31-.49-.5-.9-.65-1.17a2.1,2.1,0,0,1-.19-.42,14.51,14.51,0,0,1,1,1.48,28,28,0,0,0,3.08,3.79,26.79,26.79,0,0,0,29.55,6.46,27.93,27.93,0,0,0,4.37-2.17C405.77,310.3,406.29,309.94,406.32,310Z"/><path class="cls-9" d="M392.6,208.51a.75.75,0,0,1,.08.24c.05.19.11.42.18.71.15.62.36,1.55.61,2.74a66.75,66.75,0,0,1,1.43,10.23,32.31,32.31,0,0,1-.41,7.14,23.23,23.23,0,0,1-2.85,7.71,30.5,30.5,0,0,1-5.93,6.87c-2.35,2.1-4.95,4-7.6,6.06-5.64,4.23-11.12,8.06-16,11.54s-9.23,6.59-12.69,9.21l-.11.09-.11-.09a74.8,74.8,0,0,1-6.94-6.25,17.12,17.12,0,0,1-1.63-1.92c-.17-.23-.27-.42-.35-.54a1.75,1.75,0,0,1-.11-.2s.19.24.54.68a23,23,0,0,0,1.68,1.85,88.17,88.17,0,0,0,7,6.11h-.22c3.44-2.66,7.74-5.83,12.64-9.32s10.36-7.34,16-11.57c2.64-2,5.24-3.95,7.57-6a30.22,30.22,0,0,0,5.86-6.74,22.56,22.56,0,0,0,2.83-7.53,32.33,32.33,0,0,0,.47-7.06,72.64,72.64,0,0,0-1.26-10.2c-.22-1.17-.39-2.09-.52-2.76q-.08-.43-.12-.72A.77.77,0,0,1,392.6,208.51Z"/><path class="cls-9" d="M580.93,231c10.15-8.71,13.59-24.38,8-36.53L574.63,193A20.39,20.39,0,0,0,585,172.44a27.31,27.31,0,0,1-31.23,5.75c-6.68-3.3-12.1-9.45-19.44-10.74-6.66-1.17-13.21,2-19.59,4.22s-14.1,3.51-19.38-.72c-4.18-3.35-5.48-9.22-5.21-14.58s1.82-10.58,2.15-15.93a36.19,36.19,0,0,0-11.59-28.22,27.46,27.46,0,0,0-43.11-13.71c-3.13,2.42-5.77,5.55-9.32,7.3-4,2-8.67,2-13,3s-8.9,3.94-9.36,8.39l-1.75,9.11c-.29.65-.6,1.29-1,1.92-3.68,6.46-11.22,10.71-12.87,18-.92,4.07.22,8.48-1.15,12.42-1.81,5.19-7.41,8.11-10,12.94-3.58,6.64-1.15,18.27,4.58,23.17s17.54,10.1,24.92,11.67c2-7.67,3.77-15.87,5.48-24.26,3,2.89,6.17,5.64,9.31,8.37,8.21,7.14,16.6,14.39,22.3,23.66,10.83,17.63,11,41,24.65,56.54,2.67,3.05,5.92,5.76,9.8,6.94s8.48.55,11.35-2.31c3.39-3.38,3.83-9.08,7.58-12.05,5-3.95,12.26-.8,17.61,2.63,3.88,2.48,7.76,5.1,12.15,6.46s9.51,1.27,13.25-1.41,5.38-8.4,2.68-12.13c-1.08-1.49-2.69-2.53-3.76-4s-1.38-3.87.09-5,3.88,0,5.63,1a33.53,33.53,0,0,0,48.74-18.13A27.79,27.79,0,0,1,580.93,231Z"/><path class="cls-9" d="M572,152.55a10.91,10.91,0,0,1,1.29,1.1,15,15,0,0,1,3,3.89,11.31,11.31,0,0,1,1.1,3.37,8,8,0,0,1-3.56,7.91,5.92,5.92,0,0,1-2.52.91,5.77,5.77,0,0,1-2.8-.4c-3.71-1.52-5.58-5.81-9.59-7.72-3.91-2.07-8.91-2.21-13.71-1.11s-9.49,3.71-14.22,6.37-9.76,5.51-15.55,6.5a21.83,21.83,0,0,1-8.6-.06,16.42,16.42,0,0,1-4-1.48,15.54,15.54,0,0,1-3.36-2.48,18.94,18.94,0,0,1-4.3-6.82A30.76,30.76,0,0,1,493.4,155c-.53-5-.11-9.8-.06-14.23a41.85,41.85,0,0,0-1.21-12.22,28.19,28.19,0,0,0-1.91-5,29,29,0,0,0-2.43-4.13,31.15,31.15,0,0,0-5.11-5.7,32.49,32.49,0,0,0-3.91-2.88l-1.09-.65-.36-.23a2.2,2.2,0,0,1,.39.19l1.12.6a29.78,29.78,0,0,1,9.2,8.51,29.87,29.87,0,0,1,4.45,9.2,41.55,41.55,0,0,1,1.29,12.32c0,4.46-.43,9.22.11,14.17a30.5,30.5,0,0,0,1.75,7.4,18.46,18.46,0,0,0,4.2,6.63,14.72,14.72,0,0,0,3.24,2.4,16.63,16.63,0,0,0,3.85,1.43,21.58,21.58,0,0,0,8.4.05c5.68-1,10.66-3.79,15.39-6.44s9.4-5.26,14.36-6.39a25.1,25.1,0,0,1,7.33-.62,19.26,19.26,0,0,1,3.49.57,15.87,15.87,0,0,1,3.2,1.25c4.15,2,6,6.34,9.53,7.75a5.33,5.33,0,0,0,5-.44,7.68,7.68,0,0,0,3-3.56,7.54,7.54,0,0,0,.5-4,10.81,10.81,0,0,0-1-3.31,15.71,15.71,0,0,0-2.84-3.91c-.39-.4-.7-.69-.91-.88S572,152.55,572,152.55Z"/><path class="cls-9" d="M408.55,210.27s0-.15-.08-.45a7.79,7.79,0,0,0-.27-1.31,11.1,11.1,0,0,0-2.45-4.46,19.15,19.15,0,0,0-6.63-4.61c-2.9-1.33-6.5-2-10.44-2.72s-8.41-1.58-12.43-4.26a18.45,18.45,0,0,1-2.94-28.11c4.14-4.25,10-6.36,14.78-10.09a18.69,18.69,0,0,0,3.14-3.21,13.27,13.27,0,0,0,1.92-4c.8-2.84.73-5.81,1-8.7a19.75,19.75,0,0,1,.8-4.27,10.72,10.72,0,0,1,2.11-3.74,15,15,0,0,1,7.15-4c2.57-.75,5.13-1.22,7.54-1.88a20.54,20.54,0,0,0,6.59-3,24.74,24.74,0,0,0,4.93-4.62A55.05,55.05,0,0,0,427,111.9c2.21-3.34,4.1-6.47,6.11-9a29.29,29.29,0,0,1,5.83-5.76,16.27,16.27,0,0,1,4.61-2.36,9.89,9.89,0,0,1,1.75-.44s-.61.14-1.72.54a16.61,16.61,0,0,0-4.52,2.43,29.16,29.16,0,0,0-5.72,5.77c-2,2.5-3.84,5.62-6,9a52.69,52.69,0,0,1-3.72,5.11,25.35,25.35,0,0,1-5,4.72,21,21,0,0,1-6.7,3c-2.44.68-5,1.15-7.53,1.9a14.44,14.44,0,0,0-6.92,3.85,10.24,10.24,0,0,0-2,3.56,19.11,19.11,0,0,0-.77,4.16c-.27,2.86-.19,5.85-1,8.8a13.56,13.56,0,0,1-2,4.12,19.08,19.08,0,0,1-3.24,3.3,66.66,66.66,0,0,1-7.69,4.89,33.58,33.58,0,0,0-7,5.15,18,18,0,0,0,2.82,27.4c3.9,2.63,8.34,3.47,12.25,4.26s7.56,1.44,10.48,2.81a19.12,19.12,0,0,1,6.67,4.74,11,11,0,0,1,2.4,4.57,7.15,7.15,0,0,1,.22,1.33C408.55,210.12,408.55,210.27,408.55,210.27Z"/><path class="cls-8" d="M488.39,120.5a2.49,2.49,0,0,1-.76-.2,16.7,16.7,0,0,1-2-.8,26.43,26.43,0,0,1-10.69-9.19,17.91,17.91,0,0,1-1.09-1.86,2.42,2.42,0,0,1-.31-.73c.07,0,.64.92,1.7,2.37a30.74,30.74,0,0,0,10.55,9.08C487.38,120,488.43,120.42,488.39,120.5Z"/><path class="cls-8" d="M521.64,188.71s-.63-.16-1.76-.4a28.66,28.66,0,0,0-4.86-.6,64.74,64.74,0,0,0-7.26.21c-2.74.19-5.76.47-8.95.4a24.31,24.31,0,0,1-8.83-1.66,15.75,15.75,0,0,1-5.92-4.32,11.07,11.07,0,0,1-2.27-4.39,7.58,7.58,0,0,1-.21-1.33,1.67,1.67,0,0,1,0-.47c.06,0,.09.64.41,1.75a11.6,11.6,0,0,0,2.37,4.2,15.57,15.57,0,0,0,5.82,4.12,24.53,24.53,0,0,0,8.65,1.58c3.15.07,6.16-.19,8.91-.36a57.09,57.09,0,0,1,7.31-.1,25.31,25.31,0,0,1,4.89.77,13.3,13.3,0,0,1,1.28.41A1.46,1.46,0,0,1,521.64,188.71Z"/><path class="cls-8" d="M580.57,234.18s-.09,0-.29.13a4.18,4.18,0,0,1-.89.29,7.11,7.11,0,0,1-3.58-.16,11.54,11.54,0,0,1-4.8-3,20.06,20.06,0,0,1-3.86-6.47c-1.09-2.56-2-5.5-3.79-8.22a21.59,21.59,0,0,0-3.17-3.87,25.38,25.38,0,0,0-4.24-3.21c-6.28-3.79-14.53-5.34-23-4.84s-16.44,2.1-23.81,2.61a46.9,46.9,0,0,1-19.4-2,26.87,26.87,0,0,1-11.13-7,16.46,16.46,0,0,1-1.33-1.59,9.48,9.48,0,0,1-.86-1.25c-.2-.33-.36-.6-.49-.8a1.21,1.21,0,0,1-.15-.28s.08.08.2.25l.52.77a12,12,0,0,0,.9,1.21,15.86,15.86,0,0,0,1.36,1.55,27.11,27.11,0,0,0,11.09,6.76,47.2,47.2,0,0,0,19.25,1.88c7.33-.54,15.29-2.22,23.82-2.66s16.85,1.07,23.23,4.95a25.81,25.81,0,0,1,4.31,3.29,22.15,22.15,0,0,1,3.22,4c1.81,2.79,2.7,5.76,3.77,8.31a19.7,19.7,0,0,0,3.72,6.41,11.39,11.39,0,0,0,4.65,3,7,7,0,0,0,3.5.25C580.17,234.35,580.56,234.14,580.57,234.18Z"/><path class="cls-10" d="M423.29,120.49a7.48,7.48,0,0,0-7.62,6.65h0l-8.09,84.21c-1.4,11.84,14.09,37.23,26.78,38.63h0c12.81,1.41,14.07-4.8,15.73-16,2.78-18.74,3.71-25.8,3.7-25.69s16.5-.55,22.62-21.18c3-10.26,4.78-27.51,5.75-41.67.87-12.75-5.46-29.36-18.24-29.69Z"/><path class="cls-9" d="M476.58,156.59a2.71,2.71,0,0,1-3,2.38,2.61,2.61,0,0,1-2.47-2.8,2.74,2.74,0,0,1,3-2.39A2.61,2.61,0,0,1,476.58,156.59Z"/><path class="cls-9" d="M477.73,151.14c-.32.38-2.48-1-5.41-.79s-5,1.82-5.31,1.49c-.16-.15.13-.81,1-1.56a7.5,7.5,0,0,1,4.22-1.63,7.16,7.16,0,0,1,4.33,1.07C477.53,150.35,477.88,151,477.73,151.14Z"/><path class="cls-9" d="M450.85,158.11c-.35.35-2.37-1.24-5.3-1.31s-5.12,1.33-5.43,1c-.15-.17.21-.8,1.17-1.45a7.41,7.41,0,0,1,4.36-1.21,7.18,7.18,0,0,1,4.2,1.49C450.73,157.31,451,158,450.85,158.11Z"/><path class="cls-9" d="M456.31,173.6c0-.17,1.86-.24,4.84-.23.75,0,1.47,0,1.67-.53a3.81,3.81,0,0,0-.21-2.26q-.69-2.84-1.45-6c-2-8.45-3.33-15.36-3-15.44s2.23,6.72,4.22,15.17c.48,2.08.93,4.06,1.36,6a4.32,4.32,0,0,1,0,3,1.87,1.87,0,0,1-1.36.92,5.08,5.08,0,0,1-1.29,0C458.13,174,456.3,173.76,456.31,173.6Z"/><path class="cls-11" d="M453.79,208.27A54,54,0,0,1,426.56,197s5.21,15.42,26.56,16.23Z"/><path class="cls-9" d="M451.26,153.1c-.46.71-3.23-.33-6.67-.71s-6.37-.1-6.65-.9c-.12-.38.52-1,1.79-1.49a11.05,11.05,0,0,1,5.21-.56,11.19,11.19,0,0,1,4.94,1.78C451,152,451.47,152.76,451.26,153.1Z"/><path class="cls-9" d="M477.29,147.21c-.48.69-2.53.11-5,.2s-4.46.67-5,0c-.22-.33.07-1,.93-1.68a6.82,6.82,0,0,1,4-1.3,6.91,6.91,0,0,1,4,1.13C477.19,146.2,477.5,146.88,477.29,147.21Z"/><path class="cls-11" d="M449.23,178.91a6.26,6.26,0,0,1,4.59-1,3.57,3.57,0,0,1,2.13,1.11,4.53,4.53,0,0,1,.75,3.05,6.14,6.14,0,0,1-.29,1.91,2.5,2.5,0,0,1-1.22,1.43,3.43,3.43,0,0,1-2,.1,7.52,7.52,0,0,1-3.09-1.12,3.81,3.81,0,0,1-1.72-2.7,2.58,2.58,0,0,1,1.55-2.66"/><path class="cls-9" d="M457.12,185.33c-.21.08-.6-.56-1.3-1.43a10.69,10.69,0,0,0-7.26-4.14c-1.11-.16-1.85-.17-1.9-.39s.65-.59,1.92-.72a8.37,8.37,0,0,1,4.81,1.08,8.25,8.25,0,0,1,3.37,3.59C457.3,184.47,457.31,185.27,457.12,185.33Z"/><path class="cls-9" d="M406.45,205.56c6.95-1.39,12.31-7.36,14.7-14s2.26-13.95,1.63-21a3.37,3.37,0,0,0-.95-2.48c-1.05-.81-2.56-.15-3.7.54a115.48,115.48,0,0,0-12.57,8.84c-3.72,3-7.4,6.45-8.83,11-2.19,7,2.44,15.35,9.53,17.19"/><path class="cls-10" d="M566.2,203.93l-32.77-52.68-9.06-18.54s-2.89-3.83-5.89-7.1c-4.92-5.37-9.79-1.2-9.79-1.2a3.32,3.32,0,0,0-3.29-2,5.59,5.59,0,0,0-4.53,2.31s-1.34-1.49-5.06-1.72a3.87,3.87,0,0,0-2.35.76c-1.22-1.07-3.46-2.61-5.61-1.83-1.68.61-11.87,8.36-14.38,12.26-1.24,1.93,1.06,4.43,4.16,3.26a27.53,27.53,0,0,0,3.72-1.51,10.17,10.17,0,0,0,2.52-2s-2.57,4.5,0,5.29a5.89,5.89,0,0,0,4.83-1.17c1-.82,2.1-1.89,3.17-2.94l-.12.18c-1.42,2.1,2.28,5.21,4.07,3.95a26.62,26.62,0,0,0,2.39-1.9c4.16,3-1.61,6.89-4.05,6.69a74.6,74.6,0,0,0-11.28,0c-2.12.17-4,.68-5.16,1.85-1.38,1.42.07,4.4,2,4.7,3.59.56,8.17,1.35,12.93,2.58,5.6,1.44,20.27,6.21,20.27,6.21l1.43,1.16,19.93,48.61-34.12,7.23-7.62,43.24,61.6-16.72C568,235.6,574.61,217.13,566.2,203.93Z"/><path class="cls-11" d="M512.93,159.29a4.2,4.2,0,0,1-.78-.19l-2.21-.63-8.11-2.41-5.59-1.69c-2-.62-4.15-1.26-6.43-1.84a61.37,61.37,0,0,0-7.22-1.49,12.36,12.36,0,0,1-3.92-.71,2.62,2.62,0,0,1-.88-.65,1.65,1.65,0,0,1-.3-.54l-.07-.53a5.1,5.1,0,0,1,.13-2.12,2.92,2.92,0,0,1,1.42-1.64,10.46,10.46,0,0,1,1.9-.76,12.88,12.88,0,0,1,4-.49c2.6,0,5.05.4,7.39.3a23.18,23.18,0,0,0,3.39-.33c1.09-.2,2.13-.48,3.15-.74a16.86,16.86,0,0,1,5.83-.75,15.76,15.76,0,0,1,4.7,1.2,29.68,29.68,0,0,1,3.28,1.61c.87.49,1.53.9,2,1.17a5.31,5.31,0,0,1,.66.45,4.1,4.1,0,0,1-.72-.36l-2-1.08a32.23,32.23,0,0,0-3.29-1.52,15.59,15.59,0,0,0-4.62-1.1,16.57,16.57,0,0,0-5.69.79c-1,.27-2.06.57-3.17.78a22.9,22.9,0,0,1-3.47.36c-2.38.11-4.86-.24-7.4-.27a12.54,12.54,0,0,0-3.8.47c-1.22.4-2.61.83-3,2.07a4.83,4.83,0,0,0-.11,1.9l.07.46a.8.8,0,0,0,.19.33,2.36,2.36,0,0,0,.71.53,12.45,12.45,0,0,0,3.75.66,61,61,0,0,1,7.28,1.54c2.29.59,4.43,1.25,6.43,1.89l5.58,1.75,8.06,2.57,2.18.72A4.09,4.09,0,0,1,512.93,159.29Z"/><path class="cls-11" d="M487.66,122c.06.08-1.54,1-3.9,2.79a41.13,41.13,0,0,0-3.92,3.4c-1.4,1.36-2.87,3-4.61,4.45a4.74,4.74,0,0,0-1.84,2.47,1.74,1.74,0,0,0,1.2,2.14,5.26,5.26,0,0,0,2.64.05,12.51,12.51,0,0,0,2.3-.66,16.48,16.48,0,0,0,4.05-2.46,3.91,3.91,0,0,1-.9.94,12.26,12.26,0,0,1-3,1.87,12.73,12.73,0,0,1-2.35.74,5.74,5.74,0,0,1-2.88,0,2.22,2.22,0,0,1-1.55-2.71,5.25,5.25,0,0,1,2-2.76c1.71-1.46,3.18-3,4.62-4.4a35.37,35.37,0,0,1,4-3.34c1.22-.87,2.25-1.49,3-1.91A6.77,6.77,0,0,1,487.66,122Z"/><path class="cls-11" d="M500.17,126.12a13.75,13.75,0,0,1-1.16,1.37l-3.29,3.62-4.93,5.33a12.16,12.16,0,0,1-3.46,2.64,5.35,5.35,0,0,1-2.3.57,3.2,3.2,0,0,1-2.3-.92,2.14,2.14,0,0,1-.54-1.25,3.6,3.6,0,0,1,.13-1.28,7.29,7.29,0,0,1,1.06-2.19h0v0c1.77-1.87,3.41-3.63,4.88-5.25s2.94-2.89,4.12-4a8.29,8.29,0,0,1,1.71-1.37,4.22,4.22,0,0,1,1.61-.36c.89-.06,1.41,0,1.36.12a4.1,4.1,0,0,0-1.34.06,4.53,4.53,0,0,0-1.51.4,9.17,9.17,0,0,0-1.61,1.39c-1.14,1.14-2.55,2.46-4,4.06s-3.08,3.42-4.84,5.31l0,0a7,7,0,0,0-1,2,3.21,3.21,0,0,0-.12,1.1,1.75,1.75,0,0,0,.42.95,2.71,2.71,0,0,0,1.92.75,4.83,4.83,0,0,0,2.07-.51,11.82,11.82,0,0,0,3.33-2.51l5-5.25,3.41-3.5.95-.94Q500.14,126.1,500.17,126.12Z"/><path class="cls-11" d="M515.49,130.94s0,.31-.4.59A2.12,2.12,0,0,1,512,131c-.23-.38-.23-.67-.17-.68s.2.19.46.45a2.34,2.34,0,0,0,1.22.66,2.38,2.38,0,0,0,1.38-.21C515.23,131.06,515.43,130.89,515.49,130.94Z"/><path class="cls-11" d="M516.69,135.53c-.11.09-.86-.66-1.52-1.79a4.16,4.16,0,0,1-.83-2.19c.13-.05.63.85,1.28,1.93A7.81,7.81,0,0,1,516.69,135.53Z"/><path class="cls-11" d="M518.9,153.41a6.46,6.46,0,0,1-.95-2.08,17,17,0,0,1-.82-5.47,17.15,17.15,0,0,1,1-5.44,6.41,6.41,0,0,1,1-2.06,26.61,26.61,0,0,0-1.45,7.51A26.34,26.34,0,0,0,518.9,153.41Z"/><path class="cls-11" d="M545.82,222.7c-.1,0-.2-1.06-.72-2.69a16.81,16.81,0,0,0-1.18-2.75,16.67,16.67,0,0,0-4.8-5.45,16.29,16.29,0,0,0-2.57-1.53c-1.54-.73-2.59-1-2.57-1.06a2.21,2.21,0,0,1,.75.1,11.61,11.61,0,0,1,2,.62,14.79,14.79,0,0,1,2.7,1.48,15.41,15.41,0,0,1,4.94,5.62,14.28,14.28,0,0,1,1.11,2.87,11.24,11.24,0,0,1,.37,2A2.48,2.48,0,0,1,545.82,222.7Z"/><path class="cls-10" d="M431.44,319a14.23,14.23,0,0,0-8.33,1.06c-4.45-2-9.94,1.43-9.94,1.43-1.61-.77-11.31,5.57-11.31,5.57l-12.08,5.7-64.53-47.95,18.29-19-25.63-26.67-30,30.9a22.65,22.65,0,0,0-6,14.55,29.59,29.59,0,0,0,16.43,28l76,39a88.75,88.75,0,0,0,17.29-2.69c6.56-1.71,17.77-6.69,17.77-6.69s0,.34,2,4.23c3.61,7,8.9-.56,8.9-.56a14.51,14.51,0,0,0,2.06,3.42c4.57,4.43,7.74-1.52,7.74-1.52s1.37,2.39,5.45.61-.59-14.06-.59-14.06,1.37,2.67,4-.71S435.81,319.92,431.44,319Z"/><path class="cls-11" d="M422.31,320.69a1.93,1.93,0,0,1,.84-.33,5,5,0,0,1,2.45.08,9.35,9.35,0,0,1,3.23,1.65,12.42,12.42,0,0,1,1.61,1.43,9.94,9.94,0,0,1,1.26,2,48.6,48.6,0,0,1,2.95,7.41c.3,1,.5,1.77.63,2.33a2.63,2.63,0,0,1,.13.88c-.07,0-.43-1.19-1.11-3.1a68.39,68.39,0,0,0-3.07-7.29,8.86,8.86,0,0,0-1.18-1.85,13.09,13.09,0,0,0-1.51-1.39,9.91,9.91,0,0,0-3-1.68A6.69,6.69,0,0,0,422.31,320.69Z"/><path class="cls-11" d="M430.08,347.81a5.65,5.65,0,0,1-.57-1.11l-1.41-3.06c-1.19-2.59-2.93-6.13-4.59-10.16a27,27,0,0,0-2.63-5.47,9,9,0,0,0-3.71-3.09,6,6,0,0,0-3.2-.57c-.78.1-1.18.31-1.2.26s.09-.07.28-.17a3.19,3.19,0,0,1,.88-.29,5.87,5.87,0,0,1,3.39.43,9.17,9.17,0,0,1,3.95,3.16,26,26,0,0,1,2.72,5.54c1.65,4,3.34,7.58,4.45,10.21.55,1.31,1,2.39,1.26,3.13A5.72,5.72,0,0,1,430.08,347.81Z"/><path class="cls-11" d="M400.46,332.38a5.67,5.67,0,0,1,1-.57l2.88-1.39c.62-.29,1.27-.61,2-.93a5.66,5.66,0,0,1,2.59-.38,5.39,5.39,0,0,1,2.72,1,8.53,8.53,0,0,1,2,2.36c.55.9,1,1.83,1.4,2.69s.87,1.69,1.31,2.47c.87,1.55,1.69,2.94,2.29,4.16a23.44,23.44,0,0,1,1.28,2.95,4.13,4.13,0,0,1,.32,1.13c-.08,0-.62-1.55-1.92-3.91-.65-1.18-1.49-2.54-2.39-4.09-.45-.78-.9-1.61-1.34-2.48s-.86-1.78-1.39-2.65a8.5,8.5,0,0,0-1.85-2.23,5.05,5.05,0,0,0-2.45-1,5.23,5.23,0,0,0-2.39.3c-.72.29-1.41.61-2,.86L401.57,332A4.86,4.86,0,0,1,400.46,332.38Z"/><path class="cls-11" d="M401.86,327.07a3.86,3.86,0,0,1-.88.55c-.58.33-1.43.79-2.49,1.35-2.11,1.12-5.05,2.64-8.31,4.28s-6.22,3.1-8.38,4.14l-2.56,1.2a4,4,0,0,1-1,.37,4.36,4.36,0,0,1,.89-.56c.58-.32,1.43-.78,2.49-1.34,2.11-1.12,5.05-2.63,8.31-4.28s6.22-3.1,8.37-4.13c1.08-.52,2-.93,2.57-1.21A3.65,3.65,0,0,1,401.86,327.07Z"/><path class="cls-11" d="M326.11,284.93a32.63,32.63,0,0,0-7.62-.25,33,33,0,0,0-7.36,2,7.1,7.1,0,0,1,2-1.12,19.12,19.12,0,0,1,5.3-1.42,19.33,19.33,0,0,1,5.5.14A7.05,7.05,0,0,1,326.11,284.93Z"/><path class="cls-9" d="M468.62,111.71a201,201,0,0,0-47.52,5c-3.61.83-7.43,1.89-9.87,4.67-2.59,2.94-3,7.13-3.38,11q-.62,7.13-1.24,14.25a32.82,32.82,0,0,1-2.27,3.39c-3.76,4.91-8.55,9-12,14.16s-5.31,12-2.53,17.52c1.69,3.34,4.81,5.7,7.09,8.66,3.87,5,5.13,11.51,7.39,17.44s6.34,12,12.57,13.16c3,.57,6.06-.06,9.05.38,4.47.65,8.23,3.58,11.78,6.37s7.41,5.63,11.91,6.08,9.65-2.6,9.74-7.12a10.56,10.56,0,0,1-10.87-.3c-2.62-1.73-4.31-4.53-6.56-6.71-5.53-5.36-14.43-7.06-18.28-13.73-3-5.27-1.83-11.88-.45-17.81,1.19-5.14,2.41-10.71.92-15.65a17.51,17.51,0,0,0,.19-2.4c0-5.26-2.05-10.9.4-15.55,3.24-6.16,12.58-6.94,15.85-13.07,1.91-3.57,1.24-8.13,3.32-11.6,1.95-3.26,5.86-4.76,9.58-5.57s7.63-1.18,10.91-3.1S470.11,115.2,468.62,111.71Z"/><path class="cls-9" d="M480.74,219a1,1,0,0,1-.15.25l-.49.69a13.9,13.9,0,0,1-2.3,2.33,15.53,15.53,0,0,1-4.57,2.45,15.79,15.79,0,0,1-6.8.79,14.37,14.37,0,0,1-7.66-3.14c-2.38-1.83-4.5-4.26-7.19-6.19a10.38,10.38,0,0,0-4.58-1.93,10,10,0,0,0-5.1.93,25.57,25.57,0,0,1-5.29,1.82,9.29,9.29,0,0,1-5.7-1,28.68,28.68,0,0,1-4.81-3.19,39.09,39.09,0,0,1-4.22-3.67,13.19,13.19,0,0,1-3-4.52,9.36,9.36,0,0,1-.34-5.2,28.27,28.27,0,0,1,1.51-4.69c.58-1.47,1.08-2.92,1.52-4.34a58.26,58.26,0,0,0,1.85-8,59.17,59.17,0,0,0,.65-11.93c-.06-1.41-.15-2.51-.23-3.25,0-.35,0-.62-.07-.84a.91.91,0,0,1,0-.29.9.9,0,0,1,.06.28l.12.84c.11.74.24,1.83.33,3.25a56.88,56.88,0,0,1-.48,12,58.87,58.87,0,0,1-1.8,8.11c-.44,1.42-.94,2.89-1.51,4.38A28.16,28.16,0,0,0,419,199.5a8.79,8.79,0,0,0,.34,4.94,12.73,12.73,0,0,0,2.9,4.34,38.46,38.46,0,0,0,4.17,3.61,28.21,28.21,0,0,0,4.72,3.13,8.74,8.74,0,0,0,5.39,1,25.42,25.42,0,0,0,5.18-1.79,10.57,10.57,0,0,1,5.35-.94,10.85,10.85,0,0,1,4.8,2c2.74,2,4.84,4.44,7.18,6.25a13.92,13.92,0,0,0,7.43,3.11,16,16,0,0,0,11.2-3A18.49,18.49,0,0,0,480.74,219Z"/><path class="cls-8" d="M380.83,187.2a11.57,11.57,0,0,1-.8-1.11,11.31,11.31,0,0,1-1.42-3.64,15.06,15.06,0,0,1,.1-6.18,19,19,0,0,1,3.46-7.42,34.59,34.59,0,0,1,7.22-6.82c2.87-2.14,6.13-4.13,9.38-6.44a34.42,34.42,0,0,0,8.9-8.65,22.29,22.29,0,0,0,2.7-6c.64-2.14,1.08-4.38,1.6-6.64a35.3,35.3,0,0,1,2-6.58,14.86,14.86,0,0,1,3.93-5.43,16.68,16.68,0,0,1,5.67-3.13,26.29,26.29,0,0,1,6.08-1.2,69.41,69.41,0,0,1,11.4.36,52.91,52.91,0,0,0,9.86.13,21,21,0,0,0,7.73-2.3,15.32,15.32,0,0,0,4.73-3.82,11.49,11.49,0,0,0,1.92-3.35c.28-.84.39-1.3.41-1.29a9.79,9.79,0,0,1-.31,1.33,11.3,11.3,0,0,1-1.86,3.44,15.53,15.53,0,0,1-4.75,4,21.22,21.22,0,0,1-7.83,2.41,52.62,52.62,0,0,1-9.94-.07,70,70,0,0,0-11.32-.31,25.63,25.63,0,0,0-6,1.2,16.26,16.26,0,0,0-5.5,3,14.44,14.44,0,0,0-3.79,5.26,34.43,34.43,0,0,0-2,6.49c-.52,2.25-1,4.5-1.62,6.67a22.2,22.2,0,0,1-2.77,6.1,34.72,34.72,0,0,1-9,8.76c-3.28,2.32-6.54,4.29-9.4,6.4a34.21,34.21,0,0,0-7.18,6.7,18.44,18.44,0,0,0-3.47,7.25,14.76,14.76,0,0,0-.19,6.08A12.73,12.73,0,0,0,380.83,187.2Z"/><path class="cls-8" d="M383.76,192.45a22.11,22.11,0,0,1-3.07-2.95,13.75,13.75,0,0,1-2.67-4.23,6.93,6.93,0,0,1-.46-3.13,6.21,6.21,0,0,1,1.35-3.27c1.62-2,4.3-3.06,7.11-3.65,1.41-.29,2.89-.52,4.36-.89a12.4,12.4,0,0,0,4.26-1.77,10.28,10.28,0,0,0,3.1-3.67,33.68,33.68,0,0,0,1.92-4.77,33.78,33.78,0,0,1,2-5,10.6,10.6,0,0,1,3.75-4.15,18.42,18.42,0,0,1,5.21-2c1.77-.46,3.52-.83,5.17-1.39a16.72,16.72,0,0,0,7.94-5.85A60.6,60.6,0,0,0,428.7,138a42.8,42.8,0,0,1,4.49-6.65,17.08,17.08,0,0,1,5.13-4.19,12.94,12.94,0,0,1,4.79-1.45,9,9,0,0,1,3.16.26,6.2,6.2,0,0,1,1,.36s-.37-.1-1.07-.26a9.81,9.81,0,0,0-3.11-.16,13.09,13.09,0,0,0-4.67,1.5,17,17,0,0,0-5,4.17,44.21,44.21,0,0,0-4.4,6.64,60.25,60.25,0,0,1-4.92,7.79,20.89,20.89,0,0,1-3.53,3.57A15.36,15.36,0,0,1,416,152c-1.68.58-3.45.95-5.2,1.41a17.75,17.75,0,0,0-5.06,2,10.11,10.11,0,0,0-3.58,4,33.32,33.32,0,0,0-2,4.93,33.44,33.44,0,0,1-2,4.83,11,11,0,0,1-3.26,3.84,13.24,13.24,0,0,1-4.43,1.82c-1.5.36-3,.58-4.38.87-2.77.56-5.38,1.59-6.91,3.45a5.88,5.88,0,0,0-1.31,3.08,6.69,6.69,0,0,0,.4,3,14.24,14.24,0,0,0,2.55,4.2c.88,1,1.63,1.79,2.14,2.3l.59.57C383.7,192.37,383.77,192.44,383.76,192.45Z"/><path class="cls-11" d="M506.86,127.85a3.56,3.56,0,0,1-.52.77c-.36.48-.89,1.16-1.58,2-1.36,1.64-3.32,3.84-5.62,6.15-1.14,1.12-2.21,2.38-3.68,2.84a3.24,3.24,0,0,1-2.11,0,2.7,2.7,0,0,1-1.36-1.25,4.07,4.07,0,0,1-.37-2.54,2.38,2.38,0,0,1,.23-.9,4.29,4.29,0,0,1,0,.92,4.1,4.1,0,0,0,.49,2.34,2.31,2.31,0,0,0,1.19,1,2.75,2.75,0,0,0,1.81,0c1.28-.41,2.31-1.61,3.46-2.75,2.29-2.29,4.28-4.45,5.72-6A25.92,25.92,0,0,1,506.86,127.85Z"/><path class="cls-11" d="M514.5,127.85a3.4,3.4,0,0,1-.61.78c-.41.48-1,1.16-1.78,2l-2.69,2.91-1.6,1.7A14.24,14.24,0,0,1,506,137a4.71,4.71,0,0,1-2.44,1,2.5,2.5,0,0,1-2.27-1,2,2,0,0,1-.37-1.16,2.29,2.29,0,0,1,.34-1.07c.37-.6.75-1.06,1.08-1.52.66-.91,1.21-1.64,1.6-2.14a3.45,3.45,0,0,1,.65-.74,4.11,4.11,0,0,1-.48.86c-.34.53-.84,1.29-1.47,2.23-.31.47-.69,1-1,1.52a1.49,1.49,0,0,0,0,1.74,2,2,0,0,0,1.85.76,4.22,4.22,0,0,0,2.16-.88,13,13,0,0,0,1.81-1.66l1.63-1.68,2.77-2.84c.79-.8,1.44-1.44,1.9-1.88A3.66,3.66,0,0,1,514.5,127.85Z"/></g><g id="Plants"><path class="cls-3" d="M618.91,434a12.68,12.68,0,0,1,20.59-3.57,16.46,16.46,0,0,1-9.21,7.08A10,10,0,0,1,618.91,434"/><path class="cls-9" d="M611.81,435.64a12.85,12.85,0,0,1,2.87-.9c1.81-.44,4.33-.93,7.12-1.39s5.33-.81,7.18-1a17.08,17.08,0,0,1,3-.23,17.8,17.8,0,0,1-2.94.6l-7.15,1.17c-2.78.46-5.3.9-7.12,1.24A26.52,26.52,0,0,1,611.81,435.64Z"/><path class="cls-3" d="M261.48,370.69a16.66,16.66,0,0,1-3,27.69c-3.67-9.41-5.08-19.54,3-27.69"/><path class="cls-3" d="M275.39,377.91A21.55,21.55,0,0,0,306.54,396c-7-11-16.47-20.27-31.15-18.11"/><path class="cls-9" d="M243.52,343.13a2.82,2.82,0,0,1,.47.5l1.25,1.49c1.06,1.31,2.61,3.2,4.57,5.49,3.9,4.6,9.41,10.86,15.9,17.39,3.25,3.26,6.44,6.27,9.4,8.93s5.76,4.93,8.16,6.75a62.15,62.15,0,0,0,5.89,4c1.45.86,2.31,1.22,2.29,1.27a2.55,2.55,0,0,1-.64-.24,15.27,15.27,0,0,1-1.75-.85,53.25,53.25,0,0,1-6-3.89c-2.44-1.8-5.24-4.07-8.25-6.69s-6.2-5.66-9.46-8.92c-6.5-6.54-12-12.85-15.81-17.52-1.93-2.33-3.43-4.26-4.45-5.6l-1.18-1.56A3.62,3.62,0,0,1,243.52,343.13Z"/><path class="cls-9" d="M260.71,384.91c-.09,0,.24-1.4.53-3.67a39.12,39.12,0,0,0-1.84-17.62c-.75-2.16-1.36-3.45-1.28-3.49a3.73,3.73,0,0,1,.51.86,25.87,25.87,0,0,1,1.12,2.5,34.8,34.8,0,0,1,2.1,8.78,34.41,34.41,0,0,1-.25,9A24.68,24.68,0,0,1,261,384,4.12,4.12,0,0,1,260.71,384.91Z"/><path class="cls-3" d="M702,182.54a12.67,12.67,0,0,1,6.62-19.81,16.42,16.42,0,0,1,1.87,11.45,10,10,0,0,1-8.49,8.36"/><path class="cls-9" d="M700.1,189.57a12.44,12.44,0,0,1,.57-2.95c.47-1.8,1.23-4.25,2.15-6.93s1.82-5.08,2.5-6.81a16.15,16.15,0,0,1,1.22-2.75,18.11,18.11,0,0,1-.87,2.88c-.66,1.91-1.47,4.25-2.36,6.85s-1.73,5.1-2.29,6.86A29.24,29.24,0,0,1,700.1,189.57Z"/><path class="cls-3" d="M658,256.94a24.5,24.5,0,0,1,26.21-30.74c1.39,7.56-1,15.32-4.95,21.89-4.71,7.75-14.07,11-21.26,8.85"/><path class="cls-9" d="M628.41,286.54a3.49,3.49,0,0,1,.43-.54l1.29-1.47c1.15-1.26,2.83-3.06,4.92-5.26,4.2-4.4,10.06-10.41,16.58-17s12.45-12.54,16.77-16.81l5.14-5.05,1.42-1.35c.32-.3.5-.46.52-.44a3.68,3.68,0,0,1-.45.52l-1.35,1.42-5,5.15L652,262.63l-16.68,16.9-5,5.14-1.36,1.4A3.14,3.14,0,0,1,628.41,286.54Z"/><g class="cls-12"><path d="M658,256.94a24.5,24.5,0,0,1,26.21-30.74c1.39,7.56-1,15.32-4.95,21.89-4.71,7.75-14.07,11-21.26,8.85"/></g><path class="cls-3" d="M644.29,259.91a15,15,0,0,1-3.13-24.6c4,2.5,6.56,6.77,7.89,11.29,1.58,5.34-.8,11-4.76,13.31"/><g class="cls-12"><path d="M644.29,259.91a15,15,0,0,1-3.13-24.6c4,2.5,6.56,6.77,7.89,11.29,1.58,5.34-.8,11-4.76,13.31"/></g><path class="cls-9" d="M645.85,268.43a3.9,3.9,0,0,1-.3-.92c-.17-.59-.36-1.46-.57-2.55-.42-2.16-.86-5.18-1.26-8.51s-.68-6.37-.85-8.57a21.67,21.67,0,0,1-.14-3.56,26.35,26.35,0,0,1,.51,3.53c.27,2.32.62,5.27,1,8.54s.78,6.34,1.1,8.51S645.93,268.41,645.85,268.43Z"/><path class="cls-3" d="M457,375.81A23.67,23.67,0,0,1,496,368.73c-11.34,8.79-24.57,14.79-38.92,7.08"/><g class="cls-12"><path d="M457,375.81A23.67,23.67,0,0,1,496,368.73c-11.34,8.79-24.57,14.79-38.92,7.08"/></g><path class="cls-9" d="M450.63,379.33a4.61,4.61,0,0,1,.9-.7c.6-.43,1.49-1,2.63-1.66a50,50,0,0,1,19.35-6.39c1.3-.14,2.36-.21,3.09-.22a4.19,4.19,0,0,1,1.14,0c0,.08-1.61.18-4.19.56a59.76,59.76,0,0,0-9.89,2.32,59,59,0,0,0-9.32,4C452,378.52,450.68,379.4,450.63,379.33Z"/><path class="cls-3" d="M193.43,245.51a18.28,18.28,0,0,1,26,16.05c-11.05-.82-21.74-4.21-26-16.05"/><g class="cls-12"><path d="M193.43,245.51a18.28,18.28,0,0,1,26,16.05c-11.05-.82-21.74-4.21-26-16.05"/></g><path class="cls-9" d="M187.94,244.22a2.71,2.71,0,0,1,.88,0,23.1,23.1,0,0,1,2.37.38,38.29,38.29,0,0,1,7.54,2.41,38.85,38.85,0,0,1,6.88,3.93c.82.6,1.46,1.11,1.88,1.49a3.38,3.38,0,0,1,.63.62c-.06.07-1-.7-2.72-1.8A45.84,45.84,0,0,0,191.11,245C189.16,244.51,187.93,244.3,187.94,244.22Z"/><path class="cls-3" d="M551.76,363.56a16.35,16.35,0,0,1,20.88-17.64c-3.77,9.17-9.63,17.32-20.88,17.64"/><path class="cls-9" d="M549.13,367.87a11.91,11.91,0,0,1,1.25-2.66,33.64,33.64,0,0,1,9.41-10.5,12,12,0,0,1,2.51-1.53A27.35,27.35,0,0,1,560,355a41.48,41.48,0,0,0-9.32,10.39A25.49,25.49,0,0,1,549.13,367.87Z"/><path class="cls-3" d="M630.45,311.61a16.35,16.35,0,0,1,17.19-21.25c-2,9.72-6.2,18.82-17.19,21.25"/><g class="cls-12"><path d="M630.45,311.61a16.35,16.35,0,0,1,17.19-21.25c-2,9.72-6.2,18.82-17.19,21.25"/></g><path class="cls-9" d="M628.68,316.34a11.52,11.52,0,0,1,.73-2.84,32.9,32.9,0,0,1,3-6.43,32.56,32.56,0,0,1,4.28-5.65,12,12,0,0,1,2.17-2,27.62,27.62,0,0,1-1.9,2.22,43.68,43.68,0,0,0-4.11,5.68,44.51,44.51,0,0,0-3.09,6.28A25.56,25.56,0,0,1,628.68,316.34Z"/><path class="cls-3" d="M37.28,240.1a16.35,16.35,0,0,1,25.56-9.69c-6.6,7.39-14.84,13.13-25.56,9.69"/><path class="cls-9" d="M33.37,243.29a12.4,12.4,0,0,1,2.06-2.09,33.38,33.38,0,0,1,5.82-4,32.68,32.68,0,0,1,6.55-2.73,11.37,11.37,0,0,1,2.87-.61,27,27,0,0,1-2.76,1,41.18,41.18,0,0,0-12.24,6.7A24.42,24.42,0,0,1,33.37,243.29Z"/></g></svg>