<svg xmlns="http://www.w3.org/2000/svg" xmlns:xlink="http://www.w3.org/1999/xlink" width="273.694" height="239.6" viewBox="0 0 273.694 239.6">
  <defs>
    <clipPath id="clip-path">
      <rect id="Mask" width="241.246" height="78.064" rx="20" fill="#e1e5f0"/>
    </clipPath>
    <clipPath id="clip-path-2">
      <rect id="Mask-2" data-name="Mask" width="241.481" height="126.736" rx="6" fill="#e1e5f0"/>
    </clipPath>
    <clipPath id="clip-path-3">
      <ellipse id="Oval" cx="33.036" cy="33.036" rx="33.036" ry="33.036" fill="#a339ff"/>
    </clipPath>
  </defs>
  <g id="Group_239" data-name="Group 239" transform="translate(-1393 -3759.649)">
    <g id="Group" transform="translate(1393 3759.649)">
      <g id="Background_37" data-name="Background / 37">
        <g id="Page">
          <g id="Browser">
            <rect id="Background" width="273.694" height="183.638" rx="10" transform="translate(0 7.759)" fill="#f2f6fb"/>
            <g id="Gallery_" data-name="Gallery ">
              <path id="Combined_Shape" data-name="Combined Shape" d="M205.366,162.973a20,20,0,0,1-20-20V133.21a20,20,0,0,1,20-20h32.156a20,20,0,0,1,20,20v9.762a20,20,0,0,1-20,20Zm-84.6,0a20,20,0,0,1-20-20V133.21a20,20,0,0,1,20-20h32.156a20,20,0,0,1,20,20v9.762a20,20,0,0,1-20,20ZM0,10.345A10.346,10.346,0,0,1,10.345,0h253a10.346,10.346,0,0,1,10.345,10.345Z" fill="#d8deed"/>
              <ellipse id="Burron" cx="2.234" cy="2.234" rx="2.234" ry="2.234" transform="translate(4.703 3.057)" fill="#ff5645"/>
              <ellipse id="Burron-2" data-name="Burron" cx="2.234" cy="2.234" rx="2.234" ry="2.234" transform="translate(11.992 3.057)" fill="#ffcb3d"/>
              <ellipse id="Burron-3" data-name="Burron" cx="2.234" cy="2.234" rx="2.234" ry="2.234" transform="translate(19.516 3.057)" fill="#3abf7c"/>
            </g>
          </g>
          <g id="Video" transform="translate(119.553 126.266)">
            <g id="Video-2" data-name="Video" transform="translate(0 0)">
              <g id="Icons_Video" data-name="Icons / Video" transform="translate(0 0)">
                <path id="Combined_Shape-2" data-name="Combined Shape" d="M.471,23.625a.47.47,0,0,1-.4-.719L12.628,2.776a.47.47,0,0,1,.792-.008l9.1,13.9,3.5-5.626a.47.47,0,0,1,.786-.019l7.969,11.555a.471.471,0,0,1-.373.737l-7.977.247h-.01l-.413-.034.034.1Zm91.467-.984V2.253a.235.235,0,0,1,.34-.21l20.389,10.193a.236.236,0,0,1,0,.421L92.278,22.851a.234.234,0,0,1-.34-.21ZM23.779,2.933a2.912,2.912,0,1,1,2.912,2.932A2.923,2.923,0,0,1,23.779,2.933Z" transform="translate(0 0)" fill="#f2f6fb"/>
              </g>
            </g>
          </g>
          <rect id="Mask-3" data-name="Mask" width="241.246" height="78.064" rx="20" transform="translate(16.224 23.983)" fill="#e1e5f0"/>
          <g id="Mask_Group_2" data-name="Mask Group 2" transform="translate(16.224 23.983)" clip-path="url(#clip-path)">
            <g id="Graphics" transform="translate(0 -9.64)">
              <g id="Graphics_" data-name="Graphics ">
                <g id="Graphic">
                  <rect id="Mask-4" data-name="Mask" width="241.481" height="126.736" rx="6" fill="#e1e5f0"/>
                  <g id="Graphic-2" data-name="Graphic" clip-path="url(#clip-path-2)">
                    <g id="Group_3" data-name="Group 3" transform="translate(-3.876 9.64)">
                      <path id="completed" d="M0,130.131H280.553V.013C273.961,20,261.4,30.877,247.88,30.877c-7.813,0-15.946-3.627-23.44-11.222C217.031,12.147,208.722,8.56,200.527,8.56c-14.439,0-28.53,11.123-36.765,31.52-6.454,15.984-14.964,23.978-23.474,23.978s-17.022-7.994-23.48-23.983C108.569,19.679,94.47,8.551,80.03,8.549c-8.2,0-16.5,3.585-23.914,11.094-7.494,7.594-15.63,11.22-23.441,11.22C19.149,30.863,6.591,19.993,0,0Z" transform="translate(0 0)" fill="#d8deed"/>
                    </g>
                  </g>
                </g>
              </g>
            </g>
            <g id="Userpic" transform="translate(12.697 5.737)">
              <g id="User" transform="translate(0 0)">
                <ellipse id="Oval-2" data-name="Oval" cx="33.036" cy="33.036" rx="33.036" ry="33.036" fill="#fff"/>
                <g id="User-2" data-name="User" clip-path="url(#clip-path-3)">
                  <g id="Body" transform="matrix(1, -0.017, 0.017, 1, -0.779, 6.93)">
                    <path id="Path" d="M11.568,15,0,14.731V1.105L9.217,0l.635,3.01" transform="translate(48.962 54.864)" fill="#bf865f"/>
                    <path id="Shirt" d="M48.3,48.3c2.351-2.234,2.238-9.805,2.238-9.805q-.079-2.235-.156-4.256a62.743,62.743,0,0,0,10.692-3.191s-1.342-7.085-1.765-8.308c-.823-2.328-2.65-6.43-3.082-8.539-1.339-6.532-3.126-8.391-3.76-9.026a15.408,15.408,0,0,0-8.4-4.032C42.987.99,40.445.78,38.183.609,36.864.377,35.6.276,34.525.19c-3.072-.227-6.288-.472-9.348.692C23.5.062,18.6.318,18.558.341a14.152,14.152,0,0,0-7.9,2.506,12.815,12.815,0,0,0-1.9,1.6c-.635.635-1.839.984-3.343,6.838-.541,2.069-1.195,7.236-3.5,10.726C1.218,23.06,0,30.479,0,30.479s7.086.931,11.967,1.546a46.629,46.629,0,0,0-.25,12.464,11.706,11.706,0,0,0-.393,3.08s11.679.282,13.913.353c2.709.087,8.9.621,15.714.621C43.364,48.542,45.854,48.475,48.3,48.3Z" transform="translate(0 22.813)" fill="#d71e3c"/>
                    <path id="T-shirt" d="M0,.945S3.358,8.389,3.435,14.832s-.386,22.134-.386,22.134L17,37.124s.077-14.35-.559-22.065-5-14.651-5-14.651A52.872,52.872,0,0,0,3.693.064,13.2,13.2,0,0,0,0,.945Z" transform="translate(25.196 22.763)" fill="#fff"/>
                    <path id="Skin" d="M11.842,25.187a.467.467,0,0,0,.329-.441l.1-4.556c1.233.459,1.164.413,1.285.453a10.222,10.222,0,0,0,2.436.314,3.472,3.472,0,0,0,.55-.032,3.843,3.843,0,0,0,2.539-1.975,18.79,18.79,0,0,0,2.563-7.077,7.757,7.757,0,0,0,.141-1.27l.094-4.209a5.626,5.626,0,0,0-.658-2.728,4.06,4.06,0,0,0-.611-.941A7.363,7.363,0,0,0,15.471.089,10.031,10.031,0,0,0,13.206.044c-.212.024-.964.118-2.046.188C10.572.279,10.1.279,9.82.3,8.795.344,7.951.337,7.225.33a7.584,7.584,0,0,0-4.06.631,5.288,5.288,0,0,0-1.74,1.411C-.432,4.7.015,7.709.132,8.6a10.816,10.816,0,0,0,2.445,5.008,20.672,20.672,0,0,0,2.181,2.523l-.253,7.731a.458.458,0,0,0,.212.416A8.084,8.084,0,0,0,7.28,25.359a8.392,8.392,0,0,0,1.95.228A8.814,8.814,0,0,0,11.842,25.187Z" transform="matrix(0.999, 0.035, -0.035, 0.999, 23.718, 0)" fill="#db9e75"/>
                    <path id="Combined_Shape-3" data-name="Combined Shape" d="M36.3,48.332a.352.352,0,0,0,.34-.445c-.837-3.079-3.25-12.477-3.634-14.254a.353.353,0,0,0-.69.149c.387,1.794,2.8,11.2,3.643,14.291a.352.352,0,0,0,.34.26ZM.692,47.112c.868-3.07,3.64-12.369,4.227-14.09a.353.353,0,0,0-.668-.228C3.659,34.531.885,43.838.013,46.92a.353.353,0,1,0,.679.192Zm19-36.525L16.508,9.175l2.939,5.162Zm6.011-4.293a3.056,3.056,0,0,0,.3-.6,8.567,8.567,0,0,1-1.364-.024c-.422-.038-.7-.142-.8.019-.025.046,0,.117-.006.164.061.261.457.392.62.445a2.673,2.673,0,0,0,.793.169A.552.552,0,0,0,25.705,6.294Zm.233-1.61.1-.005a.516.516,0,0,0,.449-.555l-.263-2.51L26.27.243A.235.235,0,0,0,25.8.227l-.048,1.387v.033l.265,2.533S26,4.209,26,4.211l-.076,0c-.386.016-.623.019-1.035,0a.235.235,0,1,0-.016.47c.188.007.342.01.489.01C25.542,4.7,25.717,4.693,25.939,4.684Zm1.915-3.3c-.107-.309-.27-.362-.459-.345a.583.583,0,0,0-.49.571,2.454,2.454,0,0,0,.284,1.3.231.231,0,0,0,.152.07h.007C27.707,2.981,28.1,2.023,27.853,1.381Zm-4.161-.1C23.609.974,23.447.9,23.259.891a.559.559,0,0,0-.558.5,2.288,2.288,0,0,0,.165,1.347.22.22,0,0,0,.164.089h.007C23.392,2.825,23.87,1.929,23.692,1.283Z" transform="translate(15.62 10.035)" fill="#482d1f"/>
                    <path id="Hair" d="M.43,9.714h0C1.389,9.608,2.5,9.45,3.74,9.246A3.144,3.144,0,0,1,4.377,7.54,3.312,3.312,0,0,1,6.9,6.245a2.312,2.312,0,0,1,.81.141,2.651,2.651,0,0,1,1.061.771l.017.019a3.984,3.984,0,0,1,.417.712c2.091-.875,5.949-2.356,8.305-2.443.077,0,.156,0,.234,0A8.89,8.89,0,0,1,21.89,6.6a5.648,5.648,0,0,0-.566-2.682,4.034,4.034,0,0,0-.578-.961A6.516,6.516,0,0,0,18.336.941,8.759,8.759,0,0,0,15.7.143,10.769,10.769,0,0,0,14,0c-.2,0-.381.006-.554.019l-.088.007c-.3.024-1,.081-1.963.11-.343.015-.649.016-.894.017-.177,0-.329,0-.447.007h-.2C8.888.16,8.094.124,7.456.1l-.051,0C6.876.07,6.419.05,5.994.05A5.528,5.528,0,0,0,3.377.585,5.253,5.253,0,0,0,1.588,1.934C-.308,4.147-.022,7.089.072,8.056l.006.061a8.675,8.675,0,0,0,.352,1.6Zm19.617-.04a4.153,4.153,0,0,0,.893-.1.284.284,0,0,0,.224-.194.316.316,0,0,0-.065-.318,1.614,1.614,0,0,0-1.044-.413h-.079c-.626,0-1.279.26-1.317.525-.015.1.051.243.448.361a2.869,2.869,0,0,0,.808.135Zm-4.927,0a6.012,6.012,0,0,0,.973-.1.275.275,0,0,0,.222-.2.309.309,0,0,0-.086-.317,1.618,1.618,0,0,0-1.068-.414h-.076c-.63,0-1.284.266-1.321.537-.013.1.054.24.449.349A2.663,2.663,0,0,0,15,9.668Z" transform="translate(23.475 0.46)" fill="#482d1f"/>
                    <path id="Path-2" data-name="Path" d="M.508.271A3.407,3.407,0,0,0,.837,2.314,3.1,3.1,0,0,0,2.444,3.807a.235.235,0,0,1-.2.427,3.954,3.954,0,0,1-.824-.492,3.509,3.509,0,0,1-1-1.215A3.875,3.875,0,0,1,.044.2.235.235,0,1,1,.508.271Z" transform="matrix(0.999, 0.035, -0.035, 0.999, 26.79, 8.974)" fill="#482d1f"/>
                  </g>
                </g>
              </g>
            </g>
          </g>
          <path id="Combined_Shape-4" data-name="Combined Shape" d="M173.821,31.238a4.628,4.628,0,0,1,0-9.256h52.947a4.628,4.628,0,0,1,0,9.256Zm-84.6,0a4.628,4.628,0,0,1,0-9.256h52.947a4.628,4.628,0,0,1,0,9.256ZM4.628,24.3a4.628,4.628,0,0,1,0-9.256H57.575a4.628,4.628,0,1,1,0,9.256Zm0-15.041A4.628,4.628,0,0,1,4.628,0H57.575a4.628,4.628,0,1,1,0,9.256Z" transform="translate(16.173 145.555)" fill="#e1e5f0"/>
          <path id="Text" d="M4.529,23.774a4.529,4.529,0,1,1,0-9.058H47.722a4.529,4.529,0,0,1,0,9.058Zm0-14.718A4.528,4.528,0,1,1,4.529,0H55.186a4.528,4.528,0,1,1,0,9.057Z" transform="translate(16.173 113.21)"/>
        </g>
      </g>
    </g>
    <g id="Characters_standing_Woman_standing_4" data-name="Characters standing / Woman standing / 4" transform="translate(1512.682 3788.634)">
      <g id="Woman">
        <path id="Base" d="M90.056,2.116A1,1,0,0,1,89,1.221V.9A.989.989,0,0,1,90.056,0h24.1a1,1,0,0,1,1.057.9v.326a.988.988,0,0,1-1.057.895Zm-89,0A1.058,1.058,0,1,1,1.058,0H39.385a1.058,1.058,0,0,1,0,2.116Z" transform="translate(0 208.499)" fill="#3abf7c"/>
        <path id="Shoes" d="M38.318,14.771h0a1.074,1.074,0,0,0-.122-.007H.034a2.409,2.409,0,0,1-.034-.5c.009-.057.015-.116.022-.179a2.289,2.289,0,0,1,.058-.36A3.68,3.68,0,0,1,1.817,11.19a29.565,29.565,0,0,1,3.3-1.777c1.758-.826,3.013-1.3,4.12-1.709a18.869,18.869,0,0,0,4.271-2.048,22.14,22.14,0,0,0,3.172-2.579A46.57,46.57,0,0,1,20.92,0H38.461l-.143,14.77Zm74.777,0h0a1.178,1.178,0,0,0-.127-.007H88.947l1.9-12L107.682.488l5.412,14.281Z" transform="translate(1.19 193.735)" fill="#474961"/>
        <path id="Legs" d="M19.251,123.281C9.644,121.436-.252,119.554,0,118.115c.623-3.421,10.381-7.894,11.153-12.188s1.356-8.969,1.464-9.738c4.943-29.365,9.582-51.928,12.1-64.2A61.476,61.476,0,0,1,35.234,6.618c.482-.643.873-1.144,1.1-1.453A8.425,8.425,0,0,1,38.563,3.49l-.052-.433C40.391,1.66,41.667.65,49.276.07c.188,0,.4-.031.587-.034A21.2,21.2,0,0,1,68.229,8.147a59.543,59.543,0,0,1,7.087,16.56c1.923,7.367,12.668,56.635,17.93,80.855a13.332,13.332,0,0,0,1.371,3.078c1.461,2.154,5.773,5.093,8.817,9.222s-9.512,3.7-19.039,5.924c-7.371,1.719-14.908,3.488-18.1,3.544-.935.016-1.5-.115-1.579-.436-.652-2.676,3.665-8.287,4.97-12.609Q63.746,98.142,58.07,80.791q-3.841-11.807-7.224-23.234c-5.349,17.7-8.688,29.9-14.322,48.369,0,0-1.749,4.958-1.29,7.52s2.719,7.157,3.82,12.166c.329,1.5-.446,2.054-1.952,2.054C33.563,127.667,25.991,124.576,19.251,123.281Z" transform="translate(13.793 58.086)" fill="#ff5a6e"/>
        <path id="Shadow_T-shirt" data-name="Shadow T-shirt" d="M37.1,124.152h0c-1.949,0-5.077-.925-8.7-2-2.87-.848-6.123-1.809-9.153-2.391l-.334-.064c-4.691-.9-9.542-1.832-13.114-2.7a34.854,34.854,0,0,1-4.286-1.26,5.389,5.389,0,0,1-1.162-.588c-.263-.194-.381-.38-.35-.553.293-1.612,2.615-3.457,5.072-5.41A45.236,45.236,0,0,0,9,105.831a7.017,7.017,0,0,0,2.161-3.419c.66-3.672,1.189-7.667,1.388-9.171v-.01c.034-.259.059-.447.075-.557,2.107-12.514,4.416-25.3,6.863-38.012,2.069-10.746,3.83-19.343,5.116-25.62l.116-.568a75.213,75.213,0,0,1,2.874-10.844,58.341,58.341,0,0,1,3.019-7.011A56.379,56.379,0,0,1,35.233,3.1c.26-.346.5-.655.686-.9.167-.218.311-.406.417-.55A8.434,8.434,0,0,1,38.514,0l.055.461c.856,7.14,1.825,15.234,3.217,21.623,1.4,6.426,3.241,12.489,5.19,18.907l.161.53C48.327,45.742,49.559,50,50.8,54.187c-2.478,8.2-4.56,15.342-6.573,22.247-2.312,7.929-4.7,16.129-7.7,25.977,0,.012-.439,1.247-.817,2.8a13.249,13.249,0,0,0-.473,4.721,31.768,31.768,0,0,0,1.433,4.517,59.811,59.811,0,0,1,2.388,7.649,1.7,1.7,0,0,1-.191,1.482A2.157,2.157,0,0,1,37.1,124.152Z" transform="translate(13.766 61.509)" fill="#444" opacity="0.177"/>
        <path id="T-shirt-2" data-name="T-shirt" d="M8.354,34.754A6.4,6.4,0,0,1,7.061,30.78c0-.259-.023-.494-.047-.753l-.83-8.842C1.773,20.447,1.1,17.524.372,15.263-1.11,10.656,2.056,5.239,5.989,2.648A12.682,12.682,0,0,1,15.421.689,17.109,17.109,0,0,1,20.158,0H21.5c4.06-.024,7.765.333,10.53,1.489a13.824,13.824,0,0,1,3.582,1.6c4.559,2.918,7.243,8.479,5.159,13.955C40.118,18.758,36.4,21.19,36.4,21.19s-.218.024-.6.047l-.781,8.438c-.023.259-.047.494-.047.752a7.057,7.057,0,0,1-1.246,4.185c-1.411,1.787-3.5,4.374-12.25,4.467l-.495,0C11.989,39.083,9.786,36.555,8.354,34.754Z" transform="translate(41.632 23.449)" fill="#d71e3c"/>
        <path id="Shadow_T-shirt-2" data-name="Shadow T-shirt" d="M6.084,20.712h0A6.3,6.3,0,0,1,2.018,18.5,10.014,10.014,0,0,1,.495,15.193c-.042-.134-.082-.259-.122-.386a8.19,8.19,0,0,1-.3-3.55A11.234,11.234,0,0,1,1.15,7.743,14.337,14.337,0,0,1,5.989,2.192,13.465,13.465,0,0,1,9.421.568,12.515,12.515,0,0,1,13.117,0a11.39,11.39,0,0,1,2.4.252A14.1,14.1,0,0,0,5.676,9.3a9.385,9.385,0,0,0-.306,3.809l.713,7.6Z" transform="translate(41.723 23.833)" fill="#444" opacity="0.177"/>
        <path id="Skin-2" data-name="Skin" d="M84.53,183.56c2.428-.535,5.078-1.154,7.641-1.751l.326-.076c2.526-.589,5.289-1,7.9-1.347L103.1,194.16l-16.791,2.361ZM16.1,193.924l4.519-14.007c2.064.414,4.271.838,6.4,1.247l.333.064c3.029.582,6.209,1.521,9.015,2.35l-2.484,10.345ZM51.352,65.367a7.036,7.036,0,0,1-2.1-.327,8.744,8.744,0,0,1-1.99-.928,15.154,15.154,0,0,1-3.624-3.327,29.012,29.012,0,0,1-2.257-3.222,18.511,18.511,0,0,1-2.895,2.179,11.591,11.591,0,0,1-2.436,1.113,8.317,8.317,0,0,1-2.49.4h0c-.186,0-.376-.007-.565-.021a12.835,12.835,0,0,1-4.5-1.274,23.651,23.651,0,0,1-4.4-2.8,50.817,50.817,0,0,1-7.908-8.07,92.731,92.731,0,0,1-5.664-7.9c-1.292-2.014-2.079-3.405-2.165-3.558v0h0L0,21.653a4.284,4.284,0,0,1,2.76-1.111,4.2,4.2,0,0,1,2.176.657,4.509,4.509,0,0,1,.841.657c.024.032,2.445,3.212,2.811,3.824a15.249,15.249,0,0,0,5.826,5.851,15.655,15.655,0,0,1,4.457,3.791l11.269,9.7,4.237-4.372c-.966-3.27-1.513-5.665-1.614-6.119-1.214-.82-3.1-2.319-6.319-5.012-.436-.366-4.312-.979-4.351-.985a9.238,9.238,0,0,1-1.058.057,7.85,7.85,0,0,1-1.92-.215,3.345,3.345,0,0,1-1.746-.966,2.593,2.593,0,0,1-.527-2.15l15.211-1c.113-.007.228-.011.341-.011a5.17,5.17,0,0,1,4.973,3.76l.93,3.275c1.186-.748,1.813-1.239,1.862-1.46l10.5,15.745,5.184-8.411c1.483,2.663,3.66,3.893,6.673,5.6l.2.113a16.224,16.224,0,0,0,7.711,1.685c.424,0,.84-.012,1.238-.035-1.306,2.414-2.637,4.679-3.956,6.731a64.907,64.907,0,0,1-4.768,6.569c-3.88,4.631-7.52,7.154-10.819,7.5-.189.02-.382.033-.572.039l-.2,0ZM40.159,29.83l-.078-.117c.064.021.091.06.078.117h0Zm9.7-5.266-.208-4.618-.188.047c-2.063.516-1.943.477-2.087.514a8.941,8.941,0,0,1-3.014-.046c-1.929-.394-3.756-4.27-4.094-9.55a11.518,11.518,0,0,1-.005-1.273l.364-4.194a5.249,5.249,0,0,1,.913-2.6A2.12,2.12,0,0,1,41.7,2.62,7.968,7.968,0,0,1,42.236,2,6.547,6.547,0,0,1,44.51.483,10.562,10.562,0,0,1,49.6.179c.163.035.674.141,1.394.286a9.972,9.972,0,0,0,2,.422.72.72,0,0,1,.606.773l-.654,5.988c-.007.064.346-.173.9-.41a4.2,4.2,0,0,1,2.686-.316c.887.234,2.447,2.492,2.447,2.492s-.556,1.7-.582,1.75A14.151,14.151,0,0,1,56.7,13.818l-.143,3.771.242,5.794H56.02a16.809,16.809,0,0,0-6.16,1.181h0Z" transform="translate(5.77 0.067)" fill="#ed9474"/>
        <path id="Shadow_Arm" data-name="Shadow Arm" d="M33.556,40.711h0c-.186,0-.376-.007-.565-.021a12.836,12.836,0,0,1-4.5-1.274,23.65,23.65,0,0,1-4.4-2.8,50.818,50.818,0,0,1-7.908-8.07,92.73,92.73,0,0,1-5.664-7.9c-1.292-2.013-2.079-3.405-2.165-3.558v0h0L0,1.111A4.284,4.284,0,0,1,2.76,0,4.2,4.2,0,0,1,4.935.657a4.511,4.511,0,0,1,.841.657c.024.032,2.445,3.212,2.811,3.824a15.25,15.25,0,0,0,5.826,5.851A15.656,15.656,0,0,1,18.87,14.78l11.269,9.7,4.263-4.4a95.081,95.081,0,0,0,3.479,9.872,52.783,52.783,0,0,0,3.532,7.029A18.566,18.566,0,0,1,38.482,39.2a11.584,11.584,0,0,1-2.436,1.113A8.315,8.315,0,0,1,33.556,40.711Z" transform="translate(5.878 20.61)" fill="#8c2a00" opacity="0.2"/>
        <path id="Shadow" d="M.223,2.9,2.8,0,0,.931Z" transform="matrix(0.998, 0.07, -0.07, 0.998, 55.492, 19.082)" fill="#482d1f"/>
        <path id="Hair-2" data-name="Hair" d="M20.2,20.325a28.954,28.954,0,0,1-3.341-.209c-2.984-2.018-2.315-5.657-2.311-5.976l0-.008.1-.014h0a3.618,3.618,0,0,0,1.985-.83,3.211,3.211,0,0,0,1.022-3.158A2.909,2.909,0,0,0,15.2,7.837h-.07a2.684,2.684,0,0,0-1.176.291,3.766,3.766,0,0,0-1.286,1.206l-.269.508c-.072-.13-.143-.257-.212-.376C10.653,7.5,9.149,5.6,7.615,3.653a23.542,23.542,0,0,0-4.329-.8,4.9,4.9,0,0,1-1.35-.235l.005-.007A7.946,7.946,0,0,1,2.475,2,6.539,6.539,0,0,1,4.749.483,10.382,10.382,0,0,1,7.939,0a9.387,9.387,0,0,1,1.9.179c.174.037.689.144,1.394.286l.023,0c.2.036.405.074.652.114.4.06.741.114,1.012.158h0L13.26.8c1.078.147,1.946.22,2.711.285a7.646,7.646,0,0,1,3.963,1.007,5.716,5.716,0,0,1,1.611,1.574A6.67,6.67,0,0,1,22.6,7.351a10.861,10.861,0,0,1-.326,2.576h0L22.256,10a8.566,8.566,0,0,1-.826,2.05,3.3,3.3,0,0,0,.261,2.577c2.431,2.976,3.535,3.412,2.927,4.5-.535.958-2.566,1.192-4.417,1.192ZM4.739,8.639a.282.282,0,0,1-.08-.507,1.7,1.7,0,0,1,1.1-.314c.963.071,1.941.783.877.961a2.915,2.915,0,0,1-.607.06A4.919,4.919,0,0,1,4.739,8.639ZM.212,8.083a.3.3,0,0,1-.1-.51A1.7,1.7,0,0,1,1.19,7.256c.963.071,1.944.76.877.96a2.744,2.744,0,0,1-.6.062A4.679,4.679,0,0,1,.212,8.083Z" transform="translate(45.583)" fill="#482d1f"/>
        <path id="Phone" d="M.849.248h0C1.507-.1,2.213-.081,2.424.319L12.488,18.4c.212.4-.118,1.011-.776,1.387h0c-.658.353-1.364.329-1.575-.071L.073,1.635C-.162,1.212.191.6.849.248Z" transform="matrix(0.996, -0.087, 0.087, 0.996, 6.43, 13.257)" fill="#474961"/>
        <path id="Eyes" d="M4.233.742c.11-.318.285-.391.471-.368a.579.579,0,0,1,.5.559,1.972,1.972,0,0,1-.28,1.316.209.209,0,0,1-.155.075C4.425,2.324,4.013,1.371,4.233.742ZM.062.372C.172.054.347-.019.534,0a.579.579,0,0,1,.5.559c0,.4-.012,1.065-.28,1.316A.209.209,0,0,1,.6,1.954C.254,1.954-.158,1,.062.372Z" transform="translate(46.291 9.532)" fill="#482d1f"/>
        <path id="Mouth" d="M1.552.695c.165-.047.564-.188.635-.447,0-.047.024-.118,0-.165-.094-.141-.4-.071-.823-.024A7.3,7.3,0,0,1,0,.06,2.838,2.838,0,0,0,.306.648C.541,1.024,1.293.765,1.552.695Z" transform="translate(48.294 14.158) rotate(7)" fill="#482d1f"/>
        <path id="Nose" d="M0,4.112v.026a.538.538,0,0,0,.432.538l.1.008C.78,4.7.958,4.7,1.6,4.7a.235.235,0,0,0,0-.47c-.629,0-.8,0-1.037-.018L.488,4.21c.005,0-.014-.027-.018-.062l.28-2.5V1.614L.705.227a.235.235,0,1,0-.47.016l.046,1.37Z" transform="translate(48.433 8.786) rotate(7)" fill="#482d1f"/>
        <path id="Shadow-2" data-name="Shadow" d="M.757,8.085C.524,4.732,1.08,2.231,2.4.573a.353.353,0,1,0-.551-.44C.4,1.949-.191,4.619.053,8.134a.353.353,0,0,0,.7-.049Z" transform="translate(61.061 29.221)" fill="#482d1f"/>
      </g>
    </g>
  </g>
</svg>
