<svg xmlns="http://www.w3.org/2000/svg" width="331.302" height="232.22" viewBox="0 0 331.302 232.22">
  <g id="Group_221" data-name="Group 221" transform="translate(-1381.998 -3779.93)">
    <g id="Group_215" data-name="Group 215" transform="translate(675 3442.154)">
      <g id="UI_Charts_Chart_1_3" data-name="UI / Charts / Chart 1 / 3" transform="translate(859.774 356.726)">
        <rect id="Rectangle" width="77.494" height="59.611" rx="20" fill="#f2f6fb"/>
        <g id="Chart" transform="translate(10.47 11.877)">
          <path id="Path" d="M1.543,35.479l11.568-17.6a3.051,3.051,0,0,1,4.825-.346L22.6,22.813a4.735,4.735,0,0,0,7.619-.724l11.13-18.9a3.046,3.046,0,0,1,5.087-.255l11.806,16.1a.841.841,0,1,0,1.355-1L47.791,1.932a4.725,4.725,0,0,0-7.887.4l-11.13,18.9a3.056,3.056,0,0,1-4.913.463l-4.666-5.28a4.729,4.729,0,0,0-7.488.535L.139,34.552a.841.841,0,1,0,1.4.927Z" transform="translate(0 0)" fill="#e1e5f0"/>
          <ellipse id="Oval" cx="2.522" cy="2.528" rx="2.522" ry="2.528" transform="translate(3.745 24.288)" fill="#3abf7c"/>
          <ellipse id="Oval-2" data-name="Oval" cx="2.522" cy="2.528" rx="2.522" ry="2.528" transform="translate(31.869 10.65)" fill="#ffcb3d"/>
        </g>
      </g>
      <g id="UI_Charts_Chart_3_3" data-name="UI / Charts / Chart 3 / 3" transform="translate(788.347 337.776)">
        <g id="Chart-2" data-name="Chart">
          <g id="Browser">
            <g id="Background">
              <rect id="Background-2" data-name="Background" width="77.724" height="59.611" rx="20" fill="#f2f6fb"/>
            </g>
          </g>
          <g id="Graphic" transform="translate(10.271 18.083)">
            <path id="Rectangle-2" data-name="Rectangle" d="M4.292,0h0A4.292,4.292,0,0,1,8.585,4.292V27.584a0,0,0,0,1,0,0H0a0,0,0,0,1,0,0V4.292A4.292,4.292,0,0,1,4.292,0Z" transform="translate(48.75 13.945)" fill="#d8deed"/>
            <path id="Rectangle-3" data-name="Rectangle" d="M4.369,0h0A4.369,4.369,0,0,1,8.738,4.369V20.994a0,0,0,0,1,0,0H0a0,0,0,0,1,0,0V4.369A4.369,4.369,0,0,1,4.369,0Z" transform="translate(38.938 20.534)" fill="#d8deed"/>
            <path id="Rectangle-4" data-name="Rectangle" d="M4.292,0h0A4.292,4.292,0,0,1,8.585,4.292V41.529a0,0,0,0,1,0,0H0a0,0,0,0,1,0,0V4.292A4.292,4.292,0,0,1,4.292,0Z" transform="translate(29.281)" fill="#e1e5f0"/>
            <path id="Rectangle-5" data-name="Rectangle" d="M4.292,0h0A4.292,4.292,0,0,1,8.585,4.292V36.165a0,0,0,0,1,0,0H0a0,0,0,0,1,0,0V4.292A4.292,4.292,0,0,1,4.292,0Z" transform="translate(19.469 5.363)" fill="#d8deed"/>
            <path id="Rectangle-6" data-name="Rectangle" d="M4.292,0h0A4.292,4.292,0,0,1,8.585,4.292V23.6a0,0,0,0,1,0,0H0a0,0,0,0,1,0,0V4.292A4.292,4.292,0,0,1,4.292,0Z" transform="translate(9.811 17.929)" fill="#d8deed"/>
            <path id="Rectangle-7" data-name="Rectangle" d="M4.292,0h0A4.292,4.292,0,0,1,8.585,4.292v25.59a0,0,0,0,1,0,0H0a0,0,0,0,1,0,0V4.292A4.292,4.292,0,0,1,4.292,0Z" transform="translate(0 11.646)" fill="#d8deed"/>
          </g>
        </g>
      </g>
      <g id="Group" transform="translate(706.998 412.863)">
        <g id="Chair" transform="translate(255.412 38.403)">
          <g id="Chair_" data-name="Chair " transform="translate(0.121 0.016)">
            <path id="Combined_Shape" data-name="Combined Shape" d="M73.544,117.67,46.7,68.353H28.813L1.965,117.67a.992.992,0,0,1-1.33.321l-.092-.046a1.006,1.006,0,0,1-.436-1.33l7.176-13.16q6.534-11.968,13.023-23.913l6.1-11.189H3.456a1.023,1.023,0,0,1-1.032-1.009V67.23a1.038,1.038,0,0,1,1.032-1.009H65.421l1.933-15.636q1.995-15.957,3.966-31.961L73.5,1.016A1.094,1.094,0,0,1,74.668.007l.115.023a1.084,1.084,0,0,1,.871,1.215L67.469,67.184q-.009.06-.023.117v.043a1.038,1.038,0,0,1-1.032,1.009H49.1l6.1,11.189q6.534,11.968,13.023,23.913l7.176,13.16a1.006,1.006,0,0,1-.436,1.33l-.092.046a1.033,1.033,0,0,1-.513.136A.912.912,0,0,1,73.544,117.67Z" transform="translate(0 0)" fill="#d8deed"/>
          </g>
        </g>
        <g id="Interior_Devices_Laptop" data-name="Interior / Devices / Laptop" transform="translate(82.687 7.451)">
          <g id="Laptop_2" data-name="Laptop 2" transform="translate(17.113 27.284)">
            <path id="Laptop" d="M45.777,0a1.311,1.311,0,0,1,1.307,1.33,1.326,1.326,0,0,1-1.307,1.33H13.73L2.559,32.717A1.32,1.32,0,0,1,.083,31.8L11.569.894a1.332,1.332,0,0,1,.1-.217A1.33,1.33,0,0,1,12.83,0Z" transform="translate(47.084 33.58) rotate(180)" fill="#474961"/>
          </g>
        </g>
        <g id="Chair_Copy" data-name="Chair Copy" transform="translate(0 38.174)">
          <g id="Chair_2" data-name="Chair " transform="translate(0.121 0.016)">
            <path id="Combined_Shape-2" data-name="Combined Shape" d="M73.544.457,46.7,49.774H28.813L1.965.457A.992.992,0,0,0,.636.136L.544.182a1.006,1.006,0,0,0-.436,1.33l7.176,13.16Q13.819,26.64,20.307,38.585l6.1,11.189H3.456a1.023,1.023,0,0,0-1.032,1.009V50.9a1.038,1.038,0,0,0,1.032,1.009H65.421l1.933,15.636Q69.349,83.5,71.32,99.5L73.5,117.111a1.094,1.094,0,0,0,1.169,1.009l.115-.023a1.084,1.084,0,0,0,.871-1.215L67.469,50.943q-.009-.06-.023-.117v-.043a1.038,1.038,0,0,0-1.032-1.009H49.1l6.1-11.189q6.534-11.968,13.023-23.913L75.4,1.512a1.006,1.006,0,0,0-.436-1.33L74.874.136A1.033,1.033,0,0,0,74.361,0,.912.912,0,0,0,73.544.457Z" transform="translate(75.662 118.127) rotate(180)" fill="#d8deed"/>
          </g>
        </g>
        <g id="Chair_2-2" data-name="Chair /  2" transform="translate(120.599 37.257)">
          <g id="Chair_3" data-name="Chair " transform="translate(0.052 1.101)">
            <path id="Combined_Shape-3" data-name="Combined Shape" d="M.636,117.961l-.092-.046a1.006,1.006,0,0,1-.436-1.33l7.176-13.16q6.5-11.968,13.023-23.913l6.1-11.188H8.27a1.038,1.038,0,0,1-1.032-1.009V67.2a1.049,1.049,0,0,1,1.078-1.009H71.229A1.038,1.038,0,0,1,72.261,67.2v.115a1.023,1.023,0,0,1-1.032,1.009H49.1l6.1,11.188q6.5,11.968,13.023,23.913l7.176,13.16a1.006,1.006,0,0,1-.436,1.33l-.092.046a.992.992,0,0,1-1.33-.321L46.7,68.323H28.813L1.965,117.64a.912.912,0,0,1-.817.457A1.033,1.033,0,0,1,.636,117.961ZM48.16,62.817l-37.418-.039a3.439,3.439,0,0,1-3.435-3.439V3.439A3.439,3.439,0,0,1,10.747,0H48.164A3.439,3.439,0,0,1,51.6,3.439V59.378a3.439,3.439,0,0,1-3.439,3.439Z" transform="translate(0)" fill="#d8deed"/>
          </g>
        </g>
        <g id="Man_sitting_1" data-name="Man sitting / 1" transform="translate(120.57 0.115)">
          <g id="Man_" data-name="Man " transform="translate(0 0)">
            <g id="Legs" transform="translate(4.907 71.04)">
              <path id="Base" d="M31.365,2.063a1.032,1.032,0,1,1,0-2.063H67.8a1.032,1.032,0,0,1,0,2.063Zm-30.333,0A.964.964,0,0,1,0,1.19V.873A.979.979,0,0,1,1.032,0h23.5a.964.964,0,0,1,1.032.873V1.19a.979.979,0,0,1-1.032.873Z" transform="translate(5.153 83.914)" fill="#a339ff"/>
              <path id="Shoes" d="M29.875,14.322h0a1.139,1.139,0,0,1-.044-.313l.8-12.679a1.139,1.139,0,0,1,.288-.848,1.2,1.2,0,0,1,.858-.39L46.385,0a1.078,1.078,0,0,1,.688.229A24.909,24.909,0,0,0,54,5.5c.844.429,2.871,1.312,4.832,2.167,1.295.564,2.517,1.1,3.353,1.479A27.205,27.205,0,0,1,65.3,10.822l.041.027a.745.745,0,0,1,.143.111,5.655,5.655,0,0,1,1.628,2.385,1.258,1.258,0,0,1,.052.264c0,.041.01.082.017.126a.862.862,0,0,1,.005.229c0,.038-.005.076-.005.115V14.1a1.2,1.2,0,0,1-.052.179,1.038,1.038,0,0,0-.361-.064H30.336a1.029,1.029,0,0,0-.461.107Zm-6.24-.1h0a1.273,1.273,0,0,0-.131-.007H0L5.322.023,21.738,2.247l1.9,11.975Z" transform="translate(6.182 69.699)" fill="#474961"/>
              <path id="Legs-2" data-name="Legs" d="M9.853,71.961a4.8,4.8,0,0,1-1.513-.873c-1.376-1.3-1.284-3.358-1.307-4.119-.137-5.753-.55-23.058-.55-35.168q0-.06,0-.119a15.568,15.568,0,0,1-3.894-5.672A35.29,35.29,0,0,1,0,12.418V3.039A3.366,3.366,0,0,1,3.559,0H24.724l8.79.287L52.035.795a8.942,8.942,0,0,1,8.087,5.692l.173.444a10.518,10.518,0,0,1,3.139,7.783v.112c-.367,18.383-4.654,44.57-4.952,53.426a4.088,4.088,0,0,1-.6,1.856C56.4,72.5,52.91,71.964,44.771,72.165c-2.8.072-4.926.2-6.559.2-2.4,0-3.737-.284-4.584-1.456a4.469,4.469,0,0,1-.734-2.862c.643-12.733,1.619-25.6,2.759-37.9-.769.558-1.467,1.064-2.074,1.5l-.3,4.875c-.138,2.574-.3,4.835-.482,6.828-.137,1.567-1.9,19.319-2.545,25.833a3.586,3.586,0,0,1-2.476,3.134,22.8,22.8,0,0,1-4.42.25C18.12,72.569,10.26,72.152,9.853,71.961Z" transform="translate(0 0)" fill="#ff5a6e"/>
              <path id="Shadow_Legs" data-name="Shadow Legs" d="M33.466,31.731h0L34.345,17.2c.048-2.128-.286-7.456-4.425-10.969-3.338-2.809-7.372-2.978-10.042-3.089-.285-.012-.576-.019-.864-.019a21.368,21.368,0,0,0-7.088,1.226h0A13.788,13.788,0,0,0,10.363,5a5.881,5.881,0,0,0-2.484,3.05,18.83,18.83,0,0,0-1.2,4.655A47.463,47.463,0,0,0,6.3,20.442l0,.121c.044,2.482.068,6.294.069,11.024A12.666,12.666,0,0,1,4.314,29.2a19.381,19.381,0,0,1-1.725-3.189,30.02,30.02,0,0,1-1.881-6.23A39.865,39.865,0,0,1,0,12.418V3.039A2.876,2.876,0,0,1,1.072.882,3.844,3.844,0,0,1,3.559,0H24.724l3.953.129,4.837.158L52.035.795a8.942,8.942,0,0,1,8.087,5.692l.243.623a9.982,9.982,0,0,0-7.206-3.065l-.2,0-3.341.078-2.414.056a10.419,10.419,0,0,0-10,9.37c-.6,5.591-1.166,11.2-1.673,16.679-.8.58-1.5,1.084-2.071,1.5Z" transform="translate(0.109 0)" fill="#444" opacity="0.177"/>
            </g>
            <g id="Body" transform="translate(0 0)">
              <path id="T-shirt" d="M12.638,46.12c-3.122-3.273-1.337-4.161,1.528-22.8-.449.046-.867.087-1.239.121-2.894.275-8.956.092-11.873-.023A1.156,1.156,0,0,1,.1,21.787a72.43,72.43,0,0,0,3.145-8.276c1.436-5.823,3.236-7.955,3.851-8.6A17.219,17.219,0,0,1,8.939,3.333C10.682,1.919,18.468,1.14,22.521.824,25.837-.328,29.641,0,32.1.216a22.425,22.425,0,0,1,5.916,1.117,15.352,15.352,0,0,1,7.405,1.993,13.1,13.1,0,0,1,1.969,1.4c.664.572,2.609,2.47,4.463,7.822a67.638,67.638,0,0,0,3.731,7.548,1.052,1.052,0,0,1-.847,1.555c-2.453.176-5.479,1.183-8.339,1.188.235,4.278.4,9.382.465,15.074,0,0,.366,6.774-1.74,8.97-.2.214-2.4.186-5.55.157-2.532-.023-5.682-.045-8.916.057-3.744.119-7.6.366-10.82.366C16.362,47.46,13.641,47.171,12.638,46.12Z" transform="translate(0 21.587)" fill="#d71e3c"/>
              <path id="T-shirt_shadow" data-name="T-shirt shadow" d="M22.255,23.33c-.18-3.264-.4-6.063-.653-8.32a28.884,28.884,0,0,0-.807-4.737c-.386-1.225-.949-2.645-.955-2.66a9.048,9.048,0,0,0-1.613-2.751,9.822,9.822,0,0,0-4.242-3.028,16.285,16.285,0,0,1,3.263.435,14.512,14.512,0,0,1,3.915,1.557,13.1,13.1,0,0,1,1.972,1.4,10.248,10.248,0,0,1,1.788,2.124,25.885,25.885,0,0,1,2.682,5.717,57.327,57.327,0,0,0,3.4,6.677c.168.3.327.583.47.84a1.045,1.045,0,0,1,.008,1,1.071,1.071,0,0,1-.856.56c-.6.043-1.268.156-1.914.265l-.376.063c-.11.018-.287.042-.491.07-.35.047-.786.106-1.025.157l-.4.085a17.821,17.821,0,0,1-4.141.549ZM.037,1.55C.083,1.436.175,1.207.771.84,3.018-.536,5.769.129,6.732.4c0,0,4.425-.5,5.273,2.087a5.893,5.893,0,0,1-.16,4.425A31.544,31.544,0,0,1,8.589,4.279C8.177,6.709,7.42,7.427,7.42,7.427,5.677,6.418-.536,3.27.037,1.55Z" transform="translate(24.103 21.093)" fill="#444" opacity="0.177"/>
              <path id="Skin" d="M56.22,71.039,8.3,70.345a10.218,10.218,0,0,1-3.886-1.59,8.871,8.871,0,0,1-2.527-2.722C.348,63.484-.254,59.888.1,55.345a44.66,44.66,0,0,1,.837-5.672c.33-1.575.744-3.2,1.231-4.844,2.093.066,3.973.1,5.588.1,1.925,0,3.412-.048,4.422-.144,2.174-.2,6.07-.644,8.407-.994l-4.1,12.274A83.784,83.784,0,0,1,28.044,57.49a103.629,103.629,0,0,1,10.621,2.639c2.514.765,4.975,1.613,7.337,2.527l-.448-18.479,6.075-.861,1.856,22.659q.236.123.463.245l2.829,3.713a.688.688,0,0,1-.546,1.1ZM25.542,23.117l.494-9.456c-.053-.114-.1-.234-.155-.362-.413-1.032-1.9-4.419-1.577-5.588.059-.247-1.166-3.922.628-5.775,1.7-1.76,6.428-1.71,6.618-1.7A10.271,10.271,0,0,0,34.025.052c.092,0,.183-.023.275-.023.78-.069,5.159-.275,7.406,2.981a4.6,4.6,0,0,1,.55.94,5.963,5.963,0,0,1,.436,2.682l-.321,4.081a10.344,10.344,0,0,1-.206,1.215,18.006,18.006,0,0,1-2.889,6.741,3.8,3.8,0,0,1-2.568,1.788,9.517,9.517,0,0,1-2.912-.436,4.7,4.7,0,0,1-.653-.263l-.1,4.229a8.536,8.536,0,0,1-2.97.546A7.756,7.756,0,0,1,25.542,23.117Z" transform="translate(0.831 0.245)" fill="#f2a98a"/>
              <path id="Combined_Shape-4" data-name="Combined Shape" d="M.043,17.2a.344.344,0,0,1,.136-.467A8.717,8.717,0,0,1,1.355,16.2a13.551,13.551,0,0,1,2.211-.6c.263-.049.508-.088.728-.117l.206-.026.077-.008a.344.344,0,1,1,.065.685c-.045,0-.132.014-.256.031-.209.028-.442.065-.693.111a12.891,12.891,0,0,0-2.1.566,8.073,8.073,0,0,0-1.084.488A.343.343,0,0,1,.043,17.2ZM8.552,3.8a.344.344,0,0,1-.178-.453A14.647,14.647,0,0,0,9.34.267a.344.344,0,1,1,.67.155A15.3,15.3,0,0,1,9,3.622a.344.344,0,0,1-.453.178Z" transform="translate(12.983 40.374)" fill="#482d1f"/>
              <path id="Arm_Shadow" data-name="Arm Shadow" d="M7.933,22.683h0c-1.687-.882-3.76-1.829-6-2.739-.488-.2-.989-.4-1.488-.591L0,.861,6.075,0,7.933,22.683Z" transform="translate(46.343 43.561)" fill="#8c2a00" opacity="0.2"/>
              <path id="Shadow" d="M3.165,3.8h0L0,0,.139.068c.45.225,1.015.474,1.765.8.6.266,1.031.458,1.325.585L3.165,3.8Z" transform="translate(30.75 18.555)" fill="#482d1f"/>
              <path id="Hair" d="M4.946,15.911h0a19.5,19.5,0,0,1-2.761-3.164c-.068-.114-.167-.258-.282-.424a12.436,12.436,0,0,1-1.065-1.78A8.339,8.339,0,0,1,.053,7.749l0-.048A7.831,7.831,0,0,1,1.681,1.742,5.644,5.644,0,0,1,3.42.483L3.469.458A5.379,5.379,0,0,1,5.811,0c.5,0,1.043.037,1.676.08.737.05,1.571.106,2.609.126.078,0,.171,0,.278,0,.147,0,.312.006.5.006s.37,0,.549-.01C12.09.192,12.637.169,13,.153c.225-.01.387-.016.466-.016.095,0,.194-.006.3-.006a10.986,10.986,0,0,1,3.5.6,7.75,7.75,0,0,1,1.841.922,5.385,5.385,0,0,1,1.467,1.486,3.692,3.692,0,0,0,.254.415l0,0,.043.063c-.163.054-.331.124-.508.2A5.453,5.453,0,0,1,19.22,4.2a8.265,8.265,0,0,1-1.284.1,8.5,8.5,0,0,1-2.843-.49c-.871.825-1.763,1.659-2.625,2.464h0c-.862.806-1.753,1.639-2.624,2.464l-.255.372-.02-.441A4.019,4.019,0,0,0,8.9,7.015l-.028-.032a2.805,2.805,0,0,0-1-.77,2.326,2.326,0,0,0-.835-.148,3.237,3.237,0,0,0-2.444,1.2,3.327,3.327,0,0,0-.39,3.393,3.256,3.256,0,0,0,1.582,1.651l1.33.413.006,0L4.947,15.911Z" transform="translate(21.849)" fill="#de6903"/>
              <path id="Eyes" d="M4.934,2.443A2.82,2.82,0,0,1,4.98,1.067.572.572,0,0,1,5.6.632c.183.023.321.161.39.481.056.658-.519,1.455-.867,1.455A.2.2,0,0,1,4.934,2.443ZM.09,1.818A2.364,2.364,0,0,1,.136.442.573.573,0,0,1,.755.006c.183.023.321.161.39.481C1.2,1.146.626,1.943.278,1.943A.2.2,0,0,1,.09,1.818Z" transform="translate(36.898 10.608)" fill="#482d1f"/>
              <path id="Nose" d="M1.376.232,1.4,2.524a.1.1,0,0,1-.046.044C1.227,2.568,1.1,2.56.9,2.54L.761,2.526.608,2.511.249,2.477a.229.229,0,0,0-.04.457l.353.033.152.015L.855,3c.213.021.355.03.5.03a.524.524,0,0,0,.5-.5L1.834.227a.229.229,0,1,0-.459,0Z" transform="translate(38.937 11.601)" fill="#482d1f"/>
              <path id="Mouth" d="M.579.667C.418.6.029.414.006.185.006.139-.017.07.029.047c.115-.115.39,0,.8.115a8.934,8.934,0,0,0,1.33.229A2.21,2.21,0,0,1,1.794.85C1.519,1.1.808.781.579.667Z" transform="translate(38.129 15.176)" fill="#482d1f"/>
              <path id="Glasses" d="M9.964,6.452A3.234,3.234,0,0,1,9.01,4.16l-.747-.077a3.257,3.257,0,1,1-6.2-1.96L.242,1.339a.344.344,0,0,1,.2-.657l1.918.826A3.283,3.283,0,0,1,2.81.954a3.256,3.256,0,0,1,5.558,2.3q0,.073,0,.146l.714.074a3.257,3.257,0,1,1,.884,2.977ZM9.719,3.817a.343.343,0,0,1,0,.07.361.361,0,0,1-.014.068q-.007.1-.007.195a2.567,2.567,0,1,0,.021-.332ZM2.544,3.256a2.569,2.569,0,1,0,.311-1.224l-.005.019a.344.344,0,0,1-.064.118A2.553,2.553,0,0,0,2.544,3.256Z" transform="translate(31.463 8.001)" fill="#482d1f"/>
            </g>
          </g>
        </g>
        <g id="Woman_sitting_3" data-name="Woman sitting / 3" transform="translate(12.255 0.469)">
          <g id="Woman" transform="translate(0)">
            <g id="Legs-3" data-name="Legs" transform="translate(3.014 67.83)">
              <path id="Base-2" data-name="Base" d="M60.369,19.284a1.032,1.032,0,1,1,0-2.063H96.8a1.032,1.032,0,0,1,0,2.063Zm-36.248,0a1.029,1.029,0,0,1-.621-.206q-.034-.021-.066-.046L.414,1.882A1.055,1.055,0,0,1,.208.414,1.055,1.055,0,0,1,1.675.208L24.449,17.174h12.4a1.055,1.055,0,1,1,0,2.109Z" transform="translate(6.627 68.896)" fill="#de3190"/>
              <path id="Shoes-2" data-name="Shoes" d="M35.548,29.139h0a1.024,1.024,0,0,0-.463-.111h-12.4L0,12.126,8.555,0l13.8,10.019c.577,1.957,1.178,3.951,1.759,5.879l.016.052.541,1.8c.413,1.353.832,2.7,1.237,4.01v0c1.19.467,2.314.932,3.164,1.307A25.951,25.951,0,0,1,33.2,25.2a6.624,6.624,0,0,1,1.857,1.788,4.669,4.669,0,0,1,.5,1.146,2.229,2.229,0,0,1,.05.349c.006.062.011.121.019.178a2.307,2.307,0,0,1-.085.479Zm59.836-.007h0a1.041,1.041,0,0,0-.344-.058H58.608a1.047,1.047,0,0,0-.277.037,1.123,1.123,0,0,1-.114-.5l-.344-12.679a1.139,1.139,0,0,1,.288-.848,1.2,1.2,0,0,1,.858-.39L74.77,14.6a1.08,1.08,0,0,1,.688.229,24.9,24.9,0,0,0,6.924,5.273c.844.429,2.869,1.311,4.828,2.165,1.3.565,2.52,1.1,3.358,1.481a27.176,27.176,0,0,1,3.118,1.674l.039.025h0a.744.744,0,0,1,.143.112A5.662,5.662,0,0,1,95.5,27.948a1.265,1.265,0,0,1,.051.263c0,.041.01.083.017.127a.87.87,0,0,1,.005.229c0,.038-.005.076-.005.115v.023a1.182,1.182,0,0,1-.181.427Z" transform="translate(8.276 57.067)" fill="#474961"/>
              <path id="Skirt" d="M42.395,71.511a92.627,92.627,0,0,1-10.317-3.623,2.308,2.308,0,0,1-.527-.275c-2.82-1.811-5.64-3.6-8.46-5.411l-7.084-4.54a2.753,2.753,0,0,1-.871-3.875L20.889,45.4l3.439-5.021c.963-1.422,1.972-2.889,3-4.379a23.839,23.839,0,0,0-2.659-.115c-7.893-.321-18.182-1.834-22.079-8.093a18.622,18.622,0,0,1-2.476-8.07C-.777,10.754,3.7,6.136,5.161,4.678S12.541,0,12.541,0l25.67,1.514,24.772.917a40.262,40.262,0,0,1,9.87.548L79.115,2.9c1.88-.115,4.242,1.055,6.007,2.385a7.361,7.361,0,0,1,.986.894,7.92,7.92,0,0,1,.78.963A8.4,8.4,0,0,1,88.4,12.069a35.156,35.156,0,0,1-.8,7.8c-1.949,6.03-6.947,28.659-1.926,38.449,0,0,2.545,4.929,1.995,8.621a14.3,14.3,0,0,1-1.282,3.735l.018.023c-1.189,1.715-10.8,3.929-22.292,3.929A71.082,71.082,0,0,1,42.395,71.511Z" transform="translate(0 0)" fill="#ff5a6e"/>
              <path id="Shadow_Skirt" data-name="Shadow Skirt" d="M13.6,67.8h0a37.969,37.969,0,0,1-5.491-11.42,52.028,52.028,0,0,1-2.075-11.04,59.768,59.768,0,0,1-.151-6.816A67.262,67.262,0,0,1,6.6,30.861l.015-.09C7.1,27.85,8.7,18.088,8.7,15.146c0-5.668-.634-9.174-2.056-11.368C5.241,1.612,3.106.9.858.3.582.226.293.156,0,.091L6.342.008C6.427,0,6.514,0,6.6,0A7.418,7.418,0,0,1,9.531.72a14.5,14.5,0,0,1,2.818,1.672,7.4,7.4,0,0,1,.986.894,8.1,8.1,0,0,1,.779.963,8.406,8.406,0,0,1,1.513,4.929,35.081,35.081,0,0,1-.8,7.8,105.183,105.183,0,0,0-3.577,17.815C10.511,41.3,10.2,50.157,12.9,55.423a23.053,23.053,0,0,1,1.2,2.926,18.115,18.115,0,0,1,.711,2.79,9.489,9.489,0,0,1,.08,2.9A14.335,14.335,0,0,1,13.6,67.8Z" transform="translate(72.774 2.89)" fill="#8c2a00" opacity="0.2"/>
              <path id="Shadow-2" data-name="Shadow" d="M10.531.206C9.4,1.917,8.208,3.579,5.316,7.536S1.218,13.174.076,14.9a.459.459,0,0,0,.765.506c1.131-1.711,2.323-3.374,5.215-7.33S10.154,2.44,11.3.711a.459.459,0,1,0-.765-.506Z" transform="translate(27.332 20.475)" fill="#482d1f"/>
            </g>
            <g id="Body-2" data-name="Body" transform="translate(0)">
              <path id="T-shirt-2" data-name="T-shirt" d="M10.582,43.121,8.072,19.709l-5.927-.2S.471,18.886.127,18.061c-.619-1.49,1.123-3.233,2.935-5.846,3.645-5.227,2.522-6.764,4.906-8.8A11.714,11.714,0,0,1,16.535.449l.145-.042a11.279,11.279,0,0,1,3.645-.39L25.37.338a8.252,8.252,0,0,1,3.911,1.283,7.711,7.711,0,0,1,6.062,2.114c1.926,1.834,1.009,3.439,3.9,8.346,1.444,2.43,2.82,4.035,2.316,5.548-.275.848-1.628,1.582-1.628,1.582s-3,.39-3.691.459l-.41.04-.369,6.468-.023.229L34.794,37.8l-.138,2.224a4.1,4.1,0,0,1-.046.527c-.023.206-.046.39-.069.6a11.424,11.424,0,0,1-.321,1.536c-.069.206-.115.413-.206.619Z" transform="translate(0 24.412)" fill="#d71e3c"/>
              <path id="Shadow_T-shirt" data-name="Shadow T-shirt" d="M6.527,18.121h0l.342-6A17.132,17.132,0,0,0,.816.59C.549.388.274.2,0,.028.247.009.492,0,.729,0A7.55,7.55,0,0,1,6.145,2.136a4.567,4.567,0,0,1,1.01,1.377,11.242,11.242,0,0,1,.569,1.616,21.75,21.75,0,0,0,2.318,5.353c.287.483.568.928.839,1.358a16.663,16.663,0,0,1,1.294,2.281,2.642,2.642,0,0,1,.182,1.91,2.67,2.67,0,0,1-.917,1.109,5.879,5.879,0,0,1-.711.473h-.006c-.309.04-3.038.393-3.686.458-.155.014-.338.032-.513.05Z" transform="translate(29.198 26.012)" fill="#444" opacity="0.177"/>
              <path id="Skin-2" data-name="Skin" d="M63.379,66.591,27.843,65.5q1.007-.075,2.014-.157c-5.163.384-10.348.634-16.109.634h0c-.421,0-.849,0-1.27,0-3.641-.023-4.537-.136-5.64-.711a7.386,7.386,0,0,1-1.6-1.127,8.875,8.875,0,0,1-1.286-1.5,14.531,14.531,0,0,1-1.8-3.851A33.069,33.069,0,0,1,1.1,54.228C.838,52.7.647,51.179.441,49.487a55.565,55.565,0,0,1-.393-9.344c2.566.088,11.383.391,17.113.581,0,.2,0,.372-.006.532,0,.341-.008.684-.012,1.015-.025,1.984-.05,4.036.126,6.826.055.816.086,1.562.111,2.162.017.406.031.756.05,1.048,4.194.451,8.469.872,12.8,1.259l.375-6.652.023-.229L31,40.194l3.806-.466,1.184,14.332q3.8.311,7.626.586c2.708.2,5.493.387,8.277.55a10.988,10.988,0,0,1,3.083-.283,29.653,29.653,0,0,1,4.056.283,36.445,36.445,0,0,1,4.9,1.371c.061.018,6.135,1.8,8.215,2.545.606.218.9.5.841.822s-.482.663-1.166.918a7.635,7.635,0,0,1-2.594.42c-.5,0-9.016.308-11.42.655a.648.648,0,0,1-.062.021.614.614,0,0,0,.062-.02l.164-.022,1.433.389a8.311,8.311,0,0,1,2.132.843l.585.328.017.009.284.16.037.021.039.022.382.214.053.03.45.252a1.023,1.023,0,0,1,.4.514,2.479,2.479,0,0,1,.142.9,1.523,1.523,0,0,1-.2.8.407.407,0,0,1-.344.2Zm-51.9-45.717a12.774,12.774,0,0,1,3.936-.7c.175,0,.388,0,.629,0,.536-1.109,1.051-2.111,1.613-3.351l-.018-.011.573-4.173c-.014-.153.006-.137-.027-.122a.194.194,0,0,1-.156-.016,3.283,3.283,0,0,1-1.467-1.1,3.521,3.521,0,0,1-.344-3.348A2.952,2.952,0,0,1,19.1,6.383a2.42,2.42,0,0,1,1.124.527l.023.023a.746.746,0,0,0,.413.183.715.715,0,0,0,.779-.619L22.084.537c.023-.39-.207-.558.183-.535.848.069,2.805,0,2.805,0h1.091c.548.092,4.748-.13,6.88,3.309a10.376,10.376,0,0,1,.5,1.009,5.492,5.492,0,0,1,.344,2.729l-.55,4.15a12,12,0,0,1-.275,1.238c-1.467,5.067-4.058,8.46-6.03,8.437a9.316,9.316,0,0,1-2.958-.6c-.123-.062-.044-.013-1.4-.679l-.312,1.209a12.6,12.6,0,0,1,3.016,1.923,2.619,2.619,0,0,1-.688,1.307,3.415,3.415,0,0,1-2.462.767C19.559,24.8,15.474,23.321,11.477,20.874Z" transform="translate(4.73 3.9)" fill="#db9e75"/>
              <path id="Combined_Shape-5" data-name="Combined Shape" d="M35.625,26.863h0L0,25.808c3.785-.281,7.558-.645,11.552-1.03l.017,0,.146-.014h.01l2.885-.277c.782-.068,4.363-.545,7.984-1.063,4.286-.614,7.033-1.056,7.347-1.184.08-.012.168-.023.263-.035l1.3.351a8.346,8.346,0,0,1,2.157.808c.3.171.643.357.97.536l.01.005h0l.009,0c.327.18.666.365.971.537a1.023,1.023,0,0,1,.4.514,2.477,2.477,0,0,1,.142.9,1.52,1.52,0,0,1-.2.8A.407.407,0,0,1,35.625,26.863ZM8.144,14.455h0c-1.927-.158-3.873-.324-5.782-.5l.379-6.735.023-.229.371-6.5L7.048,0l1.1,14.454Z" transform="translate(32.486 43.628)" fill="#8c2a00" opacity="0.2"/>
              <path id="Shadow-3" data-name="Shadow" d="M0,18.193a.344.344,0,0,1,.307-.377l2.935-.3a.344.344,0,0,1,.069.684l-2.935.3-.035,0A.344.344,0,0,1,0,18.193ZM3.034,6.5c-.05,0-.088-.01-.111-.014a.344.344,0,1,1,.116-.678l.061.007a2.035,2.035,0,0,0,.956-.131,1.731,1.731,0,0,0,.988-1.711,13.818,13.818,0,0,0-.107-2.948C4.908.847,4.877.7,4.847.582,4.829.515,4.817.474,4.812.459A.344.344,0,1,1,5.46.229,4.395,4.395,0,0,1,5.616.91a14.494,14.494,0,0,1,.115,3.1,2.4,2.4,0,0,1-1.413,2.31,2.636,2.636,0,0,1-1.005.193C3.218,6.511,3.125,6.506,3.034,6.5Z" transform="translate(18.882 38.278)" fill="#482d1f"/>
              <path id="Shadow-4" data-name="Shadow" d="M2.362,1.032,0,0,1.674,3.416Z" transform="translate(25.141 22.366)" fill="#482d1f"/>
              <path id="Hair-2" data-name="Hair" d="M17.468,20.761l-1.69-.785a8.027,8.027,0,0,1-2.086-1.922,10.541,10.541,0,0,1-1.511-2.641,12.782,12.782,0,0,1-.85-3.974,11.531,11.531,0,0,1-4.153.8,8.9,8.9,0,0,1-3.708-.768A5.866,5.866,0,0,1,.983,9.412,6.725,6.725,0,0,1,.03,6.364,7.236,7.236,0,0,1,.089,4.506a6.069,6.069,0,0,1,1-2.171A5.3,5.3,0,0,1,2.407,1.078,4.855,4.855,0,0,1,4.055.356,4.368,4.368,0,0,1,5.881,0,6.434,6.434,0,0,1,9.119.937,13.165,13.165,0,0,1,13.2,5.01l.006.009.047.07a5.446,5.446,0,0,1,1.827-1.2,5.369,5.369,0,0,1,2.159-.407c.576,0,1.217.061,1.959.132.776.074,1.656.158,2.76.207.5.031,1.11.048,1.759.048.465,0,.953-.008,1.451-.025h.3c.09,0,.179,0,.271,0a10.993,10.993,0,0,1,3.315.514A6.852,6.852,0,0,1,32.89,7.234a1.445,1.445,0,0,1-.107.229,19.022,19.022,0,0,1-2.843,3.559,14.15,14.15,0,0,1-3.272,2.447,9.085,9.085,0,0,1-4.256,1.112c-.229,0-.461-.01-.689-.029L21.09,12.3A3.641,3.641,0,0,0,20.1,10.88a2.412,2.412,0,0,0-1.124-.527,2.011,2.011,0,0,0-.329-.027,3.047,3.047,0,0,0-2.56,1.7,3.144,3.144,0,0,0,.344,3.278,3.238,3.238,0,0,0,1.816,1.228c-.314,1.749-.779,4.2-.784,4.229h0Zm15.063-6.442c-1.078-.3-.046-.894.94-.871a1.606,1.606,0,0,1,1.055.413.288.288,0,0,1-.161.482,5.185,5.185,0,0,1-.962.1A2.857,2.857,0,0,1,32.531,14.319Zm-3.852-.642c-1.032-.39.069-.871,1.032-.78a1.494,1.494,0,0,1,.986.481.3.3,0,0,1-.206.481c-.158.016-.352.029-.563.029A3.286,3.286,0,0,1,28.679,13.677Z" transform="translate(4.899)" fill="#482d1f"/>
              <path id="Eyes-2" data-name="Eyes" d="M3.838,2.232A2.2,2.2,0,0,1,3.953.925a.552.552,0,0,1,.619-.39.448.448,0,0,1,.344.482c.037.627-.549,1.357-.887,1.357A.2.2,0,0,1,3.838,2.232ZM.078,1.7C-.106,1.406.078.787.193.4A.552.552,0,0,1,.812.008a.448.448,0,0,1,.344.481c.037.627-.534,1.357-.878,1.357A.212.212,0,0,1,.078,1.7Z" transform="translate(33.363 14.494)" fill="#482d1f"/>
              <path id="Nose-2" data-name="Nose" d="M2.383.295A.229.229,0,1,0,1.944.164l-.39,1.307L1.548,1.5l-.39,2.43c0,.009-.021.022-.062.016-.238-.057-.514-.125-.809-.2a.229.229,0,1,0-.115.444q.446.115.839.208A.5.5,0,0,0,1.61,4L2,1.587Z" transform="translate(34.831 14.663)" fill="#482d1f"/>
              <path id="Shadow-5" data-name="Shadow" d="M1.788.894,0,0,.78,4.219Z" transform="translate(25.714 22.618)" fill="#482d1f"/>
              <path id="Mouth-2" data-name="Mouth" d="M.606.67C.446.624.056.487.01.211.01.166-.013.1.01.051c.069-.115.8,0,.8,0,.917.16,1.169.138,1.215.275.023.069,0,.16-.206.344C1.569,1.014.836.762.606.67Z" transform="translate(33.729 19.977)" fill="#482d1f"/>
            </g>
          </g>
        </g>
        <path id="Path_2" data-name="Path 2" d="M.5.5" transform="translate(53.495 -0.5)" fill="none" stroke="#979797" stroke-miterlimit="10" stroke-width="1"/>
        <g id="Woman_sitting_2" data-name="Woman sitting / 2" transform="translate(217.353 2.854)">
          <g id="Woman-2" data-name="Woman" transform="translate(0 0)">
            <g id="Legs-4" data-name="Legs" transform="translate(0 68.335)">
              <path id="Base-3" data-name="Base" d="M27.857,2.063H1.032A1.032,1.032,0,0,1,1.032,0H64.288a1.032,1.032,0,1,1,0,2.063Z" transform="translate(0 83.456)" fill="#ff5645"/>
              <path id="Shoes-3" data-name="Shoes" d="M63.961,14.508h0l-.008,0h0a1.035,1.035,0,0,0-.2-.049H63.7l-.03,0H.344a1.057,1.057,0,0,0-.194.018A1.18,1.18,0,0,1,.01,14.1v-.023c0-.034,0-.069,0-.1v-.011a.873.873,0,0,1,.005-.229c.007-.042.012-.083.016-.117v-.009a1.257,1.257,0,0,1,.052-.264l1.13-1.573a5.069,5.069,0,0,1,1.711-1.5L5.008,9.148c.835-.381,2.052-.912,3.34-1.473l.014-.006c1.958-.853,3.983-1.736,4.831-2.166A24.907,24.907,0,0,0,20.118.229,1.078,1.078,0,0,1,20.805,0l13.15.092a1.137,1.137,0,0,1,.84.361,1.155,1.155,0,0,1,.307.877l1.105,6.21A30.715,30.715,0,0,0,39.71,5.8,26.018,26.018,0,0,0,44,2.66c.476-.418.96-.838,1.428-1.244.439-.381.936-.812,1.415-1.233L61.032,0l2.928,14.508Z" transform="translate(0.688 69.011)" fill="#474961"/>
              <path id="Shadow_Shoes" data-name="Shadow Shoes" d="M.15,14.462h0A1.181,1.181,0,0,1,.01,14.1v-.023c0-.034,0-.07,0-.1v-.011a.874.874,0,0,1,.005-.229c.007-.042.012-.081.016-.116v-.009a1.257,1.257,0,0,1,.052-.264l1.13-1.573a5.069,5.069,0,0,1,1.711-1.5L5.008,9.148c.835-.381,2.052-.912,3.34-1.473l.014-.006c1.959-.853,3.983-1.736,4.831-2.166A24.908,24.908,0,0,0,20.118.229,1.078,1.078,0,0,1,20.805,0l13.15.092a1.137,1.137,0,0,1,.84.361,1.155,1.155,0,0,1,.307.877l1.115,6.265-.734.314-.008,0-.005,0,0,0c-1.035.441-2.208.941-3.733,1.667a28.846,28.846,0,0,0-3.187,1.788,5.592,5.592,0,0,0-1.651,2.5,2.211,2.211,0,0,0-.05.344v.007c0,.055-.01.116-.019.177,0,.015.011.031.033.045H.344a1.056,1.056,0,0,0-.193.018Z" transform="translate(0.688 69.011)" fill="#444" opacity="0.177"/>
              <path id="Legs-5" data-name="Legs" d="M8.553,71.908H7.2a2.535,2.535,0,0,1-2.522-2.385c-.161-2.682-.367-6.213-.619-10.294C3.371,48.935,3,45.656,2.592,37.723c-.069-1.33-.138-2.522-.183-3.646A149.214,149.214,0,0,0,.8,17.2,60.926,60.926,0,0,1,0,9.431,8.452,8.452,0,0,1,3.279,2.622C5.045,1.269,6.309.349,10.739.283,14.243.231,18.3.247,22.608.267A5.124,5.124,0,0,1,23.73.206L65.664.046,84.877,0c.78.046,4.068,1.052,4.825,1.913.734.39,5.424,5.24,4.644,14.25a18.648,18.648,0,0,1-2.361,8.094,17.329,17.329,0,0,1-9.561,7.2,29.269,29.269,0,0,1-12.4,1.192Q55.92,30.1,41.843,27.582v.344l.046.161s1.146,2.155,2.132,4.379c.986,2.2,2.362,12.61,2.362,12.679a56.659,56.659,0,0,1,6.259,14.513c.688,2.453,1.055,4.379,1.192,5.113l.6,5.656a1.376,1.376,0,0,1-1.368,1.52H52.6l-20.382-.023-6.269-.031a2.557,2.557,0,0,1-.655.085Z" transform="translate(9.171 0)" fill="#ff5a6e"/>
              <path id="Shadow_Leg" data-name="Shadow Leg" d="M25.29,71.729,8.553,71.66H7.2a2.52,2.52,0,0,1-1.734-.694,2.5,2.5,0,0,1-.788-1.691c-.042-.694-.086-1.445-.134-2.248v-.014c-.14-2.35-.3-5.013-.484-8.032-.277-4.146-.5-7.142-.7-9.786-.292-3.9-.522-6.982-.769-11.72-.019-.371-.038-.732-.057-1.082-.048-.9-.093-1.753-.126-2.563A149.9,149.9,0,0,0,.8,16.955,59.989,59.989,0,0,1,0,9.183a8.515,8.515,0,0,1,.37-2.6A8.367,8.367,0,0,1,1.514,4.231,8.467,8.467,0,0,1,3.279,2.374,10.151,10.151,0,0,1,6.01.722,9.641,9.641,0,0,1,7.953.238a20.718,20.718,0,0,1,2.786-.2C12.327.011,14.168,0,16.369,0c2.011,0,4.071.009,6.363.02l-.172.026a11.741,11.741,0,0,0-4.815,2.293A8.006,8.006,0,0,0,15.98,4.2a8.349,8.349,0,0,0-1.536,4.861v.115a64.943,64.943,0,0,0,.78,7.772,147.8,147.8,0,0,1,1.6,16.875c.034.809.08,1.685.129,2.612v0q.027.5.054,1.032c.233,4.733.467,7.819.764,11.725.2,2.643.428,5.637.7,9.78.254,3.774.468,7.334.619,10.294a2.55,2.55,0,0,0,2.522,2.384h1.353l2.9.014A2.565,2.565,0,0,1,25.29,71.729Z" transform="translate(9.171 0.229)" fill="#444" opacity="0.177"/>
              <path id="Shadow-6" data-name="Shadow" d="M4.815,4.144l-.89-.879L3.757,3.1C2.884,2.233,2.169,1.52.783.134A.459.459,0,0,0,.134.783c1.387,1.387,2.1,2.1,2.977,2.968l.168.166.892.881a.459.459,0,1,0,.643-.654Z" transform="translate(46.084 22.927)" fill="#482d1f"/>
            </g>
            <g id="Body-3" data-name="Body" transform="translate(23.504 0)">
              <path id="T-shirt-3" data-name="T-shirt" d="M18.181,48.056a11.977,11.977,0,0,1-.6-1.078A9.085,9.085,0,0,1,17.1,45.9c-.138-.344-.252-.711-.367-1.078l-.069-.206L10.177,21.991l-4.737.522a.779.779,0,0,1-.09,0,.746.746,0,0,1-.759-.624l-.206-1.6a.666.666,0,0,1,.008-.209A9.7,9.7,0,0,1,2.3,18.386a8.539,8.539,0,0,1-1.926-3.3c-1.559-5,1.9-10.34,7.726-11.9a12.445,12.445,0,0,1,6.819.086A9.72,9.72,0,0,1,17.837,1.88L22.859.39a17.3,17.3,0,0,1,6.552.22A11.6,11.6,0,0,1,33.76.017c6.076.3,10.753,5.136,10.455,10.8a9.872,9.872,0,0,1-3.484,6.965L45.809,36.34a12.745,12.745,0,0,1-.642,8.483c-.161.367-.344.734-.527,1.078-.206.367-.436.734-.665,1.078a12.209,12.209,0,0,1-.825,1.078Z" transform="translate(28.083 20.417)" fill="#d71e3c"/>
              <path id="Shadow_T-shirt-2" data-name="Shadow T-shirt" d="M5.351,19.766a.741.741,0,0,1-.759-.624l-.206-1.6a.666.666,0,0,1,.008-.209A9.678,9.678,0,0,1,2.3,15.635a8.545,8.545,0,0,1-1.926-3.3A8.161,8.161,0,0,1,.058,8.921,8.825,8.825,0,0,1,1.11,5.693,9.983,9.983,0,0,1,2.32,3.965a10.839,10.839,0,0,1,1.6-1.494A11.92,11.92,0,0,1,8.1.434,12.7,12.7,0,0,1,11.383,0a12.139,12.139,0,0,1,3.571.53c-4.641,3.18-7.121,10.452-5.53,16.21l.718,2.5-4.7.518A.829.829,0,0,1,5.351,19.766Z" transform="translate(28.083 23.168)" fill="#444" opacity="0.177"/>
              <path id="Finger" d="M.033,1.032S-.4,2.774,1.913,2.293a30.285,30.285,0,0,0,2.981-.711L4.3,0Z" transform="translate(34.218 23.581)" fill="#482d1f"/>
              <path id="Skin-3" data-name="Skin" d="M9.368,68.417C8.4,67.824-.084,62.542,0,59.691L8.16,58.505a22.933,22.933,0,0,1,6.677.012l6.88,1.025c5.353-1.716,12.092-3.838,13.793-4.208L32.55,42.873l4.222-.465,1.986,6.923c-.6-4.277-.815-8.686-1.02-12.968-.189-3.955-.384-8.018-.889-11.986l-2.412.053c-1.422.573-4.4,1.536-4.723-.5,0,0,3.943-1.628,6.718-2.82l.206-.183a1.423,1.423,0,0,1,.573-.321.292.292,0,0,1,.138-.023l1.1-.161L38.6,20.4a5.682,5.682,0,0,1-.71,0c-1.915-.138-4.15-3.646-5.153-8.712a11.494,11.494,0,0,1-.16-1.238L32.4,6.34a5.019,5.019,0,0,1,.57-2.637,5.736,5.736,0,0,1,.57-.917c2.348-3.164,6.68-2.82,7.456-2.729.091,0,.182.023.274.023a9.18,9.18,0,0,0,2.462.252A.7.7,0,0,1,44.411,1l.114,5.869c.023.55,2.8-.5,2.8-.527,1.335-1.009,3.01,4.425,2.326,5.227a8.391,8.391,0,0,1-2.326,1.467.737.737,0,0,0-.479.527,10.187,10.187,0,0,1-.041,2.829l.649-.262,2.774,4.792-4.574,1.433,4.482,21.288c0-.011.382-1.54.869-4.307.023.007.047.014.071.02l12.679,2.82a.793.793,0,0,0,.16.019c-.346,1.382-.709,2.978-1.093,4.667-.106.468-.216.952-.327,1.436-.282,1.228-.516,2.328-.723,3.3-.386,1.815-.691,3.248-1.11,4.628A20.575,20.575,0,0,1,58.9,60.379c-2.088,3.754-4.029,4.307-5.072,4.6-.148.042-.276.079-.384.119a8.6,8.6,0,0,1-3.127.572,8.423,8.423,0,0,1-1.986-.228l-.091-.022a9.952,9.952,0,0,1-2.065-.684,8.134,8.134,0,0,1-2.54-1.915,12.588,12.588,0,0,1-1.7-2.425l1.329,4.633.067.2,0,.006,0,.008c.112.358.228.728.364,1.07A9.082,9.082,0,0,0,44.18,67.4a12,12,0,0,0,.595,1.075v0h2.937l-38.052.048A.45.45,0,0,1,9.368,68.417Zm31.153-48.3.236-.034-.01-.023Z" transform="translate(1.488 0)" fill="#db9e75"/>
              <path id="Shadow_Arm" data-name="Shadow Arm" d="M9.661,26.113a.45.45,0,0,1-.293-.1C8.4,25.416-.084,20.134,0,17.283L8.16,16.1a22.924,22.924,0,0,1,6.677.012l6.88,1.025c5.353-1.716,12.092-3.838,13.793-4.208L32.55.465,36.772,0l6.491,22.625.067.2,0,.006,0,.008c.112.358.228.728.364,1.07a9.076,9.076,0,0,0,.481,1.078,12.017,12.017,0,0,0,.595,1.075v0h2.937Z" transform="translate(1.487 42.427)" fill="#8c2a00" opacity="0.2"/>
              <path id="Mouse" d="M.381,3.344c2.407-3.071,7.428-5.612,16-.112,1.307.81.917,3.546-.5,3.6l-14.651.5C.129,7.392-.421,4.377.381,3.344Z" transform="matrix(1, 0.017, -0.017, 1, 0.128, 59.474)" fill="#474961"/>
              <path id="Hair-3" data-name="Hair" d="M2.915,17.181C1.8,16.876.657,16.561.14,15.6A1.66,1.66,0,0,1,.09,14.372a5.966,5.966,0,0,1,.723-1.54A18.309,18.309,0,0,1,3.428,9.688a13.178,13.178,0,0,0,.6,3.761,17.955,17.955,0,0,0,1.555,3.958c.089.165.138.255.126.275a.009.009,0,0,1-.008,0,.431.431,0,0,0-.049,0,1.36,1.36,0,0,1-.191.012A11.536,11.536,0,0,1,2.915,17.181Zm14.129-.206.172-1.239v-.008l.171-1.229a11.98,11.98,0,0,0,.278-1.489,3.353,3.353,0,0,0,1.809-1.055,3.157,3.157,0,0,0,.6-3.187,2.879,2.879,0,0,0-2.5-1.91c-.054,0-.108,0-.161.007a2.438,2.438,0,0,0-1.158.428l-.012.008A6.05,6.05,0,0,0,15.1,8.5,9.652,9.652,0,0,1,13.15,7.466a9.773,9.773,0,0,1-2.182-2.047A15.81,15.81,0,0,1,9.844,3.654a9.182,9.182,0,0,1-5.755-.39A5.724,5.724,0,0,1,5.675,1.512,5.664,5.664,0,0,1,8.231.252a11.758,11.758,0,0,1,3.612-.2h.042a30.221,30.221,0,0,0,3.1.183c.247,0,.5.007.749.007.673,0,1.263-.017,1.762-.034l.176-.006c.454-.015.846-.028,1.215-.028a5.616,5.616,0,0,1,2.7.542,5.594,5.594,0,0,1,1.742,1.353,6.55,6.55,0,0,1,1.468,3.492c2.941,1.931,5.749,4.768,5.25,6.642-.39,1.513-1.857,2.316-3.347,3.141a15.769,15.769,0,0,1-6.627,1.9s0,0,0,.007l-1.123.172-1.123.172a.732.732,0,0,1-.085,0A.682.682,0,0,1,17.043,16.974ZM7.093,8.9a.276.276,0,0,1-.138-.482,1.664,1.664,0,0,1,1.032-.436c.94-.046,1.972.527.963.825A3.331,3.331,0,0,1,7.9,8.97,5.419,5.419,0,0,1,7.093,8.9Zm-4.448,0a.288.288,0,0,1-.16-.482,1.654,1.654,0,0,1,1.009-.436c.94-.046,1.972.5.963.825a3.061,3.061,0,0,1-1.021.158A5.121,5.121,0,0,1,2.645,8.9Z" transform="translate(30.62 0.004)" fill="#482d1f"/>
              <path id="Eyes-3" data-name="Eyes" d="M.023.55C.092.229.253.138.436.138a.565.565,0,0,1,.55.481A2.239,2.239,0,0,1,.872,1.926a.2.2,0,0,1-.164.093C.374,2.019-.112,1.17.023.55ZM4.1.413C4.173.092,4.334,0,4.517,0a.565.565,0,0,1,.55.481,1.922,1.922,0,0,1-.115,1.307.2.2,0,0,1-.164.093C4.455,1.881,3.969,1.032,4.1.413Z" transform="translate(33.998 10.054)" fill="#482d1f"/>
              <path id="Shadow-7" data-name="Shadow" d="M14.963,31.78,12.693,24.1a.344.344,0,0,1,.66-.195l2.27,7.681a.344.344,0,1,1-.66.195Zm11.781-8.929a1.128,1.128,0,0,1-.246-.027.344.344,0,0,1,.149-.671.421.421,0,0,0,.507-.313l.335-1.477a.344.344,0,0,1,.007-.611,10.748,10.748,0,0,0,2.665-1.888.344.344,0,0,1,.479.493,11.413,11.413,0,0,1-2.421,1.791.342.342,0,0,1,0,.125l-.39,1.718a1.1,1.1,0,0,1-1.081.861ZM13.819,20.027a1.108,1.108,0,0,1-.834-1.329l.39-1.719a.342.342,0,0,1,.094-.169,6.707,6.707,0,0,1-.644-.9,6.454,6.454,0,0,1-.415-.864c-.092-.228-.149-.382-.352-.941a.344.344,0,1,1,.646-.235c.2.55.256.7.344.918a5.771,5.771,0,0,0,.372.775,6.615,6.615,0,0,0,.735,1,.344.344,0,0,1-.1.53.358.358,0,0,1-.007.046l-.389,1.718a.42.42,0,0,0,.312.507.344.344,0,1,1-.149.671ZM0,.937A.291.291,0,0,1,.138.914l1.1-.161A9.256,9.256,0,0,0,3.6.386L5.156,0C4.307.39,3.731,1.079,2.407,1.212a3.5,3.5,0,0,1-.814.1A3.629,3.629,0,0,1,0,.937Z" transform="translate(38.675 19.664)" fill="#482d1f"/>
              <path id="Mouth-3" data-name="Mouth" d="M1.513.677c.16-.046.55-.183.619-.436,0-.046.023-.115,0-.16-.092-.138-.39-.069-.8-.023A7.121,7.121,0,0,1,0,.058,2.768,2.768,0,0,0,.3.632C.55,1,1.284.769,1.513.677Z" transform="translate(36.383 14.489)" fill="#482d1f"/>
              <path id="Nose-3" data-name="Nose" d="M.518,4.567l-.1-.008A.524.524,0,0,1,0,4.035V4.01L.275,1.573.229.237A.229.229,0,0,1,.688.221L.734,1.574v.033L.459,4.044c0,.034.022.06.017.06l.072.005c.229.015.4.017,1.012.017a.229.229,0,0,1,0,.459C.934,4.585.76,4.583.518,4.567Z" transform="translate(35.901 9.275)" fill="#482d1f"/>
            </g>
          </g>
        </g>
        <g id="Table_1" data-name="Table / 1" transform="translate(20.177 68.209)">
          <g id="Table">
            <rect id="Rectangle-8" data-name="Rectangle" width="295.992" height="3.21" rx="1.605" fill="#d8deed"/>
          </g>
        </g>
        <g id="Interior_Devices_Imac" data-name="Interior / Devices / Imac" transform="translate(186.401 24.876)">
          <g id="IMac" transform="translate(0)">
            <path id="IMac-2" data-name="IMac" d="M12.817,43.15a1.619,1.619,0,0,1-1.628-1.628,1.591,1.591,0,0,1,1.628-1.628h4.671l2.2-8.9H3.141A3.041,3.041,0,0,1,0,28.109V2.912A3,3,0,0,1,3.118,0H53.49a3.041,3.041,0,0,1,3.141,2.889v25.22A3.041,3.041,0,0,1,53.49,31H33.319l-.91,8.9h5.972a1.628,1.628,0,1,1,0,3.256Z" transform="translate(0)" fill="#222"/>
            <path id="Shadow-8" data-name="Shadow" d="M1.644,15.4H0L1.576,0l.068,15.4Z" transform="translate(32.427 24.513)" fill="#fff"/>
          </g>
        </g>
      </g>
    </g>
  </g>
</svg>
