<?xml version="1.0" encoding="UTF-8"?>
<svg xmlns="http://www.w3.org/2000/svg" xmlns:xlink="http://www.w3.org/1999/xlink" width="64pt" height="64pt" viewBox="0 0 64 64" version="1.1">
<g id="surface8835969">
<path style=" stroke:none;fill-rule:nonzero;fill:rgb(100%,100%,100%);fill-opacity:1;" d="M 17.285156 8 C 14.367188 8 12 10.363281 12 13.28125 C 12 16.199219 14.367188 18.617188 17.28125 18.617188 C 20.195312 18.617188 22.566406 16.199219 22.566406 13.28125 C 22.566406 10.367188 20.203125 8 17.285156 8 Z M 43.070312 22 C 38.632812 22 36.09375 24.320312 34.875 26.628906 L 34.746094 26.628906 L 34.746094 22.621094 L 26 22.621094 L 26 52 L 35.113281 52 L 35.113281 37.457031 C 35.113281 33.625 35.402344 29.921875 40.144531 29.921875 C 44.820312 29.921875 44.886719 34.292969 44.886719 37.699219 L 44.886719 52 L 54 52 L 54 35.863281 C 54 27.96875 52.300781 22 43.070312 22 Z M 12.726562 22.621094 L 12.726562 52 L 21.847656 52 L 21.847656 22.621094 Z M 12.726562 22.621094 "/>
</g>
</svg>
