<svg xmlns="http://www.w3.org/2000/svg" width="167.192" height="220.907" viewBox="0 0 167.192 220.907">
  <g id="Group_32" data-name="Group 32" transform="translate(-1669.636 -251.448)">
    <path id="Path_659" data-name="Path 659" d="M1602.48,209.928q25.965,0,43.756,42.686,14.223,34.51,14.224,66.169,0,12.8-4.975,34.86-2.5,11.385-3.738,19.92a100.491,100.491,0,0,0-1.245,13.877q0,11.731,14.584,11.736,17.076,0,17.078-14.584a121.168,121.168,0,0,0-.89-13.162,182.033,182.033,0,0,0-3.381-18.855q-2.134-10.67-3.022-18.675a123.13,123.13,0,0,1-.893-13.339q0-47.668,24.2-81.819,11.02-16.011,21.692-22.055,6.048-3.2,12.455-6.223t12.807-6.226l1.778-5.338q0-20.624-14.232-20.63-25.608,0-45.534,45.889-16.361,37.351-18.137,68.657-7.475-45.176-16.007-67.234-16.369-44.46-43.756-44.463-13.17,0-21.346,6.933-8.191,6.939-8.181,19.39a30.933,30.933,0,0,0,1.067,8.181A44.268,44.268,0,0,1,1602.48,209.928Z" transform="translate(89.924 73.179)" fill="#d71e3c"/>
  </g>
</svg>
