<svg xmlns="http://www.w3.org/2000/svg" xmlns:xlink="http://www.w3.org/1999/xlink" width="276" height="267" viewBox="0 0 276 267">
  <defs>
    <clipPath id="clip-path">
      <path id="Path_1541" data-name="Path 1541" d="M0,0H276V267H0Z" transform="translate(1128.114 298.032)" fill="#fff" stroke="#707070" stroke-width="1"/>
    </clipPath>
    <clipPath id="clip-path-2">
      <rect id="SVGID" width="745" height="742" transform="translate(-0.1 -0.279)" fill="none"/>
    </clipPath>
  </defs>
  <g id="Mask_Group_3" data-name="Mask Group 3" transform="translate(-1128.114 -298.032)" opacity="0.45" clip-path="url(#clip-path)">
    <g id="Group_72" data-name="Group 72" transform="translate(789.215 -46.689)">
      <g id="Group_71" data-name="Group 71" transform="translate(0 0)">
        <rect id="SVGID-2" data-name="SVGID" width="745" height="742" transform="translate(-0.1 -0.279)" fill="none"/>
      </g>
    </g>
    <g id="Group_73" data-name="Group 73" transform="translate(742.579 -87.419)">
      <path id="Path_1102" data-name="Path 1102" d="M1610.748-41.355a3.3,3.3,0,0,0,3.3-3.3,3.3,3.3,0,0,0-3.3-3.3,3.3,3.3,0,0,0-3.294,3.3A3.3,3.3,0,0,0,1610.748-41.355Z" transform="translate(-1588.877 47.949)"/>
      <path id="Path_1103" data-name="Path 1103" d="M1627.252-41.355a3.3,3.3,0,0,0,3.294-3.3,3.3,3.3,0,0,0-3.294-3.3,3.3,3.3,0,0,0-3.3,3.3A3.3,3.3,0,0,0,1627.252-41.355Z" transform="translate(-1568.224 47.949)"/>
      <path id="Path_1104" data-name="Path 1104" d="M1643.748-41.355a3.3,3.3,0,0,0,3.3-3.3,3.3,3.3,0,0,0-3.3-3.3,3.3,3.3,0,0,0-3.294,3.3A3.3,3.3,0,0,0,1643.748-41.355Z" transform="translate(-1547.569 47.949)"/>
      <circle id="Ellipse_128" data-name="Ellipse 128" cx="3.298" cy="3.298" r="3.298" transform="translate(130.037)"/>
      <path id="Path_1105" data-name="Path 1105" d="M1676.751-41.355a3.3,3.3,0,0,0,3.3-3.3,3.3,3.3,0,0,0-3.3-3.3,3.3,3.3,0,0,0-3.3,3.3A3.3,3.3,0,0,0,1676.751-41.355Z" transform="translate(-1506.262 47.949)"/>
      <path id="Path_1106" data-name="Path 1106" d="M1693.248-41.355a3.3,3.3,0,0,0,3.3-3.3,3.3,3.3,0,0,0-3.3-3.3,3.3,3.3,0,0,0-3.295,3.3A3.3,3.3,0,0,0,1693.248-41.355Z" transform="translate(-1485.607 47.949)"/>
      <path id="Path_1107" data-name="Path 1107" d="M1709.752-41.355a3.3,3.3,0,0,0,3.294-3.3,3.3,3.3,0,0,0-3.294-3.3,3.3,3.3,0,0,0-3.3,3.3A3.3,3.3,0,0,0,1709.752-41.355Z" transform="translate(-1464.955 47.949)"/>
      <path id="Path_1108" data-name="Path 1108" d="M1726.248-41.355a3.3,3.3,0,0,0,3.3-3.3,3.3,3.3,0,0,0-3.3-3.3,3.3,3.3,0,0,0-3.294,3.3A3.3,3.3,0,0,0,1726.248-41.355Z" transform="translate(-1444.3 47.949)"/>
      <circle id="Ellipse_129" data-name="Ellipse 129" cx="3.298" cy="3.298" r="3.298" transform="translate(315.806)"/>
      <path id="Path_1109" data-name="Path 1109" d="M1759.252-41.355a3.3,3.3,0,0,0,3.3-3.3,3.3,3.3,0,0,0-3.3-3.3,3.3,3.3,0,0,0-3.3,3.3A3.3,3.3,0,0,0,1759.252-41.355Z" transform="translate(-1402.993 47.949)"/>
      <path id="Path_1110" data-name="Path 1110" d="M1775.748-41.355a3.3,3.3,0,0,0,3.3-3.3,3.3,3.3,0,0,0-3.3-3.3,3.3,3.3,0,0,0-3.294,3.3A3.3,3.3,0,0,0,1775.748-41.355Z" transform="translate(-1382.338 47.949)"/>
      <path id="Path_1111" data-name="Path 1111" d="M1792.251-41.355a3.3,3.3,0,0,0,3.294-3.3,3.3,3.3,0,0,0-3.294-3.3,3.3,3.3,0,0,0-3.3,3.3A3.3,3.3,0,0,0,1792.251-41.355Z" transform="translate(-1361.685 47.949)"/>
      <path id="Path_1112" data-name="Path 1112" d="M1808.748-41.355a3.3,3.3,0,0,0,3.3-3.3,3.3,3.3,0,0,0-3.3-3.3,3.3,3.3,0,0,0-3.294,3.3A3.3,3.3,0,0,0,1808.748-41.355Z" transform="translate(-1341.03 47.949)"/>
      <circle id="Ellipse_130" data-name="Ellipse 130" cx="3.298" cy="3.298" r="3.298" transform="translate(501.576)"/>
      <path id="Path_1113" data-name="Path 1113" d="M1841.752-41.355a3.3,3.3,0,0,0,3.3-3.3,3.3,3.3,0,0,0-3.3-3.3,3.3,3.3,0,0,0-3.3,3.3A3.3,3.3,0,0,0,1841.752-41.355Z" transform="translate(-1299.724 47.949)"/>
      <path id="Path_1114" data-name="Path 1114" d="M1858.248-41.355a3.3,3.3,0,0,0,3.3-3.3,3.3,3.3,0,0,0-3.3-3.3,3.3,3.3,0,0,0-3.294,3.3A3.3,3.3,0,0,0,1858.248-41.355Z" transform="translate(-1279.068 47.949)"/>
      <path id="Path_1115" data-name="Path 1115" d="M1874.752-41.355a3.3,3.3,0,0,0,3.294-3.3,3.3,3.3,0,0,0-3.294-3.3,3.3,3.3,0,0,0-3.3,3.3A3.3,3.3,0,0,0,1874.752-41.355Z" transform="translate(-1258.416 47.949)"/>
      <path id="Path_1116" data-name="Path 1116" d="M1891.248-41.355a3.3,3.3,0,0,0,3.3-3.3,3.3,3.3,0,0,0-3.3-3.3,3.3,3.3,0,0,0-3.294,3.3A3.3,3.3,0,0,0,1891.248-41.355Z" transform="translate(-1237.761 47.949)"/>
      <circle id="Ellipse_131" data-name="Ellipse 131" cx="3.298" cy="3.298" r="3.298" transform="translate(687.346)"/>
      <path id="Path_1117" data-name="Path 1117" d="M1924.252-41.355a3.3,3.3,0,0,0,3.3-3.3,3.3,3.3,0,0,0-3.3-3.3,3.3,3.3,0,0,0-3.3,3.3A3.3,3.3,0,0,0,1924.252-41.355Z" transform="translate(-1196.454 47.949)"/>
      <path id="Path_1118" data-name="Path 1118" d="M1940.748-41.355a3.3,3.3,0,0,0,3.3-3.3,3.3,3.3,0,0,0-3.3-3.3,3.3,3.3,0,0,0-3.294,3.3A3.3,3.3,0,0,0,1940.748-41.355Z" transform="translate(-1175.799 47.949)"/>
      <path id="Path_1119" data-name="Path 1119" d="M1957.252-41.355a3.3,3.3,0,0,0,3.294-3.3,3.3,3.3,0,0,0-3.294-3.3,3.3,3.3,0,0,0-3.3,3.3A3.3,3.3,0,0,0,1957.252-41.355Z" transform="translate(-1155.146 47.949)"/>
      <path id="Path_1120" data-name="Path 1120" d="M1602.5-24.855a3.3,3.3,0,0,0,3.3-3.3,3.3,3.3,0,0,0-3.3-3.3,3.3,3.3,0,0,0-3.294,3.3A3.3,3.3,0,0,0,1602.5-24.855Z" transform="translate(-1599.204 68.603)"/>
      <circle id="Ellipse_132" data-name="Ellipse 132" cx="3.298" cy="3.298" r="3.298" transform="translate(37.152 37.154)"/>
      <path id="Path_1121" data-name="Path 1121" d="M1635.5-24.855a3.3,3.3,0,0,0,3.3-3.3,3.3,3.3,0,0,0-3.3-3.3,3.3,3.3,0,0,0-3.3,3.3A3.3,3.3,0,0,0,1635.5-24.855Z" transform="translate(-1557.897 68.603)"/>
      <path id="Path_1122" data-name="Path 1122" d="M1652-24.855a3.3,3.3,0,0,0,3.3-3.3,3.3,3.3,0,0,0-3.3-3.3,3.3,3.3,0,0,0-3.294,3.3A3.3,3.3,0,0,0,1652-24.855Z" transform="translate(-1537.242 68.603)"/>
      <path id="Path_1123" data-name="Path 1123" d="M1668.5-24.855a3.3,3.3,0,0,0,3.294-3.3,3.3,3.3,0,0,0-3.294-3.3,3.3,3.3,0,0,0-3.3,3.3A3.3,3.3,0,0,0,1668.5-24.855Z" transform="translate(-1516.59 68.603)"/>
      <path id="Path_1124" data-name="Path 1124" d="M1685-24.855a3.3,3.3,0,0,0,3.3-3.3,3.3,3.3,0,0,0-3.3-3.3,3.3,3.3,0,0,0-3.294,3.3A3.3,3.3,0,0,0,1685-24.855Z" transform="translate(-1495.934 68.603)"/>
      <circle id="Ellipse_133" data-name="Ellipse 133" cx="3.298" cy="3.298" r="3.298" transform="translate(222.922 37.154)"/>
      <path id="Path_1125" data-name="Path 1125" d="M1718-24.855a3.3,3.3,0,0,0,3.3-3.3,3.3,3.3,0,0,0-3.3-3.3,3.3,3.3,0,0,0-3.3,3.3A3.3,3.3,0,0,0,1718-24.855Z" transform="translate(-1454.628 68.603)"/>
      <path id="Path_1126" data-name="Path 1126" d="M1734.5-24.855a3.3,3.3,0,0,0,3.3-3.3,3.3,3.3,0,0,0-3.3-3.3,3.3,3.3,0,0,0-3.294,3.3A3.3,3.3,0,0,0,1734.5-24.855Z" transform="translate(-1433.973 68.603)"/>
      <path id="Path_1127" data-name="Path 1127" d="M1751-24.855a3.3,3.3,0,0,0,3.294-3.3,3.3,3.3,0,0,0-3.294-3.3,3.3,3.3,0,0,0-3.3,3.3A3.3,3.3,0,0,0,1751-24.855Z" transform="translate(-1413.32 68.603)"/>
      <path id="Path_1128" data-name="Path 1128" d="M1767.5-24.855a3.3,3.3,0,0,0,3.3-3.3,3.3,3.3,0,0,0-3.3-3.3,3.3,3.3,0,0,0-3.295,3.3A3.3,3.3,0,0,0,1767.5-24.855Z" transform="translate(-1392.665 68.603)"/>
      <circle id="Ellipse_134" data-name="Ellipse 134" cx="3.298" cy="3.298" r="3.298" transform="translate(408.691 37.154)"/>
      <path id="Path_1129" data-name="Path 1129" d="M1800.5-24.855a3.3,3.3,0,0,0,3.3-3.3,3.3,3.3,0,0,0-3.3-3.3,3.3,3.3,0,0,0-3.3,3.3A3.3,3.3,0,0,0,1800.5-24.855Z" transform="translate(-1351.359 68.603)"/>
      <path id="Path_1130" data-name="Path 1130" d="M1817-24.855a3.3,3.3,0,0,0,3.3-3.3,3.3,3.3,0,0,0-3.3-3.3,3.3,3.3,0,0,0-3.295,3.3A3.3,3.3,0,0,0,1817-24.855Z" transform="translate(-1330.703 68.603)"/>
      <path id="Path_1131" data-name="Path 1131" d="M1833.5-24.855a3.3,3.3,0,0,0,3.294-3.3,3.3,3.3,0,0,0-3.294-3.3,3.3,3.3,0,0,0-3.3,3.3A3.3,3.3,0,0,0,1833.5-24.855Z" transform="translate(-1310.051 68.603)"/>
      <path id="Path_1132" data-name="Path 1132" d="M1850-24.855a3.3,3.3,0,0,0,3.3-3.3,3.3,3.3,0,0,0-3.3-3.3,3.3,3.3,0,0,0-3.295,3.3A3.3,3.3,0,0,0,1850-24.855Z" transform="translate(-1289.395 68.603)"/>
      <circle id="Ellipse_135" data-name="Ellipse 135" cx="3.298" cy="3.298" r="3.298" transform="translate(594.461 37.154)"/>
      <path id="Path_1133" data-name="Path 1133" d="M1883-24.855a3.3,3.3,0,0,0,3.3-3.3,3.3,3.3,0,0,0-3.3-3.3,3.3,3.3,0,0,0-3.3,3.3A3.3,3.3,0,0,0,1883-24.855Z" transform="translate(-1248.089 68.603)"/>
      <path id="Path_1134" data-name="Path 1134" d="M1899.5-24.855a3.3,3.3,0,0,0,3.3-3.3,3.3,3.3,0,0,0-3.3-3.3,3.3,3.3,0,0,0-3.294,3.3A3.3,3.3,0,0,0,1899.5-24.855Z" transform="translate(-1227.434 68.603)"/>
      <path id="Path_1135" data-name="Path 1135" d="M1916-24.855a3.3,3.3,0,0,0,3.294-3.3,3.3,3.3,0,0,0-3.294-3.3,3.3,3.3,0,0,0-3.3,3.3A3.3,3.3,0,0,0,1916-24.855Z" transform="translate(-1206.781 68.603)"/>
      <path id="Path_1136" data-name="Path 1136" d="M1932.5-24.855a3.3,3.3,0,0,0,3.3-3.3,3.3,3.3,0,0,0-3.3-3.3,3.3,3.3,0,0,0-3.294,3.3A3.3,3.3,0,0,0,1932.5-24.855Z" transform="translate(-1186.126 68.603)"/>
      <circle id="Ellipse_136" data-name="Ellipse 136" cx="3.298" cy="3.298" r="3.298" transform="translate(780.23 37.154)"/>
      <path id="Path_1137" data-name="Path 1137" d="M1610.748-8.355a3.3,3.3,0,0,0,3.3-3.3,3.3,3.3,0,0,0-3.3-3.3,3.3,3.3,0,0,0-3.294,3.3A3.3,3.3,0,0,0,1610.748-8.355Z" transform="translate(-1588.877 89.257)"/>
      <path id="Path_1138" data-name="Path 1138" d="M1627.252-8.355a3.3,3.3,0,0,0,3.294-3.3,3.3,3.3,0,0,0-3.294-3.3,3.3,3.3,0,0,0-3.3,3.3A3.3,3.3,0,0,0,1627.252-8.355Z" transform="translate(-1568.224 89.257)"/>
      <path id="Path_1139" data-name="Path 1139" d="M1643.748-8.355a3.3,3.3,0,0,0,3.3-3.3,3.3,3.3,0,0,0-3.3-3.3,3.3,3.3,0,0,0-3.294,3.3A3.3,3.3,0,0,0,1643.748-8.355Z" transform="translate(-1547.569 89.257)"/>
      <path id="Path_1140" data-name="Path 1140" d="M1660.252-8.355a3.3,3.3,0,0,0,3.3-3.3,3.3,3.3,0,0,0-3.3-3.3,3.3,3.3,0,0,0-3.3,3.3A3.3,3.3,0,0,0,1660.252-8.355Z" transform="translate(-1526.916 89.257)"/>
      <path id="Path_1141" data-name="Path 1141" d="M1676.751-8.355a3.3,3.3,0,0,0,3.3-3.3,3.3,3.3,0,0,0-3.3-3.3,3.3,3.3,0,0,0-3.3,3.3A3.3,3.3,0,0,0,1676.751-8.355Z" transform="translate(-1506.262 89.257)"/>
      <path id="Path_1142" data-name="Path 1142" d="M1693.248-8.355a3.3,3.3,0,0,0,3.3-3.3,3.3,3.3,0,0,0-3.3-3.3,3.3,3.3,0,0,0-3.295,3.3A3.3,3.3,0,0,0,1693.248-8.355Z" transform="translate(-1485.607 89.257)"/>
      <path id="Path_1143" data-name="Path 1143" d="M1709.752-8.355a3.3,3.3,0,0,0,3.294-3.3,3.3,3.3,0,0,0-3.294-3.3,3.3,3.3,0,0,0-3.3,3.3A3.3,3.3,0,0,0,1709.752-8.355Z" transform="translate(-1464.955 89.257)"/>
      <path id="Path_1144" data-name="Path 1144" d="M1726.248-8.355a3.3,3.3,0,0,0,3.3-3.3,3.3,3.3,0,0,0-3.3-3.3,3.3,3.3,0,0,0-3.294,3.3A3.3,3.3,0,0,0,1726.248-8.355Z" transform="translate(-1444.3 89.257)"/>
      <path id="Path_1145" data-name="Path 1145" d="M1742.751-8.355a3.3,3.3,0,0,0,3.3-3.3,3.3,3.3,0,0,0-3.3-3.3,3.3,3.3,0,0,0-3.3,3.3A3.3,3.3,0,0,0,1742.751-8.355Z" transform="translate(-1423.647 89.257)"/>
      <path id="Path_1146" data-name="Path 1146" d="M1759.252-8.355a3.3,3.3,0,0,0,3.3-3.3,3.3,3.3,0,0,0-3.3-3.3,3.3,3.3,0,0,0-3.3,3.3A3.3,3.3,0,0,0,1759.252-8.355Z" transform="translate(-1402.993 89.257)"/>
      <path id="Path_1147" data-name="Path 1147" d="M1775.748-8.355a3.3,3.3,0,0,0,3.3-3.3,3.3,3.3,0,0,0-3.3-3.3,3.3,3.3,0,0,0-3.294,3.3A3.3,3.3,0,0,0,1775.748-8.355Z" transform="translate(-1382.338 89.257)"/>
      <path id="Path_1148" data-name="Path 1148" d="M1792.251-8.355a3.3,3.3,0,0,0,3.294-3.3,3.3,3.3,0,0,0-3.294-3.3,3.3,3.3,0,0,0-3.3,3.3A3.3,3.3,0,0,0,1792.251-8.355Z" transform="translate(-1361.685 89.257)"/>
      <path id="Path_1149" data-name="Path 1149" d="M1808.748-8.355a3.3,3.3,0,0,0,3.3-3.3,3.3,3.3,0,0,0-3.3-3.3,3.3,3.3,0,0,0-3.294,3.3A3.3,3.3,0,0,0,1808.748-8.355Z" transform="translate(-1341.03 89.257)"/>
      <path id="Path_1150" data-name="Path 1150" d="M1825.252-8.355a3.3,3.3,0,0,0,3.3-3.3,3.3,3.3,0,0,0-3.3-3.3,3.3,3.3,0,0,0-3.3,3.3A3.3,3.3,0,0,0,1825.252-8.355Z" transform="translate(-1320.378 89.257)"/>
      <path id="Path_1151" data-name="Path 1151" d="M1841.752-8.355a3.3,3.3,0,0,0,3.3-3.3,3.3,3.3,0,0,0-3.3-3.3,3.3,3.3,0,0,0-3.3,3.3A3.3,3.3,0,0,0,1841.752-8.355Z" transform="translate(-1299.724 89.257)"/>
      <path id="Path_1152" data-name="Path 1152" d="M1858.248-8.355a3.3,3.3,0,0,0,3.3-3.3,3.3,3.3,0,0,0-3.3-3.3,3.3,3.3,0,0,0-3.294,3.3A3.3,3.3,0,0,0,1858.248-8.355Z" transform="translate(-1279.068 89.257)"/>
      <path id="Path_1153" data-name="Path 1153" d="M1874.752-8.355a3.3,3.3,0,0,0,3.294-3.3,3.3,3.3,0,0,0-3.294-3.3,3.3,3.3,0,0,0-3.3,3.3A3.3,3.3,0,0,0,1874.752-8.355Z" transform="translate(-1258.416 89.257)"/>
      <path id="Path_1154" data-name="Path 1154" d="M1891.248-8.355a3.3,3.3,0,0,0,3.3-3.3,3.3,3.3,0,0,0-3.3-3.3,3.3,3.3,0,0,0-3.294,3.3A3.3,3.3,0,0,0,1891.248-8.355Z" transform="translate(-1237.761 89.257)"/>
      <path id="Path_1155" data-name="Path 1155" d="M1907.751-8.355a3.3,3.3,0,0,0,3.3-3.3,3.3,3.3,0,0,0-3.3-3.3,3.3,3.3,0,0,0-3.3,3.3A3.3,3.3,0,0,0,1907.751-8.355Z" transform="translate(-1217.108 89.257)"/>
      <path id="Path_1156" data-name="Path 1156" d="M1924.252-8.355a3.3,3.3,0,0,0,3.3-3.3,3.3,3.3,0,0,0-3.3-3.3,3.3,3.3,0,0,0-3.3,3.3A3.3,3.3,0,0,0,1924.252-8.355Z" transform="translate(-1196.454 89.257)"/>
      <path id="Path_1157" data-name="Path 1157" d="M1940.748-8.355a3.3,3.3,0,0,0,3.3-3.3,3.3,3.3,0,0,0-3.3-3.3,3.3,3.3,0,0,0-3.294,3.3A3.3,3.3,0,0,0,1940.748-8.355Z" transform="translate(-1175.799 89.257)"/>
      <path id="Path_1158" data-name="Path 1158" d="M1957.252-8.355a3.3,3.3,0,0,0,3.294-3.3,3.3,3.3,0,0,0-3.294-3.3,3.3,3.3,0,0,0-3.3,3.3A3.3,3.3,0,0,0,1957.252-8.355Z" transform="translate(-1155.146 89.257)"/>
      <path id="Path_1159" data-name="Path 1159" d="M1602.5,8.145a3.3,3.3,0,1,0-3.294-3.3A3.3,3.3,0,0,0,1602.5,8.145Z" transform="translate(-1599.204 109.911)"/>
      <path id="Path_1160" data-name="Path 1160" d="M1619,8.145a3.3,3.3,0,1,0-3.3-3.3A3.3,3.3,0,0,0,1619,8.145Z" transform="translate(-1578.551 109.911)"/>
      <path id="Path_1161" data-name="Path 1161" d="M1635.5,8.145a3.3,3.3,0,1,0-3.3-3.3A3.3,3.3,0,0,0,1635.5,8.145Z" transform="translate(-1557.897 109.911)"/>
      <path id="Path_1162" data-name="Path 1162" d="M1652,8.145a3.3,3.3,0,1,0-3.294-3.3A3.3,3.3,0,0,0,1652,8.145Z" transform="translate(-1537.242 109.911)"/>
      <path id="Path_1163" data-name="Path 1163" d="M1668.5,8.145a3.3,3.3,0,1,0-3.3-3.3A3.295,3.295,0,0,0,1668.5,8.145Z" transform="translate(-1516.59 109.911)"/>
      <path id="Path_1164" data-name="Path 1164" d="M1685,8.145a3.3,3.3,0,1,0-3.294-3.3A3.3,3.3,0,0,0,1685,8.145Z" transform="translate(-1495.934 109.911)"/>
      <path id="Path_1165" data-name="Path 1165" d="M1701.5,8.145a3.3,3.3,0,1,0-3.3-3.3A3.3,3.3,0,0,0,1701.5,8.145Z" transform="translate(-1475.281 109.911)"/>
      <path id="Path_1166" data-name="Path 1166" d="M1718,8.145a3.3,3.3,0,1,0-3.3-3.3A3.3,3.3,0,0,0,1718,8.145Z" transform="translate(-1454.628 109.911)"/>
      <path id="Path_1167" data-name="Path 1167" d="M1734.5,8.145a3.3,3.3,0,1,0-3.294-3.3A3.3,3.3,0,0,0,1734.5,8.145Z" transform="translate(-1433.973 109.911)"/>
      <path id="Path_1168" data-name="Path 1168" d="M1751,8.145a3.3,3.3,0,1,0-3.3-3.3A3.3,3.3,0,0,0,1751,8.145Z" transform="translate(-1413.32 109.911)"/>
      <path id="Path_1169" data-name="Path 1169" d="M1767.5,8.145a3.3,3.3,0,1,0-3.295-3.3A3.3,3.3,0,0,0,1767.5,8.145Z" transform="translate(-1392.665 109.911)"/>
      <path id="Path_1170" data-name="Path 1170" d="M1784,8.145a3.3,3.3,0,1,0-3.3-3.3A3.3,3.3,0,0,0,1784,8.145Z" transform="translate(-1372.012 109.911)"/>
      <path id="Path_1171" data-name="Path 1171" d="M1800.5,8.145a3.3,3.3,0,1,0-3.3-3.3A3.3,3.3,0,0,0,1800.5,8.145Z" transform="translate(-1351.359 109.911)"/>
      <path id="Path_1172" data-name="Path 1172" d="M1817,8.145a3.3,3.3,0,1,0-3.295-3.3A3.3,3.3,0,0,0,1817,8.145Z" transform="translate(-1330.703 109.911)"/>
      <path id="Path_1173" data-name="Path 1173" d="M1833.5,8.145a3.3,3.3,0,1,0-3.3-3.3A3.295,3.295,0,0,0,1833.5,8.145Z" transform="translate(-1310.051 109.911)"/>
      <path id="Path_1174" data-name="Path 1174" d="M1850,8.145a3.3,3.3,0,1,0-3.295-3.3A3.3,3.3,0,0,0,1850,8.145Z" transform="translate(-1289.395 109.911)"/>
      <path id="Path_1175" data-name="Path 1175" d="M1866.5,8.145a3.3,3.3,0,1,0-3.3-3.3A3.295,3.295,0,0,0,1866.5,8.145Z" transform="translate(-1268.743 109.911)"/>
      <path id="Path_1176" data-name="Path 1176" d="M1883,8.145a3.3,3.3,0,1,0-3.3-3.3A3.3,3.3,0,0,0,1883,8.145Z" transform="translate(-1248.089 109.911)"/>
      <path id="Path_1177" data-name="Path 1177" d="M1899.5,8.145a3.3,3.3,0,1,0-3.294-3.3A3.3,3.3,0,0,0,1899.5,8.145Z" transform="translate(-1227.434 109.911)"/>
      <path id="Path_1178" data-name="Path 1178" d="M1916,8.145a3.3,3.3,0,1,0-3.3-3.3A3.295,3.295,0,0,0,1916,8.145Z" transform="translate(-1206.781 109.911)"/>
      <path id="Path_1179" data-name="Path 1179" d="M1932.5,8.145a3.3,3.3,0,1,0-3.294-3.3A3.3,3.3,0,0,0,1932.5,8.145Z" transform="translate(-1186.126 109.911)"/>
      <path id="Path_1180" data-name="Path 1180" d="M1949,8.145a3.3,3.3,0,1,0-3.3-3.3A3.3,3.3,0,0,0,1949,8.145Z" transform="translate(-1165.473 109.911)"/>
      <path id="Path_1181" data-name="Path 1181" d="M1610.748,24.645a3.3,3.3,0,1,0-3.294-3.3A3.3,3.3,0,0,0,1610.748,24.645Z" transform="translate(-1588.877 130.565)"/>
      <path id="Path_1182" data-name="Path 1182" d="M1627.252,24.645a3.3,3.3,0,1,0-3.3-3.3A3.295,3.295,0,0,0,1627.252,24.645Z" transform="translate(-1568.224 130.565)"/>
      <path id="Path_1183" data-name="Path 1183" d="M1643.748,24.645a3.3,3.3,0,1,0-3.294-3.3A3.3,3.3,0,0,0,1643.748,24.645Z" transform="translate(-1547.569 130.565)"/>
      <path id="Path_1184" data-name="Path 1184" d="M1660.252,24.645a3.3,3.3,0,1,0-3.3-3.3A3.3,3.3,0,0,0,1660.252,24.645Z" transform="translate(-1526.916 130.565)"/>
      <path id="Path_1185" data-name="Path 1185" d="M1676.751,24.645a3.3,3.3,0,1,0-3.3-3.3A3.3,3.3,0,0,0,1676.751,24.645Z" transform="translate(-1506.262 130.565)"/>
      <path id="Path_1186" data-name="Path 1186" d="M1693.248,24.645a3.3,3.3,0,1,0-3.295-3.3A3.3,3.3,0,0,0,1693.248,24.645Z" transform="translate(-1485.607 130.565)"/>
      <path id="Path_1187" data-name="Path 1187" d="M1709.752,24.645a3.3,3.3,0,1,0-3.3-3.3A3.295,3.295,0,0,0,1709.752,24.645Z" transform="translate(-1464.955 130.565)"/>
      <path id="Path_1188" data-name="Path 1188" d="M1726.248,24.645a3.3,3.3,0,1,0-3.294-3.3A3.3,3.3,0,0,0,1726.248,24.645Z" transform="translate(-1444.3 130.565)"/>
      <path id="Path_1189" data-name="Path 1189" d="M1742.751,24.645a3.3,3.3,0,1,0-3.3-3.3A3.3,3.3,0,0,0,1742.751,24.645Z" transform="translate(-1423.647 130.565)"/>
      <path id="Path_1190" data-name="Path 1190" d="M1759.252,24.645a3.3,3.3,0,1,0-3.3-3.3A3.3,3.3,0,0,0,1759.252,24.645Z" transform="translate(-1402.993 130.565)"/>
      <path id="Path_1191" data-name="Path 1191" d="M1775.748,24.645a3.3,3.3,0,1,0-3.294-3.3A3.3,3.3,0,0,0,1775.748,24.645Z" transform="translate(-1382.338 130.565)"/>
      <path id="Path_1192" data-name="Path 1192" d="M1792.251,24.645a3.3,3.3,0,1,0-3.3-3.3A3.295,3.295,0,0,0,1792.251,24.645Z" transform="translate(-1361.685 130.565)"/>
      <path id="Path_1193" data-name="Path 1193" d="M1808.748,24.645a3.3,3.3,0,1,0-3.294-3.3A3.3,3.3,0,0,0,1808.748,24.645Z" transform="translate(-1341.03 130.565)"/>
      <path id="Path_1194" data-name="Path 1194" d="M1825.252,24.645a3.3,3.3,0,1,0-3.3-3.3A3.295,3.295,0,0,0,1825.252,24.645Z" transform="translate(-1320.378 130.565)"/>
      <path id="Path_1195" data-name="Path 1195" d="M1841.752,24.645a3.3,3.3,0,1,0-3.3-3.3A3.3,3.3,0,0,0,1841.752,24.645Z" transform="translate(-1299.724 130.565)"/>
      <path id="Path_1196" data-name="Path 1196" d="M1858.248,24.645a3.3,3.3,0,1,0-3.294-3.3A3.3,3.3,0,0,0,1858.248,24.645Z" transform="translate(-1279.068 130.565)"/>
      <path id="Path_1197" data-name="Path 1197" d="M1874.752,24.645a3.3,3.3,0,1,0-3.3-3.3A3.295,3.295,0,0,0,1874.752,24.645Z" transform="translate(-1258.416 130.565)"/>
      <path id="Path_1198" data-name="Path 1198" d="M1891.248,24.645a3.3,3.3,0,1,0-3.294-3.3A3.3,3.3,0,0,0,1891.248,24.645Z" transform="translate(-1237.761 130.565)"/>
      <path id="Path_1199" data-name="Path 1199" d="M1907.751,24.645a3.3,3.3,0,1,0-3.3-3.3A3.3,3.3,0,0,0,1907.751,24.645Z" transform="translate(-1217.108 130.565)"/>
      <path id="Path_1200" data-name="Path 1200" d="M1924.252,24.645a3.3,3.3,0,1,0-3.3-3.3A3.3,3.3,0,0,0,1924.252,24.645Z" transform="translate(-1196.454 130.565)"/>
      <path id="Path_1201" data-name="Path 1201" d="M1940.748,24.645a3.3,3.3,0,1,0-3.294-3.3A3.3,3.3,0,0,0,1940.748,24.645Z" transform="translate(-1175.799 130.565)"/>
      <path id="Path_1202" data-name="Path 1202" d="M1957.252,24.645a3.3,3.3,0,1,0-3.3-3.3A3.295,3.295,0,0,0,1957.252,24.645Z" transform="translate(-1155.146 130.565)"/>
      <path id="Path_1203" data-name="Path 1203" d="M1602.5,41.145a3.3,3.3,0,1,0-3.294-3.3A3.3,3.3,0,0,0,1602.5,41.145Z" transform="translate(-1599.204 151.218)"/>
      <circle id="Ellipse_137" data-name="Ellipse 137" cx="3.298" cy="3.298" r="3.298" transform="translate(37.152 185.77)"/>
      <path id="Path_1204" data-name="Path 1204" d="M1635.5,41.145a3.3,3.3,0,1,0-3.3-3.3A3.3,3.3,0,0,0,1635.5,41.145Z" transform="translate(-1557.897 151.218)"/>
      <path id="Path_1205" data-name="Path 1205" d="M1652,41.145a3.3,3.3,0,1,0-3.294-3.3A3.3,3.3,0,0,0,1652,41.145Z" transform="translate(-1537.242 151.218)"/>
      <path id="Path_1206" data-name="Path 1206" d="M1668.5,41.145a3.3,3.3,0,1,0-3.3-3.3A3.295,3.295,0,0,0,1668.5,41.145Z" transform="translate(-1516.59 151.218)"/>
      <path id="Path_1207" data-name="Path 1207" d="M1685,41.145a3.3,3.3,0,1,0-3.294-3.3A3.3,3.3,0,0,0,1685,41.145Z" transform="translate(-1495.934 151.218)"/>
      <circle id="Ellipse_138" data-name="Ellipse 138" cx="3.298" cy="3.298" r="3.298" transform="translate(222.922 185.77)"/>
      <path id="Path_1208" data-name="Path 1208" d="M1718,41.145a3.3,3.3,0,1,0-3.3-3.3A3.3,3.3,0,0,0,1718,41.145Z" transform="translate(-1454.628 151.218)"/>
      <path id="Path_1209" data-name="Path 1209" d="M1734.5,41.145a3.3,3.3,0,1,0-3.294-3.3A3.3,3.3,0,0,0,1734.5,41.145Z" transform="translate(-1433.973 151.218)"/>
      <path id="Path_1210" data-name="Path 1210" d="M1751,41.145a3.3,3.3,0,1,0-3.3-3.3A3.3,3.3,0,0,0,1751,41.145Z" transform="translate(-1413.32 151.218)"/>
      <path id="Path_1211" data-name="Path 1211" d="M1767.5,41.145a3.3,3.3,0,1,0-3.295-3.3A3.3,3.3,0,0,0,1767.5,41.145Z" transform="translate(-1392.665 151.218)"/>
      <circle id="Ellipse_139" data-name="Ellipse 139" cx="3.298" cy="3.298" r="3.298" transform="translate(408.691 185.77)"/>
      <path id="Path_1212" data-name="Path 1212" d="M1800.5,41.145a3.3,3.3,0,1,0-3.3-3.3A3.3,3.3,0,0,0,1800.5,41.145Z" transform="translate(-1351.359 151.218)"/>
      <path id="Path_1213" data-name="Path 1213" d="M1817,41.145a3.3,3.3,0,1,0-3.295-3.3A3.3,3.3,0,0,0,1817,41.145Z" transform="translate(-1330.703 151.218)"/>
      <path id="Path_1214" data-name="Path 1214" d="M1833.5,41.145a3.3,3.3,0,1,0-3.3-3.3A3.295,3.295,0,0,0,1833.5,41.145Z" transform="translate(-1310.051 151.218)"/>
      <path id="Path_1215" data-name="Path 1215" d="M1850,41.145a3.3,3.3,0,1,0-3.295-3.3A3.3,3.3,0,0,0,1850,41.145Z" transform="translate(-1289.395 151.218)"/>
      <circle id="Ellipse_140" data-name="Ellipse 140" cx="3.298" cy="3.298" r="3.298" transform="translate(594.461 185.77)"/>
      <path id="Path_1216" data-name="Path 1216" d="M1883,41.145a3.3,3.3,0,1,0-3.3-3.3A3.3,3.3,0,0,0,1883,41.145Z" transform="translate(-1248.089 151.218)"/>
      <path id="Path_1217" data-name="Path 1217" d="M1899.5,41.145a3.3,3.3,0,1,0-3.294-3.3A3.3,3.3,0,0,0,1899.5,41.145Z" transform="translate(-1227.434 151.218)"/>
      <path id="Path_1218" data-name="Path 1218" d="M1916,41.145a3.3,3.3,0,1,0-3.3-3.3A3.295,3.295,0,0,0,1916,41.145Z" transform="translate(-1206.781 151.218)"/>
      <path id="Path_1219" data-name="Path 1219" d="M1932.5,41.145a3.3,3.3,0,1,0-3.294-3.3A3.3,3.3,0,0,0,1932.5,41.145Z" transform="translate(-1186.126 151.218)"/>
      <circle id="Ellipse_141" data-name="Ellipse 141" cx="3.298" cy="3.298" r="3.298" transform="translate(780.23 185.77)"/>
      <path id="Path_1220" data-name="Path 1220" d="M1610.748,57.645a3.3,3.3,0,1,0-3.294-3.3A3.3,3.3,0,0,0,1610.748,57.645Z" transform="translate(-1588.877 171.872)"/>
      <path id="Path_1221" data-name="Path 1221" d="M1627.252,57.645a3.3,3.3,0,1,0-3.3-3.3A3.3,3.3,0,0,0,1627.252,57.645Z" transform="translate(-1568.224 171.872)"/>
      <path id="Path_1222" data-name="Path 1222" d="M1643.748,57.645a3.3,3.3,0,1,0-3.294-3.3A3.3,3.3,0,0,0,1643.748,57.645Z" transform="translate(-1547.569 171.872)"/>
      <circle id="Ellipse_142" data-name="Ellipse 142" cx="3.298" cy="3.298" r="3.298" transform="translate(130.037 222.923)"/>
      <path id="Path_1223" data-name="Path 1223" d="M1676.751,57.645a3.3,3.3,0,1,0-3.3-3.3A3.3,3.3,0,0,0,1676.751,57.645Z" transform="translate(-1506.262 171.872)"/>
      <path id="Path_1224" data-name="Path 1224" d="M1693.248,57.645a3.3,3.3,0,1,0-3.295-3.3A3.3,3.3,0,0,0,1693.248,57.645Z" transform="translate(-1485.607 171.872)"/>
      <path id="Path_1225" data-name="Path 1225" d="M1709.752,57.645a3.3,3.3,0,1,0-3.3-3.3A3.3,3.3,0,0,0,1709.752,57.645Z" transform="translate(-1464.955 171.872)"/>
      <path id="Path_1226" data-name="Path 1226" d="M1726.248,57.645a3.3,3.3,0,1,0-3.294-3.3A3.3,3.3,0,0,0,1726.248,57.645Z" transform="translate(-1444.3 171.872)"/>
      <circle id="Ellipse_143" data-name="Ellipse 143" cx="3.298" cy="3.298" r="3.298" transform="translate(315.806 222.923)"/>
      <path id="Path_1227" data-name="Path 1227" d="M1759.252,57.645a3.3,3.3,0,1,0-3.3-3.3A3.3,3.3,0,0,0,1759.252,57.645Z" transform="translate(-1402.993 171.872)"/>
      <path id="Path_1228" data-name="Path 1228" d="M1775.748,57.645a3.3,3.3,0,1,0-3.294-3.3A3.3,3.3,0,0,0,1775.748,57.645Z" transform="translate(-1382.338 171.872)"/>
      <path id="Path_1229" data-name="Path 1229" d="M1792.251,57.645a3.3,3.3,0,1,0-3.3-3.3A3.3,3.3,0,0,0,1792.251,57.645Z" transform="translate(-1361.685 171.872)"/>
      <path id="Path_1230" data-name="Path 1230" d="M1808.748,57.645a3.3,3.3,0,1,0-3.294-3.3A3.3,3.3,0,0,0,1808.748,57.645Z" transform="translate(-1341.03 171.872)"/>
      <circle id="Ellipse_144" data-name="Ellipse 144" cx="3.298" cy="3.298" r="3.298" transform="translate(501.576 222.923)"/>
      <path id="Path_1231" data-name="Path 1231" d="M1841.752,57.645a3.3,3.3,0,1,0-3.3-3.3A3.3,3.3,0,0,0,1841.752,57.645Z" transform="translate(-1299.724 171.872)"/>
      <path id="Path_1232" data-name="Path 1232" d="M1858.248,57.645a3.3,3.3,0,1,0-3.294-3.3A3.3,3.3,0,0,0,1858.248,57.645Z" transform="translate(-1279.068 171.872)"/>
      <path id="Path_1233" data-name="Path 1233" d="M1874.752,57.645a3.3,3.3,0,1,0-3.3-3.3A3.3,3.3,0,0,0,1874.752,57.645Z" transform="translate(-1258.416 171.872)"/>
      <path id="Path_1234" data-name="Path 1234" d="M1891.248,57.645a3.3,3.3,0,1,0-3.294-3.3A3.3,3.3,0,0,0,1891.248,57.645Z" transform="translate(-1237.761 171.872)"/>
      <circle id="Ellipse_145" data-name="Ellipse 145" cx="3.298" cy="3.298" r="3.298" transform="translate(687.346 222.923)"/>
      <path id="Path_1235" data-name="Path 1235" d="M1924.252,57.645a3.3,3.3,0,1,0-3.3-3.3A3.3,3.3,0,0,0,1924.252,57.645Z" transform="translate(-1196.454 171.872)"/>
      <path id="Path_1236" data-name="Path 1236" d="M1940.748,57.645a3.3,3.3,0,1,0-3.294-3.3A3.3,3.3,0,0,0,1940.748,57.645Z" transform="translate(-1175.799 171.872)"/>
      <path id="Path_1237" data-name="Path 1237" d="M1957.252,57.645a3.3,3.3,0,1,0-3.3-3.3A3.3,3.3,0,0,0,1957.252,57.645Z" transform="translate(-1155.146 171.872)"/>
      <path id="Path_1238" data-name="Path 1238" d="M1602.5,74.145a3.3,3.3,0,1,0-3.294-3.3A3.3,3.3,0,0,0,1602.5,74.145Z" transform="translate(-1599.204 192.526)"/>
      <path id="Path_1239" data-name="Path 1239" d="M1619,74.145a3.3,3.3,0,1,0-3.3-3.3A3.3,3.3,0,0,0,1619,74.145Z" transform="translate(-1578.551 192.526)"/>
      <path id="Path_1240" data-name="Path 1240" d="M1635.5,74.145a3.3,3.3,0,1,0-3.3-3.3A3.3,3.3,0,0,0,1635.5,74.145Z" transform="translate(-1557.897 192.526)"/>
      <path id="Path_1241" data-name="Path 1241" d="M1652,74.145a3.3,3.3,0,1,0-3.294-3.3A3.3,3.3,0,0,0,1652,74.145Z" transform="translate(-1537.242 192.526)"/>
      <path id="Path_1242" data-name="Path 1242" d="M1668.5,74.145a3.3,3.3,0,1,0-3.3-3.3A3.3,3.3,0,0,0,1668.5,74.145Z" transform="translate(-1516.59 192.526)"/>
      <path id="Path_1243" data-name="Path 1243" d="M1685,74.145a3.3,3.3,0,1,0-3.294-3.3A3.3,3.3,0,0,0,1685,74.145Z" transform="translate(-1495.934 192.526)"/>
      <path id="Path_1244" data-name="Path 1244" d="M1701.5,74.145a3.3,3.3,0,1,0-3.3-3.3A3.3,3.3,0,0,0,1701.5,74.145Z" transform="translate(-1475.281 192.526)"/>
      <path id="Path_1245" data-name="Path 1245" d="M1718,74.145a3.3,3.3,0,1,0-3.3-3.3A3.3,3.3,0,0,0,1718,74.145Z" transform="translate(-1454.628 192.526)"/>
      <path id="Path_1246" data-name="Path 1246" d="M1734.5,74.145a3.3,3.3,0,1,0-3.294-3.3A3.3,3.3,0,0,0,1734.5,74.145Z" transform="translate(-1433.973 192.526)"/>
      <path id="Path_1247" data-name="Path 1247" d="M1751,74.145a3.3,3.3,0,1,0-3.3-3.3A3.3,3.3,0,0,0,1751,74.145Z" transform="translate(-1413.32 192.526)"/>
      <path id="Path_1248" data-name="Path 1248" d="M1767.5,74.145a3.3,3.3,0,1,0-3.295-3.3A3.3,3.3,0,0,0,1767.5,74.145Z" transform="translate(-1392.665 192.526)"/>
      <path id="Path_1249" data-name="Path 1249" d="M1784,74.145a3.3,3.3,0,1,0-3.3-3.3A3.3,3.3,0,0,0,1784,74.145Z" transform="translate(-1372.012 192.526)"/>
      <path id="Path_1250" data-name="Path 1250" d="M1800.5,74.145a3.3,3.3,0,1,0-3.3-3.3A3.3,3.3,0,0,0,1800.5,74.145Z" transform="translate(-1351.359 192.526)"/>
      <path id="Path_1251" data-name="Path 1251" d="M1817,74.145a3.3,3.3,0,1,0-3.295-3.3A3.3,3.3,0,0,0,1817,74.145Z" transform="translate(-1330.703 192.526)"/>
      <path id="Path_1252" data-name="Path 1252" d="M1833.5,74.145a3.3,3.3,0,1,0-3.3-3.3A3.3,3.3,0,0,0,1833.5,74.145Z" transform="translate(-1310.051 192.526)"/>
      <path id="Path_1253" data-name="Path 1253" d="M1850,74.145a3.3,3.3,0,1,0-3.295-3.3A3.3,3.3,0,0,0,1850,74.145Z" transform="translate(-1289.395 192.526)"/>
      <path id="Path_1254" data-name="Path 1254" d="M1866.5,74.145a3.3,3.3,0,1,0-3.3-3.3A3.3,3.3,0,0,0,1866.5,74.145Z" transform="translate(-1268.743 192.526)"/>
      <path id="Path_1255" data-name="Path 1255" d="M1883,74.145a3.3,3.3,0,1,0-3.3-3.3A3.3,3.3,0,0,0,1883,74.145Z" transform="translate(-1248.089 192.526)"/>
      <path id="Path_1256" data-name="Path 1256" d="M1899.5,74.145a3.3,3.3,0,1,0-3.294-3.3A3.3,3.3,0,0,0,1899.5,74.145Z" transform="translate(-1227.434 192.526)"/>
      <path id="Path_1257" data-name="Path 1257" d="M1916,74.145a3.3,3.3,0,1,0-3.3-3.3A3.3,3.3,0,0,0,1916,74.145Z" transform="translate(-1206.781 192.526)"/>
      <path id="Path_1258" data-name="Path 1258" d="M1932.5,74.145a3.3,3.3,0,1,0-3.294-3.3A3.3,3.3,0,0,0,1932.5,74.145Z" transform="translate(-1186.126 192.526)"/>
      <path id="Path_1259" data-name="Path 1259" d="M1949,74.145a3.3,3.3,0,1,0-3.3-3.3A3.3,3.3,0,0,0,1949,74.145Z" transform="translate(-1165.473 192.526)"/>
      <path id="Path_1260" data-name="Path 1260" d="M1610.748,90.645a3.3,3.3,0,1,0-3.294-3.3A3.3,3.3,0,0,0,1610.748,90.645Z" transform="translate(-1588.877 213.18)"/>
      <path id="Path_1261" data-name="Path 1261" d="M1627.252,90.645a3.3,3.3,0,1,0-3.3-3.3A3.295,3.295,0,0,0,1627.252,90.645Z" transform="translate(-1568.224 213.18)"/>
      <path id="Path_1262" data-name="Path 1262" d="M1643.748,90.645a3.3,3.3,0,1,0-3.294-3.3A3.3,3.3,0,0,0,1643.748,90.645Z" transform="translate(-1547.569 213.18)"/>
      <path id="Path_1263" data-name="Path 1263" d="M1660.252,90.645a3.3,3.3,0,1,0-3.3-3.3A3.3,3.3,0,0,0,1660.252,90.645Z" transform="translate(-1526.916 213.18)"/>
      <path id="Path_1264" data-name="Path 1264" d="M1676.751,90.645a3.3,3.3,0,1,0-3.3-3.3A3.3,3.3,0,0,0,1676.751,90.645Z" transform="translate(-1506.262 213.18)"/>
      <path id="Path_1265" data-name="Path 1265" d="M1693.248,90.645a3.3,3.3,0,1,0-3.295-3.3A3.3,3.3,0,0,0,1693.248,90.645Z" transform="translate(-1485.607 213.18)"/>
      <path id="Path_1266" data-name="Path 1266" d="M1709.752,90.645a3.3,3.3,0,1,0-3.3-3.3A3.295,3.295,0,0,0,1709.752,90.645Z" transform="translate(-1464.955 213.18)"/>
      <path id="Path_1267" data-name="Path 1267" d="M1726.248,90.645a3.3,3.3,0,1,0-3.294-3.3A3.3,3.3,0,0,0,1726.248,90.645Z" transform="translate(-1444.3 213.18)"/>
      <path id="Path_1268" data-name="Path 1268" d="M1742.751,90.645a3.3,3.3,0,1,0-3.3-3.3A3.3,3.3,0,0,0,1742.751,90.645Z" transform="translate(-1423.647 213.18)"/>
      <path id="Path_1269" data-name="Path 1269" d="M1759.252,90.645a3.3,3.3,0,1,0-3.3-3.3A3.3,3.3,0,0,0,1759.252,90.645Z" transform="translate(-1402.993 213.18)"/>
      <path id="Path_1270" data-name="Path 1270" d="M1775.748,90.645a3.3,3.3,0,1,0-3.294-3.3A3.3,3.3,0,0,0,1775.748,90.645Z" transform="translate(-1382.338 213.18)"/>
      <path id="Path_1271" data-name="Path 1271" d="M1792.251,90.645a3.3,3.3,0,1,0-3.3-3.3A3.295,3.295,0,0,0,1792.251,90.645Z" transform="translate(-1361.685 213.18)"/>
      <path id="Path_1272" data-name="Path 1272" d="M1808.748,90.645a3.3,3.3,0,1,0-3.294-3.3A3.3,3.3,0,0,0,1808.748,90.645Z" transform="translate(-1341.03 213.18)"/>
      <path id="Path_1273" data-name="Path 1273" d="M1825.252,90.645a3.3,3.3,0,1,0-3.3-3.3A3.295,3.295,0,0,0,1825.252,90.645Z" transform="translate(-1320.378 213.18)"/>
      <path id="Path_1274" data-name="Path 1274" d="M1841.752,90.645a3.3,3.3,0,1,0-3.3-3.3A3.3,3.3,0,0,0,1841.752,90.645Z" transform="translate(-1299.724 213.18)"/>
      <path id="Path_1275" data-name="Path 1275" d="M1858.248,90.645a3.3,3.3,0,1,0-3.294-3.3A3.3,3.3,0,0,0,1858.248,90.645Z" transform="translate(-1279.068 213.18)"/>
      <path id="Path_1276" data-name="Path 1276" d="M1874.752,90.645a3.3,3.3,0,1,0-3.3-3.3A3.295,3.295,0,0,0,1874.752,90.645Z" transform="translate(-1258.416 213.18)"/>
      <path id="Path_1277" data-name="Path 1277" d="M1891.248,90.645a3.3,3.3,0,1,0-3.294-3.3A3.3,3.3,0,0,0,1891.248,90.645Z" transform="translate(-1237.761 213.18)"/>
      <path id="Path_1278" data-name="Path 1278" d="M1907.751,90.645a3.3,3.3,0,1,0-3.3-3.3A3.3,3.3,0,0,0,1907.751,90.645Z" transform="translate(-1217.108 213.18)"/>
      <path id="Path_1279" data-name="Path 1279" d="M1924.252,90.645a3.3,3.3,0,1,0-3.3-3.3A3.3,3.3,0,0,0,1924.252,90.645Z" transform="translate(-1196.454 213.18)"/>
      <path id="Path_1280" data-name="Path 1280" d="M1940.748,90.645a3.3,3.3,0,1,0-3.294-3.3A3.3,3.3,0,0,0,1940.748,90.645Z" transform="translate(-1175.799 213.18)"/>
      <path id="Path_1281" data-name="Path 1281" d="M1957.252,90.645a3.3,3.3,0,1,0-3.3-3.3A3.295,3.295,0,0,0,1957.252,90.645Z" transform="translate(-1155.146 213.18)"/>
      <path id="Path_1282" data-name="Path 1282" d="M1602.5,107.145a3.3,3.3,0,1,0-3.294-3.3A3.3,3.3,0,0,0,1602.5,107.145Z" transform="translate(-1599.204 233.834)"/>
      <path id="Path_1283" data-name="Path 1283" d="M1619,107.145a3.3,3.3,0,1,0-3.3-3.3A3.3,3.3,0,0,0,1619,107.145Z" transform="translate(-1578.551 233.834)"/>
      <path id="Path_1284" data-name="Path 1284" d="M1635.5,107.145a3.3,3.3,0,1,0-3.3-3.3A3.3,3.3,0,0,0,1635.5,107.145Z" transform="translate(-1557.897 233.834)"/>
      <path id="Path_1285" data-name="Path 1285" d="M1652,107.145a3.3,3.3,0,1,0-3.294-3.3A3.3,3.3,0,0,0,1652,107.145Z" transform="translate(-1537.242 233.834)"/>
      <path id="Path_1286" data-name="Path 1286" d="M1668.5,107.145a3.3,3.3,0,1,0-3.3-3.3A3.295,3.295,0,0,0,1668.5,107.145Z" transform="translate(-1516.59 233.834)"/>
      <path id="Path_1287" data-name="Path 1287" d="M1685,107.145a3.3,3.3,0,1,0-3.294-3.3A3.3,3.3,0,0,0,1685,107.145Z" transform="translate(-1495.934 233.834)"/>
      <path id="Path_1288" data-name="Path 1288" d="M1701.5,107.145a3.3,3.3,0,1,0-3.3-3.3A3.3,3.3,0,0,0,1701.5,107.145Z" transform="translate(-1475.281 233.834)"/>
      <path id="Path_1289" data-name="Path 1289" d="M1718,107.145a3.3,3.3,0,1,0-3.3-3.3A3.3,3.3,0,0,0,1718,107.145Z" transform="translate(-1454.628 233.834)"/>
      <path id="Path_1290" data-name="Path 1290" d="M1734.5,107.145a3.3,3.3,0,1,0-3.294-3.3A3.3,3.3,0,0,0,1734.5,107.145Z" transform="translate(-1433.973 233.834)"/>
      <path id="Path_1291" data-name="Path 1291" d="M1751,107.145a3.3,3.3,0,1,0-3.3-3.3A3.3,3.3,0,0,0,1751,107.145Z" transform="translate(-1413.32 233.834)"/>
      <path id="Path_1292" data-name="Path 1292" d="M1767.5,107.145a3.3,3.3,0,1,0-3.295-3.3A3.3,3.3,0,0,0,1767.5,107.145Z" transform="translate(-1392.665 233.834)"/>
      <path id="Path_1293" data-name="Path 1293" d="M1784,107.145a3.3,3.3,0,1,0-3.3-3.3A3.3,3.3,0,0,0,1784,107.145Z" transform="translate(-1372.012 233.834)"/>
      <path id="Path_1294" data-name="Path 1294" d="M1800.5,107.145a3.3,3.3,0,1,0-3.3-3.3A3.3,3.3,0,0,0,1800.5,107.145Z" transform="translate(-1351.359 233.834)"/>
      <path id="Path_1295" data-name="Path 1295" d="M1817,107.145a3.3,3.3,0,1,0-3.295-3.3A3.3,3.3,0,0,0,1817,107.145Z" transform="translate(-1330.703 233.834)"/>
      <path id="Path_1296" data-name="Path 1296" d="M1833.5,107.145a3.3,3.3,0,1,0-3.3-3.3A3.295,3.295,0,0,0,1833.5,107.145Z" transform="translate(-1310.051 233.834)"/>
      <path id="Path_1297" data-name="Path 1297" d="M1850,107.145a3.3,3.3,0,1,0-3.295-3.3A3.3,3.3,0,0,0,1850,107.145Z" transform="translate(-1289.395 233.834)"/>
      <path id="Path_1298" data-name="Path 1298" d="M1866.5,107.145a3.3,3.3,0,1,0-3.3-3.3A3.3,3.3,0,0,0,1866.5,107.145Z" transform="translate(-1268.743 233.834)"/>
      <path id="Path_1299" data-name="Path 1299" d="M1883,107.145a3.3,3.3,0,1,0-3.3-3.3A3.3,3.3,0,0,0,1883,107.145Z" transform="translate(-1248.089 233.834)"/>
      <path id="Path_1300" data-name="Path 1300" d="M1899.5,107.145a3.3,3.3,0,1,0-3.294-3.3A3.3,3.3,0,0,0,1899.5,107.145Z" transform="translate(-1227.434 233.834)"/>
      <path id="Path_1301" data-name="Path 1301" d="M1916,107.145a3.3,3.3,0,1,0-3.3-3.3A3.295,3.295,0,0,0,1916,107.145Z" transform="translate(-1206.781 233.834)"/>
      <path id="Path_1302" data-name="Path 1302" d="M1932.5,107.145a3.3,3.3,0,1,0-3.294-3.3A3.3,3.3,0,0,0,1932.5,107.145Z" transform="translate(-1186.126 233.834)"/>
      <path id="Path_1303" data-name="Path 1303" d="M1949,107.145a3.3,3.3,0,1,0-3.3-3.3A3.3,3.3,0,0,0,1949,107.145Z" transform="translate(-1165.473 233.834)"/>
      <path id="Path_1304" data-name="Path 1304" d="M1610.748,123.645a3.3,3.3,0,1,0-3.294-3.3A3.3,3.3,0,0,0,1610.748,123.645Z" transform="translate(-1588.877 254.488)"/>
      <path id="Path_1305" data-name="Path 1305" d="M1627.252,123.645a3.3,3.3,0,1,0-3.3-3.3A3.295,3.295,0,0,0,1627.252,123.645Z" transform="translate(-1568.224 254.488)"/>
      <path id="Path_1306" data-name="Path 1306" d="M1643.748,123.645a3.3,3.3,0,1,0-3.294-3.3A3.3,3.3,0,0,0,1643.748,123.645Z" transform="translate(-1547.569 254.488)"/>
      <circle id="Ellipse_146" data-name="Ellipse 146" cx="3.298" cy="3.298" r="3.298" transform="translate(130.037 371.539)"/>
      <path id="Path_1307" data-name="Path 1307" d="M1676.751,123.645a3.3,3.3,0,1,0-3.3-3.3A3.3,3.3,0,0,0,1676.751,123.645Z" transform="translate(-1506.262 254.488)"/>
      <path id="Path_1308" data-name="Path 1308" d="M1693.248,123.645a3.3,3.3,0,1,0-3.295-3.3A3.3,3.3,0,0,0,1693.248,123.645Z" transform="translate(-1485.607 254.488)"/>
      <path id="Path_1309" data-name="Path 1309" d="M1709.752,123.645a3.3,3.3,0,1,0-3.3-3.3A3.295,3.295,0,0,0,1709.752,123.645Z" transform="translate(-1464.955 254.488)"/>
      <path id="Path_1310" data-name="Path 1310" d="M1726.248,123.645a3.3,3.3,0,1,0-3.294-3.3A3.3,3.3,0,0,0,1726.248,123.645Z" transform="translate(-1444.3 254.488)"/>
      <circle id="Ellipse_147" data-name="Ellipse 147" cx="3.298" cy="3.298" r="3.298" transform="translate(315.806 371.539)"/>
      <path id="Path_1311" data-name="Path 1311" d="M1759.252,123.645a3.3,3.3,0,1,0-3.3-3.3A3.3,3.3,0,0,0,1759.252,123.645Z" transform="translate(-1402.993 254.488)"/>
      <path id="Path_1312" data-name="Path 1312" d="M1775.748,123.645a3.3,3.3,0,1,0-3.294-3.3A3.3,3.3,0,0,0,1775.748,123.645Z" transform="translate(-1382.338 254.488)"/>
      <path id="Path_1313" data-name="Path 1313" d="M1792.251,123.645a3.3,3.3,0,1,0-3.3-3.3A3.295,3.295,0,0,0,1792.251,123.645Z" transform="translate(-1361.685 254.488)"/>
      <path id="Path_1314" data-name="Path 1314" d="M1808.748,123.645a3.3,3.3,0,1,0-3.294-3.3A3.3,3.3,0,0,0,1808.748,123.645Z" transform="translate(-1341.03 254.488)"/>
      <circle id="Ellipse_148" data-name="Ellipse 148" cx="3.298" cy="3.298" r="3.298" transform="translate(501.576 371.539)"/>
      <path id="Path_1315" data-name="Path 1315" d="M1841.752,123.645a3.3,3.3,0,1,0-3.3-3.3A3.3,3.3,0,0,0,1841.752,123.645Z" transform="translate(-1299.724 254.488)"/>
      <path id="Path_1316" data-name="Path 1316" d="M1858.248,123.645a3.3,3.3,0,1,0-3.294-3.3A3.3,3.3,0,0,0,1858.248,123.645Z" transform="translate(-1279.068 254.488)"/>
      <path id="Path_1317" data-name="Path 1317" d="M1874.752,123.645a3.3,3.3,0,1,0-3.3-3.3A3.295,3.295,0,0,0,1874.752,123.645Z" transform="translate(-1258.416 254.488)"/>
      <path id="Path_1318" data-name="Path 1318" d="M1891.248,123.645a3.3,3.3,0,1,0-3.294-3.3A3.3,3.3,0,0,0,1891.248,123.645Z" transform="translate(-1237.761 254.488)"/>
      <circle id="Ellipse_149" data-name="Ellipse 149" cx="3.298" cy="3.298" r="3.298" transform="translate(687.346 371.539)"/>
      <path id="Path_1319" data-name="Path 1319" d="M1924.252,123.645a3.3,3.3,0,1,0-3.3-3.3A3.3,3.3,0,0,0,1924.252,123.645Z" transform="translate(-1196.454 254.488)"/>
      <path id="Path_1320" data-name="Path 1320" d="M1940.748,123.645a3.3,3.3,0,1,0-3.294-3.3A3.3,3.3,0,0,0,1940.748,123.645Z" transform="translate(-1175.799 254.488)"/>
      <path id="Path_1321" data-name="Path 1321" d="M1957.252,123.645a3.3,3.3,0,1,0-3.3-3.3A3.295,3.295,0,0,0,1957.252,123.645Z" transform="translate(-1155.146 254.488)"/>
      <path id="Path_1322" data-name="Path 1322" d="M1602.5,140.145a3.3,3.3,0,1,0-3.294-3.3A3.3,3.3,0,0,0,1602.5,140.145Z" transform="translate(-1599.204 275.142)"/>
      <circle id="Ellipse_150" data-name="Ellipse 150" cx="3.298" cy="3.298" r="3.298" transform="translate(37.152 408.693)"/>
      <path id="Path_1323" data-name="Path 1323" d="M1635.5,140.145a3.3,3.3,0,1,0-3.3-3.3A3.3,3.3,0,0,0,1635.5,140.145Z" transform="translate(-1557.897 275.142)"/>
      <path id="Path_1324" data-name="Path 1324" d="M1652,140.145a3.3,3.3,0,1,0-3.294-3.3A3.3,3.3,0,0,0,1652,140.145Z" transform="translate(-1537.242 275.142)"/>
      <path id="Path_1325" data-name="Path 1325" d="M1668.5,140.145a3.3,3.3,0,1,0-3.3-3.3A3.3,3.3,0,0,0,1668.5,140.145Z" transform="translate(-1516.59 275.142)"/>
      <path id="Path_1326" data-name="Path 1326" d="M1685,140.145a3.3,3.3,0,1,0-3.294-3.3A3.3,3.3,0,0,0,1685,140.145Z" transform="translate(-1495.934 275.142)"/>
      <circle id="Ellipse_151" data-name="Ellipse 151" cx="3.298" cy="3.298" r="3.298" transform="translate(222.922 408.693)"/>
      <path id="Path_1327" data-name="Path 1327" d="M1718,140.145a3.3,3.3,0,1,0-3.3-3.3A3.3,3.3,0,0,0,1718,140.145Z" transform="translate(-1454.628 275.142)"/>
      <path id="Path_1328" data-name="Path 1328" d="M1734.5,140.145a3.3,3.3,0,1,0-3.294-3.3A3.3,3.3,0,0,0,1734.5,140.145Z" transform="translate(-1433.973 275.142)"/>
      <path id="Path_1329" data-name="Path 1329" d="M1751,140.145a3.3,3.3,0,1,0-3.3-3.3A3.3,3.3,0,0,0,1751,140.145Z" transform="translate(-1413.32 275.142)"/>
      <path id="Path_1330" data-name="Path 1330" d="M1767.5,140.145a3.3,3.3,0,1,0-3.295-3.3A3.3,3.3,0,0,0,1767.5,140.145Z" transform="translate(-1392.665 275.142)"/>
      <circle id="Ellipse_152" data-name="Ellipse 152" cx="3.298" cy="3.298" r="3.298" transform="translate(408.691 408.693)"/>
      <path id="Path_1331" data-name="Path 1331" d="M1800.5,140.145a3.3,3.3,0,1,0-3.3-3.3A3.3,3.3,0,0,0,1800.5,140.145Z" transform="translate(-1351.359 275.142)"/>
      <path id="Path_1332" data-name="Path 1332" d="M1817,140.145a3.3,3.3,0,1,0-3.295-3.3A3.3,3.3,0,0,0,1817,140.145Z" transform="translate(-1330.703 275.142)"/>
      <path id="Path_1333" data-name="Path 1333" d="M1833.5,140.145a3.3,3.3,0,1,0-3.3-3.3A3.3,3.3,0,0,0,1833.5,140.145Z" transform="translate(-1310.051 275.142)"/>
      <path id="Path_1334" data-name="Path 1334" d="M1850,140.145a3.3,3.3,0,1,0-3.295-3.3A3.3,3.3,0,0,0,1850,140.145Z" transform="translate(-1289.395 275.142)"/>
      <circle id="Ellipse_153" data-name="Ellipse 153" cx="3.298" cy="3.298" r="3.298" transform="translate(594.461 408.693)"/>
      <path id="Path_1335" data-name="Path 1335" d="M1883,140.145a3.3,3.3,0,1,0-3.3-3.3A3.3,3.3,0,0,0,1883,140.145Z" transform="translate(-1248.089 275.142)"/>
      <path id="Path_1336" data-name="Path 1336" d="M1899.5,140.145a3.3,3.3,0,1,0-3.294-3.3A3.3,3.3,0,0,0,1899.5,140.145Z" transform="translate(-1227.434 275.142)"/>
      <path id="Path_1337" data-name="Path 1337" d="M1916,140.145a3.3,3.3,0,1,0-3.3-3.3A3.3,3.3,0,0,0,1916,140.145Z" transform="translate(-1206.781 275.142)"/>
      <path id="Path_1338" data-name="Path 1338" d="M1932.5,140.145a3.3,3.3,0,1,0-3.294-3.3A3.3,3.3,0,0,0,1932.5,140.145Z" transform="translate(-1186.126 275.142)"/>
      <circle id="Ellipse_154" data-name="Ellipse 154" cx="3.298" cy="3.298" r="3.298" transform="translate(780.23 408.693)"/>
      <path id="Path_1339" data-name="Path 1339" d="M1610.748,156.645a3.3,3.3,0,1,0-3.294-3.3A3.3,3.3,0,0,0,1610.748,156.645Z" transform="translate(-1588.877 295.796)"/>
      <path id="Path_1340" data-name="Path 1340" d="M1627.252,156.645a3.3,3.3,0,1,0-3.3-3.3A3.3,3.3,0,0,0,1627.252,156.645Z" transform="translate(-1568.224 295.796)"/>
      <path id="Path_1341" data-name="Path 1341" d="M1643.748,156.645a3.3,3.3,0,1,0-3.294-3.3A3.3,3.3,0,0,0,1643.748,156.645Z" transform="translate(-1547.569 295.796)"/>
      <path id="Path_1342" data-name="Path 1342" d="M1660.252,156.645a3.3,3.3,0,1,0-3.3-3.3A3.3,3.3,0,0,0,1660.252,156.645Z" transform="translate(-1526.916 295.796)"/>
      <path id="Path_1343" data-name="Path 1343" d="M1676.751,156.645a3.3,3.3,0,1,0-3.3-3.3A3.3,3.3,0,0,0,1676.751,156.645Z" transform="translate(-1506.262 295.796)"/>
      <path id="Path_1344" data-name="Path 1344" d="M1693.248,156.645a3.3,3.3,0,1,0-3.295-3.3A3.3,3.3,0,0,0,1693.248,156.645Z" transform="translate(-1485.607 295.796)"/>
      <path id="Path_1345" data-name="Path 1345" d="M1709.752,156.645a3.3,3.3,0,1,0-3.3-3.3A3.3,3.3,0,0,0,1709.752,156.645Z" transform="translate(-1464.955 295.796)"/>
      <path id="Path_1346" data-name="Path 1346" d="M1726.248,156.645a3.3,3.3,0,1,0-3.294-3.3A3.3,3.3,0,0,0,1726.248,156.645Z" transform="translate(-1444.3 295.796)"/>
      <path id="Path_1347" data-name="Path 1347" d="M1742.751,156.645a3.3,3.3,0,1,0-3.3-3.3A3.3,3.3,0,0,0,1742.751,156.645Z" transform="translate(-1423.647 295.796)"/>
      <path id="Path_1348" data-name="Path 1348" d="M1759.252,156.645a3.3,3.3,0,1,0-3.3-3.3A3.3,3.3,0,0,0,1759.252,156.645Z" transform="translate(-1402.993 295.796)"/>
      <path id="Path_1349" data-name="Path 1349" d="M1775.748,156.645a3.3,3.3,0,1,0-3.294-3.3A3.3,3.3,0,0,0,1775.748,156.645Z" transform="translate(-1382.338 295.796)"/>
      <path id="Path_1350" data-name="Path 1350" d="M1792.251,156.645a3.3,3.3,0,1,0-3.3-3.3A3.3,3.3,0,0,0,1792.251,156.645Z" transform="translate(-1361.685 295.796)"/>
      <path id="Path_1351" data-name="Path 1351" d="M1808.748,156.645a3.3,3.3,0,1,0-3.294-3.3A3.3,3.3,0,0,0,1808.748,156.645Z" transform="translate(-1341.03 295.796)"/>
      <path id="Path_1352" data-name="Path 1352" d="M1825.252,156.645a3.3,3.3,0,1,0-3.3-3.3A3.3,3.3,0,0,0,1825.252,156.645Z" transform="translate(-1320.378 295.796)"/>
      <path id="Path_1353" data-name="Path 1353" d="M1841.752,156.645a3.3,3.3,0,1,0-3.3-3.3A3.3,3.3,0,0,0,1841.752,156.645Z" transform="translate(-1299.724 295.796)"/>
      <path id="Path_1354" data-name="Path 1354" d="M1858.248,156.645a3.3,3.3,0,1,0-3.294-3.3A3.3,3.3,0,0,0,1858.248,156.645Z" transform="translate(-1279.068 295.796)"/>
      <path id="Path_1355" data-name="Path 1355" d="M1874.752,156.645a3.3,3.3,0,1,0-3.3-3.3A3.3,3.3,0,0,0,1874.752,156.645Z" transform="translate(-1258.416 295.796)"/>
      <path id="Path_1356" data-name="Path 1356" d="M1891.248,156.645a3.3,3.3,0,1,0-3.294-3.3A3.3,3.3,0,0,0,1891.248,156.645Z" transform="translate(-1237.761 295.796)"/>
      <path id="Path_1357" data-name="Path 1357" d="M1907.751,156.645a3.3,3.3,0,1,0-3.3-3.3A3.3,3.3,0,0,0,1907.751,156.645Z" transform="translate(-1217.108 295.796)"/>
      <path id="Path_1358" data-name="Path 1358" d="M1924.252,156.645a3.3,3.3,0,1,0-3.3-3.3A3.3,3.3,0,0,0,1924.252,156.645Z" transform="translate(-1196.454 295.796)"/>
      <path id="Path_1359" data-name="Path 1359" d="M1940.748,156.645a3.3,3.3,0,1,0-3.294-3.3A3.3,3.3,0,0,0,1940.748,156.645Z" transform="translate(-1175.799 295.796)"/>
      <path id="Path_1360" data-name="Path 1360" d="M1957.252,156.645a3.3,3.3,0,1,0-3.3-3.3A3.3,3.3,0,0,0,1957.252,156.645Z" transform="translate(-1155.146 295.796)"/>
      <path id="Path_1361" data-name="Path 1361" d="M1602.5,173.145a3.3,3.3,0,1,0-3.294-3.3A3.3,3.3,0,0,0,1602.5,173.145Z" transform="translate(-1599.204 316.45)"/>
      <path id="Path_1362" data-name="Path 1362" d="M1619,173.145a3.3,3.3,0,1,0-3.3-3.3A3.3,3.3,0,0,0,1619,173.145Z" transform="translate(-1578.551 316.45)"/>
      <path id="Path_1363" data-name="Path 1363" d="M1635.5,173.145a3.3,3.3,0,1,0-3.3-3.3A3.3,3.3,0,0,0,1635.5,173.145Z" transform="translate(-1557.897 316.45)"/>
      <path id="Path_1364" data-name="Path 1364" d="M1652,173.145a3.3,3.3,0,1,0-3.294-3.3A3.3,3.3,0,0,0,1652,173.145Z" transform="translate(-1537.242 316.45)"/>
      <path id="Path_1365" data-name="Path 1365" d="M1668.5,173.145a3.3,3.3,0,1,0-3.3-3.3A3.295,3.295,0,0,0,1668.5,173.145Z" transform="translate(-1516.59 316.45)"/>
      <path id="Path_1366" data-name="Path 1366" d="M1685,173.145a3.3,3.3,0,1,0-3.294-3.3A3.3,3.3,0,0,0,1685,173.145Z" transform="translate(-1495.934 316.45)"/>
      <path id="Path_1367" data-name="Path 1367" d="M1701.5,173.145a3.3,3.3,0,1,0-3.3-3.3A3.3,3.3,0,0,0,1701.5,173.145Z" transform="translate(-1475.281 316.45)"/>
      <path id="Path_1368" data-name="Path 1368" d="M1718,173.145a3.3,3.3,0,1,0-3.3-3.3A3.3,3.3,0,0,0,1718,173.145Z" transform="translate(-1454.628 316.45)"/>
      <path id="Path_1369" data-name="Path 1369" d="M1734.5,173.145a3.3,3.3,0,1,0-3.294-3.3A3.3,3.3,0,0,0,1734.5,173.145Z" transform="translate(-1433.973 316.45)"/>
      <path id="Path_1370" data-name="Path 1370" d="M1751,173.145a3.3,3.3,0,1,0-3.3-3.3A3.3,3.3,0,0,0,1751,173.145Z" transform="translate(-1413.32 316.45)"/>
      <path id="Path_1371" data-name="Path 1371" d="M1767.5,173.145a3.3,3.3,0,1,0-3.295-3.3A3.3,3.3,0,0,0,1767.5,173.145Z" transform="translate(-1392.665 316.45)"/>
      <path id="Path_1372" data-name="Path 1372" d="M1784,173.145a3.3,3.3,0,1,0-3.3-3.3A3.3,3.3,0,0,0,1784,173.145Z" transform="translate(-1372.012 316.45)"/>
      <path id="Path_1373" data-name="Path 1373" d="M1800.5,173.145a3.3,3.3,0,1,0-3.3-3.3A3.3,3.3,0,0,0,1800.5,173.145Z" transform="translate(-1351.359 316.45)"/>
      <path id="Path_1374" data-name="Path 1374" d="M1817,173.145a3.3,3.3,0,1,0-3.295-3.3A3.3,3.3,0,0,0,1817,173.145Z" transform="translate(-1330.703 316.45)"/>
      <path id="Path_1375" data-name="Path 1375" d="M1833.5,173.145a3.3,3.3,0,1,0-3.3-3.3A3.295,3.295,0,0,0,1833.5,173.145Z" transform="translate(-1310.051 316.45)"/>
      <path id="Path_1376" data-name="Path 1376" d="M1850,173.145a3.3,3.3,0,1,0-3.295-3.3A3.3,3.3,0,0,0,1850,173.145Z" transform="translate(-1289.395 316.45)"/>
      <path id="Path_1377" data-name="Path 1377" d="M1866.5,173.145a3.3,3.3,0,1,0-3.3-3.3A3.295,3.295,0,0,0,1866.5,173.145Z" transform="translate(-1268.743 316.45)"/>
      <path id="Path_1378" data-name="Path 1378" d="M1883,173.145a3.3,3.3,0,1,0-3.3-3.3A3.3,3.3,0,0,0,1883,173.145Z" transform="translate(-1248.089 316.45)"/>
      <path id="Path_1379" data-name="Path 1379" d="M1899.5,173.145a3.3,3.3,0,1,0-3.294-3.3A3.3,3.3,0,0,0,1899.5,173.145Z" transform="translate(-1227.434 316.45)"/>
      <path id="Path_1380" data-name="Path 1380" d="M1916,173.145a3.3,3.3,0,1,0-3.3-3.3A3.295,3.295,0,0,0,1916,173.145Z" transform="translate(-1206.781 316.45)"/>
      <path id="Path_1381" data-name="Path 1381" d="M1932.5,173.145a3.3,3.3,0,1,0-3.294-3.3A3.3,3.3,0,0,0,1932.5,173.145Z" transform="translate(-1186.126 316.45)"/>
      <path id="Path_1382" data-name="Path 1382" d="M1949,173.145a3.3,3.3,0,1,0-3.3-3.3A3.295,3.295,0,0,0,1949,173.145Z" transform="translate(-1165.473 316.45)"/>
      <path id="Path_1383" data-name="Path 1383" d="M1610.748,189.645a3.3,3.3,0,1,0-3.294-3.3A3.3,3.3,0,0,0,1610.748,189.645Z" transform="translate(-1588.877 337.104)"/>
      <path id="Path_1384" data-name="Path 1384" d="M1627.252,189.645a3.3,3.3,0,1,0-3.3-3.3A3.295,3.295,0,0,0,1627.252,189.645Z" transform="translate(-1568.224 337.104)"/>
      <path id="Path_1385" data-name="Path 1385" d="M1643.748,189.645a3.3,3.3,0,1,0-3.294-3.3A3.3,3.3,0,0,0,1643.748,189.645Z" transform="translate(-1547.569 337.104)"/>
      <path id="Path_1386" data-name="Path 1386" d="M1660.252,189.645a3.3,3.3,0,1,0-3.3-3.3A3.3,3.3,0,0,0,1660.252,189.645Z" transform="translate(-1526.916 337.104)"/>
      <path id="Path_1387" data-name="Path 1387" d="M1676.751,189.645a3.3,3.3,0,1,0-3.3-3.3A3.3,3.3,0,0,0,1676.751,189.645Z" transform="translate(-1506.262 337.104)"/>
      <path id="Path_1388" data-name="Path 1388" d="M1693.248,189.645a3.3,3.3,0,1,0-3.295-3.3A3.3,3.3,0,0,0,1693.248,189.645Z" transform="translate(-1485.607 337.104)"/>
      <path id="Path_1389" data-name="Path 1389" d="M1709.752,189.645a3.3,3.3,0,1,0-3.3-3.3A3.295,3.295,0,0,0,1709.752,189.645Z" transform="translate(-1464.955 337.104)"/>
      <path id="Path_1390" data-name="Path 1390" d="M1726.248,189.645a3.3,3.3,0,1,0-3.294-3.3A3.3,3.3,0,0,0,1726.248,189.645Z" transform="translate(-1444.3 337.104)"/>
      <path id="Path_1391" data-name="Path 1391" d="M1742.751,189.645a3.3,3.3,0,1,0-3.3-3.3A3.3,3.3,0,0,0,1742.751,189.645Z" transform="translate(-1423.647 337.104)"/>
      <path id="Path_1392" data-name="Path 1392" d="M1759.252,189.645a3.3,3.3,0,1,0-3.3-3.3A3.3,3.3,0,0,0,1759.252,189.645Z" transform="translate(-1402.993 337.104)"/>
      <path id="Path_1393" data-name="Path 1393" d="M1775.748,189.645a3.3,3.3,0,1,0-3.294-3.3A3.3,3.3,0,0,0,1775.748,189.645Z" transform="translate(-1382.338 337.104)"/>
      <path id="Path_1394" data-name="Path 1394" d="M1792.251,189.645a3.3,3.3,0,1,0-3.3-3.3A3.295,3.295,0,0,0,1792.251,189.645Z" transform="translate(-1361.685 337.104)"/>
      <path id="Path_1395" data-name="Path 1395" d="M1808.748,189.645a3.3,3.3,0,1,0-3.294-3.3A3.3,3.3,0,0,0,1808.748,189.645Z" transform="translate(-1341.03 337.104)"/>
      <path id="Path_1396" data-name="Path 1396" d="M1825.252,189.645a3.3,3.3,0,1,0-3.3-3.3A3.295,3.295,0,0,0,1825.252,189.645Z" transform="translate(-1320.378 337.104)"/>
      <path id="Path_1397" data-name="Path 1397" d="M1841.752,189.645a3.3,3.3,0,1,0-3.3-3.3A3.3,3.3,0,0,0,1841.752,189.645Z" transform="translate(-1299.724 337.104)"/>
      <path id="Path_1398" data-name="Path 1398" d="M1858.248,189.645a3.3,3.3,0,1,0-3.294-3.3A3.3,3.3,0,0,0,1858.248,189.645Z" transform="translate(-1279.068 337.104)"/>
      <path id="Path_1399" data-name="Path 1399" d="M1874.752,189.645a3.3,3.3,0,1,0-3.3-3.3A3.295,3.295,0,0,0,1874.752,189.645Z" transform="translate(-1258.416 337.104)"/>
      <path id="Path_1400" data-name="Path 1400" d="M1891.248,189.645a3.3,3.3,0,1,0-3.294-3.3A3.3,3.3,0,0,0,1891.248,189.645Z" transform="translate(-1237.761 337.104)"/>
      <path id="Path_1401" data-name="Path 1401" d="M1907.751,189.645a3.3,3.3,0,1,0-3.3-3.3A3.3,3.3,0,0,0,1907.751,189.645Z" transform="translate(-1217.108 337.104)"/>
      <path id="Path_1402" data-name="Path 1402" d="M1924.252,189.645a3.3,3.3,0,1,0-3.3-3.3A3.3,3.3,0,0,0,1924.252,189.645Z" transform="translate(-1196.454 337.104)"/>
      <path id="Path_1403" data-name="Path 1403" d="M1940.748,189.645a3.3,3.3,0,1,0-3.294-3.3A3.3,3.3,0,0,0,1940.748,189.645Z" transform="translate(-1175.799 337.104)"/>
      <path id="Path_1404" data-name="Path 1404" d="M1957.252,189.645a3.3,3.3,0,1,0-3.3-3.3A3.295,3.295,0,0,0,1957.252,189.645Z" transform="translate(-1155.146 337.104)"/>
      <path id="Path_1405" data-name="Path 1405" d="M1602.5,206.145a3.3,3.3,0,1,0-3.294-3.3A3.3,3.3,0,0,0,1602.5,206.145Z" transform="translate(-1599.204 357.758)"/>
      <circle id="Ellipse_155" data-name="Ellipse 155" cx="3.298" cy="3.298" r="3.298" transform="translate(37.152 557.309)"/>
      <path id="Path_1406" data-name="Path 1406" d="M1635.5,206.145a3.3,3.3,0,1,0-3.3-3.3A3.3,3.3,0,0,0,1635.5,206.145Z" transform="translate(-1557.897 357.758)"/>
      <path id="Path_1407" data-name="Path 1407" d="M1652,206.145a3.3,3.3,0,1,0-3.294-3.3A3.3,3.3,0,0,0,1652,206.145Z" transform="translate(-1537.242 357.758)"/>
      <path id="Path_1408" data-name="Path 1408" d="M1668.5,206.145a3.3,3.3,0,1,0-3.3-3.3A3.295,3.295,0,0,0,1668.5,206.145Z" transform="translate(-1516.59 357.758)"/>
      <path id="Path_1409" data-name="Path 1409" d="M1685,206.145a3.3,3.3,0,1,0-3.294-3.3A3.3,3.3,0,0,0,1685,206.145Z" transform="translate(-1495.934 357.758)"/>
      <circle id="Ellipse_156" data-name="Ellipse 156" cx="3.298" cy="3.298" r="3.298" transform="translate(222.922 557.309)"/>
      <path id="Path_1410" data-name="Path 1410" d="M1718,206.145a3.3,3.3,0,1,0-3.3-3.3A3.3,3.3,0,0,0,1718,206.145Z" transform="translate(-1454.628 357.758)"/>
      <path id="Path_1411" data-name="Path 1411" d="M1734.5,206.145a3.3,3.3,0,1,0-3.294-3.3A3.3,3.3,0,0,0,1734.5,206.145Z" transform="translate(-1433.973 357.758)"/>
      <path id="Path_1412" data-name="Path 1412" d="M1751,206.145a3.3,3.3,0,1,0-3.3-3.3A3.3,3.3,0,0,0,1751,206.145Z" transform="translate(-1413.32 357.758)"/>
      <path id="Path_1413" data-name="Path 1413" d="M1767.5,206.145a3.3,3.3,0,1,0-3.295-3.3A3.3,3.3,0,0,0,1767.5,206.145Z" transform="translate(-1392.665 357.758)"/>
      <circle id="Ellipse_157" data-name="Ellipse 157" cx="3.298" cy="3.298" r="3.298" transform="translate(408.691 557.309)"/>
      <path id="Path_1414" data-name="Path 1414" d="M1800.5,206.145a3.3,3.3,0,1,0-3.3-3.3A3.3,3.3,0,0,0,1800.5,206.145Z" transform="translate(-1351.359 357.758)"/>
      <path id="Path_1415" data-name="Path 1415" d="M1817,206.145a3.3,3.3,0,1,0-3.295-3.3A3.3,3.3,0,0,0,1817,206.145Z" transform="translate(-1330.703 357.758)"/>
      <path id="Path_1416" data-name="Path 1416" d="M1833.5,206.145a3.3,3.3,0,1,0-3.3-3.3A3.295,3.295,0,0,0,1833.5,206.145Z" transform="translate(-1310.051 357.758)"/>
      <path id="Path_1417" data-name="Path 1417" d="M1850,206.145a3.3,3.3,0,1,0-3.295-3.3A3.3,3.3,0,0,0,1850,206.145Z" transform="translate(-1289.395 357.758)"/>
      <circle id="Ellipse_158" data-name="Ellipse 158" cx="3.298" cy="3.298" r="3.298" transform="translate(594.461 557.309)"/>
      <path id="Path_1418" data-name="Path 1418" d="M1883,206.145a3.3,3.3,0,1,0-3.3-3.3A3.3,3.3,0,0,0,1883,206.145Z" transform="translate(-1248.089 357.758)"/>
      <path id="Path_1419" data-name="Path 1419" d="M1899.5,206.145a3.3,3.3,0,1,0-3.294-3.3A3.3,3.3,0,0,0,1899.5,206.145Z" transform="translate(-1227.434 357.758)"/>
      <path id="Path_1420" data-name="Path 1420" d="M1916,206.145a3.3,3.3,0,1,0-3.3-3.3A3.295,3.295,0,0,0,1916,206.145Z" transform="translate(-1206.781 357.758)"/>
      <path id="Path_1421" data-name="Path 1421" d="M1932.5,206.145a3.3,3.3,0,1,0-3.294-3.3A3.3,3.3,0,0,0,1932.5,206.145Z" transform="translate(-1186.126 357.758)"/>
      <circle id="Ellipse_159" data-name="Ellipse 159" cx="3.298" cy="3.298" r="3.298" transform="translate(780.23 557.309)"/>
      <path id="Path_1422" data-name="Path 1422" d="M1610.748,222.645a3.3,3.3,0,1,0-3.294-3.3A3.3,3.3,0,0,0,1610.748,222.645Z" transform="translate(-1588.877 378.411)"/>
      <path id="Path_1423" data-name="Path 1423" d="M1627.252,222.645a3.3,3.3,0,1,0-3.3-3.3A3.3,3.3,0,0,0,1627.252,222.645Z" transform="translate(-1568.224 378.411)"/>
      <path id="Path_1424" data-name="Path 1424" d="M1643.748,222.645a3.3,3.3,0,1,0-3.294-3.3A3.3,3.3,0,0,0,1643.748,222.645Z" transform="translate(-1547.569 378.411)"/>
      <circle id="Ellipse_160" data-name="Ellipse 160" cx="3.298" cy="3.298" r="3.298" transform="translate(130.037 594.462)"/>
      <path id="Path_1425" data-name="Path 1425" d="M1676.751,222.645a3.3,3.3,0,1,0-3.3-3.3A3.3,3.3,0,0,0,1676.751,222.645Z" transform="translate(-1506.262 378.411)"/>
      <path id="Path_1426" data-name="Path 1426" d="M1693.248,222.645a3.3,3.3,0,1,0-3.295-3.3A3.3,3.3,0,0,0,1693.248,222.645Z" transform="translate(-1485.607 378.411)"/>
      <path id="Path_1427" data-name="Path 1427" d="M1709.752,222.645a3.3,3.3,0,1,0-3.3-3.3A3.3,3.3,0,0,0,1709.752,222.645Z" transform="translate(-1464.955 378.411)"/>
      <path id="Path_1428" data-name="Path 1428" d="M1726.248,222.645a3.3,3.3,0,1,0-3.294-3.3A3.3,3.3,0,0,0,1726.248,222.645Z" transform="translate(-1444.3 378.411)"/>
      <circle id="Ellipse_161" data-name="Ellipse 161" cx="3.298" cy="3.298" r="3.298" transform="translate(315.806 594.462)"/>
      <path id="Path_1429" data-name="Path 1429" d="M1759.252,222.645a3.3,3.3,0,1,0-3.3-3.3A3.3,3.3,0,0,0,1759.252,222.645Z" transform="translate(-1402.993 378.411)"/>
      <path id="Path_1430" data-name="Path 1430" d="M1775.748,222.645a3.3,3.3,0,1,0-3.294-3.3A3.3,3.3,0,0,0,1775.748,222.645Z" transform="translate(-1382.338 378.411)"/>
      <path id="Path_1431" data-name="Path 1431" d="M1792.251,222.645a3.3,3.3,0,1,0-3.3-3.3A3.3,3.3,0,0,0,1792.251,222.645Z" transform="translate(-1361.685 378.411)"/>
      <path id="Path_1432" data-name="Path 1432" d="M1808.748,222.645a3.3,3.3,0,1,0-3.294-3.3A3.3,3.3,0,0,0,1808.748,222.645Z" transform="translate(-1341.03 378.411)"/>
      <circle id="Ellipse_162" data-name="Ellipse 162" cx="3.298" cy="3.298" r="3.298" transform="translate(501.576 594.462)"/>
      <path id="Path_1433" data-name="Path 1433" d="M1841.752,222.645a3.3,3.3,0,1,0-3.3-3.3A3.3,3.3,0,0,0,1841.752,222.645Z" transform="translate(-1299.724 378.411)"/>
      <path id="Path_1434" data-name="Path 1434" d="M1858.248,222.645a3.3,3.3,0,1,0-3.294-3.3A3.3,3.3,0,0,0,1858.248,222.645Z" transform="translate(-1279.068 378.411)"/>
      <path id="Path_1435" data-name="Path 1435" d="M1874.752,222.645a3.3,3.3,0,1,0-3.3-3.3A3.3,3.3,0,0,0,1874.752,222.645Z" transform="translate(-1258.416 378.411)"/>
      <path id="Path_1436" data-name="Path 1436" d="M1891.248,222.645a3.3,3.3,0,1,0-3.294-3.3A3.3,3.3,0,0,0,1891.248,222.645Z" transform="translate(-1237.761 378.411)"/>
      <circle id="Ellipse_163" data-name="Ellipse 163" cx="3.298" cy="3.298" r="3.298" transform="translate(687.346 594.462)"/>
      <path id="Path_1437" data-name="Path 1437" d="M1924.252,222.645a3.3,3.3,0,1,0-3.3-3.3A3.3,3.3,0,0,0,1924.252,222.645Z" transform="translate(-1196.454 378.411)"/>
      <path id="Path_1438" data-name="Path 1438" d="M1940.748,222.645a3.3,3.3,0,1,0-3.294-3.3A3.3,3.3,0,0,0,1940.748,222.645Z" transform="translate(-1175.799 378.411)"/>
      <path id="Path_1439" data-name="Path 1439" d="M1957.252,222.645a3.3,3.3,0,1,0-3.3-3.3A3.3,3.3,0,0,0,1957.252,222.645Z" transform="translate(-1155.146 378.411)"/>
      <path id="Path_1440" data-name="Path 1440" d="M1602.5,239.145a3.3,3.3,0,1,0-3.294-3.3A3.3,3.3,0,0,0,1602.5,239.145Z" transform="translate(-1599.204 399.065)"/>
      <path id="Path_1441" data-name="Path 1441" d="M1619,239.145a3.3,3.3,0,1,0-3.3-3.3A3.3,3.3,0,0,0,1619,239.145Z" transform="translate(-1578.551 399.065)"/>
      <path id="Path_1442" data-name="Path 1442" d="M1635.5,239.145a3.3,3.3,0,1,0-3.3-3.3A3.3,3.3,0,0,0,1635.5,239.145Z" transform="translate(-1557.897 399.065)"/>
      <path id="Path_1443" data-name="Path 1443" d="M1652,239.145a3.3,3.3,0,1,0-3.294-3.3A3.3,3.3,0,0,0,1652,239.145Z" transform="translate(-1537.242 399.065)"/>
      <path id="Path_1444" data-name="Path 1444" d="M1668.5,239.145a3.3,3.3,0,1,0-3.3-3.3A3.3,3.3,0,0,0,1668.5,239.145Z" transform="translate(-1516.59 399.065)"/>
      <path id="Path_1445" data-name="Path 1445" d="M1685,239.145a3.3,3.3,0,1,0-3.294-3.3A3.3,3.3,0,0,0,1685,239.145Z" transform="translate(-1495.934 399.065)"/>
      <path id="Path_1446" data-name="Path 1446" d="M1701.5,239.145a3.3,3.3,0,1,0-3.3-3.3A3.3,3.3,0,0,0,1701.5,239.145Z" transform="translate(-1475.281 399.065)"/>
      <path id="Path_1447" data-name="Path 1447" d="M1718,239.145a3.3,3.3,0,1,0-3.3-3.3A3.3,3.3,0,0,0,1718,239.145Z" transform="translate(-1454.628 399.065)"/>
      <path id="Path_1448" data-name="Path 1448" d="M1734.5,239.145a3.3,3.3,0,1,0-3.294-3.3A3.3,3.3,0,0,0,1734.5,239.145Z" transform="translate(-1433.973 399.065)"/>
      <path id="Path_1449" data-name="Path 1449" d="M1751,239.145a3.3,3.3,0,1,0-3.3-3.3A3.3,3.3,0,0,0,1751,239.145Z" transform="translate(-1413.32 399.065)"/>
      <path id="Path_1450" data-name="Path 1450" d="M1767.5,239.145a3.3,3.3,0,1,0-3.295-3.3A3.3,3.3,0,0,0,1767.5,239.145Z" transform="translate(-1392.665 399.065)"/>
      <path id="Path_1451" data-name="Path 1451" d="M1784,239.145a3.3,3.3,0,1,0-3.3-3.3A3.3,3.3,0,0,0,1784,239.145Z" transform="translate(-1372.012 399.065)"/>
      <path id="Path_1452" data-name="Path 1452" d="M1800.5,239.145a3.3,3.3,0,1,0-3.3-3.3A3.3,3.3,0,0,0,1800.5,239.145Z" transform="translate(-1351.359 399.065)"/>
      <path id="Path_1453" data-name="Path 1453" d="M1817,239.145a3.3,3.3,0,1,0-3.295-3.3A3.3,3.3,0,0,0,1817,239.145Z" transform="translate(-1330.703 399.065)"/>
      <path id="Path_1454" data-name="Path 1454" d="M1833.5,239.145a3.3,3.3,0,1,0-3.3-3.3A3.3,3.3,0,0,0,1833.5,239.145Z" transform="translate(-1310.051 399.065)"/>
      <path id="Path_1455" data-name="Path 1455" d="M1850,239.145a3.3,3.3,0,1,0-3.295-3.3A3.3,3.3,0,0,0,1850,239.145Z" transform="translate(-1289.395 399.065)"/>
      <path id="Path_1456" data-name="Path 1456" d="M1866.5,239.145a3.3,3.3,0,1,0-3.3-3.3A3.3,3.3,0,0,0,1866.5,239.145Z" transform="translate(-1268.743 399.065)"/>
      <path id="Path_1457" data-name="Path 1457" d="M1883,239.145a3.3,3.3,0,1,0-3.3-3.3A3.3,3.3,0,0,0,1883,239.145Z" transform="translate(-1248.089 399.065)"/>
      <path id="Path_1458" data-name="Path 1458" d="M1899.5,239.145a3.3,3.3,0,1,0-3.294-3.3A3.3,3.3,0,0,0,1899.5,239.145Z" transform="translate(-1227.434 399.065)"/>
      <path id="Path_1459" data-name="Path 1459" d="M1916,239.145a3.3,3.3,0,1,0-3.3-3.3A3.3,3.3,0,0,0,1916,239.145Z" transform="translate(-1206.781 399.065)"/>
      <path id="Path_1460" data-name="Path 1460" d="M1932.5,239.145a3.3,3.3,0,1,0-3.294-3.3A3.3,3.3,0,0,0,1932.5,239.145Z" transform="translate(-1186.126 399.065)"/>
      <path id="Path_1461" data-name="Path 1461" d="M1949,239.145a3.3,3.3,0,1,0-3.3-3.3A3.3,3.3,0,0,0,1949,239.145Z" transform="translate(-1165.473 399.065)"/>
      <path id="Path_1462" data-name="Path 1462" d="M1610.748,255.645a3.3,3.3,0,1,0-3.294-3.3A3.3,3.3,0,0,0,1610.748,255.645Z" transform="translate(-1588.877 419.719)"/>
      <path id="Path_1463" data-name="Path 1463" d="M1627.252,255.645a3.3,3.3,0,1,0-3.3-3.3A3.295,3.295,0,0,0,1627.252,255.645Z" transform="translate(-1568.224 419.719)"/>
      <path id="Path_1464" data-name="Path 1464" d="M1643.748,255.645a3.3,3.3,0,1,0-3.294-3.3A3.3,3.3,0,0,0,1643.748,255.645Z" transform="translate(-1547.569 419.719)"/>
      <path id="Path_1465" data-name="Path 1465" d="M1660.252,255.645a3.3,3.3,0,1,0-3.3-3.3A3.3,3.3,0,0,0,1660.252,255.645Z" transform="translate(-1526.916 419.719)"/>
      <path id="Path_1466" data-name="Path 1466" d="M1676.751,255.645a3.3,3.3,0,1,0-3.3-3.3A3.3,3.3,0,0,0,1676.751,255.645Z" transform="translate(-1506.262 419.719)"/>
      <path id="Path_1467" data-name="Path 1467" d="M1693.248,255.645a3.3,3.3,0,1,0-3.295-3.3A3.3,3.3,0,0,0,1693.248,255.645Z" transform="translate(-1485.607 419.719)"/>
      <path id="Path_1468" data-name="Path 1468" d="M1709.752,255.645a3.3,3.3,0,1,0-3.3-3.3A3.295,3.295,0,0,0,1709.752,255.645Z" transform="translate(-1464.955 419.719)"/>
      <path id="Path_1469" data-name="Path 1469" d="M1726.248,255.645a3.3,3.3,0,1,0-3.294-3.3A3.3,3.3,0,0,0,1726.248,255.645Z" transform="translate(-1444.3 419.719)"/>
      <path id="Path_1470" data-name="Path 1470" d="M1742.751,255.645a3.3,3.3,0,1,0-3.3-3.3A3.3,3.3,0,0,0,1742.751,255.645Z" transform="translate(-1423.647 419.719)"/>
      <path id="Path_1471" data-name="Path 1471" d="M1759.252,255.645a3.3,3.3,0,1,0-3.3-3.3A3.3,3.3,0,0,0,1759.252,255.645Z" transform="translate(-1402.993 419.719)"/>
      <path id="Path_1472" data-name="Path 1472" d="M1775.748,255.645a3.3,3.3,0,1,0-3.294-3.3A3.3,3.3,0,0,0,1775.748,255.645Z" transform="translate(-1382.338 419.719)"/>
      <path id="Path_1473" data-name="Path 1473" d="M1792.251,255.645a3.3,3.3,0,1,0-3.3-3.3A3.295,3.295,0,0,0,1792.251,255.645Z" transform="translate(-1361.685 419.719)"/>
      <path id="Path_1474" data-name="Path 1474" d="M1808.748,255.645a3.3,3.3,0,1,0-3.294-3.3A3.3,3.3,0,0,0,1808.748,255.645Z" transform="translate(-1341.03 419.719)"/>
      <path id="Path_1475" data-name="Path 1475" d="M1825.252,255.645a3.3,3.3,0,1,0-3.3-3.3A3.295,3.295,0,0,0,1825.252,255.645Z" transform="translate(-1320.378 419.719)"/>
      <path id="Path_1476" data-name="Path 1476" d="M1841.752,255.645a3.3,3.3,0,1,0-3.3-3.3A3.3,3.3,0,0,0,1841.752,255.645Z" transform="translate(-1299.724 419.719)"/>
      <path id="Path_1477" data-name="Path 1477" d="M1858.248,255.645a3.3,3.3,0,1,0-3.294-3.3A3.3,3.3,0,0,0,1858.248,255.645Z" transform="translate(-1279.068 419.719)"/>
      <path id="Path_1478" data-name="Path 1478" d="M1874.752,255.645a3.3,3.3,0,1,0-3.3-3.3A3.295,3.295,0,0,0,1874.752,255.645Z" transform="translate(-1258.416 419.719)"/>
      <path id="Path_1479" data-name="Path 1479" d="M1891.248,255.645a3.3,3.3,0,1,0-3.294-3.3A3.3,3.3,0,0,0,1891.248,255.645Z" transform="translate(-1237.761 419.719)"/>
      <path id="Path_1480" data-name="Path 1480" d="M1907.751,255.645a3.3,3.3,0,1,0-3.3-3.3A3.3,3.3,0,0,0,1907.751,255.645Z" transform="translate(-1217.108 419.719)"/>
      <path id="Path_1481" data-name="Path 1481" d="M1924.252,255.645a3.3,3.3,0,1,0-3.3-3.3A3.3,3.3,0,0,0,1924.252,255.645Z" transform="translate(-1196.454 419.719)"/>
      <path id="Path_1482" data-name="Path 1482" d="M1940.748,255.645a3.3,3.3,0,1,0-3.294-3.3A3.3,3.3,0,0,0,1940.748,255.645Z" transform="translate(-1175.799 419.719)"/>
      <path id="Path_1483" data-name="Path 1483" d="M1957.252,255.645a3.3,3.3,0,1,0-3.3-3.3A3.295,3.295,0,0,0,1957.252,255.645Z" transform="translate(-1155.146 419.719)"/>
      <path id="Path_1484" data-name="Path 1484" d="M1602.5,272.145a3.3,3.3,0,1,0-3.294-3.3A3.3,3.3,0,0,0,1602.5,272.145Z" transform="translate(-1599.204 440.373)"/>
      <path id="Path_1485" data-name="Path 1485" d="M1619,272.145a3.3,3.3,0,1,0-3.3-3.3A3.3,3.3,0,0,0,1619,272.145Z" transform="translate(-1578.551 440.373)"/>
      <path id="Path_1486" data-name="Path 1486" d="M1635.5,272.145a3.3,3.3,0,1,0-3.3-3.3A3.3,3.3,0,0,0,1635.5,272.145Z" transform="translate(-1557.897 440.373)"/>
      <path id="Path_1487" data-name="Path 1487" d="M1652,272.145a3.3,3.3,0,1,0-3.294-3.3A3.3,3.3,0,0,0,1652,272.145Z" transform="translate(-1537.242 440.373)"/>
      <path id="Path_1488" data-name="Path 1488" d="M1668.5,272.145a3.3,3.3,0,1,0-3.3-3.3A3.295,3.295,0,0,0,1668.5,272.145Z" transform="translate(-1516.59 440.373)"/>
      <path id="Path_1489" data-name="Path 1489" d="M1685,272.145a3.3,3.3,0,1,0-3.294-3.3A3.3,3.3,0,0,0,1685,272.145Z" transform="translate(-1495.934 440.373)"/>
      <path id="Path_1490" data-name="Path 1490" d="M1701.5,272.145a3.3,3.3,0,1,0-3.3-3.3A3.3,3.3,0,0,0,1701.5,272.145Z" transform="translate(-1475.281 440.373)"/>
      <path id="Path_1491" data-name="Path 1491" d="M1718,272.145a3.3,3.3,0,1,0-3.3-3.3A3.3,3.3,0,0,0,1718,272.145Z" transform="translate(-1454.628 440.373)"/>
      <path id="Path_1492" data-name="Path 1492" d="M1734.5,272.145a3.3,3.3,0,1,0-3.294-3.3A3.3,3.3,0,0,0,1734.5,272.145Z" transform="translate(-1433.973 440.373)"/>
      <path id="Path_1493" data-name="Path 1493" d="M1751,272.145a3.3,3.3,0,1,0-3.3-3.3A3.3,3.3,0,0,0,1751,272.145Z" transform="translate(-1413.32 440.373)"/>
      <path id="Path_1494" data-name="Path 1494" d="M1767.5,272.145a3.3,3.3,0,1,0-3.295-3.3A3.3,3.3,0,0,0,1767.5,272.145Z" transform="translate(-1392.665 440.373)"/>
      <path id="Path_1495" data-name="Path 1495" d="M1784,272.145a3.3,3.3,0,1,0-3.3-3.3A3.3,3.3,0,0,0,1784,272.145Z" transform="translate(-1372.012 440.373)"/>
      <path id="Path_1496" data-name="Path 1496" d="M1800.5,272.145a3.3,3.3,0,1,0-3.3-3.3A3.3,3.3,0,0,0,1800.5,272.145Z" transform="translate(-1351.359 440.373)"/>
      <path id="Path_1497" data-name="Path 1497" d="M1817,272.145a3.3,3.3,0,1,0-3.295-3.3A3.3,3.3,0,0,0,1817,272.145Z" transform="translate(-1330.703 440.373)"/>
      <path id="Path_1498" data-name="Path 1498" d="M1833.5,272.145a3.3,3.3,0,1,0-3.3-3.3A3.295,3.295,0,0,0,1833.5,272.145Z" transform="translate(-1310.051 440.373)"/>
      <path id="Path_1499" data-name="Path 1499" d="M1850,272.145a3.3,3.3,0,1,0-3.295-3.3A3.3,3.3,0,0,0,1850,272.145Z" transform="translate(-1289.395 440.373)"/>
      <path id="Path_1500" data-name="Path 1500" d="M1866.5,272.145a3.3,3.3,0,1,0-3.3-3.3A3.295,3.295,0,0,0,1866.5,272.145Z" transform="translate(-1268.743 440.373)"/>
      <path id="Path_1501" data-name="Path 1501" d="M1883,272.145a3.3,3.3,0,1,0-3.3-3.3A3.3,3.3,0,0,0,1883,272.145Z" transform="translate(-1248.089 440.373)"/>
      <path id="Path_1502" data-name="Path 1502" d="M1899.5,272.145a3.3,3.3,0,1,0-3.294-3.3A3.3,3.3,0,0,0,1899.5,272.145Z" transform="translate(-1227.434 440.373)"/>
      <path id="Path_1503" data-name="Path 1503" d="M1916,272.145a3.3,3.3,0,1,0-3.3-3.3A3.295,3.295,0,0,0,1916,272.145Z" transform="translate(-1206.781 440.373)"/>
      <path id="Path_1504" data-name="Path 1504" d="M1932.5,272.145a3.3,3.3,0,1,0-3.294-3.3A3.3,3.3,0,0,0,1932.5,272.145Z" transform="translate(-1186.126 440.373)"/>
      <path id="Path_1505" data-name="Path 1505" d="M1949,272.145a3.3,3.3,0,1,0-3.3-3.3A3.3,3.3,0,0,0,1949,272.145Z" transform="translate(-1165.473 440.373)"/>
      <path id="Path_1506" data-name="Path 1506" d="M1610.748,288.645a3.3,3.3,0,1,0-3.294-3.3A3.3,3.3,0,0,0,1610.748,288.645Z" transform="translate(-1588.877 461.027)"/>
      <path id="Path_1507" data-name="Path 1507" d="M1627.252,288.645a3.3,3.3,0,1,0-3.3-3.3A3.295,3.295,0,0,0,1627.252,288.645Z" transform="translate(-1568.224 461.027)"/>
      <path id="Path_1508" data-name="Path 1508" d="M1643.748,288.645a3.3,3.3,0,1,0-3.294-3.3A3.3,3.3,0,0,0,1643.748,288.645Z" transform="translate(-1547.569 461.027)"/>
      <circle id="Ellipse_164" data-name="Ellipse 164" cx="3.298" cy="3.298" r="3.298" transform="translate(130.037 743.078)"/>
      <path id="Path_1509" data-name="Path 1509" d="M1676.751,288.645a3.3,3.3,0,1,0-3.3-3.3A3.3,3.3,0,0,0,1676.751,288.645Z" transform="translate(-1506.262 461.027)"/>
      <path id="Path_1510" data-name="Path 1510" d="M1693.248,288.645a3.3,3.3,0,1,0-3.295-3.3A3.3,3.3,0,0,0,1693.248,288.645Z" transform="translate(-1485.607 461.027)"/>
      <path id="Path_1511" data-name="Path 1511" d="M1709.752,288.645a3.3,3.3,0,1,0-3.3-3.3A3.295,3.295,0,0,0,1709.752,288.645Z" transform="translate(-1464.955 461.027)"/>
      <path id="Path_1512" data-name="Path 1512" d="M1726.248,288.645a3.3,3.3,0,1,0-3.294-3.3A3.3,3.3,0,0,0,1726.248,288.645Z" transform="translate(-1444.3 461.027)"/>
      <circle id="Ellipse_165" data-name="Ellipse 165" cx="3.298" cy="3.298" r="3.298" transform="translate(315.806 743.078)"/>
      <path id="Path_1513" data-name="Path 1513" d="M1759.252,288.645a3.3,3.3,0,1,0-3.3-3.3A3.3,3.3,0,0,0,1759.252,288.645Z" transform="translate(-1402.993 461.027)"/>
      <path id="Path_1514" data-name="Path 1514" d="M1775.748,288.645a3.3,3.3,0,1,0-3.294-3.3A3.3,3.3,0,0,0,1775.748,288.645Z" transform="translate(-1382.338 461.027)"/>
      <path id="Path_1515" data-name="Path 1515" d="M1792.251,288.645a3.3,3.3,0,1,0-3.3-3.3A3.295,3.295,0,0,0,1792.251,288.645Z" transform="translate(-1361.685 461.027)"/>
      <path id="Path_1516" data-name="Path 1516" d="M1808.748,288.645a3.3,3.3,0,1,0-3.294-3.3A3.3,3.3,0,0,0,1808.748,288.645Z" transform="translate(-1341.03 461.027)"/>
      <circle id="Ellipse_166" data-name="Ellipse 166" cx="3.298" cy="3.298" r="3.298" transform="translate(501.576 743.078)"/>
      <path id="Path_1517" data-name="Path 1517" d="M1841.752,288.645a3.3,3.3,0,1,0-3.3-3.3A3.3,3.3,0,0,0,1841.752,288.645Z" transform="translate(-1299.724 461.027)"/>
      <path id="Path_1518" data-name="Path 1518" d="M1858.248,288.645a3.3,3.3,0,1,0-3.294-3.3A3.3,3.3,0,0,0,1858.248,288.645Z" transform="translate(-1279.068 461.027)"/>
      <path id="Path_1519" data-name="Path 1519" d="M1874.752,288.645a3.3,3.3,0,1,0-3.3-3.3A3.295,3.295,0,0,0,1874.752,288.645Z" transform="translate(-1258.416 461.027)"/>
      <path id="Path_1520" data-name="Path 1520" d="M1891.248,288.645a3.3,3.3,0,1,0-3.294-3.3A3.3,3.3,0,0,0,1891.248,288.645Z" transform="translate(-1237.761 461.027)"/>
      <circle id="Ellipse_167" data-name="Ellipse 167" cx="3.298" cy="3.298" r="3.298" transform="translate(687.346 743.078)"/>
      <path id="Path_1521" data-name="Path 1521" d="M1924.252,288.645a3.3,3.3,0,1,0-3.3-3.3A3.3,3.3,0,0,0,1924.252,288.645Z" transform="translate(-1196.454 461.027)"/>
      <path id="Path_1522" data-name="Path 1522" d="M1940.748,288.645a3.3,3.3,0,1,0-3.294-3.3A3.3,3.3,0,0,0,1940.748,288.645Z" transform="translate(-1175.799 461.027)"/>
      <path id="Path_1523" data-name="Path 1523" d="M1957.252,288.645a3.3,3.3,0,1,0-3.3-3.3A3.295,3.295,0,0,0,1957.252,288.645Z" transform="translate(-1155.146 461.027)"/>
      <path id="Path_1524" data-name="Path 1524" d="M1602.5,305.145a3.3,3.3,0,1,0-3.294-3.3A3.3,3.3,0,0,0,1602.5,305.145Z" transform="translate(-1599.204 481.681)"/>
      <circle id="Ellipse_168" data-name="Ellipse 168" cx="3.298" cy="3.298" r="3.298" transform="translate(37.152 780.232)"/>
      <path id="Path_1525" data-name="Path 1525" d="M1635.5,305.145a3.3,3.3,0,1,0-3.3-3.3A3.3,3.3,0,0,0,1635.5,305.145Z" transform="translate(-1557.897 481.681)"/>
      <path id="Path_1526" data-name="Path 1526" d="M1652,305.145a3.3,3.3,0,1,0-3.294-3.3A3.3,3.3,0,0,0,1652,305.145Z" transform="translate(-1537.242 481.681)"/>
      <path id="Path_1527" data-name="Path 1527" d="M1668.5,305.145a3.3,3.3,0,1,0-3.3-3.3A3.3,3.3,0,0,0,1668.5,305.145Z" transform="translate(-1516.59 481.681)"/>
      <path id="Path_1528" data-name="Path 1528" d="M1685,305.145a3.3,3.3,0,1,0-3.294-3.3A3.3,3.3,0,0,0,1685,305.145Z" transform="translate(-1495.934 481.681)"/>
      <circle id="Ellipse_169" data-name="Ellipse 169" cx="3.298" cy="3.298" r="3.298" transform="translate(222.922 780.232)"/>
      <path id="Path_1529" data-name="Path 1529" d="M1718,305.145a3.3,3.3,0,1,0-3.3-3.3A3.3,3.3,0,0,0,1718,305.145Z" transform="translate(-1454.628 481.681)"/>
      <path id="Path_1530" data-name="Path 1530" d="M1734.5,305.145a3.3,3.3,0,1,0-3.294-3.3A3.3,3.3,0,0,0,1734.5,305.145Z" transform="translate(-1433.973 481.681)"/>
      <path id="Path_1531" data-name="Path 1531" d="M1751,305.145a3.3,3.3,0,1,0-3.3-3.3A3.3,3.3,0,0,0,1751,305.145Z" transform="translate(-1413.32 481.681)"/>
      <path id="Path_1532" data-name="Path 1532" d="M1767.5,305.145a3.3,3.3,0,1,0-3.295-3.3A3.3,3.3,0,0,0,1767.5,305.145Z" transform="translate(-1392.665 481.681)"/>
      <circle id="Ellipse_170" data-name="Ellipse 170" cx="3.298" cy="3.298" r="3.298" transform="translate(408.691 780.232)"/>
      <path id="Path_1533" data-name="Path 1533" d="M1800.5,305.145a3.3,3.3,0,1,0-3.3-3.3A3.3,3.3,0,0,0,1800.5,305.145Z" transform="translate(-1351.359 481.681)"/>
      <path id="Path_1534" data-name="Path 1534" d="M1817,305.145a3.3,3.3,0,1,0-3.295-3.3A3.3,3.3,0,0,0,1817,305.145Z" transform="translate(-1330.703 481.681)"/>
      <path id="Path_1535" data-name="Path 1535" d="M1833.5,305.145a3.3,3.3,0,1,0-3.3-3.3A3.3,3.3,0,0,0,1833.5,305.145Z" transform="translate(-1310.051 481.681)"/>
      <path id="Path_1536" data-name="Path 1536" d="M1850,305.145a3.3,3.3,0,1,0-3.295-3.3A3.3,3.3,0,0,0,1850,305.145Z" transform="translate(-1289.395 481.681)"/>
      <circle id="Ellipse_171" data-name="Ellipse 171" cx="3.298" cy="3.298" r="3.298" transform="translate(594.461 780.232)"/>
      <path id="Path_1537" data-name="Path 1537" d="M1883,305.145a3.3,3.3,0,1,0-3.3-3.3A3.3,3.3,0,0,0,1883,305.145Z" transform="translate(-1248.089 481.681)"/>
      <path id="Path_1538" data-name="Path 1538" d="M1899.5,305.145a3.3,3.3,0,1,0-3.294-3.3A3.3,3.3,0,0,0,1899.5,305.145Z" transform="translate(-1227.434 481.681)"/>
      <path id="Path_1539" data-name="Path 1539" d="M1916,305.145a3.3,3.3,0,1,0-3.3-3.3A3.3,3.3,0,0,0,1916,305.145Z" transform="translate(-1206.781 481.681)"/>
      <path id="Path_1540" data-name="Path 1540" d="M1932.5,305.145a3.3,3.3,0,1,0-3.294-3.3A3.3,3.3,0,0,0,1932.5,305.145Z" transform="translate(-1186.126 481.681)"/>
      <circle id="Ellipse_172" data-name="Ellipse 172" cx="3.298" cy="3.298" r="3.298" transform="translate(780.23 780.232)"/>
    </g>
  </g>
</svg>
