<svg xmlns="http://www.w3.org/2000/svg" xmlns:xlink="http://www.w3.org/1999/xlink" width="276" height="267" viewBox="0 0 276 267">
  <defs>
    <clipPath id="clip-path">
      <path id="Path_1981" data-name="Path 1981" d="M0,0H276V267H0Z" transform="translate(1128.114 298.032)" fill="#fff" stroke="#707070" stroke-width="1"/>
    </clipPath>
    <clipPath id="clip-path-2">
      <rect id="SVGID" width="745" height="742" transform="translate(-0.1 -0.279)" fill="none"/>
    </clipPath>
  </defs>
  <g id="Mask_Group_4" data-name="Mask Group 4" transform="translate(-1128.114 -298.032)" opacity="0.45" clip-path="url(#clip-path)">
    <g id="Group_76" data-name="Group 76" transform="translate(789.215 -46.689)">
      <g id="Group_75" data-name="Group 75" transform="translate(0 0)">
        <rect id="SVGID-2" data-name="SVGID" width="745" height="742" transform="translate(-0.1 -0.279)" fill="none"/>
      </g>
    </g>
    <g id="Group_77" data-name="Group 77" transform="translate(742.579 -87.419)">
      <path id="Path_1542" data-name="Path 1542" d="M1610.748-41.355a3.3,3.3,0,0,0,3.3-3.3,3.3,3.3,0,0,0-3.3-3.3,3.3,3.3,0,0,0-3.294,3.3A3.3,3.3,0,0,0,1610.748-41.355Z" transform="translate(-1588.877 47.949)"/>
      <path id="Path_1543" data-name="Path 1543" d="M1627.252-41.355a3.3,3.3,0,0,0,3.294-3.3,3.3,3.3,0,0,0-3.294-3.3,3.3,3.3,0,0,0-3.3,3.3A3.3,3.3,0,0,0,1627.252-41.355Z" transform="translate(-1568.224 47.949)"/>
      <path id="Path_1544" data-name="Path 1544" d="M1643.748-41.355a3.3,3.3,0,0,0,3.3-3.3,3.3,3.3,0,0,0-3.3-3.3,3.3,3.3,0,0,0-3.294,3.3A3.3,3.3,0,0,0,1643.748-41.355Z" transform="translate(-1547.569 47.949)"/>
      <circle id="Ellipse_173" data-name="Ellipse 173" cx="3.298" cy="3.298" r="3.298" transform="translate(130.037)"/>
      <path id="Path_1545" data-name="Path 1545" d="M1676.751-41.355a3.3,3.3,0,0,0,3.3-3.3,3.3,3.3,0,0,0-3.3-3.3,3.3,3.3,0,0,0-3.3,3.3A3.3,3.3,0,0,0,1676.751-41.355Z" transform="translate(-1506.262 47.949)"/>
      <path id="Path_1546" data-name="Path 1546" d="M1693.248-41.355a3.3,3.3,0,0,0,3.3-3.3,3.3,3.3,0,0,0-3.3-3.3,3.3,3.3,0,0,0-3.295,3.3A3.3,3.3,0,0,0,1693.248-41.355Z" transform="translate(-1485.607 47.949)"/>
      <path id="Path_1547" data-name="Path 1547" d="M1709.752-41.355a3.3,3.3,0,0,0,3.294-3.3,3.3,3.3,0,0,0-3.294-3.3,3.3,3.3,0,0,0-3.3,3.3A3.3,3.3,0,0,0,1709.752-41.355Z" transform="translate(-1464.955 47.949)"/>
      <path id="Path_1548" data-name="Path 1548" d="M1726.248-41.355a3.3,3.3,0,0,0,3.3-3.3,3.3,3.3,0,0,0-3.3-3.3,3.3,3.3,0,0,0-3.294,3.3A3.3,3.3,0,0,0,1726.248-41.355Z" transform="translate(-1444.3 47.949)"/>
      <circle id="Ellipse_174" data-name="Ellipse 174" cx="3.298" cy="3.298" r="3.298" transform="translate(315.806)"/>
      <path id="Path_1549" data-name="Path 1549" d="M1759.252-41.355a3.3,3.3,0,0,0,3.3-3.3,3.3,3.3,0,0,0-3.3-3.3,3.3,3.3,0,0,0-3.3,3.3A3.3,3.3,0,0,0,1759.252-41.355Z" transform="translate(-1402.993 47.949)"/>
      <path id="Path_1550" data-name="Path 1550" d="M1775.748-41.355a3.3,3.3,0,0,0,3.3-3.3,3.3,3.3,0,0,0-3.3-3.3,3.3,3.3,0,0,0-3.294,3.3A3.3,3.3,0,0,0,1775.748-41.355Z" transform="translate(-1382.338 47.949)"/>
      <path id="Path_1551" data-name="Path 1551" d="M1792.251-41.355a3.3,3.3,0,0,0,3.294-3.3,3.3,3.3,0,0,0-3.294-3.3,3.3,3.3,0,0,0-3.3,3.3A3.3,3.3,0,0,0,1792.251-41.355Z" transform="translate(-1361.685 47.949)"/>
      <path id="Path_1552" data-name="Path 1552" d="M1808.748-41.355a3.3,3.3,0,0,0,3.3-3.3,3.3,3.3,0,0,0-3.3-3.3,3.3,3.3,0,0,0-3.294,3.3A3.3,3.3,0,0,0,1808.748-41.355Z" transform="translate(-1341.03 47.949)"/>
      <circle id="Ellipse_175" data-name="Ellipse 175" cx="3.298" cy="3.298" r="3.298" transform="translate(501.576)"/>
      <path id="Path_1553" data-name="Path 1553" d="M1841.752-41.355a3.3,3.3,0,0,0,3.3-3.3,3.3,3.3,0,0,0-3.3-3.3,3.3,3.3,0,0,0-3.3,3.3A3.3,3.3,0,0,0,1841.752-41.355Z" transform="translate(-1299.724 47.949)"/>
      <path id="Path_1554" data-name="Path 1554" d="M1858.248-41.355a3.3,3.3,0,0,0,3.3-3.3,3.3,3.3,0,0,0-3.3-3.3,3.3,3.3,0,0,0-3.294,3.3A3.3,3.3,0,0,0,1858.248-41.355Z" transform="translate(-1279.068 47.949)"/>
      <path id="Path_1555" data-name="Path 1555" d="M1874.752-41.355a3.3,3.3,0,0,0,3.294-3.3,3.3,3.3,0,0,0-3.294-3.3,3.3,3.3,0,0,0-3.3,3.3A3.3,3.3,0,0,0,1874.752-41.355Z" transform="translate(-1258.416 47.949)"/>
      <path id="Path_1556" data-name="Path 1556" d="M1891.248-41.355a3.3,3.3,0,0,0,3.3-3.3,3.3,3.3,0,0,0-3.3-3.3,3.3,3.3,0,0,0-3.294,3.3A3.3,3.3,0,0,0,1891.248-41.355Z" transform="translate(-1237.761 47.949)"/>
      <circle id="Ellipse_176" data-name="Ellipse 176" cx="3.298" cy="3.298" r="3.298" transform="translate(687.346)"/>
      <path id="Path_1557" data-name="Path 1557" d="M1924.252-41.355a3.3,3.3,0,0,0,3.3-3.3,3.3,3.3,0,0,0-3.3-3.3,3.3,3.3,0,0,0-3.3,3.3A3.3,3.3,0,0,0,1924.252-41.355Z" transform="translate(-1196.454 47.949)"/>
      <path id="Path_1558" data-name="Path 1558" d="M1940.748-41.355a3.3,3.3,0,0,0,3.3-3.3,3.3,3.3,0,0,0-3.3-3.3,3.3,3.3,0,0,0-3.294,3.3A3.3,3.3,0,0,0,1940.748-41.355Z" transform="translate(-1175.799 47.949)"/>
      <path id="Path_1559" data-name="Path 1559" d="M1957.252-41.355a3.3,3.3,0,0,0,3.294-3.3,3.3,3.3,0,0,0-3.294-3.3,3.3,3.3,0,0,0-3.3,3.3A3.3,3.3,0,0,0,1957.252-41.355Z" transform="translate(-1155.146 47.949)"/>
      <path id="Path_1560" data-name="Path 1560" d="M1602.5-24.855a3.3,3.3,0,0,0,3.3-3.3,3.3,3.3,0,0,0-3.3-3.3,3.3,3.3,0,0,0-3.294,3.3A3.3,3.3,0,0,0,1602.5-24.855Z" transform="translate(-1599.204 68.603)"/>
      <circle id="Ellipse_177" data-name="Ellipse 177" cx="3.298" cy="3.298" r="3.298" transform="translate(37.152 37.154)"/>
      <path id="Path_1561" data-name="Path 1561" d="M1635.5-24.855a3.3,3.3,0,0,0,3.3-3.3,3.3,3.3,0,0,0-3.3-3.3,3.3,3.3,0,0,0-3.3,3.3A3.3,3.3,0,0,0,1635.5-24.855Z" transform="translate(-1557.897 68.603)"/>
      <path id="Path_1562" data-name="Path 1562" d="M1652-24.855a3.3,3.3,0,0,0,3.3-3.3,3.3,3.3,0,0,0-3.3-3.3,3.3,3.3,0,0,0-3.294,3.3A3.3,3.3,0,0,0,1652-24.855Z" transform="translate(-1537.242 68.603)"/>
      <path id="Path_1563" data-name="Path 1563" d="M1668.5-24.855a3.3,3.3,0,0,0,3.294-3.3,3.3,3.3,0,0,0-3.294-3.3,3.3,3.3,0,0,0-3.3,3.3A3.3,3.3,0,0,0,1668.5-24.855Z" transform="translate(-1516.59 68.603)"/>
      <path id="Path_1564" data-name="Path 1564" d="M1685-24.855a3.3,3.3,0,0,0,3.3-3.3,3.3,3.3,0,0,0-3.3-3.3,3.3,3.3,0,0,0-3.294,3.3A3.3,3.3,0,0,0,1685-24.855Z" transform="translate(-1495.934 68.603)"/>
      <circle id="Ellipse_178" data-name="Ellipse 178" cx="3.298" cy="3.298" r="3.298" transform="translate(222.922 37.154)"/>
      <path id="Path_1565" data-name="Path 1565" d="M1718-24.855a3.3,3.3,0,0,0,3.3-3.3,3.3,3.3,0,0,0-3.3-3.3,3.3,3.3,0,0,0-3.3,3.3A3.3,3.3,0,0,0,1718-24.855Z" transform="translate(-1454.628 68.603)"/>
      <path id="Path_1566" data-name="Path 1566" d="M1734.5-24.855a3.3,3.3,0,0,0,3.3-3.3,3.3,3.3,0,0,0-3.3-3.3,3.3,3.3,0,0,0-3.294,3.3A3.3,3.3,0,0,0,1734.5-24.855Z" transform="translate(-1433.973 68.603)"/>
      <path id="Path_1567" data-name="Path 1567" d="M1751-24.855a3.3,3.3,0,0,0,3.294-3.3,3.3,3.3,0,0,0-3.294-3.3,3.3,3.3,0,0,0-3.3,3.3A3.3,3.3,0,0,0,1751-24.855Z" transform="translate(-1413.32 68.603)"/>
      <path id="Path_1568" data-name="Path 1568" d="M1767.5-24.855a3.3,3.3,0,0,0,3.3-3.3,3.3,3.3,0,0,0-3.3-3.3,3.3,3.3,0,0,0-3.295,3.3A3.3,3.3,0,0,0,1767.5-24.855Z" transform="translate(-1392.665 68.603)"/>
      <circle id="Ellipse_179" data-name="Ellipse 179" cx="3.298" cy="3.298" r="3.298" transform="translate(408.691 37.154)"/>
      <path id="Path_1569" data-name="Path 1569" d="M1800.5-24.855a3.3,3.3,0,0,0,3.3-3.3,3.3,3.3,0,0,0-3.3-3.3,3.3,3.3,0,0,0-3.3,3.3A3.3,3.3,0,0,0,1800.5-24.855Z" transform="translate(-1351.359 68.603)"/>
      <path id="Path_1570" data-name="Path 1570" d="M1817-24.855a3.3,3.3,0,0,0,3.3-3.3,3.3,3.3,0,0,0-3.3-3.3,3.3,3.3,0,0,0-3.295,3.3A3.3,3.3,0,0,0,1817-24.855Z" transform="translate(-1330.703 68.603)"/>
      <path id="Path_1571" data-name="Path 1571" d="M1833.5-24.855a3.3,3.3,0,0,0,3.294-3.3,3.3,3.3,0,0,0-3.294-3.3,3.3,3.3,0,0,0-3.3,3.3A3.3,3.3,0,0,0,1833.5-24.855Z" transform="translate(-1310.051 68.603)"/>
      <path id="Path_1572" data-name="Path 1572" d="M1850-24.855a3.3,3.3,0,0,0,3.3-3.3,3.3,3.3,0,0,0-3.3-3.3,3.3,3.3,0,0,0-3.295,3.3A3.3,3.3,0,0,0,1850-24.855Z" transform="translate(-1289.395 68.603)"/>
      <circle id="Ellipse_180" data-name="Ellipse 180" cx="3.298" cy="3.298" r="3.298" transform="translate(594.461 37.154)"/>
      <path id="Path_1573" data-name="Path 1573" d="M1883-24.855a3.3,3.3,0,0,0,3.3-3.3,3.3,3.3,0,0,0-3.3-3.3,3.3,3.3,0,0,0-3.3,3.3A3.3,3.3,0,0,0,1883-24.855Z" transform="translate(-1248.089 68.603)"/>
      <path id="Path_1574" data-name="Path 1574" d="M1899.5-24.855a3.3,3.3,0,0,0,3.3-3.3,3.3,3.3,0,0,0-3.3-3.3,3.3,3.3,0,0,0-3.294,3.3A3.3,3.3,0,0,0,1899.5-24.855Z" transform="translate(-1227.434 68.603)"/>
      <path id="Path_1575" data-name="Path 1575" d="M1916-24.855a3.3,3.3,0,0,0,3.294-3.3,3.3,3.3,0,0,0-3.294-3.3,3.3,3.3,0,0,0-3.3,3.3A3.3,3.3,0,0,0,1916-24.855Z" transform="translate(-1206.781 68.603)"/>
      <path id="Path_1576" data-name="Path 1576" d="M1932.5-24.855a3.3,3.3,0,0,0,3.3-3.3,3.3,3.3,0,0,0-3.3-3.3,3.3,3.3,0,0,0-3.294,3.3A3.3,3.3,0,0,0,1932.5-24.855Z" transform="translate(-1186.126 68.603)"/>
      <circle id="Ellipse_181" data-name="Ellipse 181" cx="3.298" cy="3.298" r="3.298" transform="translate(780.23 37.154)"/>
      <path id="Path_1577" data-name="Path 1577" d="M1610.748-8.355a3.3,3.3,0,0,0,3.3-3.3,3.3,3.3,0,0,0-3.3-3.3,3.3,3.3,0,0,0-3.294,3.3A3.3,3.3,0,0,0,1610.748-8.355Z" transform="translate(-1588.877 89.257)"/>
      <path id="Path_1578" data-name="Path 1578" d="M1627.252-8.355a3.3,3.3,0,0,0,3.294-3.3,3.3,3.3,0,0,0-3.294-3.3,3.3,3.3,0,0,0-3.3,3.3A3.3,3.3,0,0,0,1627.252-8.355Z" transform="translate(-1568.224 89.257)"/>
      <path id="Path_1579" data-name="Path 1579" d="M1643.748-8.355a3.3,3.3,0,0,0,3.3-3.3,3.3,3.3,0,0,0-3.3-3.3,3.3,3.3,0,0,0-3.294,3.3A3.3,3.3,0,0,0,1643.748-8.355Z" transform="translate(-1547.569 89.257)"/>
      <path id="Path_1580" data-name="Path 1580" d="M1660.252-8.355a3.3,3.3,0,0,0,3.3-3.3,3.3,3.3,0,0,0-3.3-3.3,3.3,3.3,0,0,0-3.3,3.3A3.3,3.3,0,0,0,1660.252-8.355Z" transform="translate(-1526.916 89.257)"/>
      <path id="Path_1581" data-name="Path 1581" d="M1676.751-8.355a3.3,3.3,0,0,0,3.3-3.3,3.3,3.3,0,0,0-3.3-3.3,3.3,3.3,0,0,0-3.3,3.3A3.3,3.3,0,0,0,1676.751-8.355Z" transform="translate(-1506.262 89.257)"/>
      <path id="Path_1582" data-name="Path 1582" d="M1693.248-8.355a3.3,3.3,0,0,0,3.3-3.3,3.3,3.3,0,0,0-3.3-3.3,3.3,3.3,0,0,0-3.295,3.3A3.3,3.3,0,0,0,1693.248-8.355Z" transform="translate(-1485.607 89.257)"/>
      <path id="Path_1583" data-name="Path 1583" d="M1709.752-8.355a3.3,3.3,0,0,0,3.294-3.3,3.3,3.3,0,0,0-3.294-3.3,3.3,3.3,0,0,0-3.3,3.3A3.3,3.3,0,0,0,1709.752-8.355Z" transform="translate(-1464.955 89.257)"/>
      <path id="Path_1584" data-name="Path 1584" d="M1726.248-8.355a3.3,3.3,0,0,0,3.3-3.3,3.3,3.3,0,0,0-3.3-3.3,3.3,3.3,0,0,0-3.294,3.3A3.3,3.3,0,0,0,1726.248-8.355Z" transform="translate(-1444.3 89.257)"/>
      <path id="Path_1585" data-name="Path 1585" d="M1742.751-8.355a3.3,3.3,0,0,0,3.3-3.3,3.3,3.3,0,0,0-3.3-3.3,3.3,3.3,0,0,0-3.3,3.3A3.3,3.3,0,0,0,1742.751-8.355Z" transform="translate(-1423.647 89.257)"/>
      <path id="Path_1586" data-name="Path 1586" d="M1759.252-8.355a3.3,3.3,0,0,0,3.3-3.3,3.3,3.3,0,0,0-3.3-3.3,3.3,3.3,0,0,0-3.3,3.3A3.3,3.3,0,0,0,1759.252-8.355Z" transform="translate(-1402.993 89.257)"/>
      <path id="Path_1587" data-name="Path 1587" d="M1775.748-8.355a3.3,3.3,0,0,0,3.3-3.3,3.3,3.3,0,0,0-3.3-3.3,3.3,3.3,0,0,0-3.294,3.3A3.3,3.3,0,0,0,1775.748-8.355Z" transform="translate(-1382.338 89.257)"/>
      <path id="Path_1588" data-name="Path 1588" d="M1792.251-8.355a3.3,3.3,0,0,0,3.294-3.3,3.3,3.3,0,0,0-3.294-3.3,3.3,3.3,0,0,0-3.3,3.3A3.3,3.3,0,0,0,1792.251-8.355Z" transform="translate(-1361.685 89.257)"/>
      <path id="Path_1589" data-name="Path 1589" d="M1808.748-8.355a3.3,3.3,0,0,0,3.3-3.3,3.3,3.3,0,0,0-3.3-3.3,3.3,3.3,0,0,0-3.294,3.3A3.3,3.3,0,0,0,1808.748-8.355Z" transform="translate(-1341.03 89.257)"/>
      <path id="Path_1590" data-name="Path 1590" d="M1825.252-8.355a3.3,3.3,0,0,0,3.3-3.3,3.3,3.3,0,0,0-3.3-3.3,3.3,3.3,0,0,0-3.3,3.3A3.3,3.3,0,0,0,1825.252-8.355Z" transform="translate(-1320.378 89.257)"/>
      <path id="Path_1591" data-name="Path 1591" d="M1841.752-8.355a3.3,3.3,0,0,0,3.3-3.3,3.3,3.3,0,0,0-3.3-3.3,3.3,3.3,0,0,0-3.3,3.3A3.3,3.3,0,0,0,1841.752-8.355Z" transform="translate(-1299.724 89.257)"/>
      <path id="Path_1592" data-name="Path 1592" d="M1858.248-8.355a3.3,3.3,0,0,0,3.3-3.3,3.3,3.3,0,0,0-3.3-3.3,3.3,3.3,0,0,0-3.294,3.3A3.3,3.3,0,0,0,1858.248-8.355Z" transform="translate(-1279.068 89.257)"/>
      <path id="Path_1593" data-name="Path 1593" d="M1874.752-8.355a3.3,3.3,0,0,0,3.294-3.3,3.3,3.3,0,0,0-3.294-3.3,3.3,3.3,0,0,0-3.3,3.3A3.3,3.3,0,0,0,1874.752-8.355Z" transform="translate(-1258.416 89.257)"/>
      <path id="Path_1594" data-name="Path 1594" d="M1891.248-8.355a3.3,3.3,0,0,0,3.3-3.3,3.3,3.3,0,0,0-3.3-3.3,3.3,3.3,0,0,0-3.294,3.3A3.3,3.3,0,0,0,1891.248-8.355Z" transform="translate(-1237.761 89.257)"/>
      <path id="Path_1595" data-name="Path 1595" d="M1907.751-8.355a3.3,3.3,0,0,0,3.3-3.3,3.3,3.3,0,0,0-3.3-3.3,3.3,3.3,0,0,0-3.3,3.3A3.3,3.3,0,0,0,1907.751-8.355Z" transform="translate(-1217.108 89.257)"/>
      <path id="Path_1596" data-name="Path 1596" d="M1924.252-8.355a3.3,3.3,0,0,0,3.3-3.3,3.3,3.3,0,0,0-3.3-3.3,3.3,3.3,0,0,0-3.3,3.3A3.3,3.3,0,0,0,1924.252-8.355Z" transform="translate(-1196.454 89.257)"/>
      <path id="Path_1597" data-name="Path 1597" d="M1940.748-8.355a3.3,3.3,0,0,0,3.3-3.3,3.3,3.3,0,0,0-3.3-3.3,3.3,3.3,0,0,0-3.294,3.3A3.3,3.3,0,0,0,1940.748-8.355Z" transform="translate(-1175.799 89.257)"/>
      <path id="Path_1598" data-name="Path 1598" d="M1957.252-8.355a3.3,3.3,0,0,0,3.294-3.3,3.3,3.3,0,0,0-3.294-3.3,3.3,3.3,0,0,0-3.3,3.3A3.3,3.3,0,0,0,1957.252-8.355Z" transform="translate(-1155.146 89.257)"/>
      <path id="Path_1599" data-name="Path 1599" d="M1602.5,8.145a3.3,3.3,0,1,0-3.294-3.3A3.3,3.3,0,0,0,1602.5,8.145Z" transform="translate(-1599.204 109.911)"/>
      <path id="Path_1600" data-name="Path 1600" d="M1619,8.145a3.3,3.3,0,1,0-3.3-3.3A3.3,3.3,0,0,0,1619,8.145Z" transform="translate(-1578.551 109.911)"/>
      <path id="Path_1601" data-name="Path 1601" d="M1635.5,8.145a3.3,3.3,0,1,0-3.3-3.3A3.3,3.3,0,0,0,1635.5,8.145Z" transform="translate(-1557.897 109.911)"/>
      <path id="Path_1602" data-name="Path 1602" d="M1652,8.145a3.3,3.3,0,1,0-3.294-3.3A3.3,3.3,0,0,0,1652,8.145Z" transform="translate(-1537.242 109.911)"/>
      <path id="Path_1603" data-name="Path 1603" d="M1668.5,8.145a3.3,3.3,0,1,0-3.3-3.3A3.295,3.295,0,0,0,1668.5,8.145Z" transform="translate(-1516.59 109.911)"/>
      <path id="Path_1604" data-name="Path 1604" d="M1685,8.145a3.3,3.3,0,1,0-3.294-3.3A3.3,3.3,0,0,0,1685,8.145Z" transform="translate(-1495.934 109.911)"/>
      <path id="Path_1605" data-name="Path 1605" d="M1701.5,8.145a3.3,3.3,0,1,0-3.3-3.3A3.3,3.3,0,0,0,1701.5,8.145Z" transform="translate(-1475.281 109.911)"/>
      <path id="Path_1606" data-name="Path 1606" d="M1718,8.145a3.3,3.3,0,1,0-3.3-3.3A3.3,3.3,0,0,0,1718,8.145Z" transform="translate(-1454.628 109.911)"/>
      <path id="Path_1607" data-name="Path 1607" d="M1734.5,8.145a3.3,3.3,0,1,0-3.294-3.3A3.3,3.3,0,0,0,1734.5,8.145Z" transform="translate(-1433.973 109.911)"/>
      <path id="Path_1608" data-name="Path 1608" d="M1751,8.145a3.3,3.3,0,1,0-3.3-3.3A3.3,3.3,0,0,0,1751,8.145Z" transform="translate(-1413.32 109.911)"/>
      <path id="Path_1609" data-name="Path 1609" d="M1767.5,8.145a3.3,3.3,0,1,0-3.295-3.3A3.3,3.3,0,0,0,1767.5,8.145Z" transform="translate(-1392.665 109.911)"/>
      <path id="Path_1610" data-name="Path 1610" d="M1784,8.145a3.3,3.3,0,1,0-3.3-3.3A3.3,3.3,0,0,0,1784,8.145Z" transform="translate(-1372.012 109.911)"/>
      <path id="Path_1611" data-name="Path 1611" d="M1800.5,8.145a3.3,3.3,0,1,0-3.3-3.3A3.3,3.3,0,0,0,1800.5,8.145Z" transform="translate(-1351.359 109.911)"/>
      <path id="Path_1612" data-name="Path 1612" d="M1817,8.145a3.3,3.3,0,1,0-3.295-3.3A3.3,3.3,0,0,0,1817,8.145Z" transform="translate(-1330.703 109.911)"/>
      <path id="Path_1613" data-name="Path 1613" d="M1833.5,8.145a3.3,3.3,0,1,0-3.3-3.3A3.295,3.295,0,0,0,1833.5,8.145Z" transform="translate(-1310.051 109.911)"/>
      <path id="Path_1614" data-name="Path 1614" d="M1850,8.145a3.3,3.3,0,1,0-3.295-3.3A3.3,3.3,0,0,0,1850,8.145Z" transform="translate(-1289.395 109.911)"/>
      <path id="Path_1615" data-name="Path 1615" d="M1866.5,8.145a3.3,3.3,0,1,0-3.3-3.3A3.295,3.295,0,0,0,1866.5,8.145Z" transform="translate(-1268.743 109.911)"/>
      <path id="Path_1616" data-name="Path 1616" d="M1883,8.145a3.3,3.3,0,1,0-3.3-3.3A3.3,3.3,0,0,0,1883,8.145Z" transform="translate(-1248.089 109.911)"/>
      <path id="Path_1617" data-name="Path 1617" d="M1899.5,8.145a3.3,3.3,0,1,0-3.294-3.3A3.3,3.3,0,0,0,1899.5,8.145Z" transform="translate(-1227.434 109.911)"/>
      <path id="Path_1618" data-name="Path 1618" d="M1916,8.145a3.3,3.3,0,1,0-3.3-3.3A3.295,3.295,0,0,0,1916,8.145Z" transform="translate(-1206.781 109.911)"/>
      <path id="Path_1619" data-name="Path 1619" d="M1932.5,8.145a3.3,3.3,0,1,0-3.294-3.3A3.3,3.3,0,0,0,1932.5,8.145Z" transform="translate(-1186.126 109.911)"/>
      <path id="Path_1620" data-name="Path 1620" d="M1949,8.145a3.3,3.3,0,1,0-3.3-3.3A3.3,3.3,0,0,0,1949,8.145Z" transform="translate(-1165.473 109.911)"/>
      <path id="Path_1621" data-name="Path 1621" d="M1610.748,24.645a3.3,3.3,0,1,0-3.294-3.3A3.3,3.3,0,0,0,1610.748,24.645Z" transform="translate(-1588.877 130.565)"/>
      <path id="Path_1622" data-name="Path 1622" d="M1627.252,24.645a3.3,3.3,0,1,0-3.3-3.3A3.295,3.295,0,0,0,1627.252,24.645Z" transform="translate(-1568.224 130.565)"/>
      <path id="Path_1623" data-name="Path 1623" d="M1643.748,24.645a3.3,3.3,0,1,0-3.294-3.3A3.3,3.3,0,0,0,1643.748,24.645Z" transform="translate(-1547.569 130.565)"/>
      <path id="Path_1624" data-name="Path 1624" d="M1660.252,24.645a3.3,3.3,0,1,0-3.3-3.3A3.3,3.3,0,0,0,1660.252,24.645Z" transform="translate(-1526.916 130.565)"/>
      <path id="Path_1625" data-name="Path 1625" d="M1676.751,24.645a3.3,3.3,0,1,0-3.3-3.3A3.3,3.3,0,0,0,1676.751,24.645Z" transform="translate(-1506.262 130.565)"/>
      <path id="Path_1626" data-name="Path 1626" d="M1693.248,24.645a3.3,3.3,0,1,0-3.295-3.3A3.3,3.3,0,0,0,1693.248,24.645Z" transform="translate(-1485.607 130.565)"/>
      <path id="Path_1627" data-name="Path 1627" d="M1709.752,24.645a3.3,3.3,0,1,0-3.3-3.3A3.295,3.295,0,0,0,1709.752,24.645Z" transform="translate(-1464.955 130.565)"/>
      <path id="Path_1628" data-name="Path 1628" d="M1726.248,24.645a3.3,3.3,0,1,0-3.294-3.3A3.3,3.3,0,0,0,1726.248,24.645Z" transform="translate(-1444.3 130.565)"/>
      <path id="Path_1629" data-name="Path 1629" d="M1742.751,24.645a3.3,3.3,0,1,0-3.3-3.3A3.3,3.3,0,0,0,1742.751,24.645Z" transform="translate(-1423.647 130.565)"/>
      <path id="Path_1630" data-name="Path 1630" d="M1759.252,24.645a3.3,3.3,0,1,0-3.3-3.3A3.3,3.3,0,0,0,1759.252,24.645Z" transform="translate(-1402.993 130.565)"/>
      <path id="Path_1631" data-name="Path 1631" d="M1775.748,24.645a3.3,3.3,0,1,0-3.294-3.3A3.3,3.3,0,0,0,1775.748,24.645Z" transform="translate(-1382.338 130.565)"/>
      <path id="Path_1632" data-name="Path 1632" d="M1792.251,24.645a3.3,3.3,0,1,0-3.3-3.3A3.295,3.295,0,0,0,1792.251,24.645Z" transform="translate(-1361.685 130.565)"/>
      <path id="Path_1633" data-name="Path 1633" d="M1808.748,24.645a3.3,3.3,0,1,0-3.294-3.3A3.3,3.3,0,0,0,1808.748,24.645Z" transform="translate(-1341.03 130.565)"/>
      <path id="Path_1634" data-name="Path 1634" d="M1825.252,24.645a3.3,3.3,0,1,0-3.3-3.3A3.295,3.295,0,0,0,1825.252,24.645Z" transform="translate(-1320.378 130.565)"/>
      <path id="Path_1635" data-name="Path 1635" d="M1841.752,24.645a3.3,3.3,0,1,0-3.3-3.3A3.3,3.3,0,0,0,1841.752,24.645Z" transform="translate(-1299.724 130.565)"/>
      <path id="Path_1636" data-name="Path 1636" d="M1858.248,24.645a3.3,3.3,0,1,0-3.294-3.3A3.3,3.3,0,0,0,1858.248,24.645Z" transform="translate(-1279.068 130.565)"/>
      <path id="Path_1637" data-name="Path 1637" d="M1874.752,24.645a3.3,3.3,0,1,0-3.3-3.3A3.295,3.295,0,0,0,1874.752,24.645Z" transform="translate(-1258.416 130.565)"/>
      <path id="Path_1638" data-name="Path 1638" d="M1891.248,24.645a3.3,3.3,0,1,0-3.294-3.3A3.3,3.3,0,0,0,1891.248,24.645Z" transform="translate(-1237.761 130.565)"/>
      <path id="Path_1639" data-name="Path 1639" d="M1907.751,24.645a3.3,3.3,0,1,0-3.3-3.3A3.3,3.3,0,0,0,1907.751,24.645Z" transform="translate(-1217.108 130.565)"/>
      <path id="Path_1640" data-name="Path 1640" d="M1924.252,24.645a3.3,3.3,0,1,0-3.3-3.3A3.3,3.3,0,0,0,1924.252,24.645Z" transform="translate(-1196.454 130.565)"/>
      <path id="Path_1641" data-name="Path 1641" d="M1940.748,24.645a3.3,3.3,0,1,0-3.294-3.3A3.3,3.3,0,0,0,1940.748,24.645Z" transform="translate(-1175.799 130.565)"/>
      <path id="Path_1642" data-name="Path 1642" d="M1957.252,24.645a3.3,3.3,0,1,0-3.3-3.3A3.295,3.295,0,0,0,1957.252,24.645Z" transform="translate(-1155.146 130.565)"/>
      <path id="Path_1643" data-name="Path 1643" d="M1602.5,41.145a3.3,3.3,0,1,0-3.294-3.3A3.3,3.3,0,0,0,1602.5,41.145Z" transform="translate(-1599.204 151.218)"/>
      <circle id="Ellipse_182" data-name="Ellipse 182" cx="3.298" cy="3.298" r="3.298" transform="translate(37.152 185.77)"/>
      <path id="Path_1644" data-name="Path 1644" d="M1635.5,41.145a3.3,3.3,0,1,0-3.3-3.3A3.3,3.3,0,0,0,1635.5,41.145Z" transform="translate(-1557.897 151.218)"/>
      <path id="Path_1645" data-name="Path 1645" d="M1652,41.145a3.3,3.3,0,1,0-3.294-3.3A3.3,3.3,0,0,0,1652,41.145Z" transform="translate(-1537.242 151.218)"/>
      <path id="Path_1646" data-name="Path 1646" d="M1668.5,41.145a3.3,3.3,0,1,0-3.3-3.3A3.295,3.295,0,0,0,1668.5,41.145Z" transform="translate(-1516.59 151.218)"/>
      <path id="Path_1647" data-name="Path 1647" d="M1685,41.145a3.3,3.3,0,1,0-3.294-3.3A3.3,3.3,0,0,0,1685,41.145Z" transform="translate(-1495.934 151.218)"/>
      <circle id="Ellipse_183" data-name="Ellipse 183" cx="3.298" cy="3.298" r="3.298" transform="translate(222.922 185.77)"/>
      <path id="Path_1648" data-name="Path 1648" d="M1718,41.145a3.3,3.3,0,1,0-3.3-3.3A3.3,3.3,0,0,0,1718,41.145Z" transform="translate(-1454.628 151.218)"/>
      <path id="Path_1649" data-name="Path 1649" d="M1734.5,41.145a3.3,3.3,0,1,0-3.294-3.3A3.3,3.3,0,0,0,1734.5,41.145Z" transform="translate(-1433.973 151.218)"/>
      <path id="Path_1650" data-name="Path 1650" d="M1751,41.145a3.3,3.3,0,1,0-3.3-3.3A3.3,3.3,0,0,0,1751,41.145Z" transform="translate(-1413.32 151.218)"/>
      <path id="Path_1651" data-name="Path 1651" d="M1767.5,41.145a3.3,3.3,0,1,0-3.295-3.3A3.3,3.3,0,0,0,1767.5,41.145Z" transform="translate(-1392.665 151.218)"/>
      <circle id="Ellipse_184" data-name="Ellipse 184" cx="3.298" cy="3.298" r="3.298" transform="translate(408.691 185.77)"/>
      <path id="Path_1652" data-name="Path 1652" d="M1800.5,41.145a3.3,3.3,0,1,0-3.3-3.3A3.3,3.3,0,0,0,1800.5,41.145Z" transform="translate(-1351.359 151.218)"/>
      <path id="Path_1653" data-name="Path 1653" d="M1817,41.145a3.3,3.3,0,1,0-3.295-3.3A3.3,3.3,0,0,0,1817,41.145Z" transform="translate(-1330.703 151.218)"/>
      <path id="Path_1654" data-name="Path 1654" d="M1833.5,41.145a3.3,3.3,0,1,0-3.3-3.3A3.295,3.295,0,0,0,1833.5,41.145Z" transform="translate(-1310.051 151.218)"/>
      <path id="Path_1655" data-name="Path 1655" d="M1850,41.145a3.3,3.3,0,1,0-3.295-3.3A3.3,3.3,0,0,0,1850,41.145Z" transform="translate(-1289.395 151.218)"/>
      <circle id="Ellipse_185" data-name="Ellipse 185" cx="3.298" cy="3.298" r="3.298" transform="translate(594.461 185.77)"/>
      <path id="Path_1656" data-name="Path 1656" d="M1883,41.145a3.3,3.3,0,1,0-3.3-3.3A3.3,3.3,0,0,0,1883,41.145Z" transform="translate(-1248.089 151.218)"/>
      <path id="Path_1657" data-name="Path 1657" d="M1899.5,41.145a3.3,3.3,0,1,0-3.294-3.3A3.3,3.3,0,0,0,1899.5,41.145Z" transform="translate(-1227.434 151.218)"/>
      <path id="Path_1658" data-name="Path 1658" d="M1916,41.145a3.3,3.3,0,1,0-3.3-3.3A3.295,3.295,0,0,0,1916,41.145Z" transform="translate(-1206.781 151.218)"/>
      <path id="Path_1659" data-name="Path 1659" d="M1932.5,41.145a3.3,3.3,0,1,0-3.294-3.3A3.3,3.3,0,0,0,1932.5,41.145Z" transform="translate(-1186.126 151.218)"/>
      <circle id="Ellipse_186" data-name="Ellipse 186" cx="3.298" cy="3.298" r="3.298" transform="translate(780.23 185.77)"/>
      <path id="Path_1660" data-name="Path 1660" d="M1610.748,57.645a3.3,3.3,0,1,0-3.294-3.3A3.3,3.3,0,0,0,1610.748,57.645Z" transform="translate(-1588.877 171.872)"/>
      <path id="Path_1661" data-name="Path 1661" d="M1627.252,57.645a3.3,3.3,0,1,0-3.3-3.3A3.3,3.3,0,0,0,1627.252,57.645Z" transform="translate(-1568.224 171.872)"/>
      <path id="Path_1662" data-name="Path 1662" d="M1643.748,57.645a3.3,3.3,0,1,0-3.294-3.3A3.3,3.3,0,0,0,1643.748,57.645Z" transform="translate(-1547.569 171.872)"/>
      <circle id="Ellipse_187" data-name="Ellipse 187" cx="3.298" cy="3.298" r="3.298" transform="translate(130.037 222.923)"/>
      <path id="Path_1663" data-name="Path 1663" d="M1676.751,57.645a3.3,3.3,0,1,0-3.3-3.3A3.3,3.3,0,0,0,1676.751,57.645Z" transform="translate(-1506.262 171.872)"/>
      <path id="Path_1664" data-name="Path 1664" d="M1693.248,57.645a3.3,3.3,0,1,0-3.295-3.3A3.3,3.3,0,0,0,1693.248,57.645Z" transform="translate(-1485.607 171.872)"/>
      <path id="Path_1665" data-name="Path 1665" d="M1709.752,57.645a3.3,3.3,0,1,0-3.3-3.3A3.3,3.3,0,0,0,1709.752,57.645Z" transform="translate(-1464.955 171.872)"/>
      <path id="Path_1666" data-name="Path 1666" d="M1726.248,57.645a3.3,3.3,0,1,0-3.294-3.3A3.3,3.3,0,0,0,1726.248,57.645Z" transform="translate(-1444.3 171.872)"/>
      <circle id="Ellipse_188" data-name="Ellipse 188" cx="3.298" cy="3.298" r="3.298" transform="translate(315.806 222.923)"/>
      <path id="Path_1667" data-name="Path 1667" d="M1759.252,57.645a3.3,3.3,0,1,0-3.3-3.3A3.3,3.3,0,0,0,1759.252,57.645Z" transform="translate(-1402.993 171.872)"/>
      <path id="Path_1668" data-name="Path 1668" d="M1775.748,57.645a3.3,3.3,0,1,0-3.294-3.3A3.3,3.3,0,0,0,1775.748,57.645Z" transform="translate(-1382.338 171.872)"/>
      <path id="Path_1669" data-name="Path 1669" d="M1792.251,57.645a3.3,3.3,0,1,0-3.3-3.3A3.3,3.3,0,0,0,1792.251,57.645Z" transform="translate(-1361.685 171.872)"/>
      <path id="Path_1670" data-name="Path 1670" d="M1808.748,57.645a3.3,3.3,0,1,0-3.294-3.3A3.3,3.3,0,0,0,1808.748,57.645Z" transform="translate(-1341.03 171.872)"/>
      <circle id="Ellipse_189" data-name="Ellipse 189" cx="3.298" cy="3.298" r="3.298" transform="translate(501.576 222.923)"/>
      <path id="Path_1671" data-name="Path 1671" d="M1841.752,57.645a3.3,3.3,0,1,0-3.3-3.3A3.3,3.3,0,0,0,1841.752,57.645Z" transform="translate(-1299.724 171.872)"/>
      <path id="Path_1672" data-name="Path 1672" d="M1858.248,57.645a3.3,3.3,0,1,0-3.294-3.3A3.3,3.3,0,0,0,1858.248,57.645Z" transform="translate(-1279.068 171.872)"/>
      <path id="Path_1673" data-name="Path 1673" d="M1874.752,57.645a3.3,3.3,0,1,0-3.3-3.3A3.3,3.3,0,0,0,1874.752,57.645Z" transform="translate(-1258.416 171.872)"/>
      <path id="Path_1674" data-name="Path 1674" d="M1891.248,57.645a3.3,3.3,0,1,0-3.294-3.3A3.3,3.3,0,0,0,1891.248,57.645Z" transform="translate(-1237.761 171.872)"/>
      <circle id="Ellipse_190" data-name="Ellipse 190" cx="3.298" cy="3.298" r="3.298" transform="translate(687.346 222.923)"/>
      <path id="Path_1675" data-name="Path 1675" d="M1924.252,57.645a3.3,3.3,0,1,0-3.3-3.3A3.3,3.3,0,0,0,1924.252,57.645Z" transform="translate(-1196.454 171.872)"/>
      <path id="Path_1676" data-name="Path 1676" d="M1940.748,57.645a3.3,3.3,0,1,0-3.294-3.3A3.3,3.3,0,0,0,1940.748,57.645Z" transform="translate(-1175.799 171.872)"/>
      <path id="Path_1677" data-name="Path 1677" d="M1957.252,57.645a3.3,3.3,0,1,0-3.3-3.3A3.3,3.3,0,0,0,1957.252,57.645Z" transform="translate(-1155.146 171.872)"/>
      <path id="Path_1678" data-name="Path 1678" d="M1602.5,74.145a3.3,3.3,0,1,0-3.294-3.3A3.3,3.3,0,0,0,1602.5,74.145Z" transform="translate(-1599.204 192.526)"/>
      <path id="Path_1679" data-name="Path 1679" d="M1619,74.145a3.3,3.3,0,1,0-3.3-3.3A3.3,3.3,0,0,0,1619,74.145Z" transform="translate(-1578.551 192.526)"/>
      <path id="Path_1680" data-name="Path 1680" d="M1635.5,74.145a3.3,3.3,0,1,0-3.3-3.3A3.3,3.3,0,0,0,1635.5,74.145Z" transform="translate(-1557.897 192.526)"/>
      <path id="Path_1681" data-name="Path 1681" d="M1652,74.145a3.3,3.3,0,1,0-3.294-3.3A3.3,3.3,0,0,0,1652,74.145Z" transform="translate(-1537.242 192.526)"/>
      <path id="Path_1682" data-name="Path 1682" d="M1668.5,74.145a3.3,3.3,0,1,0-3.3-3.3A3.3,3.3,0,0,0,1668.5,74.145Z" transform="translate(-1516.59 192.526)"/>
      <path id="Path_1683" data-name="Path 1683" d="M1685,74.145a3.3,3.3,0,1,0-3.294-3.3A3.3,3.3,0,0,0,1685,74.145Z" transform="translate(-1495.934 192.526)"/>
      <path id="Path_1684" data-name="Path 1684" d="M1701.5,74.145a3.3,3.3,0,1,0-3.3-3.3A3.3,3.3,0,0,0,1701.5,74.145Z" transform="translate(-1475.281 192.526)"/>
      <path id="Path_1685" data-name="Path 1685" d="M1718,74.145a3.3,3.3,0,1,0-3.3-3.3A3.3,3.3,0,0,0,1718,74.145Z" transform="translate(-1454.628 192.526)"/>
      <path id="Path_1686" data-name="Path 1686" d="M1734.5,74.145a3.3,3.3,0,1,0-3.294-3.3A3.3,3.3,0,0,0,1734.5,74.145Z" transform="translate(-1433.973 192.526)"/>
      <path id="Path_1687" data-name="Path 1687" d="M1751,74.145a3.3,3.3,0,1,0-3.3-3.3A3.3,3.3,0,0,0,1751,74.145Z" transform="translate(-1413.32 192.526)"/>
      <path id="Path_1688" data-name="Path 1688" d="M1767.5,74.145a3.3,3.3,0,1,0-3.295-3.3A3.3,3.3,0,0,0,1767.5,74.145Z" transform="translate(-1392.665 192.526)"/>
      <path id="Path_1689" data-name="Path 1689" d="M1784,74.145a3.3,3.3,0,1,0-3.3-3.3A3.3,3.3,0,0,0,1784,74.145Z" transform="translate(-1372.012 192.526)"/>
      <path id="Path_1690" data-name="Path 1690" d="M1800.5,74.145a3.3,3.3,0,1,0-3.3-3.3A3.3,3.3,0,0,0,1800.5,74.145Z" transform="translate(-1351.359 192.526)"/>
      <path id="Path_1691" data-name="Path 1691" d="M1817,74.145a3.3,3.3,0,1,0-3.295-3.3A3.3,3.3,0,0,0,1817,74.145Z" transform="translate(-1330.703 192.526)"/>
      <path id="Path_1692" data-name="Path 1692" d="M1833.5,74.145a3.3,3.3,0,1,0-3.3-3.3A3.3,3.3,0,0,0,1833.5,74.145Z" transform="translate(-1310.051 192.526)"/>
      <path id="Path_1693" data-name="Path 1693" d="M1850,74.145a3.3,3.3,0,1,0-3.295-3.3A3.3,3.3,0,0,0,1850,74.145Z" transform="translate(-1289.395 192.526)"/>
      <path id="Path_1694" data-name="Path 1694" d="M1866.5,74.145a3.3,3.3,0,1,0-3.3-3.3A3.3,3.3,0,0,0,1866.5,74.145Z" transform="translate(-1268.743 192.526)"/>
      <path id="Path_1695" data-name="Path 1695" d="M1883,74.145a3.3,3.3,0,1,0-3.3-3.3A3.3,3.3,0,0,0,1883,74.145Z" transform="translate(-1248.089 192.526)"/>
      <path id="Path_1696" data-name="Path 1696" d="M1899.5,74.145a3.3,3.3,0,1,0-3.294-3.3A3.3,3.3,0,0,0,1899.5,74.145Z" transform="translate(-1227.434 192.526)"/>
      <path id="Path_1697" data-name="Path 1697" d="M1916,74.145a3.3,3.3,0,1,0-3.3-3.3A3.3,3.3,0,0,0,1916,74.145Z" transform="translate(-1206.781 192.526)"/>
      <path id="Path_1698" data-name="Path 1698" d="M1932.5,74.145a3.3,3.3,0,1,0-3.294-3.3A3.3,3.3,0,0,0,1932.5,74.145Z" transform="translate(-1186.126 192.526)"/>
      <path id="Path_1699" data-name="Path 1699" d="M1949,74.145a3.3,3.3,0,1,0-3.3-3.3A3.3,3.3,0,0,0,1949,74.145Z" transform="translate(-1165.473 192.526)"/>
      <path id="Path_1700" data-name="Path 1700" d="M1610.748,90.645a3.3,3.3,0,1,0-3.294-3.3A3.3,3.3,0,0,0,1610.748,90.645Z" transform="translate(-1588.877 213.18)"/>
      <path id="Path_1701" data-name="Path 1701" d="M1627.252,90.645a3.3,3.3,0,1,0-3.3-3.3A3.295,3.295,0,0,0,1627.252,90.645Z" transform="translate(-1568.224 213.18)"/>
      <path id="Path_1702" data-name="Path 1702" d="M1643.748,90.645a3.3,3.3,0,1,0-3.294-3.3A3.3,3.3,0,0,0,1643.748,90.645Z" transform="translate(-1547.569 213.18)"/>
      <path id="Path_1703" data-name="Path 1703" d="M1660.252,90.645a3.3,3.3,0,1,0-3.3-3.3A3.3,3.3,0,0,0,1660.252,90.645Z" transform="translate(-1526.916 213.18)"/>
      <path id="Path_1704" data-name="Path 1704" d="M1676.751,90.645a3.3,3.3,0,1,0-3.3-3.3A3.3,3.3,0,0,0,1676.751,90.645Z" transform="translate(-1506.262 213.18)"/>
      <path id="Path_1705" data-name="Path 1705" d="M1693.248,90.645a3.3,3.3,0,1,0-3.295-3.3A3.3,3.3,0,0,0,1693.248,90.645Z" transform="translate(-1485.607 213.18)"/>
      <path id="Path_1706" data-name="Path 1706" d="M1709.752,90.645a3.3,3.3,0,1,0-3.3-3.3A3.295,3.295,0,0,0,1709.752,90.645Z" transform="translate(-1464.955 213.18)"/>
      <path id="Path_1707" data-name="Path 1707" d="M1726.248,90.645a3.3,3.3,0,1,0-3.294-3.3A3.3,3.3,0,0,0,1726.248,90.645Z" transform="translate(-1444.3 213.18)"/>
      <path id="Path_1708" data-name="Path 1708" d="M1742.751,90.645a3.3,3.3,0,1,0-3.3-3.3A3.3,3.3,0,0,0,1742.751,90.645Z" transform="translate(-1423.647 213.18)"/>
      <path id="Path_1709" data-name="Path 1709" d="M1759.252,90.645a3.3,3.3,0,1,0-3.3-3.3A3.3,3.3,0,0,0,1759.252,90.645Z" transform="translate(-1402.993 213.18)"/>
      <path id="Path_1710" data-name="Path 1710" d="M1775.748,90.645a3.3,3.3,0,1,0-3.294-3.3A3.3,3.3,0,0,0,1775.748,90.645Z" transform="translate(-1382.338 213.18)"/>
      <path id="Path_1711" data-name="Path 1711" d="M1792.251,90.645a3.3,3.3,0,1,0-3.3-3.3A3.295,3.295,0,0,0,1792.251,90.645Z" transform="translate(-1361.685 213.18)"/>
      <path id="Path_1712" data-name="Path 1712" d="M1808.748,90.645a3.3,3.3,0,1,0-3.294-3.3A3.3,3.3,0,0,0,1808.748,90.645Z" transform="translate(-1341.03 213.18)"/>
      <path id="Path_1713" data-name="Path 1713" d="M1825.252,90.645a3.3,3.3,0,1,0-3.3-3.3A3.295,3.295,0,0,0,1825.252,90.645Z" transform="translate(-1320.378 213.18)"/>
      <path id="Path_1714" data-name="Path 1714" d="M1841.752,90.645a3.3,3.3,0,1,0-3.3-3.3A3.3,3.3,0,0,0,1841.752,90.645Z" transform="translate(-1299.724 213.18)"/>
      <path id="Path_1715" data-name="Path 1715" d="M1858.248,90.645a3.3,3.3,0,1,0-3.294-3.3A3.3,3.3,0,0,0,1858.248,90.645Z" transform="translate(-1279.068 213.18)"/>
      <path id="Path_1716" data-name="Path 1716" d="M1874.752,90.645a3.3,3.3,0,1,0-3.3-3.3A3.295,3.295,0,0,0,1874.752,90.645Z" transform="translate(-1258.416 213.18)"/>
      <path id="Path_1717" data-name="Path 1717" d="M1891.248,90.645a3.3,3.3,0,1,0-3.294-3.3A3.3,3.3,0,0,0,1891.248,90.645Z" transform="translate(-1237.761 213.18)"/>
      <path id="Path_1718" data-name="Path 1718" d="M1907.751,90.645a3.3,3.3,0,1,0-3.3-3.3A3.3,3.3,0,0,0,1907.751,90.645Z" transform="translate(-1217.108 213.18)"/>
      <path id="Path_1719" data-name="Path 1719" d="M1924.252,90.645a3.3,3.3,0,1,0-3.3-3.3A3.3,3.3,0,0,0,1924.252,90.645Z" transform="translate(-1196.454 213.18)"/>
      <path id="Path_1720" data-name="Path 1720" d="M1940.748,90.645a3.3,3.3,0,1,0-3.294-3.3A3.3,3.3,0,0,0,1940.748,90.645Z" transform="translate(-1175.799 213.18)"/>
      <path id="Path_1721" data-name="Path 1721" d="M1957.252,90.645a3.3,3.3,0,1,0-3.3-3.3A3.295,3.295,0,0,0,1957.252,90.645Z" transform="translate(-1155.146 213.18)"/>
      <path id="Path_1722" data-name="Path 1722" d="M1602.5,107.145a3.3,3.3,0,1,0-3.294-3.3A3.3,3.3,0,0,0,1602.5,107.145Z" transform="translate(-1599.204 233.834)"/>
      <path id="Path_1723" data-name="Path 1723" d="M1619,107.145a3.3,3.3,0,1,0-3.3-3.3A3.3,3.3,0,0,0,1619,107.145Z" transform="translate(-1578.551 233.834)"/>
      <path id="Path_1724" data-name="Path 1724" d="M1635.5,107.145a3.3,3.3,0,1,0-3.3-3.3A3.3,3.3,0,0,0,1635.5,107.145Z" transform="translate(-1557.897 233.834)"/>
      <path id="Path_1725" data-name="Path 1725" d="M1652,107.145a3.3,3.3,0,1,0-3.294-3.3A3.3,3.3,0,0,0,1652,107.145Z" transform="translate(-1537.242 233.834)"/>
      <path id="Path_1726" data-name="Path 1726" d="M1668.5,107.145a3.3,3.3,0,1,0-3.3-3.3A3.295,3.295,0,0,0,1668.5,107.145Z" transform="translate(-1516.59 233.834)"/>
      <path id="Path_1727" data-name="Path 1727" d="M1685,107.145a3.3,3.3,0,1,0-3.294-3.3A3.3,3.3,0,0,0,1685,107.145Z" transform="translate(-1495.934 233.834)"/>
      <path id="Path_1728" data-name="Path 1728" d="M1701.5,107.145a3.3,3.3,0,1,0-3.3-3.3A3.3,3.3,0,0,0,1701.5,107.145Z" transform="translate(-1475.281 233.834)"/>
      <path id="Path_1729" data-name="Path 1729" d="M1718,107.145a3.3,3.3,0,1,0-3.3-3.3A3.3,3.3,0,0,0,1718,107.145Z" transform="translate(-1454.628 233.834)"/>
      <path id="Path_1730" data-name="Path 1730" d="M1734.5,107.145a3.3,3.3,0,1,0-3.294-3.3A3.3,3.3,0,0,0,1734.5,107.145Z" transform="translate(-1433.973 233.834)"/>
      <path id="Path_1731" data-name="Path 1731" d="M1751,107.145a3.3,3.3,0,1,0-3.3-3.3A3.3,3.3,0,0,0,1751,107.145Z" transform="translate(-1413.32 233.834)"/>
      <path id="Path_1732" data-name="Path 1732" d="M1767.5,107.145a3.3,3.3,0,1,0-3.295-3.3A3.3,3.3,0,0,0,1767.5,107.145Z" transform="translate(-1392.665 233.834)"/>
      <path id="Path_1733" data-name="Path 1733" d="M1784,107.145a3.3,3.3,0,1,0-3.3-3.3A3.3,3.3,0,0,0,1784,107.145Z" transform="translate(-1372.012 233.834)"/>
      <path id="Path_1734" data-name="Path 1734" d="M1800.5,107.145a3.3,3.3,0,1,0-3.3-3.3A3.3,3.3,0,0,0,1800.5,107.145Z" transform="translate(-1351.359 233.834)"/>
      <path id="Path_1735" data-name="Path 1735" d="M1817,107.145a3.3,3.3,0,1,0-3.295-3.3A3.3,3.3,0,0,0,1817,107.145Z" transform="translate(-1330.703 233.834)"/>
      <path id="Path_1736" data-name="Path 1736" d="M1833.5,107.145a3.3,3.3,0,1,0-3.3-3.3A3.295,3.295,0,0,0,1833.5,107.145Z" transform="translate(-1310.051 233.834)"/>
      <path id="Path_1737" data-name="Path 1737" d="M1850,107.145a3.3,3.3,0,1,0-3.295-3.3A3.3,3.3,0,0,0,1850,107.145Z" transform="translate(-1289.395 233.834)"/>
      <path id="Path_1738" data-name="Path 1738" d="M1866.5,107.145a3.3,3.3,0,1,0-3.3-3.3A3.3,3.3,0,0,0,1866.5,107.145Z" transform="translate(-1268.743 233.834)"/>
      <path id="Path_1739" data-name="Path 1739" d="M1883,107.145a3.3,3.3,0,1,0-3.3-3.3A3.3,3.3,0,0,0,1883,107.145Z" transform="translate(-1248.089 233.834)"/>
      <path id="Path_1740" data-name="Path 1740" d="M1899.5,107.145a3.3,3.3,0,1,0-3.294-3.3A3.3,3.3,0,0,0,1899.5,107.145Z" transform="translate(-1227.434 233.834)"/>
      <path id="Path_1741" data-name="Path 1741" d="M1916,107.145a3.3,3.3,0,1,0-3.3-3.3A3.295,3.295,0,0,0,1916,107.145Z" transform="translate(-1206.781 233.834)"/>
      <path id="Path_1742" data-name="Path 1742" d="M1932.5,107.145a3.3,3.3,0,1,0-3.294-3.3A3.3,3.3,0,0,0,1932.5,107.145Z" transform="translate(-1186.126 233.834)"/>
      <path id="Path_1743" data-name="Path 1743" d="M1949,107.145a3.3,3.3,0,1,0-3.3-3.3A3.3,3.3,0,0,0,1949,107.145Z" transform="translate(-1165.473 233.834)"/>
      <path id="Path_1744" data-name="Path 1744" d="M1610.748,123.645a3.3,3.3,0,1,0-3.294-3.3A3.3,3.3,0,0,0,1610.748,123.645Z" transform="translate(-1588.877 254.488)"/>
      <path id="Path_1745" data-name="Path 1745" d="M1627.252,123.645a3.3,3.3,0,1,0-3.3-3.3A3.295,3.295,0,0,0,1627.252,123.645Z" transform="translate(-1568.224 254.488)"/>
      <path id="Path_1746" data-name="Path 1746" d="M1643.748,123.645a3.3,3.3,0,1,0-3.294-3.3A3.3,3.3,0,0,0,1643.748,123.645Z" transform="translate(-1547.569 254.488)"/>
      <circle id="Ellipse_191" data-name="Ellipse 191" cx="3.298" cy="3.298" r="3.298" transform="translate(130.037 371.539)"/>
      <path id="Path_1747" data-name="Path 1747" d="M1676.751,123.645a3.3,3.3,0,1,0-3.3-3.3A3.3,3.3,0,0,0,1676.751,123.645Z" transform="translate(-1506.262 254.488)"/>
      <path id="Path_1748" data-name="Path 1748" d="M1693.248,123.645a3.3,3.3,0,1,0-3.295-3.3A3.3,3.3,0,0,0,1693.248,123.645Z" transform="translate(-1485.607 254.488)"/>
      <path id="Path_1749" data-name="Path 1749" d="M1709.752,123.645a3.3,3.3,0,1,0-3.3-3.3A3.295,3.295,0,0,0,1709.752,123.645Z" transform="translate(-1464.955 254.488)"/>
      <path id="Path_1750" data-name="Path 1750" d="M1726.248,123.645a3.3,3.3,0,1,0-3.294-3.3A3.3,3.3,0,0,0,1726.248,123.645Z" transform="translate(-1444.3 254.488)"/>
      <circle id="Ellipse_192" data-name="Ellipse 192" cx="3.298" cy="3.298" r="3.298" transform="translate(315.806 371.539)"/>
      <path id="Path_1751" data-name="Path 1751" d="M1759.252,123.645a3.3,3.3,0,1,0-3.3-3.3A3.3,3.3,0,0,0,1759.252,123.645Z" transform="translate(-1402.993 254.488)"/>
      <path id="Path_1752" data-name="Path 1752" d="M1775.748,123.645a3.3,3.3,0,1,0-3.294-3.3A3.3,3.3,0,0,0,1775.748,123.645Z" transform="translate(-1382.338 254.488)"/>
      <path id="Path_1753" data-name="Path 1753" d="M1792.251,123.645a3.3,3.3,0,1,0-3.3-3.3A3.295,3.295,0,0,0,1792.251,123.645Z" transform="translate(-1361.685 254.488)"/>
      <path id="Path_1754" data-name="Path 1754" d="M1808.748,123.645a3.3,3.3,0,1,0-3.294-3.3A3.3,3.3,0,0,0,1808.748,123.645Z" transform="translate(-1341.03 254.488)"/>
      <circle id="Ellipse_193" data-name="Ellipse 193" cx="3.298" cy="3.298" r="3.298" transform="translate(501.576 371.539)"/>
      <path id="Path_1755" data-name="Path 1755" d="M1841.752,123.645a3.3,3.3,0,1,0-3.3-3.3A3.3,3.3,0,0,0,1841.752,123.645Z" transform="translate(-1299.724 254.488)"/>
      <path id="Path_1756" data-name="Path 1756" d="M1858.248,123.645a3.3,3.3,0,1,0-3.294-3.3A3.3,3.3,0,0,0,1858.248,123.645Z" transform="translate(-1279.068 254.488)"/>
      <path id="Path_1757" data-name="Path 1757" d="M1874.752,123.645a3.3,3.3,0,1,0-3.3-3.3A3.295,3.295,0,0,0,1874.752,123.645Z" transform="translate(-1258.416 254.488)"/>
      <path id="Path_1758" data-name="Path 1758" d="M1891.248,123.645a3.3,3.3,0,1,0-3.294-3.3A3.3,3.3,0,0,0,1891.248,123.645Z" transform="translate(-1237.761 254.488)"/>
      <circle id="Ellipse_194" data-name="Ellipse 194" cx="3.298" cy="3.298" r="3.298" transform="translate(687.346 371.539)"/>
      <path id="Path_1759" data-name="Path 1759" d="M1924.252,123.645a3.3,3.3,0,1,0-3.3-3.3A3.3,3.3,0,0,0,1924.252,123.645Z" transform="translate(-1196.454 254.488)"/>
      <path id="Path_1760" data-name="Path 1760" d="M1940.748,123.645a3.3,3.3,0,1,0-3.294-3.3A3.3,3.3,0,0,0,1940.748,123.645Z" transform="translate(-1175.799 254.488)"/>
      <path id="Path_1761" data-name="Path 1761" d="M1957.252,123.645a3.3,3.3,0,1,0-3.3-3.3A3.295,3.295,0,0,0,1957.252,123.645Z" transform="translate(-1155.146 254.488)"/>
      <path id="Path_1762" data-name="Path 1762" d="M1602.5,140.145a3.3,3.3,0,1,0-3.294-3.3A3.3,3.3,0,0,0,1602.5,140.145Z" transform="translate(-1599.204 275.142)"/>
      <circle id="Ellipse_195" data-name="Ellipse 195" cx="3.298" cy="3.298" r="3.298" transform="translate(37.152 408.693)"/>
      <path id="Path_1763" data-name="Path 1763" d="M1635.5,140.145a3.3,3.3,0,1,0-3.3-3.3A3.3,3.3,0,0,0,1635.5,140.145Z" transform="translate(-1557.897 275.142)"/>
      <path id="Path_1764" data-name="Path 1764" d="M1652,140.145a3.3,3.3,0,1,0-3.294-3.3A3.3,3.3,0,0,0,1652,140.145Z" transform="translate(-1537.242 275.142)"/>
      <path id="Path_1765" data-name="Path 1765" d="M1668.5,140.145a3.3,3.3,0,1,0-3.3-3.3A3.3,3.3,0,0,0,1668.5,140.145Z" transform="translate(-1516.59 275.142)"/>
      <path id="Path_1766" data-name="Path 1766" d="M1685,140.145a3.3,3.3,0,1,0-3.294-3.3A3.3,3.3,0,0,0,1685,140.145Z" transform="translate(-1495.934 275.142)"/>
      <circle id="Ellipse_196" data-name="Ellipse 196" cx="3.298" cy="3.298" r="3.298" transform="translate(222.922 408.693)"/>
      <path id="Path_1767" data-name="Path 1767" d="M1718,140.145a3.3,3.3,0,1,0-3.3-3.3A3.3,3.3,0,0,0,1718,140.145Z" transform="translate(-1454.628 275.142)"/>
      <path id="Path_1768" data-name="Path 1768" d="M1734.5,140.145a3.3,3.3,0,1,0-3.294-3.3A3.3,3.3,0,0,0,1734.5,140.145Z" transform="translate(-1433.973 275.142)"/>
      <path id="Path_1769" data-name="Path 1769" d="M1751,140.145a3.3,3.3,0,1,0-3.3-3.3A3.3,3.3,0,0,0,1751,140.145Z" transform="translate(-1413.32 275.142)"/>
      <path id="Path_1770" data-name="Path 1770" d="M1767.5,140.145a3.3,3.3,0,1,0-3.295-3.3A3.3,3.3,0,0,0,1767.5,140.145Z" transform="translate(-1392.665 275.142)"/>
      <circle id="Ellipse_197" data-name="Ellipse 197" cx="3.298" cy="3.298" r="3.298" transform="translate(408.691 408.693)"/>
      <path id="Path_1771" data-name="Path 1771" d="M1800.5,140.145a3.3,3.3,0,1,0-3.3-3.3A3.3,3.3,0,0,0,1800.5,140.145Z" transform="translate(-1351.359 275.142)"/>
      <path id="Path_1772" data-name="Path 1772" d="M1817,140.145a3.3,3.3,0,1,0-3.295-3.3A3.3,3.3,0,0,0,1817,140.145Z" transform="translate(-1330.703 275.142)"/>
      <path id="Path_1773" data-name="Path 1773" d="M1833.5,140.145a3.3,3.3,0,1,0-3.3-3.3A3.3,3.3,0,0,0,1833.5,140.145Z" transform="translate(-1310.051 275.142)"/>
      <path id="Path_1774" data-name="Path 1774" d="M1850,140.145a3.3,3.3,0,1,0-3.295-3.3A3.3,3.3,0,0,0,1850,140.145Z" transform="translate(-1289.395 275.142)"/>
      <circle id="Ellipse_198" data-name="Ellipse 198" cx="3.298" cy="3.298" r="3.298" transform="translate(594.461 408.693)"/>
      <path id="Path_1775" data-name="Path 1775" d="M1883,140.145a3.3,3.3,0,1,0-3.3-3.3A3.3,3.3,0,0,0,1883,140.145Z" transform="translate(-1248.089 275.142)"/>
      <path id="Path_1776" data-name="Path 1776" d="M1899.5,140.145a3.3,3.3,0,1,0-3.294-3.3A3.3,3.3,0,0,0,1899.5,140.145Z" transform="translate(-1227.434 275.142)"/>
      <path id="Path_1777" data-name="Path 1777" d="M1916,140.145a3.3,3.3,0,1,0-3.3-3.3A3.3,3.3,0,0,0,1916,140.145Z" transform="translate(-1206.781 275.142)"/>
      <path id="Path_1778" data-name="Path 1778" d="M1932.5,140.145a3.3,3.3,0,1,0-3.294-3.3A3.3,3.3,0,0,0,1932.5,140.145Z" transform="translate(-1186.126 275.142)"/>
      <circle id="Ellipse_199" data-name="Ellipse 199" cx="3.298" cy="3.298" r="3.298" transform="translate(780.23 408.693)"/>
      <path id="Path_1779" data-name="Path 1779" d="M1610.748,156.645a3.3,3.3,0,1,0-3.294-3.3A3.3,3.3,0,0,0,1610.748,156.645Z" transform="translate(-1588.877 295.796)"/>
      <path id="Path_1780" data-name="Path 1780" d="M1627.252,156.645a3.3,3.3,0,1,0-3.3-3.3A3.3,3.3,0,0,0,1627.252,156.645Z" transform="translate(-1568.224 295.796)"/>
      <path id="Path_1781" data-name="Path 1781" d="M1643.748,156.645a3.3,3.3,0,1,0-3.294-3.3A3.3,3.3,0,0,0,1643.748,156.645Z" transform="translate(-1547.569 295.796)"/>
      <path id="Path_1782" data-name="Path 1782" d="M1660.252,156.645a3.3,3.3,0,1,0-3.3-3.3A3.3,3.3,0,0,0,1660.252,156.645Z" transform="translate(-1526.916 295.796)"/>
      <path id="Path_1783" data-name="Path 1783" d="M1676.751,156.645a3.3,3.3,0,1,0-3.3-3.3A3.3,3.3,0,0,0,1676.751,156.645Z" transform="translate(-1506.262 295.796)"/>
      <path id="Path_1784" data-name="Path 1784" d="M1693.248,156.645a3.3,3.3,0,1,0-3.295-3.3A3.3,3.3,0,0,0,1693.248,156.645Z" transform="translate(-1485.607 295.796)"/>
      <path id="Path_1785" data-name="Path 1785" d="M1709.752,156.645a3.3,3.3,0,1,0-3.3-3.3A3.3,3.3,0,0,0,1709.752,156.645Z" transform="translate(-1464.955 295.796)"/>
      <path id="Path_1786" data-name="Path 1786" d="M1726.248,156.645a3.3,3.3,0,1,0-3.294-3.3A3.3,3.3,0,0,0,1726.248,156.645Z" transform="translate(-1444.3 295.796)"/>
      <path id="Path_1787" data-name="Path 1787" d="M1742.751,156.645a3.3,3.3,0,1,0-3.3-3.3A3.3,3.3,0,0,0,1742.751,156.645Z" transform="translate(-1423.647 295.796)"/>
      <path id="Path_1788" data-name="Path 1788" d="M1759.252,156.645a3.3,3.3,0,1,0-3.3-3.3A3.3,3.3,0,0,0,1759.252,156.645Z" transform="translate(-1402.993 295.796)"/>
      <path id="Path_1789" data-name="Path 1789" d="M1775.748,156.645a3.3,3.3,0,1,0-3.294-3.3A3.3,3.3,0,0,0,1775.748,156.645Z" transform="translate(-1382.338 295.796)"/>
      <path id="Path_1790" data-name="Path 1790" d="M1792.251,156.645a3.3,3.3,0,1,0-3.3-3.3A3.3,3.3,0,0,0,1792.251,156.645Z" transform="translate(-1361.685 295.796)"/>
      <path id="Path_1791" data-name="Path 1791" d="M1808.748,156.645a3.3,3.3,0,1,0-3.294-3.3A3.3,3.3,0,0,0,1808.748,156.645Z" transform="translate(-1341.03 295.796)"/>
      <path id="Path_1792" data-name="Path 1792" d="M1825.252,156.645a3.3,3.3,0,1,0-3.3-3.3A3.3,3.3,0,0,0,1825.252,156.645Z" transform="translate(-1320.378 295.796)"/>
      <path id="Path_1793" data-name="Path 1793" d="M1841.752,156.645a3.3,3.3,0,1,0-3.3-3.3A3.3,3.3,0,0,0,1841.752,156.645Z" transform="translate(-1299.724 295.796)"/>
      <path id="Path_1794" data-name="Path 1794" d="M1858.248,156.645a3.3,3.3,0,1,0-3.294-3.3A3.3,3.3,0,0,0,1858.248,156.645Z" transform="translate(-1279.068 295.796)"/>
      <path id="Path_1795" data-name="Path 1795" d="M1874.752,156.645a3.3,3.3,0,1,0-3.3-3.3A3.3,3.3,0,0,0,1874.752,156.645Z" transform="translate(-1258.416 295.796)"/>
      <path id="Path_1796" data-name="Path 1796" d="M1891.248,156.645a3.3,3.3,0,1,0-3.294-3.3A3.3,3.3,0,0,0,1891.248,156.645Z" transform="translate(-1237.761 295.796)"/>
      <path id="Path_1797" data-name="Path 1797" d="M1907.751,156.645a3.3,3.3,0,1,0-3.3-3.3A3.3,3.3,0,0,0,1907.751,156.645Z" transform="translate(-1217.108 295.796)"/>
      <path id="Path_1798" data-name="Path 1798" d="M1924.252,156.645a3.3,3.3,0,1,0-3.3-3.3A3.3,3.3,0,0,0,1924.252,156.645Z" transform="translate(-1196.454 295.796)"/>
      <path id="Path_1799" data-name="Path 1799" d="M1940.748,156.645a3.3,3.3,0,1,0-3.294-3.3A3.3,3.3,0,0,0,1940.748,156.645Z" transform="translate(-1175.799 295.796)"/>
      <path id="Path_1800" data-name="Path 1800" d="M1957.252,156.645a3.3,3.3,0,1,0-3.3-3.3A3.3,3.3,0,0,0,1957.252,156.645Z" transform="translate(-1155.146 295.796)"/>
      <path id="Path_1801" data-name="Path 1801" d="M1602.5,173.145a3.3,3.3,0,1,0-3.294-3.3A3.3,3.3,0,0,0,1602.5,173.145Z" transform="translate(-1599.204 316.45)"/>
      <path id="Path_1802" data-name="Path 1802" d="M1619,173.145a3.3,3.3,0,1,0-3.3-3.3A3.3,3.3,0,0,0,1619,173.145Z" transform="translate(-1578.551 316.45)"/>
      <path id="Path_1803" data-name="Path 1803" d="M1635.5,173.145a3.3,3.3,0,1,0-3.3-3.3A3.3,3.3,0,0,0,1635.5,173.145Z" transform="translate(-1557.897 316.45)"/>
      <path id="Path_1804" data-name="Path 1804" d="M1652,173.145a3.3,3.3,0,1,0-3.294-3.3A3.3,3.3,0,0,0,1652,173.145Z" transform="translate(-1537.242 316.45)"/>
      <path id="Path_1805" data-name="Path 1805" d="M1668.5,173.145a3.3,3.3,0,1,0-3.3-3.3A3.295,3.295,0,0,0,1668.5,173.145Z" transform="translate(-1516.59 316.45)"/>
      <path id="Path_1806" data-name="Path 1806" d="M1685,173.145a3.3,3.3,0,1,0-3.294-3.3A3.3,3.3,0,0,0,1685,173.145Z" transform="translate(-1495.934 316.45)"/>
      <path id="Path_1807" data-name="Path 1807" d="M1701.5,173.145a3.3,3.3,0,1,0-3.3-3.3A3.3,3.3,0,0,0,1701.5,173.145Z" transform="translate(-1475.281 316.45)"/>
      <path id="Path_1808" data-name="Path 1808" d="M1718,173.145a3.3,3.3,0,1,0-3.3-3.3A3.3,3.3,0,0,0,1718,173.145Z" transform="translate(-1454.628 316.45)"/>
      <path id="Path_1809" data-name="Path 1809" d="M1734.5,173.145a3.3,3.3,0,1,0-3.294-3.3A3.3,3.3,0,0,0,1734.5,173.145Z" transform="translate(-1433.973 316.45)"/>
      <path id="Path_1810" data-name="Path 1810" d="M1751,173.145a3.3,3.3,0,1,0-3.3-3.3A3.3,3.3,0,0,0,1751,173.145Z" transform="translate(-1413.32 316.45)"/>
      <path id="Path_1811" data-name="Path 1811" d="M1767.5,173.145a3.3,3.3,0,1,0-3.295-3.3A3.3,3.3,0,0,0,1767.5,173.145Z" transform="translate(-1392.665 316.45)"/>
      <path id="Path_1812" data-name="Path 1812" d="M1784,173.145a3.3,3.3,0,1,0-3.3-3.3A3.3,3.3,0,0,0,1784,173.145Z" transform="translate(-1372.012 316.45)"/>
      <path id="Path_1813" data-name="Path 1813" d="M1800.5,173.145a3.3,3.3,0,1,0-3.3-3.3A3.3,3.3,0,0,0,1800.5,173.145Z" transform="translate(-1351.359 316.45)"/>
      <path id="Path_1814" data-name="Path 1814" d="M1817,173.145a3.3,3.3,0,1,0-3.295-3.3A3.3,3.3,0,0,0,1817,173.145Z" transform="translate(-1330.703 316.45)"/>
      <path id="Path_1815" data-name="Path 1815" d="M1833.5,173.145a3.3,3.3,0,1,0-3.3-3.3A3.295,3.295,0,0,0,1833.5,173.145Z" transform="translate(-1310.051 316.45)"/>
      <path id="Path_1816" data-name="Path 1816" d="M1850,173.145a3.3,3.3,0,1,0-3.295-3.3A3.3,3.3,0,0,0,1850,173.145Z" transform="translate(-1289.395 316.45)"/>
      <path id="Path_1817" data-name="Path 1817" d="M1866.5,173.145a3.3,3.3,0,1,0-3.3-3.3A3.295,3.295,0,0,0,1866.5,173.145Z" transform="translate(-1268.743 316.45)"/>
      <path id="Path_1818" data-name="Path 1818" d="M1883,173.145a3.3,3.3,0,1,0-3.3-3.3A3.3,3.3,0,0,0,1883,173.145Z" transform="translate(-1248.089 316.45)"/>
      <path id="Path_1819" data-name="Path 1819" d="M1899.5,173.145a3.3,3.3,0,1,0-3.294-3.3A3.3,3.3,0,0,0,1899.5,173.145Z" transform="translate(-1227.434 316.45)"/>
      <path id="Path_1820" data-name="Path 1820" d="M1916,173.145a3.3,3.3,0,1,0-3.3-3.3A3.295,3.295,0,0,0,1916,173.145Z" transform="translate(-1206.781 316.45)"/>
      <path id="Path_1821" data-name="Path 1821" d="M1932.5,173.145a3.3,3.3,0,1,0-3.294-3.3A3.3,3.3,0,0,0,1932.5,173.145Z" transform="translate(-1186.126 316.45)"/>
      <path id="Path_1822" data-name="Path 1822" d="M1949,173.145a3.3,3.3,0,1,0-3.3-3.3A3.295,3.295,0,0,0,1949,173.145Z" transform="translate(-1165.473 316.45)"/>
      <path id="Path_1823" data-name="Path 1823" d="M1610.748,189.645a3.3,3.3,0,1,0-3.294-3.3A3.3,3.3,0,0,0,1610.748,189.645Z" transform="translate(-1588.877 337.104)"/>
      <path id="Path_1824" data-name="Path 1824" d="M1627.252,189.645a3.3,3.3,0,1,0-3.3-3.3A3.295,3.295,0,0,0,1627.252,189.645Z" transform="translate(-1568.224 337.104)"/>
      <path id="Path_1825" data-name="Path 1825" d="M1643.748,189.645a3.3,3.3,0,1,0-3.294-3.3A3.3,3.3,0,0,0,1643.748,189.645Z" transform="translate(-1547.569 337.104)"/>
      <path id="Path_1826" data-name="Path 1826" d="M1660.252,189.645a3.3,3.3,0,1,0-3.3-3.3A3.3,3.3,0,0,0,1660.252,189.645Z" transform="translate(-1526.916 337.104)"/>
      <path id="Path_1827" data-name="Path 1827" d="M1676.751,189.645a3.3,3.3,0,1,0-3.3-3.3A3.3,3.3,0,0,0,1676.751,189.645Z" transform="translate(-1506.262 337.104)"/>
      <path id="Path_1828" data-name="Path 1828" d="M1693.248,189.645a3.3,3.3,0,1,0-3.295-3.3A3.3,3.3,0,0,0,1693.248,189.645Z" transform="translate(-1485.607 337.104)"/>
      <path id="Path_1829" data-name="Path 1829" d="M1709.752,189.645a3.3,3.3,0,1,0-3.3-3.3A3.295,3.295,0,0,0,1709.752,189.645Z" transform="translate(-1464.955 337.104)"/>
      <path id="Path_1830" data-name="Path 1830" d="M1726.248,189.645a3.3,3.3,0,1,0-3.294-3.3A3.3,3.3,0,0,0,1726.248,189.645Z" transform="translate(-1444.3 337.104)"/>
      <path id="Path_1831" data-name="Path 1831" d="M1742.751,189.645a3.3,3.3,0,1,0-3.3-3.3A3.3,3.3,0,0,0,1742.751,189.645Z" transform="translate(-1423.647 337.104)"/>
      <path id="Path_1832" data-name="Path 1832" d="M1759.252,189.645a3.3,3.3,0,1,0-3.3-3.3A3.3,3.3,0,0,0,1759.252,189.645Z" transform="translate(-1402.993 337.104)"/>
      <path id="Path_1833" data-name="Path 1833" d="M1775.748,189.645a3.3,3.3,0,1,0-3.294-3.3A3.3,3.3,0,0,0,1775.748,189.645Z" transform="translate(-1382.338 337.104)"/>
      <path id="Path_1834" data-name="Path 1834" d="M1792.251,189.645a3.3,3.3,0,1,0-3.3-3.3A3.295,3.295,0,0,0,1792.251,189.645Z" transform="translate(-1361.685 337.104)"/>
      <path id="Path_1835" data-name="Path 1835" d="M1808.748,189.645a3.3,3.3,0,1,0-3.294-3.3A3.3,3.3,0,0,0,1808.748,189.645Z" transform="translate(-1341.03 337.104)"/>
      <path id="Path_1836" data-name="Path 1836" d="M1825.252,189.645a3.3,3.3,0,1,0-3.3-3.3A3.295,3.295,0,0,0,1825.252,189.645Z" transform="translate(-1320.378 337.104)"/>
      <path id="Path_1837" data-name="Path 1837" d="M1841.752,189.645a3.3,3.3,0,1,0-3.3-3.3A3.3,3.3,0,0,0,1841.752,189.645Z" transform="translate(-1299.724 337.104)"/>
      <path id="Path_1838" data-name="Path 1838" d="M1858.248,189.645a3.3,3.3,0,1,0-3.294-3.3A3.3,3.3,0,0,0,1858.248,189.645Z" transform="translate(-1279.068 337.104)"/>
      <path id="Path_1839" data-name="Path 1839" d="M1874.752,189.645a3.3,3.3,0,1,0-3.3-3.3A3.295,3.295,0,0,0,1874.752,189.645Z" transform="translate(-1258.416 337.104)"/>
      <path id="Path_1840" data-name="Path 1840" d="M1891.248,189.645a3.3,3.3,0,1,0-3.294-3.3A3.3,3.3,0,0,0,1891.248,189.645Z" transform="translate(-1237.761 337.104)"/>
      <path id="Path_1841" data-name="Path 1841" d="M1907.751,189.645a3.3,3.3,0,1,0-3.3-3.3A3.3,3.3,0,0,0,1907.751,189.645Z" transform="translate(-1217.108 337.104)"/>
      <path id="Path_1842" data-name="Path 1842" d="M1924.252,189.645a3.3,3.3,0,1,0-3.3-3.3A3.3,3.3,0,0,0,1924.252,189.645Z" transform="translate(-1196.454 337.104)"/>
      <path id="Path_1843" data-name="Path 1843" d="M1940.748,189.645a3.3,3.3,0,1,0-3.294-3.3A3.3,3.3,0,0,0,1940.748,189.645Z" transform="translate(-1175.799 337.104)"/>
      <path id="Path_1844" data-name="Path 1844" d="M1957.252,189.645a3.3,3.3,0,1,0-3.3-3.3A3.295,3.295,0,0,0,1957.252,189.645Z" transform="translate(-1155.146 337.104)"/>
      <path id="Path_1845" data-name="Path 1845" d="M1602.5,206.145a3.3,3.3,0,1,0-3.294-3.3A3.3,3.3,0,0,0,1602.5,206.145Z" transform="translate(-1599.204 357.758)"/>
      <circle id="Ellipse_200" data-name="Ellipse 200" cx="3.298" cy="3.298" r="3.298" transform="translate(37.152 557.309)"/>
      <path id="Path_1846" data-name="Path 1846" d="M1635.5,206.145a3.3,3.3,0,1,0-3.3-3.3A3.3,3.3,0,0,0,1635.5,206.145Z" transform="translate(-1557.897 357.758)"/>
      <path id="Path_1847" data-name="Path 1847" d="M1652,206.145a3.3,3.3,0,1,0-3.294-3.3A3.3,3.3,0,0,0,1652,206.145Z" transform="translate(-1537.242 357.758)"/>
      <path id="Path_1848" data-name="Path 1848" d="M1668.5,206.145a3.3,3.3,0,1,0-3.3-3.3A3.295,3.295,0,0,0,1668.5,206.145Z" transform="translate(-1516.59 357.758)"/>
      <path id="Path_1849" data-name="Path 1849" d="M1685,206.145a3.3,3.3,0,1,0-3.294-3.3A3.3,3.3,0,0,0,1685,206.145Z" transform="translate(-1495.934 357.758)"/>
      <circle id="Ellipse_201" data-name="Ellipse 201" cx="3.298" cy="3.298" r="3.298" transform="translate(222.922 557.309)"/>
      <path id="Path_1850" data-name="Path 1850" d="M1718,206.145a3.3,3.3,0,1,0-3.3-3.3A3.3,3.3,0,0,0,1718,206.145Z" transform="translate(-1454.628 357.758)"/>
      <path id="Path_1851" data-name="Path 1851" d="M1734.5,206.145a3.3,3.3,0,1,0-3.294-3.3A3.3,3.3,0,0,0,1734.5,206.145Z" transform="translate(-1433.973 357.758)"/>
      <path id="Path_1852" data-name="Path 1852" d="M1751,206.145a3.3,3.3,0,1,0-3.3-3.3A3.3,3.3,0,0,0,1751,206.145Z" transform="translate(-1413.32 357.758)"/>
      <path id="Path_1853" data-name="Path 1853" d="M1767.5,206.145a3.3,3.3,0,1,0-3.295-3.3A3.3,3.3,0,0,0,1767.5,206.145Z" transform="translate(-1392.665 357.758)"/>
      <circle id="Ellipse_202" data-name="Ellipse 202" cx="3.298" cy="3.298" r="3.298" transform="translate(408.691 557.309)"/>
      <path id="Path_1854" data-name="Path 1854" d="M1800.5,206.145a3.3,3.3,0,1,0-3.3-3.3A3.3,3.3,0,0,0,1800.5,206.145Z" transform="translate(-1351.359 357.758)"/>
      <path id="Path_1855" data-name="Path 1855" d="M1817,206.145a3.3,3.3,0,1,0-3.295-3.3A3.3,3.3,0,0,0,1817,206.145Z" transform="translate(-1330.703 357.758)"/>
      <path id="Path_1856" data-name="Path 1856" d="M1833.5,206.145a3.3,3.3,0,1,0-3.3-3.3A3.295,3.295,0,0,0,1833.5,206.145Z" transform="translate(-1310.051 357.758)"/>
      <path id="Path_1857" data-name="Path 1857" d="M1850,206.145a3.3,3.3,0,1,0-3.295-3.3A3.3,3.3,0,0,0,1850,206.145Z" transform="translate(-1289.395 357.758)"/>
      <circle id="Ellipse_203" data-name="Ellipse 203" cx="3.298" cy="3.298" r="3.298" transform="translate(594.461 557.309)"/>
      <path id="Path_1858" data-name="Path 1858" d="M1883,206.145a3.3,3.3,0,1,0-3.3-3.3A3.3,3.3,0,0,0,1883,206.145Z" transform="translate(-1248.089 357.758)"/>
      <path id="Path_1859" data-name="Path 1859" d="M1899.5,206.145a3.3,3.3,0,1,0-3.294-3.3A3.3,3.3,0,0,0,1899.5,206.145Z" transform="translate(-1227.434 357.758)"/>
      <path id="Path_1860" data-name="Path 1860" d="M1916,206.145a3.3,3.3,0,1,0-3.3-3.3A3.295,3.295,0,0,0,1916,206.145Z" transform="translate(-1206.781 357.758)"/>
      <path id="Path_1861" data-name="Path 1861" d="M1932.5,206.145a3.3,3.3,0,1,0-3.294-3.3A3.3,3.3,0,0,0,1932.5,206.145Z" transform="translate(-1186.126 357.758)"/>
      <circle id="Ellipse_204" data-name="Ellipse 204" cx="3.298" cy="3.298" r="3.298" transform="translate(780.23 557.309)"/>
      <path id="Path_1862" data-name="Path 1862" d="M1610.748,222.645a3.3,3.3,0,1,0-3.294-3.3A3.3,3.3,0,0,0,1610.748,222.645Z" transform="translate(-1588.877 378.411)"/>
      <path id="Path_1863" data-name="Path 1863" d="M1627.252,222.645a3.3,3.3,0,1,0-3.3-3.3A3.3,3.3,0,0,0,1627.252,222.645Z" transform="translate(-1568.224 378.411)"/>
      <path id="Path_1864" data-name="Path 1864" d="M1643.748,222.645a3.3,3.3,0,1,0-3.294-3.3A3.3,3.3,0,0,0,1643.748,222.645Z" transform="translate(-1547.569 378.411)"/>
      <circle id="Ellipse_205" data-name="Ellipse 205" cx="3.298" cy="3.298" r="3.298" transform="translate(130.037 594.462)"/>
      <path id="Path_1865" data-name="Path 1865" d="M1676.751,222.645a3.3,3.3,0,1,0-3.3-3.3A3.3,3.3,0,0,0,1676.751,222.645Z" transform="translate(-1506.262 378.411)"/>
      <path id="Path_1866" data-name="Path 1866" d="M1693.248,222.645a3.3,3.3,0,1,0-3.295-3.3A3.3,3.3,0,0,0,1693.248,222.645Z" transform="translate(-1485.607 378.411)"/>
      <path id="Path_1867" data-name="Path 1867" d="M1709.752,222.645a3.3,3.3,0,1,0-3.3-3.3A3.3,3.3,0,0,0,1709.752,222.645Z" transform="translate(-1464.955 378.411)"/>
      <path id="Path_1868" data-name="Path 1868" d="M1726.248,222.645a3.3,3.3,0,1,0-3.294-3.3A3.3,3.3,0,0,0,1726.248,222.645Z" transform="translate(-1444.3 378.411)"/>
      <circle id="Ellipse_206" data-name="Ellipse 206" cx="3.298" cy="3.298" r="3.298" transform="translate(315.806 594.462)"/>
      <path id="Path_1869" data-name="Path 1869" d="M1759.252,222.645a3.3,3.3,0,1,0-3.3-3.3A3.3,3.3,0,0,0,1759.252,222.645Z" transform="translate(-1402.993 378.411)"/>
      <path id="Path_1870" data-name="Path 1870" d="M1775.748,222.645a3.3,3.3,0,1,0-3.294-3.3A3.3,3.3,0,0,0,1775.748,222.645Z" transform="translate(-1382.338 378.411)"/>
      <path id="Path_1871" data-name="Path 1871" d="M1792.251,222.645a3.3,3.3,0,1,0-3.3-3.3A3.3,3.3,0,0,0,1792.251,222.645Z" transform="translate(-1361.685 378.411)"/>
      <path id="Path_1872" data-name="Path 1872" d="M1808.748,222.645a3.3,3.3,0,1,0-3.294-3.3A3.3,3.3,0,0,0,1808.748,222.645Z" transform="translate(-1341.03 378.411)"/>
      <circle id="Ellipse_207" data-name="Ellipse 207" cx="3.298" cy="3.298" r="3.298" transform="translate(501.576 594.462)"/>
      <path id="Path_1873" data-name="Path 1873" d="M1841.752,222.645a3.3,3.3,0,1,0-3.3-3.3A3.3,3.3,0,0,0,1841.752,222.645Z" transform="translate(-1299.724 378.411)"/>
      <path id="Path_1874" data-name="Path 1874" d="M1858.248,222.645a3.3,3.3,0,1,0-3.294-3.3A3.3,3.3,0,0,0,1858.248,222.645Z" transform="translate(-1279.068 378.411)"/>
      <path id="Path_1875" data-name="Path 1875" d="M1874.752,222.645a3.3,3.3,0,1,0-3.3-3.3A3.3,3.3,0,0,0,1874.752,222.645Z" transform="translate(-1258.416 378.411)"/>
      <path id="Path_1876" data-name="Path 1876" d="M1891.248,222.645a3.3,3.3,0,1,0-3.294-3.3A3.3,3.3,0,0,0,1891.248,222.645Z" transform="translate(-1237.761 378.411)"/>
      <circle id="Ellipse_208" data-name="Ellipse 208" cx="3.298" cy="3.298" r="3.298" transform="translate(687.346 594.462)"/>
      <path id="Path_1877" data-name="Path 1877" d="M1924.252,222.645a3.3,3.3,0,1,0-3.3-3.3A3.3,3.3,0,0,0,1924.252,222.645Z" transform="translate(-1196.454 378.411)"/>
      <path id="Path_1878" data-name="Path 1878" d="M1940.748,222.645a3.3,3.3,0,1,0-3.294-3.3A3.3,3.3,0,0,0,1940.748,222.645Z" transform="translate(-1175.799 378.411)"/>
      <path id="Path_1879" data-name="Path 1879" d="M1957.252,222.645a3.3,3.3,0,1,0-3.3-3.3A3.3,3.3,0,0,0,1957.252,222.645Z" transform="translate(-1155.146 378.411)"/>
      <path id="Path_1880" data-name="Path 1880" d="M1602.5,239.145a3.3,3.3,0,1,0-3.294-3.3A3.3,3.3,0,0,0,1602.5,239.145Z" transform="translate(-1599.204 399.065)"/>
      <path id="Path_1881" data-name="Path 1881" d="M1619,239.145a3.3,3.3,0,1,0-3.3-3.3A3.3,3.3,0,0,0,1619,239.145Z" transform="translate(-1578.551 399.065)"/>
      <path id="Path_1882" data-name="Path 1882" d="M1635.5,239.145a3.3,3.3,0,1,0-3.3-3.3A3.3,3.3,0,0,0,1635.5,239.145Z" transform="translate(-1557.897 399.065)"/>
      <path id="Path_1883" data-name="Path 1883" d="M1652,239.145a3.3,3.3,0,1,0-3.294-3.3A3.3,3.3,0,0,0,1652,239.145Z" transform="translate(-1537.242 399.065)"/>
      <path id="Path_1884" data-name="Path 1884" d="M1668.5,239.145a3.3,3.3,0,1,0-3.3-3.3A3.3,3.3,0,0,0,1668.5,239.145Z" transform="translate(-1516.59 399.065)"/>
      <path id="Path_1885" data-name="Path 1885" d="M1685,239.145a3.3,3.3,0,1,0-3.294-3.3A3.3,3.3,0,0,0,1685,239.145Z" transform="translate(-1495.934 399.065)"/>
      <path id="Path_1886" data-name="Path 1886" d="M1701.5,239.145a3.3,3.3,0,1,0-3.3-3.3A3.3,3.3,0,0,0,1701.5,239.145Z" transform="translate(-1475.281 399.065)"/>
      <path id="Path_1887" data-name="Path 1887" d="M1718,239.145a3.3,3.3,0,1,0-3.3-3.3A3.3,3.3,0,0,0,1718,239.145Z" transform="translate(-1454.628 399.065)"/>
      <path id="Path_1888" data-name="Path 1888" d="M1734.5,239.145a3.3,3.3,0,1,0-3.294-3.3A3.3,3.3,0,0,0,1734.5,239.145Z" transform="translate(-1433.973 399.065)"/>
      <path id="Path_1889" data-name="Path 1889" d="M1751,239.145a3.3,3.3,0,1,0-3.3-3.3A3.3,3.3,0,0,0,1751,239.145Z" transform="translate(-1413.32 399.065)"/>
      <path id="Path_1890" data-name="Path 1890" d="M1767.5,239.145a3.3,3.3,0,1,0-3.295-3.3A3.3,3.3,0,0,0,1767.5,239.145Z" transform="translate(-1392.665 399.065)"/>
      <path id="Path_1891" data-name="Path 1891" d="M1784,239.145a3.3,3.3,0,1,0-3.3-3.3A3.3,3.3,0,0,0,1784,239.145Z" transform="translate(-1372.012 399.065)"/>
      <path id="Path_1892" data-name="Path 1892" d="M1800.5,239.145a3.3,3.3,0,1,0-3.3-3.3A3.3,3.3,0,0,0,1800.5,239.145Z" transform="translate(-1351.359 399.065)"/>
      <path id="Path_1893" data-name="Path 1893" d="M1817,239.145a3.3,3.3,0,1,0-3.295-3.3A3.3,3.3,0,0,0,1817,239.145Z" transform="translate(-1330.703 399.065)"/>
      <path id="Path_1894" data-name="Path 1894" d="M1833.5,239.145a3.3,3.3,0,1,0-3.3-3.3A3.3,3.3,0,0,0,1833.5,239.145Z" transform="translate(-1310.051 399.065)"/>
      <path id="Path_1895" data-name="Path 1895" d="M1850,239.145a3.3,3.3,0,1,0-3.295-3.3A3.3,3.3,0,0,0,1850,239.145Z" transform="translate(-1289.395 399.065)"/>
      <path id="Path_1896" data-name="Path 1896" d="M1866.5,239.145a3.3,3.3,0,1,0-3.3-3.3A3.3,3.3,0,0,0,1866.5,239.145Z" transform="translate(-1268.743 399.065)"/>
      <path id="Path_1897" data-name="Path 1897" d="M1883,239.145a3.3,3.3,0,1,0-3.3-3.3A3.3,3.3,0,0,0,1883,239.145Z" transform="translate(-1248.089 399.065)"/>
      <path id="Path_1898" data-name="Path 1898" d="M1899.5,239.145a3.3,3.3,0,1,0-3.294-3.3A3.3,3.3,0,0,0,1899.5,239.145Z" transform="translate(-1227.434 399.065)"/>
      <path id="Path_1899" data-name="Path 1899" d="M1916,239.145a3.3,3.3,0,1,0-3.3-3.3A3.3,3.3,0,0,0,1916,239.145Z" transform="translate(-1206.781 399.065)"/>
      <path id="Path_1900" data-name="Path 1900" d="M1932.5,239.145a3.3,3.3,0,1,0-3.294-3.3A3.3,3.3,0,0,0,1932.5,239.145Z" transform="translate(-1186.126 399.065)"/>
      <path id="Path_1901" data-name="Path 1901" d="M1949,239.145a3.3,3.3,0,1,0-3.3-3.3A3.3,3.3,0,0,0,1949,239.145Z" transform="translate(-1165.473 399.065)"/>
      <path id="Path_1902" data-name="Path 1902" d="M1610.748,255.645a3.3,3.3,0,1,0-3.294-3.3A3.3,3.3,0,0,0,1610.748,255.645Z" transform="translate(-1588.877 419.719)"/>
      <path id="Path_1903" data-name="Path 1903" d="M1627.252,255.645a3.3,3.3,0,1,0-3.3-3.3A3.295,3.295,0,0,0,1627.252,255.645Z" transform="translate(-1568.224 419.719)"/>
      <path id="Path_1904" data-name="Path 1904" d="M1643.748,255.645a3.3,3.3,0,1,0-3.294-3.3A3.3,3.3,0,0,0,1643.748,255.645Z" transform="translate(-1547.569 419.719)"/>
      <path id="Path_1905" data-name="Path 1905" d="M1660.252,255.645a3.3,3.3,0,1,0-3.3-3.3A3.3,3.3,0,0,0,1660.252,255.645Z" transform="translate(-1526.916 419.719)"/>
      <path id="Path_1906" data-name="Path 1906" d="M1676.751,255.645a3.3,3.3,0,1,0-3.3-3.3A3.3,3.3,0,0,0,1676.751,255.645Z" transform="translate(-1506.262 419.719)"/>
      <path id="Path_1907" data-name="Path 1907" d="M1693.248,255.645a3.3,3.3,0,1,0-3.295-3.3A3.3,3.3,0,0,0,1693.248,255.645Z" transform="translate(-1485.607 419.719)"/>
      <path id="Path_1908" data-name="Path 1908" d="M1709.752,255.645a3.3,3.3,0,1,0-3.3-3.3A3.295,3.295,0,0,0,1709.752,255.645Z" transform="translate(-1464.955 419.719)"/>
      <path id="Path_1909" data-name="Path 1909" d="M1726.248,255.645a3.3,3.3,0,1,0-3.294-3.3A3.3,3.3,0,0,0,1726.248,255.645Z" transform="translate(-1444.3 419.719)"/>
      <path id="Path_1910" data-name="Path 1910" d="M1742.751,255.645a3.3,3.3,0,1,0-3.3-3.3A3.3,3.3,0,0,0,1742.751,255.645Z" transform="translate(-1423.647 419.719)"/>
      <path id="Path_1911" data-name="Path 1911" d="M1759.252,255.645a3.3,3.3,0,1,0-3.3-3.3A3.3,3.3,0,0,0,1759.252,255.645Z" transform="translate(-1402.993 419.719)"/>
      <path id="Path_1912" data-name="Path 1912" d="M1775.748,255.645a3.3,3.3,0,1,0-3.294-3.3A3.3,3.3,0,0,0,1775.748,255.645Z" transform="translate(-1382.338 419.719)"/>
      <path id="Path_1913" data-name="Path 1913" d="M1792.251,255.645a3.3,3.3,0,1,0-3.3-3.3A3.295,3.295,0,0,0,1792.251,255.645Z" transform="translate(-1361.685 419.719)"/>
      <path id="Path_1914" data-name="Path 1914" d="M1808.748,255.645a3.3,3.3,0,1,0-3.294-3.3A3.3,3.3,0,0,0,1808.748,255.645Z" transform="translate(-1341.03 419.719)"/>
      <path id="Path_1915" data-name="Path 1915" d="M1825.252,255.645a3.3,3.3,0,1,0-3.3-3.3A3.295,3.295,0,0,0,1825.252,255.645Z" transform="translate(-1320.378 419.719)"/>
      <path id="Path_1916" data-name="Path 1916" d="M1841.752,255.645a3.3,3.3,0,1,0-3.3-3.3A3.3,3.3,0,0,0,1841.752,255.645Z" transform="translate(-1299.724 419.719)"/>
      <path id="Path_1917" data-name="Path 1917" d="M1858.248,255.645a3.3,3.3,0,1,0-3.294-3.3A3.3,3.3,0,0,0,1858.248,255.645Z" transform="translate(-1279.068 419.719)"/>
      <path id="Path_1918" data-name="Path 1918" d="M1874.752,255.645a3.3,3.3,0,1,0-3.3-3.3A3.295,3.295,0,0,0,1874.752,255.645Z" transform="translate(-1258.416 419.719)"/>
      <path id="Path_1919" data-name="Path 1919" d="M1891.248,255.645a3.3,3.3,0,1,0-3.294-3.3A3.3,3.3,0,0,0,1891.248,255.645Z" transform="translate(-1237.761 419.719)"/>
      <path id="Path_1920" data-name="Path 1920" d="M1907.751,255.645a3.3,3.3,0,1,0-3.3-3.3A3.3,3.3,0,0,0,1907.751,255.645Z" transform="translate(-1217.108 419.719)"/>
      <path id="Path_1921" data-name="Path 1921" d="M1924.252,255.645a3.3,3.3,0,1,0-3.3-3.3A3.3,3.3,0,0,0,1924.252,255.645Z" transform="translate(-1196.454 419.719)"/>
      <path id="Path_1922" data-name="Path 1922" d="M1940.748,255.645a3.3,3.3,0,1,0-3.294-3.3A3.3,3.3,0,0,0,1940.748,255.645Z" transform="translate(-1175.799 419.719)"/>
      <path id="Path_1923" data-name="Path 1923" d="M1957.252,255.645a3.3,3.3,0,1,0-3.3-3.3A3.295,3.295,0,0,0,1957.252,255.645Z" transform="translate(-1155.146 419.719)"/>
      <path id="Path_1924" data-name="Path 1924" d="M1602.5,272.145a3.3,3.3,0,1,0-3.294-3.3A3.3,3.3,0,0,0,1602.5,272.145Z" transform="translate(-1599.204 440.373)"/>
      <path id="Path_1925" data-name="Path 1925" d="M1619,272.145a3.3,3.3,0,1,0-3.3-3.3A3.3,3.3,0,0,0,1619,272.145Z" transform="translate(-1578.551 440.373)"/>
      <path id="Path_1926" data-name="Path 1926" d="M1635.5,272.145a3.3,3.3,0,1,0-3.3-3.3A3.3,3.3,0,0,0,1635.5,272.145Z" transform="translate(-1557.897 440.373)"/>
      <path id="Path_1927" data-name="Path 1927" d="M1652,272.145a3.3,3.3,0,1,0-3.294-3.3A3.3,3.3,0,0,0,1652,272.145Z" transform="translate(-1537.242 440.373)"/>
      <path id="Path_1928" data-name="Path 1928" d="M1668.5,272.145a3.3,3.3,0,1,0-3.3-3.3A3.295,3.295,0,0,0,1668.5,272.145Z" transform="translate(-1516.59 440.373)"/>
      <path id="Path_1929" data-name="Path 1929" d="M1685,272.145a3.3,3.3,0,1,0-3.294-3.3A3.3,3.3,0,0,0,1685,272.145Z" transform="translate(-1495.934 440.373)"/>
      <path id="Path_1930" data-name="Path 1930" d="M1701.5,272.145a3.3,3.3,0,1,0-3.3-3.3A3.3,3.3,0,0,0,1701.5,272.145Z" transform="translate(-1475.281 440.373)"/>
      <path id="Path_1931" data-name="Path 1931" d="M1718,272.145a3.3,3.3,0,1,0-3.3-3.3A3.3,3.3,0,0,0,1718,272.145Z" transform="translate(-1454.628 440.373)"/>
      <path id="Path_1932" data-name="Path 1932" d="M1734.5,272.145a3.3,3.3,0,1,0-3.294-3.3A3.3,3.3,0,0,0,1734.5,272.145Z" transform="translate(-1433.973 440.373)"/>
      <path id="Path_1933" data-name="Path 1933" d="M1751,272.145a3.3,3.3,0,1,0-3.3-3.3A3.3,3.3,0,0,0,1751,272.145Z" transform="translate(-1413.32 440.373)"/>
      <path id="Path_1934" data-name="Path 1934" d="M1767.5,272.145a3.3,3.3,0,1,0-3.295-3.3A3.3,3.3,0,0,0,1767.5,272.145Z" transform="translate(-1392.665 440.373)"/>
      <path id="Path_1935" data-name="Path 1935" d="M1784,272.145a3.3,3.3,0,1,0-3.3-3.3A3.3,3.3,0,0,0,1784,272.145Z" transform="translate(-1372.012 440.373)"/>
      <path id="Path_1936" data-name="Path 1936" d="M1800.5,272.145a3.3,3.3,0,1,0-3.3-3.3A3.3,3.3,0,0,0,1800.5,272.145Z" transform="translate(-1351.359 440.373)"/>
      <path id="Path_1937" data-name="Path 1937" d="M1817,272.145a3.3,3.3,0,1,0-3.295-3.3A3.3,3.3,0,0,0,1817,272.145Z" transform="translate(-1330.703 440.373)"/>
      <path id="Path_1938" data-name="Path 1938" d="M1833.5,272.145a3.3,3.3,0,1,0-3.3-3.3A3.295,3.295,0,0,0,1833.5,272.145Z" transform="translate(-1310.051 440.373)"/>
      <path id="Path_1939" data-name="Path 1939" d="M1850,272.145a3.3,3.3,0,1,0-3.295-3.3A3.3,3.3,0,0,0,1850,272.145Z" transform="translate(-1289.395 440.373)"/>
      <path id="Path_1940" data-name="Path 1940" d="M1866.5,272.145a3.3,3.3,0,1,0-3.3-3.3A3.295,3.295,0,0,0,1866.5,272.145Z" transform="translate(-1268.743 440.373)"/>
      <path id="Path_1941" data-name="Path 1941" d="M1883,272.145a3.3,3.3,0,1,0-3.3-3.3A3.3,3.3,0,0,0,1883,272.145Z" transform="translate(-1248.089 440.373)"/>
      <path id="Path_1942" data-name="Path 1942" d="M1899.5,272.145a3.3,3.3,0,1,0-3.294-3.3A3.3,3.3,0,0,0,1899.5,272.145Z" transform="translate(-1227.434 440.373)"/>
      <path id="Path_1943" data-name="Path 1943" d="M1916,272.145a3.3,3.3,0,1,0-3.3-3.3A3.295,3.295,0,0,0,1916,272.145Z" transform="translate(-1206.781 440.373)"/>
      <path id="Path_1944" data-name="Path 1944" d="M1932.5,272.145a3.3,3.3,0,1,0-3.294-3.3A3.3,3.3,0,0,0,1932.5,272.145Z" transform="translate(-1186.126 440.373)"/>
      <path id="Path_1945" data-name="Path 1945" d="M1949,272.145a3.3,3.3,0,1,0-3.3-3.3A3.3,3.3,0,0,0,1949,272.145Z" transform="translate(-1165.473 440.373)"/>
      <path id="Path_1946" data-name="Path 1946" d="M1610.748,288.645a3.3,3.3,0,1,0-3.294-3.3A3.3,3.3,0,0,0,1610.748,288.645Z" transform="translate(-1588.877 461.027)"/>
      <path id="Path_1947" data-name="Path 1947" d="M1627.252,288.645a3.3,3.3,0,1,0-3.3-3.3A3.295,3.295,0,0,0,1627.252,288.645Z" transform="translate(-1568.224 461.027)"/>
      <path id="Path_1948" data-name="Path 1948" d="M1643.748,288.645a3.3,3.3,0,1,0-3.294-3.3A3.3,3.3,0,0,0,1643.748,288.645Z" transform="translate(-1547.569 461.027)"/>
      <circle id="Ellipse_209" data-name="Ellipse 209" cx="3.298" cy="3.298" r="3.298" transform="translate(130.037 743.078)"/>
      <path id="Path_1949" data-name="Path 1949" d="M1676.751,288.645a3.3,3.3,0,1,0-3.3-3.3A3.3,3.3,0,0,0,1676.751,288.645Z" transform="translate(-1506.262 461.027)"/>
      <path id="Path_1950" data-name="Path 1950" d="M1693.248,288.645a3.3,3.3,0,1,0-3.295-3.3A3.3,3.3,0,0,0,1693.248,288.645Z" transform="translate(-1485.607 461.027)"/>
      <path id="Path_1951" data-name="Path 1951" d="M1709.752,288.645a3.3,3.3,0,1,0-3.3-3.3A3.295,3.295,0,0,0,1709.752,288.645Z" transform="translate(-1464.955 461.027)"/>
      <path id="Path_1952" data-name="Path 1952" d="M1726.248,288.645a3.3,3.3,0,1,0-3.294-3.3A3.3,3.3,0,0,0,1726.248,288.645Z" transform="translate(-1444.3 461.027)"/>
      <circle id="Ellipse_210" data-name="Ellipse 210" cx="3.298" cy="3.298" r="3.298" transform="translate(315.806 743.078)"/>
      <path id="Path_1953" data-name="Path 1953" d="M1759.252,288.645a3.3,3.3,0,1,0-3.3-3.3A3.3,3.3,0,0,0,1759.252,288.645Z" transform="translate(-1402.993 461.027)"/>
      <path id="Path_1954" data-name="Path 1954" d="M1775.748,288.645a3.3,3.3,0,1,0-3.294-3.3A3.3,3.3,0,0,0,1775.748,288.645Z" transform="translate(-1382.338 461.027)"/>
      <path id="Path_1955" data-name="Path 1955" d="M1792.251,288.645a3.3,3.3,0,1,0-3.3-3.3A3.295,3.295,0,0,0,1792.251,288.645Z" transform="translate(-1361.685 461.027)"/>
      <path id="Path_1956" data-name="Path 1956" d="M1808.748,288.645a3.3,3.3,0,1,0-3.294-3.3A3.3,3.3,0,0,0,1808.748,288.645Z" transform="translate(-1341.03 461.027)"/>
      <circle id="Ellipse_211" data-name="Ellipse 211" cx="3.298" cy="3.298" r="3.298" transform="translate(501.576 743.078)"/>
      <path id="Path_1957" data-name="Path 1957" d="M1841.752,288.645a3.3,3.3,0,1,0-3.3-3.3A3.3,3.3,0,0,0,1841.752,288.645Z" transform="translate(-1299.724 461.027)"/>
      <path id="Path_1958" data-name="Path 1958" d="M1858.248,288.645a3.3,3.3,0,1,0-3.294-3.3A3.3,3.3,0,0,0,1858.248,288.645Z" transform="translate(-1279.068 461.027)"/>
      <path id="Path_1959" data-name="Path 1959" d="M1874.752,288.645a3.3,3.3,0,1,0-3.3-3.3A3.295,3.295,0,0,0,1874.752,288.645Z" transform="translate(-1258.416 461.027)"/>
      <path id="Path_1960" data-name="Path 1960" d="M1891.248,288.645a3.3,3.3,0,1,0-3.294-3.3A3.3,3.3,0,0,0,1891.248,288.645Z" transform="translate(-1237.761 461.027)"/>
      <circle id="Ellipse_212" data-name="Ellipse 212" cx="3.298" cy="3.298" r="3.298" transform="translate(687.346 743.078)"/>
      <path id="Path_1961" data-name="Path 1961" d="M1924.252,288.645a3.3,3.3,0,1,0-3.3-3.3A3.3,3.3,0,0,0,1924.252,288.645Z" transform="translate(-1196.454 461.027)"/>
      <path id="Path_1962" data-name="Path 1962" d="M1940.748,288.645a3.3,3.3,0,1,0-3.294-3.3A3.3,3.3,0,0,0,1940.748,288.645Z" transform="translate(-1175.799 461.027)"/>
      <path id="Path_1963" data-name="Path 1963" d="M1957.252,288.645a3.3,3.3,0,1,0-3.3-3.3A3.295,3.295,0,0,0,1957.252,288.645Z" transform="translate(-1155.146 461.027)"/>
      <path id="Path_1964" data-name="Path 1964" d="M1602.5,305.145a3.3,3.3,0,1,0-3.294-3.3A3.3,3.3,0,0,0,1602.5,305.145Z" transform="translate(-1599.204 481.681)"/>
      <circle id="Ellipse_213" data-name="Ellipse 213" cx="3.298" cy="3.298" r="3.298" transform="translate(37.152 780.232)"/>
      <path id="Path_1965" data-name="Path 1965" d="M1635.5,305.145a3.3,3.3,0,1,0-3.3-3.3A3.3,3.3,0,0,0,1635.5,305.145Z" transform="translate(-1557.897 481.681)"/>
      <path id="Path_1966" data-name="Path 1966" d="M1652,305.145a3.3,3.3,0,1,0-3.294-3.3A3.3,3.3,0,0,0,1652,305.145Z" transform="translate(-1537.242 481.681)"/>
      <path id="Path_1967" data-name="Path 1967" d="M1668.5,305.145a3.3,3.3,0,1,0-3.3-3.3A3.3,3.3,0,0,0,1668.5,305.145Z" transform="translate(-1516.59 481.681)"/>
      <path id="Path_1968" data-name="Path 1968" d="M1685,305.145a3.3,3.3,0,1,0-3.294-3.3A3.3,3.3,0,0,0,1685,305.145Z" transform="translate(-1495.934 481.681)"/>
      <circle id="Ellipse_214" data-name="Ellipse 214" cx="3.298" cy="3.298" r="3.298" transform="translate(222.922 780.232)"/>
      <path id="Path_1969" data-name="Path 1969" d="M1718,305.145a3.3,3.3,0,1,0-3.3-3.3A3.3,3.3,0,0,0,1718,305.145Z" transform="translate(-1454.628 481.681)"/>
      <path id="Path_1970" data-name="Path 1970" d="M1734.5,305.145a3.3,3.3,0,1,0-3.294-3.3A3.3,3.3,0,0,0,1734.5,305.145Z" transform="translate(-1433.973 481.681)"/>
      <path id="Path_1971" data-name="Path 1971" d="M1751,305.145a3.3,3.3,0,1,0-3.3-3.3A3.3,3.3,0,0,0,1751,305.145Z" transform="translate(-1413.32 481.681)"/>
      <path id="Path_1972" data-name="Path 1972" d="M1767.5,305.145a3.3,3.3,0,1,0-3.295-3.3A3.3,3.3,0,0,0,1767.5,305.145Z" transform="translate(-1392.665 481.681)"/>
      <circle id="Ellipse_215" data-name="Ellipse 215" cx="3.298" cy="3.298" r="3.298" transform="translate(408.691 780.232)"/>
      <path id="Path_1973" data-name="Path 1973" d="M1800.5,305.145a3.3,3.3,0,1,0-3.3-3.3A3.3,3.3,0,0,0,1800.5,305.145Z" transform="translate(-1351.359 481.681)"/>
      <path id="Path_1974" data-name="Path 1974" d="M1817,305.145a3.3,3.3,0,1,0-3.295-3.3A3.3,3.3,0,0,0,1817,305.145Z" transform="translate(-1330.703 481.681)"/>
      <path id="Path_1975" data-name="Path 1975" d="M1833.5,305.145a3.3,3.3,0,1,0-3.3-3.3A3.3,3.3,0,0,0,1833.5,305.145Z" transform="translate(-1310.051 481.681)"/>
      <path id="Path_1976" data-name="Path 1976" d="M1850,305.145a3.3,3.3,0,1,0-3.295-3.3A3.3,3.3,0,0,0,1850,305.145Z" transform="translate(-1289.395 481.681)"/>
      <circle id="Ellipse_216" data-name="Ellipse 216" cx="3.298" cy="3.298" r="3.298" transform="translate(594.461 780.232)"/>
      <path id="Path_1977" data-name="Path 1977" d="M1883,305.145a3.3,3.3,0,1,0-3.3-3.3A3.3,3.3,0,0,0,1883,305.145Z" transform="translate(-1248.089 481.681)"/>
      <path id="Path_1978" data-name="Path 1978" d="M1899.5,305.145a3.3,3.3,0,1,0-3.294-3.3A3.3,3.3,0,0,0,1899.5,305.145Z" transform="translate(-1227.434 481.681)"/>
      <path id="Path_1979" data-name="Path 1979" d="M1916,305.145a3.3,3.3,0,1,0-3.3-3.3A3.3,3.3,0,0,0,1916,305.145Z" transform="translate(-1206.781 481.681)"/>
      <path id="Path_1980" data-name="Path 1980" d="M1932.5,305.145a3.3,3.3,0,1,0-3.294-3.3A3.3,3.3,0,0,0,1932.5,305.145Z" transform="translate(-1186.126 481.681)"/>
      <circle id="Ellipse_217" data-name="Ellipse 217" cx="3.298" cy="3.298" r="3.298" transform="translate(780.23 780.232)"/>
    </g>
  </g>
</svg>
