<svg xmlns="http://www.w3.org/2000/svg" width="233.752" height="232.102" viewBox="0 0 233.752 232.102">
  <g id="Group_220" data-name="Group 220" transform="translate(-901.29 -3779.93)">
    <g id="Group_218" data-name="Group 218" transform="translate(782.958 3495.508)">
      <g id="Group" transform="translate(118.331 284.422)">
        <g id="Chair" transform="translate(145.451 92.23)">
          <path id="Path" d="M51.8,73.355V1.18C51.8.536,40.673,0,27.294,0H24.505C11.153,0,0,.536,0,1.18V73.409c0,.643,11.127,1.18,24.505,1.18h2.788C40.646,74.616,51.8,74.052,51.8,73.355Z" transform="translate(27.957 0)" fill="#d8deed"/>
          <path id="Path-2" data-name="Path" d="M.636,59.695l.107.054A1.16,1.16,0,0,0,2.3,59.373L33.694,1.7A1.108,1.108,0,0,0,33.185.2L33.077.147a1.16,1.16,0,0,0-1.555.375L23.747,14.786q-7.6,14-15.229,27.964L.127,58.14A1.177,1.177,0,0,0,.636,59.695Z" transform="translate(0 79.965)" fill="#d8deed"/>
          <path id="Path-3" data-name="Path" d="M74.776,0H1.207A1.214,1.214,0,0,0,0,1.18v.134a1.2,1.2,0,0,0,1.207,1.18H74.83a1.214,1.214,0,0,0,1.207-1.18V1.18A1.226,1.226,0,0,0,74.776,0Z" transform="translate(3.826 79.173)" fill="#d8deed"/>
          <path id="Path-4" data-name="Path" d="M33.694,58.151,25.3,42.762q-7.6-14-15.229-27.964L2.3.534A1.136,1.136,0,0,0,.743.159L.636.213a1.115,1.115,0,0,0-.509,1.5l31.4,57.671a1.136,1.136,0,0,0,1.555.375l.107-.054A1.177,1.177,0,0,0,33.694,58.151Z" transform="translate(54.48 79.953)" fill="#d8deed"/>
        </g>
        <g id="UI_Code_1" data-name="UI / Code / 1">
          <g id="Code">
            <path id="Path-5" data-name="Path" d="M87.78,59.521H5.845A5.6,5.6,0,0,1,0,54.223V5.3A5.6,5.6,0,0,1,5.845,0H87.78a5.6,5.6,0,0,1,5.845,5.3V54.2A5.608,5.608,0,0,1,87.78,59.521Z" transform="translate(25.176 13.995)" fill="#f2f6fb"/>
            <path id="Top_bar" data-name="Top bar" d="M11.529,0H82.042A11.529,11.529,0,0,1,93.571,11.529v0a0,0,0,0,1,0,0H0a0,0,0,0,1,0,0v0A11.529,11.529,0,0,1,11.529,0Z" transform="translate(25.203 8.311)" fill="#e1e5f0"/>
            <g id="Text" transform="translate(38.072 32.978)">
              <path id="Combined_Shape" data-name="Combined Shape" d="M33.179,28.822a1.541,1.541,0,1,1,0-3.082H43.5a1.541,1.541,0,1,1,0,3.082Zm-15.818,0a1.541,1.541,0,1,1,0-3.082H27.682a1.541,1.541,0,1,1,0,3.082Zm-15.818,0a1.541,1.541,0,1,1,0-3.082H11.864a1.541,1.541,0,1,1,0,3.082Zm43.434-8.579a1.542,1.542,0,0,1,0-3.083H66.559a1.542,1.542,0,1,1,0,3.083Zm-18.768,0a1.542,1.542,0,1,1,0-3.083H30.1a1.542,1.542,0,1,1,0,3.083ZM49,11.663A1.542,1.542,0,1,1,49,8.58H66.559a1.542,1.542,0,1,1,0,3.083Zm-15.819,0a1.542,1.542,0,1,1,0-3.083H43.5a1.542,1.542,0,1,1,0,3.083Zm-15.818,0a1.542,1.542,0,0,1,0-3.083H27.682a1.542,1.542,0,0,1,0,3.083Zm-15.818,0a1.542,1.542,0,1,1,0-3.083H11.864a1.542,1.542,0,1,1,0,3.083Zm43.434-8.58a1.542,1.542,0,0,1,0-3.083H66.559a1.542,1.542,0,1,1,0,3.083Zm-9.384,0a1.542,1.542,0,0,1,0-3.083h3.888a1.542,1.542,0,1,1,0,3.083Zm-34.05,0A1.542,1.542,0,0,1,1.542,0h19.17a1.542,1.542,0,1,1,0,3.083Z" fill="#e1e5f0"/>
              <path id="Code-2" data-name="Code" d="M35.591,3.083a1.542,1.542,0,0,1,0-3.083h3.888a1.542,1.542,0,1,1,0,3.083Zm-34.05,0A1.542,1.542,0,0,1,1.542,0h19.17a1.542,1.542,0,1,1,0,3.083Z" transform="translate(0 17.159)" fill="#a339ff"/>
              <path id="Code-3" data-name="Code" d="M24.332,28.822a1.541,1.541,0,1,1,0-3.082H41.892a1.541,1.541,0,1,1,0,3.082ZM1.542,3.083A1.542,1.542,0,0,1,1.542,0H5.43a1.542,1.542,0,0,1,0,3.083Z" transform="translate(24.666)" fill="#ff5645"/>
            </g>
            <g id="Code-4" data-name="Code">
              <rect id="Placeholder" width="44.238" height="27.616" rx="13.808" fill="#2c2c2c"/>
              <path id="Path-6" data-name="Path" d="M8.939,0,0,7.192l9.384,5.141" transform="translate(5.362 7.507)" fill="none" stroke="#fff" stroke-linecap="round" stroke-linejoin="round" stroke-miterlimit="10" stroke-width="3"/>
              <path id="Path-7" data-name="Path" d="M.412,12.333,9.384,6.18,0,0" transform="translate(28.688 7.507)" fill="none" stroke="#fff" stroke-linecap="round" stroke-linejoin="round" stroke-miterlimit="10" stroke-width="3"/>
              <path id="Path_Copy_2" data-name="Path Copy 2" d="M0,17.966,4.084,0" transform="translate(19.572 4.926)" fill="none" stroke="#fff" stroke-linecap="round" stroke-linejoin="round" stroke-miterlimit="10" stroke-width="3"/>
            </g>
          </g>
        </g>
        <g id="Table_3" data-name="Table / 3" transform="translate(69.567 139.364)">
          <path id="Combined_Shape-2" data-name="Combined Shape" d="M0,89.768V1.9A1.77,1.77,0,0,1,1.405.164,1.766,1.766,0,0,1,2.152,0h150.4a1.773,1.773,0,1,1,0,3.545H3.539V89.768a1.769,1.769,0,1,1-3.539,0Z" transform="translate(0 0)" fill="#d8deed"/>
        </g>
      </g>
      <g id="Woman_2" data-name="Woman 2" transform="translate(214.926 339.595)">
        <g id="Legs" transform="translate(0 82.612)">
          <path id="Base" d="M71.008,19.445l0-.149a1.063,1.063,0,0,1,1.058-1.021l13.587-.031L109.875.19A.92.92,0,0,1,110.423,0a1.092,1.092,0,0,1,.909.411l.073.125a1,1,0,0,1-.2,1.433L86.567,20.435l-14.512.043A1.064,1.064,0,0,1,71.008,19.445Zm-69.894.982a1.114,1.114,0,0,1,0-2.228H40.975a1.114,1.114,0,0,1,0,2.228Z" transform="translate(0 71.823)" fill="#a339ff"/>
          <path id="Shoes" d="M70.874,30.932h0a2.3,2.3,0,0,1-.046-.5c.009-.059.016-.121.022-.186a2.407,2.407,0,0,1,.061-.382,6.023,6.023,0,0,1,1.83-2.668,31.1,31.1,0,0,1,3.475-1.871c1.856-.888,3.183-1.384,4.354-1.822.314-.118.607-.227.894-.338.216-.369.4-.723.578-1.081.248-.527.476-1.066.7-1.647A24.147,24.147,0,0,0,83.827,16.3l1.205-3.767.472-1.478L100.6,0l8.845,12.617a.967.967,0,0,0-.455.184L84.776,30.857l-13.587.031h-.018a1,1,0,0,0-.3.044Zm-30.314-.02h0a1.1,1.1,0,0,0-.464-.1H.234A1.121,1.121,0,0,0,0,30.835c0-.026,0-.052.007-.079a2.4,2.4,0,0,1,.054-.376,5.853,5.853,0,0,1,1.807-2.674A34.017,34.017,0,0,1,5.334,25.8C7.2,24.9,8.526,24.391,9.7,23.943a19.762,19.762,0,0,0,4.452-2.178,23.662,23.662,0,0,0,3.317-2.749,41.737,41.737,0,0,1,5.175-3.367H44.33L40.56,30.911Z" transform="translate(0.88 59.322)" fill="#474961"/>
          <path id="Legs-2" data-name="Legs" d="M21.851,67.732,2.193,64.81A2.571,2.571,0,0,1,.237,61.2c3.639-8,8.269-20.6,12.206-29.067,1.015-2.179,1.981-4.333,2.872-6.363q.213-.483.44-1a24.265,24.265,0,0,1-3.112-5.319,15.273,15.273,0,0,1-1.609-6.561A12.7,12.7,0,0,1,16.827,2.41,11.26,11.26,0,0,1,22.274.924C23.933.875,25.839.9,27.969.9c1.112-.009,1.948-.015,2.643,0A14.11,14.11,0,0,1,35.072.066C46.214.041,86.645-.033,87.338.017a9.981,9.981,0,0,1,9.037,5.3.024.024,0,0,1,.025.025,19.99,19.99,0,0,1,1.337,3.169,27.823,27.823,0,0,1,1.089,10.027,19.383,19.383,0,0,1-2.476,8.74,17.036,17.036,0,0,1-9.681,7.576c-3.813,1.288-7.551.693-12.156.272h-.049c-.173-.025-.52-.1-.941-.173l-.842-.149c-.471-.1-.891-.173-1.089-.2h-.049c-4.259-.767-8.047-1.461-11.835-2.179l-.173-.025-.914-.178q.955,1.326,1.906,2.671c1.634,2.3,3.219,4.6,4.754,6.883l6.214,8.789a2.838,2.838,0,0,1-.941,4.06L62.9,59.379l-6.932,4.605-1.362.867a3.246,3.246,0,0,1-4.06-.644c-2.768-2.883-7.963-9.658-14.484-17.034L35.3,46.31c-3.665,6.831-8.215,15.745-10.873,20.209a2.523,2.523,0,0,1-2.2,1.24A2.687,2.687,0,0,1,21.851,67.732Z" transform="translate(25.611 0)" fill="#ff5a6e"/>
          <path id="Shadow_Legs" data-name="Shadow Legs" d="M41.991,64.414h0a3.473,3.473,0,0,1-2.474-1.1c-1.35-1.406-3.25-3.7-5.655-6.615v0h0c-2.445-2.958-5.488-6.64-8.827-10.418l-.868-.978c1-1.865,1.823-3.365,2.513-4.584.007-.012.71-1.264,2.179-3.59,1.25-1.99,2.574-3.745,3.54-5.026.639-.862,1.4-1.881,2.352-3.07l.03,0h0c1.085.145,2.207.294,3.311.466.7.125,1.419.257,2.111.385.822.152,1.672.309,2.519.457,1.518.276,3.15.575,4.8.895.661.916,1.324,1.845,1.971,2.761,1.536,2.164,3.091,4.416,4.754,6.883l6.214,8.789a2.666,2.666,0,0,1,.449,2.089,2.9,2.9,0,0,1-.467,1.1,3.15,3.15,0,0,1-.923.876l-7.65,4.754-6.932,4.605-1.362.867A2.975,2.975,0,0,1,41.991,64.414ZM4.628,23.74h0a23.8,23.8,0,0,1-3.016-5.187A15.332,15.332,0,0,1,0,11.992,12.886,12.886,0,0,1,.4,9.074,13.386,13.386,0,0,1,1.5,6.2a12.434,12.434,0,0,1,1.8-2.6A11.327,11.327,0,0,1,5.8,1.519,10.82,10.82,0,0,1,10.984.053l.258-.02C12.16.006,13.148,0,13.907,0l1.429,0q.775,0,1.6,0C17.533,0,18.024,0,18.47,0c.283,0,.527,0,.747,0a13.312,13.312,0,0,0-8.111,8.455c0,.007-.1.228-.263.629l0,.009C8.185,15.454,6.095,20.38,4.628,23.74Z" transform="translate(36.643 0.891)" fill="#444" opacity="0.177"/>
          <path id="Shadow" d="M.075.595a24.044,24.044,0,0,0,2.2,2.729A23.683,23.683,0,0,1,4.407,5.967.371.371,0,0,0,5,5.521,24.044,24.044,0,0,0,2.8,2.792,23.683,23.683,0,0,1,.668.148.371.371,0,1,0,.075.595Z" transform="translate(66.601 24.181)" fill="#482d1f"/>
        </g>
        <g id="Body" transform="translate(23.521 0)">
          <path id="Shirt" d="M.588,20.9A13.555,13.555,0,0,1,7.616,4.757a2,2,0,0,1-.253-.5l-.068-.2a2,2,0,0,1,1.24-2.542L12.712.081a2,2,0,0,1,2.543,1.24l.068.2a2,2,0,0,1,.109.689A13.553,13.553,0,0,1,27.972,4.793l.173.115a8.714,8.714,0,0,1,1.671,1.748,13.505,13.505,0,0,1,1.172,1.686c2.669,4.167,5.446,10.57,5.823,13.05h0a1.982,1.982,0,0,1-1.1,1.572l3.817,12.99a33.931,33.931,0,0,1,1.494,8.557c.247,4.7-4.7,5.66-4.7,5.66s-5.81-.059-19.44.218l-.189,0C3.218,50.394.588,20.9.588,20.9Z" transform="translate(54.054 32.557)" fill="#d71e3c"/>
          <path id="Skin" d="M0,145.355l4.528-10.207,19.3,2.868a2.694,2.694,0,0,0,.38.027h.053l-2.577,7.312Zm58.046-11.147,6.838-4.543,7.651-4.754a3.13,3.13,0,0,0,.981-.962l4.447,5.757-15.1,11.053ZM20.788,71.447a9.228,9.228,0,0,1-3.964-.869,4.034,4.034,0,0,1-1.908-2.025c-.5-1.184,2.157-2.72,3.322-3.326l.022-.012c.09-.047,1.2-.336,3.295-.86q-.275-.045-.527-.105a3.51,3.51,0,0,1-1.75-.9,2.211,2.211,0,0,1-.578-1.706l.147-.023c3.116-.478,13.531-2.074,16.71-2.521l-.085.058a9.58,9.58,0,0,1,1.238-.083,8.348,8.348,0,0,1,1.573.147,9.843,9.843,0,0,1,1.876.587c6.278-1.52,11.488-2.776,11.672-2.82l2.341-15.7c.037-.409.091-.827.159-1.242.076.351.168.709.275,1.065l0,.009c.227.621,2.3,6.242,5.033,12.472.51,1.163,1.023,2.3,1.524,3.373q1.839-.265,3.647-.511c3.631-.5,7.06-.975,9.682-1.563.006-.44-.8-9.24-1.048-11.928l15.566.541h.022a53.852,53.852,0,0,1,.449,9.39c-.039,1.141-.05,2.246-.061,3.315a37.842,37.842,0,0,1-.531,7.4A8.1,8.1,0,0,1,85.682,68.8c-.107.076-.206.15-.3.222a4.376,4.376,0,0,1-1.373.765,13.7,13.7,0,0,1-3.1.495c-3.249.251-6.567.374-10.146.374-3.529,0-6.938-.116-10.418-.269,2.31.113,4.562.211,6.851.27-9.161.438-37,.8-44.632.8C21.654,71.461,21.073,71.456,20.788,71.447Zm13.238-5.466c-.018-.026-.034-.053-.05-.079C33.992,65.928,34.008,65.955,34.026,65.981Zm-5.719-1.274.024,0c1.111.1,2.3.215,3.461.33l.87.343-.76-.3-.109-.043c-1.162-.114-2.336-.224-3.472-.331h0l-.149-.014Zm-.152-.014-.46-.043Zm-3.931-.255c.1-.006.192-.014.288-.022Zm37.1-41.377-.689-2.739-.307.158c-1.98,1.055-1.865.968-2.007,1.033a10.437,10.437,0,0,1-3.089.7c-2.083.07-4.892-3.444-6.548-8.771a12.279,12.279,0,0,1-.311-1.312l-.661-4.387a5.394,5.394,0,0,1,.318-2.9A6.229,6.229,0,0,1,48.542,3.8C50.72.131,55.463.256,56.311.266a1.127,1.127,0,0,1,.146,0,1.071,1.071,0,0,0,.152,0A9.685,9.685,0,0,0,59.271,0a.756.756,0,0,1,.814.636l.786,6.291c.086.588,2.267-1.048,2.267-1.048s2.7,1.421,3.271,2.581a3.469,3.469,0,0,1-.3,3.567q-.057.077-.116.148l2.232,8.329a2.022,2.022,0,0,0-.85-.19,1.993,1.993,0,0,0-.652.11L62.55,21.867a2,2,0,0,0-1.224,1.194v0Z" transform="translate(0 12.228)" fill="#f2a98a"/>
          <path id="Shadow_Arm" data-name="Shadow Arm" d="M7.709,31.412c-.91,0-1.491,0-1.776-.014a9.227,9.227,0,0,1-3.964-.869A4.037,4.037,0,0,1,.062,28.5c-.5-1.183,2.157-2.72,3.322-3.326l.022-.012c.09-.047,1.213-.34,3.337-.87a9.8,9.8,0,0,0,1.652.128,14.7,14.7,0,0,0,1.624-.093c1.151.113,2.312.223,3.434.328l.024,0c1.111.1,2.3.215,3.461.33l1.541.608.641.253c.663,1.126,3.721,2.038,6.169,2.6a59.588,59.588,0,0,0,7.982,1.269l.227.016.207.015h.02c.862.062,1.543.11,2.852.152,2.04.085,4.059.187,6.01.286l.075,0,.046,0c3.309.168,6.434.326,9.63.409C43.18,31.049,15.337,31.412,7.709,31.412ZM26.861,20.526h0l-.009,0c-.188-.1-.863-.43-1.646-.739,6.322-1.531,11.587-2.8,11.773-2.844l2.341-15.7c.037-.409.091-.827.159-1.242.076.351.168.709.275,1.065l0,.009c.227.62,2.3,6.241,5.033,12.472C45.315,14.74,45.84,15.9,46.353,17c-2.805.4-4.97.756-7.02,1.142-7.424,1.4-11.685,2.226-12.463,2.378l-.009,0Z" transform="translate(14.855 52.277)" fill="#8c2a00" opacity="0.2"/>
          <path id="Eyes" d="M.006,1.1C.044.749.206.632.4.612a.61.61,0,0,1,.645.455c.093.413.24,1.095.025,1.416A.211.211,0,0,1,.884,2.6C.522,2.6-.068,1.768.006,1.1ZM4.374.493c.038-.353.2-.469.4-.49a.61.61,0,0,1,.645.455A2.077,2.077,0,0,1,5.44,1.875a.211.211,0,0,1-.189.119C4.89,1.994,4.3,1.159,4.374.493Z" transform="translate(48.335 23.433)" fill="#482d1f"/>
          <path id="Mouth" d="M1.634.731c.173-.05.594-.2.668-.47,0-.05.025-.124,0-.173C2.2-.061,1.882.013,1.436.063A7.689,7.689,0,0,1,0,.063,2.989,2.989,0,0,0,.322.682C.569,1.078,1.362.806,1.634.731Z" transform="matrix(0.995, -0.105, 0.105, 0.995, 51.34, 28.437)" fill="#482d1f"/>
          <path id="Hair" d="M18.657,27.828l0,0c-.042-.062-.424-.626-.832-1.368-.205-.374-.39-.742-.549-1.1a3.492,3.492,0,0,0,1.461-1.192,3.409,3.409,0,0,0,.28-3.49A3.146,3.146,0,0,0,16.344,18.9a2.151,2.151,0,0,0-.4.037,2.634,2.634,0,0,0-1.2.59l-.011.009a5.108,5.108,0,0,0-1.073,1.54l0-.108a10.777,10.777,0,0,1-2.219-.887,10.9,10.9,0,0,1-4.018-3.735,9.732,9.732,0,0,1-2.7.69,9.348,9.348,0,0,1-.976.051c-.244,0-.489-.01-.729-.029a5.256,5.256,0,0,1-1.283-.313c-.178-.06-.346-.117-.512-.162l-.005-.007c-.019-.042.084-.215.167-.353a.893.893,0,0,0,.105-.2,6.883,6.883,0,0,1,3.181-2.8,10.355,10.355,0,0,1,2.757-.8,6.379,6.379,0,0,1-3.5-4.908C3.554,3.842,6.714.5,11,.051s8.069,2.161,8.455,5.833A6.439,6.439,0,0,1,16.8,11.611a9.712,9.712,0,0,1,.983-.057,5.311,5.311,0,0,1,1.923.34,5.648,5.648,0,0,1,2.024,1.256,6.92,6.92,0,0,1,1.939,3.516,11.344,11.344,0,0,1,.271,2.727v.1a10.132,10.132,0,0,1-1.931,5.555A8.268,8.268,0,0,1,19.653,27.4a2.911,2.911,0,0,1-1,.424ZM.293,22.8a.311.311,0,0,1-.227-.5A1.786,1.786,0,0,1,1.1,21.717c1-.155,2.175.319,1.127.778a3.813,3.813,0,0,1-1.614.312C.5,22.806.389,22.8.293,22.8Zm4.777-.5a.3.3,0,0,1-.2-.5,1.8,1.8,0,0,1,1.059-.584c1-.155,2.177.344,1.127.778a4,4,0,0,1-1.667.315C5.273,22.3,5.166,22.3,5.07,22.3Z" transform="translate(47.044 0)" fill="#de6903"/>
          <path id="Shadow-2" data-name="Shadow" d="M.215,2.638,2.668,0,0,1.122Z" transform="matrix(0.995, -0.105, 0.105, 0.995, 60.515, 31.43)" fill="#482d1f"/>
          <path id="Shadow-3" data-name="Shadow" d="M7.535,24.112,4.193,22.75a.371.371,0,0,1,.28-.688l3.342,1.362a.371.371,0,1,1-.28.688ZM2.913,10.405A17.451,17.451,0,0,1,0,.364.371.371,0,1,1,.746.379,16.711,16.711,0,0,0,3.532,10a.371.371,0,1,1-.619.41Z" transform="translate(70.191 44.756)" fill="#482d1f"/>
          <path id="Path_2" data-name="Path 2" d="M.5.5" transform="translate(54.934 43.142)" fill="none" stroke="#979797" stroke-miterlimit="10" stroke-width="1"/>
          <path id="Nose" d="M.559,4.932l-.1-.008A.566.566,0,0,1,0,4.358L0,4.33.3,1.7.248.256A.248.248,0,0,1,.743.239L.792,1.7v.036L.5,4.367c0,.037.024.065.018.065l.077.006c.247.016.43.018,1.092.018a.248.248,0,0,1,0,.5C1.009,4.952.821,4.949.559,4.932Z" transform="matrix(0.995, -0.105, 0.105, 0.995, 50.21, 22.894)" fill="#482d1f"/>
        </g>
      </g>
      <g id="Interior_Devices_Laptop" data-name="Interior / Devices / Laptop" transform="translate(229.865 384.575)">
        <g id="Laptop_2" data-name="Laptop 2" transform="translate(0 0)">
          <path id="Laptop" d="M53.587,39.256a1.534,1.534,0,0,0,1.53-1.555,1.551,1.551,0,0,0-1.53-1.554H16.073L3,1.008A1.545,1.545,0,0,0,.1,2.08L13.543,38.211a1.6,1.6,0,0,0,1.476,1.045Z" transform="translate(0 0)" fill="#474961"/>
        </g>
      </g>
    </g>
  </g>
</svg>
